<svg width="11" height="18" viewBox="0 0 11 18" fill="none" xmlns="http://www.w3.org/2000/svg">
<path d="M10.5039 7.84658L2.92908 0.271927C2.75389 0.0965929 2.52001 0 2.27064 0C2.02127 0 1.7874 0.0965929 1.61221 0.271927L1.05438 0.82962C0.691391 1.19302 0.691391 1.78365 1.05438 2.14649L7.41512 8.50723L1.04732 14.875C0.872122 15.0504 0.775391 15.2841 0.775391 15.5333C0.775391 15.7828 0.872122 16.0166 1.04732 16.192L1.60515 16.7496C1.78048 16.9249 2.01422 17.0215 2.26359 17.0215C2.51296 17.0215 2.74683 16.9249 2.92202 16.7496L10.5039 9.16803C10.6795 8.99214 10.7759 8.7573 10.7754 8.50765C10.7759 8.25703 10.6795 8.02233 10.5039 7.84658Z" fill="#404040"/>
</svg>
