<svg width="12" height="12" viewBox="0 0 12 12" fill="none" xmlns="http://www.w3.org/2000/svg">
<path d="M7.26871 5.99975L10.9608 9.69197L10.9609 9.69211C11.1143 9.84577 11.1991 10.0515 11.1991 10.2689C11.1991 10.4864 11.1144 10.6922 10.9608 10.8459L10.9607 10.8459L10.6218 11.1848C10.6218 11.1848 10.6217 11.1849 10.6217 11.1849C10.4678 11.3388 10.262 11.4233 10.0448 11.4233H10.0446C9.82738 11.4233 9.62154 11.3388 9.46769 11.1849C9.46767 11.1849 9.46765 11.1848 9.46762 11.1848L5.77556 7.49274L2.08347 11.1847L7.26871 5.99975ZM7.26871 5.99975L10.9609 2.30744L10.9609 2.30738C11.1144 2.15375 11.1991 1.94808 11.1994 1.73083V1.73056C11.1994 1.51314 11.1147 1.30702 10.9606 1.15337L10.622 0.814764C10.468 0.660534 10.262 0.576172 10.0447 0.576172C9.82755 0.576172 9.62164 0.660554 9.4677 0.814703L9.46778 0.814622L9.64455 0.991401L9.46764 0.814763L7.26871 5.99975ZM5.77564 4.50668L2.08362 0.814903L5.77564 4.50668ZM5.77564 4.50668L5.95241 4.68344L5.77564 4.50668ZM5.77564 4.50668L5.59887 4.68345L5.77426 4.85884L5.77564 4.50668ZM0.929462 0.814719C1.08333 0.660463 1.28937 0.576172 1.50637 0.576172C1.7235 0.576172 1.92956 0.660441 2.08346 0.814738L0.929462 0.814719ZM0.929462 0.814719L0.590417 1.15351L0.590351 1.15358C0.272057 1.47187 0.271877 1.98923 0.590349 2.30745C0.590365 2.30746 0.590381 2.30748 0.590397 2.30749C0.590415 2.30751 0.590434 2.30753 0.590452 2.30755L4.28257 5.99975L0.590353 9.69188L0.590212 9.69202C0.436654 9.84582 0.351983 10.0515 0.351983 10.2689C0.351983 10.4863 0.436645 10.6921 0.590281 10.8459L0.590395 10.846L0.929264 11.1847L0.929462 0.814719ZM1.50628 11.4233C1.28934 11.4233 1.0833 11.3389 0.929517 11.1849L1.50628 11.4233ZM1.50628 11.4233C1.72347 11.4233 1.92945 11.3389 2.08326 11.1849L1.50628 11.4233Z" fill="white" stroke="white" stroke-width="0.5"/>
</svg>
