<svg width="16" height="20" viewBox="0 0 16 20" fill="none" xmlns="http://www.w3.org/2000/svg">
<path fill-rule="evenodd" clip-rule="evenodd" d="M0.795568 0.830129C1.30898 0.302046 2.01142 0 2.75 0H9.75C10.0201 0 10.2787 0.109261 10.467 0.302922L15.717 5.70292C15.8985 5.88958 16 6.13966 16 6.4V17.2C16 17.9337 15.7169 18.6427 15.2044 19.1699C14.691 19.698 13.9886 20 13.25 20H2.75C2.01142 20 1.30898 19.698 0.795568 19.1699C0.283085 18.6427 0 17.9337 0 17.2V2.8C0 2.06634 0.283084 1.35726 0.795568 0.830129ZM2.75 2C2.56032 2 2.37252 2.07724 2.22956 2.22429C2.08566 2.37229 2 2.57888 2 2.8V17.2C2 17.4211 2.08566 17.6277 2.22956 17.7757C2.37252 17.9228 2.56032 18 2.75 18H13.25C13.4397 18 13.6275 17.9228 13.7704 17.7757C13.9143 17.6277 14 17.4211 14 17.2V7H10C9.44771 7 9 6.55229 9 6V2H2.75ZM10.75 3.46313L12.6331 5.4H10.75V3.46313ZM4 6C4 5.44772 4.44772 5 5 5H6C6.55228 5 7 5.44772 7 6C7 6.55229 6.55228 7 6 7H5C4.44772 7 4 6.55229 4 6ZM4 10C4 9.44772 4.44772 9 5 9H11C11.5523 9 12 9.44772 12 10C12 10.5523 11.5523 11 11 11H5C4.44772 11 4 10.5523 4 10ZM4 14C4 13.4477 4.44772 13 5 13H11C11.5523 13 12 13.4477 12 14C12 14.5523 11.5523 15 11 15H5C4.44772 15 4 14.5523 4 14Z" fill="#00549F"/>
</svg>
