<svg width="22" height="22" viewBox="0 0 22 22" fill="none" xmlns="http://www.w3.org/2000/svg">
<g clip-path="url(#clip0)">
<path d="M5.88184 4.16536C5.88184 4.20818 5.84848 4.24323 5.80635 4.24593C5.80548 4.24598 5.8046 4.24602 5.80373 4.24605C5.80285 4.24602 5.80198 4.24598 5.80111 4.24593C5.75897 4.24323 5.72562 4.20818 5.72562 4.16536C5.72562 4.12255 5.75897 4.0875 5.80111 4.0848C5.80198 4.08475 5.80285 4.0847 5.80373 4.08468C5.8046 4.0847 5.80548 4.08475 5.80635 4.0848C5.84848 4.0875 5.88184 4.12255 5.88184 4.16536Z" fill="#D20A11" stroke="#D20A11"/>
<path d="M19.8316 3.74609H7.67557C7.44401 3.74609 7.2563 3.9338 7.2563 4.16536C7.2563 4.39693 7.44401 4.58464 7.67557 4.58464H19.8316C19.8533 4.58464 19.8746 4.58627 19.8959 4.58791L18.7244 5.75947H13.2553C13.0237 5.75947 12.836 5.94718 12.836 6.17874C12.836 6.41031 13.0237 6.59802 13.2553 6.59802H17.8858L12.0416 12.4422C11.3434 13.1404 10.2073 13.1405 9.509 12.4422L1.65472 4.58791C1.67602 4.58627 1.69736 4.58464 1.71908 4.58464H3.94121C4.17277 4.58464 4.36048 4.39693 4.36048 4.16536C4.36048 3.9338 4.17277 3.74609 3.94121 3.74609H1.71908C0.794332 3.74609 0.0419922 4.49843 0.0419922 5.42318V16.5775C0.0419922 17.5023 0.794332 18.2546 1.71908 18.2546H19.8316C20.7563 18.2546 21.5087 17.5023 21.5087 16.5775V5.42318C21.5087 4.49843 20.7563 3.74609 19.8316 3.74609ZM0.880534 16.5775V5.42318C0.880534 5.2992 0.90829 5.18184 0.956799 5.07585L6.79229 10.9113L0.909841 16.7938C0.891351 16.7247 0.880534 16.6524 0.880534 16.5775ZM19.8316 17.4161H1.71908C1.64419 17.4161 1.57195 17.4053 1.50282 17.3868L7.38527 11.5043L8.91611 13.0352C9.42867 13.5477 10.102 13.804 10.7753 13.804C11.4487 13.804 12.122 13.5477 12.6346 13.0352L14.1654 11.5043L20.0478 17.3868C19.9787 17.4053 19.9065 17.4161 19.8316 17.4161ZM20.6701 16.5775C20.6701 16.6524 20.6593 16.7247 20.6408 16.7938L14.7584 10.9114L20.5939 5.07585C20.6424 5.18184 20.6701 5.2992 20.6701 5.42318V16.5775Z" fill="#D20A11" stroke="#D20A11" stroke-width="0.5"/>
<path d="M11.5752 6.17904C11.5752 6.2215 11.5424 6.25631 11.5008 6.25952C11.4997 6.2596 11.4987 6.25967 11.4976 6.25971C11.4966 6.25967 11.4955 6.2596 11.4945 6.25952C11.4528 6.25631 11.42 6.2215 11.42 6.17904C11.42 6.13657 11.4528 6.10176 11.4945 6.09855C11.4955 6.09847 11.4966 6.09841 11.4976 6.09837C11.4987 6.09841 11.4997 6.09847 11.5008 6.09855C11.5424 6.10176 11.5752 6.13657 11.5752 6.17904Z" fill="#D20A11" stroke="#D20A11"/>
</g>
<defs>
<clipPath id="clip0">
<rect width="21.4667" height="21.4667" fill="white" transform="translate(0.0419922 0.267578)"/>
</clipPath>
</defs>
</svg>
