<svg width="47" height="46" viewBox="0 0 47 46" fill="none" xmlns="http://www.w3.org/2000/svg">
<g opacity="0.3">
<path d="M41.1667 10.7913H38.2551C38.6391 10.1834 38.8926 9.50118 38.9649 8.77962C39.1957 6.4736 37.9813 4.40641 35.9137 3.48993C34.0132 2.6475 31.8775 2.99188 30.3396 4.38672L26.6631 7.71876C25.947 6.93563 24.9177 6.44344 23.7754 6.44344C22.631 6.44344 21.6001 6.93719 20.8839 7.72274L17.2027 4.38633C15.6623 2.99149 13.5274 2.64844 11.6278 3.4904C9.56078 4.40696 8.3461 6.47485 8.57766 8.78079C8.65008 9.5018 8.90336 10.1838 9.28735 10.7913H6.38406C4.94328 10.7913 3.77539 11.9592 3.77539 13.3999V17.313C3.77539 18.0333 4.35938 18.6174 5.07977 18.6174H42.4711C43.1914 18.6174 43.7755 18.0334 43.7755 17.313V13.3999C43.7754 11.9592 42.6075 10.7913 41.1667 10.7913ZM19.8623 10.3565V10.7913H13.7262C12.1049 10.7913 10.829 9.27985 11.2339 7.59188C11.4123 6.84852 11.9488 6.21485 12.6428 5.89407C13.5958 5.4536 14.6514 5.59501 15.4518 6.31946L19.8634 10.3181C19.8632 10.3309 19.8623 10.3436 19.8623 10.3565ZM36.3765 8.43329C36.2793 9.78899 35.0547 10.7914 33.6956 10.7914H27.6884V10.3566C27.6884 10.3413 27.6875 10.326 27.6874 10.3106C28.6867 9.40469 30.8548 7.43969 32.0306 6.37383C32.6989 5.76813 33.634 5.4854 34.4984 5.74321C35.7388 6.11321 36.4672 7.16805 36.3765 8.43329Z" fill="white"/>
<path d="M6.38379 21.2256V40.3561C6.38379 41.7968 7.55168 42.9647 8.99246 42.9647H21.1664V21.2256H6.38379Z" fill="white"/>
<path d="M26.3838 21.2256V42.9647H38.5577C39.9985 42.9647 41.1664 41.7968 41.1664 40.3561V21.2256H26.3838Z" fill="white"/>
</g>
</svg>
