<svg width="15" height="15" viewBox="0 0 15 15" fill="none" xmlns="http://www.w3.org/2000/svg">
<path d="M10.0589 7.28571C10.0589 8.54464 9.03209 9.57143 7.77316 9.57143C6.51423 9.57143 5.48744 8.54464 5.48744 7.28571C5.48744 6.02679 6.51423 5 7.77316 5C9.03209 5 10.0589 6.02679 10.0589 7.28571ZM11.291 7.28571C11.291 5.33929 9.71959 3.76786 7.77316 3.76786C5.82673 3.76786 4.2553 5.33929 4.2553 7.28571C4.2553 9.23214 5.82673 10.8036 7.77316 10.8036C9.71959 10.8036 11.291 9.23214 11.291 7.28571ZM12.2553 3.625C12.2553 3.16964 11.8892 2.80357 11.4339 2.80357C10.9785 2.80357 10.6124 3.16964 10.6124 3.625C10.6124 4.08036 10.9785 4.44643 11.4339 4.44643C11.8892 4.44643 12.2553 4.08036 12.2553 3.625ZM7.77316 1.66071C8.77316 1.66071 10.916 1.58036 11.8178 1.9375C12.1303 2.0625 12.3624 2.21428 12.6035 2.45536C12.8446 2.69643 12.9964 2.92857 13.1214 3.24107C13.4785 4.14286 13.3982 6.28571 13.3982 7.28571C13.3982 8.28571 13.4785 10.4286 13.1214 11.3304C12.9964 11.6429 12.8446 11.875 12.6035 12.1161C12.3624 12.3571 12.1303 12.5089 11.8178 12.6339C10.916 12.9911 8.77316 12.9107 7.77316 12.9107C6.77316 12.9107 4.6303 12.9911 3.72852 12.6339C3.41602 12.5089 3.18387 12.3571 2.9428 12.1161C2.70173 11.875 2.54994 11.6429 2.42494 11.3304C2.0678 10.4286 2.14816 8.28571 2.14816 7.28571C2.14816 6.28571 2.0678 4.14286 2.42494 3.24107C2.54994 2.92857 2.70173 2.69643 2.9428 2.45536C3.18387 2.21428 3.41602 2.0625 3.72852 1.9375C4.6303 1.58036 6.77316 1.66071 7.77316 1.66071ZM14.6303 7.28571C14.6303 6.33929 14.6392 5.40179 14.5857 4.45536C14.5321 3.35714 14.2821 2.38393 13.4785 1.58036C12.6749 0.776785 11.7017 0.526785 10.6035 0.473214C9.65709 0.419642 8.71959 0.428571 7.77316 0.428571C6.82673 0.428571 5.88923 0.419642 4.9428 0.473214C3.84459 0.526785 2.87137 0.776785 2.0678 1.58036C1.26423 2.38393 1.01423 3.35714 0.960658 4.45536C0.907087 5.40179 0.916016 6.33929 0.916016 7.28571C0.916016 8.23214 0.907087 9.16964 0.960658 10.1161C1.01423 11.2143 1.26423 12.1875 2.0678 12.9911C2.87137 13.7946 3.84459 14.0446 4.9428 14.0982C5.88923 14.1518 6.82673 14.1429 7.77316 14.1429C8.71959 14.1429 9.65709 14.1518 10.6035 14.0982C11.7017 14.0446 12.6749 13.7946 13.4785 12.9911C14.2821 12.1875 14.5321 11.2143 14.5857 10.1161C14.6392 9.16964 14.6303 8.23214 14.6303 7.28571Z" fill="#828282"/>
</svg>
