<svg width="35" height="34" viewBox="0 0 35 34" fill="none" xmlns="http://www.w3.org/2000/svg">
<circle opacity="0.2" cx="17.7754" cy="17" r="17" fill="#D20A11"/>
<circle cx="17.7754" cy="17" r="11" fill="#D20A11"/>
<mask id="path-3-outside-1" maskUnits="userSpaceOnUse" x="11.6015" y="10.826" width="12" height="12" fill="black">
<rect fill="white" x="11.6015" y="10.826" width="12" height="12"/>
<path d="M18.9151 16.9996L22.784 13.1305C22.8904 13.024 22.9491 12.8819 22.9493 12.7304C22.9493 12.5788 22.8906 12.4366 22.784 12.3302L22.4449 11.9913C22.3384 11.8845 22.1963 11.826 22.0446 11.826C21.8932 11.826 21.7511 11.8845 21.6445 11.9913L17.7756 15.8601L13.9065 11.9913C13.8001 11.8845 13.6579 11.826 13.5063 11.826C13.3548 11.826 13.2127 11.8845 13.1062 11.9913L12.767 12.3302C12.5463 12.551 12.5463 12.91 12.767 13.1305L16.636 16.9996L12.767 20.8685C12.6605 20.9752 12.6019 21.1173 12.6019 21.2688C12.6019 21.4203 12.6605 21.5624 12.767 21.669L13.1062 22.008C13.2126 22.1147 13.3548 22.1732 13.5062 22.1732C13.6578 22.1732 13.8 22.1147 13.9064 22.008L17.7755 18.1391L21.6444 22.008C21.751 22.1147 21.8931 22.1732 22.0445 22.1732H22.0447C22.1962 22.1732 22.3383 22.1147 22.4449 22.008L22.7839 21.669C22.8903 21.5625 22.949 21.4203 22.949 21.2688C22.949 21.1173 22.8903 20.9752 22.7839 20.8686L18.9151 16.9996Z"/>
</mask>
<path d="M18.9151 16.9996L22.784 13.1305C22.8904 13.024 22.9491 12.8819 22.9493 12.7304C22.9493 12.5788 22.8906 12.4366 22.784 12.3302L22.4449 11.9913C22.3384 11.8845 22.1963 11.826 22.0446 11.826C21.8932 11.826 21.7511 11.8845 21.6445 11.9913L17.7756 15.8601L13.9065 11.9913C13.8001 11.8845 13.6579 11.826 13.5063 11.826C13.3548 11.826 13.2127 11.8845 13.1062 11.9913L12.767 12.3302C12.5463 12.551 12.5463 12.91 12.767 13.1305L16.636 16.9996L12.767 20.8685C12.6605 20.9752 12.6019 21.1173 12.6019 21.2688C12.6019 21.4203 12.6605 21.5624 12.767 21.669L13.1062 22.008C13.2126 22.1147 13.3548 22.1732 13.5062 22.1732C13.6578 22.1732 13.8 22.1147 13.9064 22.008L17.7755 18.1391L21.6444 22.008C21.751 22.1147 21.8931 22.1732 22.0445 22.1732H22.0447C22.1962 22.1732 22.3383 22.1147 22.4449 22.008L22.7839 21.669C22.8903 21.5625 22.949 21.4203 22.949 21.2688C22.949 21.1173 22.8903 20.9752 22.7839 20.8686L18.9151 16.9996Z" fill="white"/>
<path d="M18.9151 16.9996L22.784 13.1305C22.8904 13.024 22.9491 12.8819 22.9493 12.7304C22.9493 12.5788 22.8906 12.4366 22.784 12.3302L22.4449 11.9913C22.3384 11.8845 22.1963 11.826 22.0446 11.826C21.8932 11.826 21.7511 11.8845 21.6445 11.9913L17.7756 15.8601L13.9065 11.9913C13.8001 11.8845 13.6579 11.826 13.5063 11.826C13.3548 11.826 13.2127 11.8845 13.1062 11.9913L12.767 12.3302C12.5463 12.551 12.5463 12.91 12.767 13.1305L16.636 16.9996L12.767 20.8685C12.6605 20.9752 12.6019 21.1173 12.6019 21.2688C12.6019 21.4203 12.6605 21.5624 12.767 21.669L13.1062 22.008C13.2126 22.1147 13.3548 22.1732 13.5062 22.1732C13.6578 22.1732 13.8 22.1147 13.9064 22.008L17.7755 18.1391L21.6444 22.008C21.751 22.1147 21.8931 22.1732 22.0445 22.1732H22.0447C22.1962 22.1732 22.3383 22.1147 22.4449 22.008L22.7839 21.669C22.8903 21.5625 22.949 21.4203 22.949 21.2688C22.949 21.1173 22.8903 20.9752 22.7839 20.8686L18.9151 16.9996Z" stroke="white" mask="url(#path-3-outside-1)"/>
</svg>
