<svg width="47" height="46" viewBox="0 0 47 46" fill="none" xmlns="http://www.w3.org/2000/svg">
<g opacity="0.3">
<path d="M28.0374 9.30002V0.0908203H8.4704C7.41834 0.0908203 6.56543 0.943728 6.56543 1.99579V44.0951C6.56543 45.1472 7.41834 46.0001 8.4704 46.0001H38.9496C40.0016 46.0001 40.8545 45.1472 40.8545 44.0951V12.8603H31.5977C29.6347 12.8603 28.0374 11.2632 28.0374 9.30002ZM20.3447 36.0957L16.2919 40.1484C16.0293 40.4111 15.6851 40.5424 15.3409 40.5424C14.9968 40.5424 14.6525 40.4112 14.3899 40.1485L12.7074 38.4661C12.1821 37.9408 12.1821 37.0893 12.7074 36.564C13.2326 36.0388 14.0842 36.0388 14.6095 36.564L15.3409 37.2954L18.4427 34.1937C18.9678 33.6684 19.8195 33.6684 20.3448 34.1937C20.87 34.7189 20.87 35.5704 20.3447 36.0957ZM20.3447 27.129L16.2919 31.1818C16.0293 31.4444 15.6851 31.5758 15.3409 31.5758C14.9968 31.5758 14.6525 31.4445 14.3899 31.1819L12.7074 29.4995C12.1821 28.9742 12.1821 28.1226 12.7074 27.5974C13.2326 27.0721 14.0842 27.0721 14.6095 27.5974L15.3409 28.3288L18.4427 25.227C18.9678 24.7018 19.8195 24.7018 20.3448 25.227C20.87 25.7522 20.87 26.6038 20.3447 27.129ZM20.3447 17.4776L16.2919 21.5304C16.0293 21.793 15.6851 21.9243 15.3409 21.9243C14.9968 21.9243 14.6525 21.7931 14.3899 21.5304L12.7074 19.8479C12.1821 19.3226 12.1821 18.471 12.7074 17.9458C13.2326 17.4205 14.0842 17.4205 14.6095 17.9458L15.3409 18.6772L18.4427 15.5755C18.9678 15.0502 19.8195 15.0502 20.3448 15.5755C20.87 16.1008 20.87 16.9523 20.3447 17.4776ZM33.7616 38.5161H25.1536C24.4108 38.5161 23.8086 37.9139 23.8086 37.1711C23.8086 36.4283 24.4108 35.8261 25.1536 35.8261H33.7616C34.5044 35.8261 35.1066 36.4283 35.1066 37.1711C35.1066 37.9139 34.5044 38.5161 33.7616 38.5161ZM23.8086 28.2044C23.8086 27.4616 24.4108 26.8594 25.1536 26.8594H33.7231C34.4659 26.8594 35.0681 27.4616 35.0681 28.2044C35.0681 28.9472 34.4659 29.5494 33.7231 29.5494H25.1536C24.4108 29.5494 23.8086 28.9472 23.8086 28.2044ZM35.0682 19.2378C35.0682 19.9806 34.466 20.5828 33.7232 20.5828H25.1537C24.4109 20.5828 23.8087 19.9806 23.8087 19.2378C23.8087 18.495 24.4109 17.8928 25.1537 17.8928H33.7232C34.466 17.8928 35.0682 18.495 35.0682 19.2378Z" fill="white"/>
<path d="M30.7275 9.29994C30.7275 9.77984 31.1179 10.1702 31.5978 10.1702H40.9854L30.7275 0V9.29994Z" fill="white"/>
</g>
</svg>
