<svg width="35" height="34" viewBox="0 0 35 34" fill="none" xmlns="http://www.w3.org/2000/svg">
<circle opacity="0.2" cx="17.7754" cy="17" r="17" fill="#00A900"/>
<circle cx="17.7754" cy="17" r="11" fill="#00A900"/>
<path d="M21.7689 12.8632L21.769 12.8631C22.0947 12.4773 22.672 12.4222 23.0661 12.7392C23.4668 13.0609 23.525 13.6448 23.1935 14.0384L23.1932 14.0388L17.205 21.1365L21.7689 12.8632ZM21.7689 12.8632L16.4262 19.1953M21.7689 12.8632L16.4262 19.1953M16.4262 19.1953L13.7216 16.5557C13.7216 16.5557 13.7216 16.5557 13.7216 16.5557C13.3601 16.2029 12.7798 16.2029 12.4183 16.5557C12.05 16.9152 12.05 17.5023 12.4183 17.8617L12.7675 17.5039L12.4183 17.8617L15.8385 21.2002C15.8389 21.2007 15.8393 21.2011 15.8397 21.2015C16.0164 21.3751 16.2525 21.4667 16.4921 21.4667L16.4932 21.4667C16.4989 21.4667 16.5165 21.4667 16.5367 21.4657C16.5361 21.4657 16.5356 21.4657 16.535 21.4657L16.4262 19.1953Z" fill="white" stroke="white"/>
</svg>
