<svg width="22" height="22" viewBox="0 0 22 22" fill="none" xmlns="http://www.w3.org/2000/svg">
<g clip-path="url(#clip0)">
<path d="M10.7703 0.267578C7.36935 0.267578 4.60254 3.03443 4.60254 6.4353C4.60254 7.849 5.09179 9.22727 5.98123 10.3222C5.98785 10.3325 5.99498 10.3425 6.00261 10.3522L10.4398 16.0369C10.5192 16.1387 10.6411 16.1982 10.7703 16.1982C10.8994 16.1982 11.0213 16.1386 11.1007 16.0368L15.5592 10.3222C15.5607 10.3202 15.5622 10.3183 15.5637 10.3162C16.45 9.2227 16.9379 7.8451 16.9379 6.4353C16.938 3.03443 14.1712 0.267578 10.7703 0.267578ZM14.9034 9.79945C14.898 9.80599 14.893 9.81257 14.8881 9.81932L10.7702 15.0975L6.69378 9.87504C6.68363 9.85848 6.67223 9.84251 6.65965 9.82725C5.87377 8.87605 5.441 7.67144 5.441 6.4353C5.441 3.49676 7.83172 1.10604 10.7703 1.10604C13.7088 1.10604 16.0995 3.49676 16.0996 6.4353C16.0996 7.65823 15.6747 8.85299 14.9034 9.79945Z" fill="#D20A11" stroke="#D20A11" stroke-width="0.5"/>
<path d="M14.3886 5.45676C14.3231 5.23468 14.0899 5.1078 13.8679 5.17329C13.6458 5.23883 13.5189 5.47194 13.5844 5.69403C13.8892 6.72715 13.6059 7.84162 12.845 8.60247C12.2908 9.15674 11.5538 9.46197 10.77 9.46197C9.98618 9.46197 9.24923 9.15674 8.69495 8.60243C8.14067 8.04815 7.83544 7.31124 7.83544 6.52737C7.83544 5.7435 8.14067 5.00655 8.69499 4.45232C9.4566 3.69067 10.572 3.40762 11.6059 3.71369C11.828 3.77947 12.0612 3.65272 12.1269 3.43072C12.1926 3.20872 12.0659 2.97543 11.8439 2.90973C10.515 2.51637 9.08127 2.8803 8.10214 3.85942C7.38955 4.57206 6.99707 5.51957 6.99707 6.52737C6.99707 7.53517 7.38951 8.48264 8.10214 9.19528C8.81478 9.90791 9.76229 10.3004 10.7701 10.3004C11.7779 10.3004 12.7254 9.90791 13.438 9.19536C14.4161 8.21724 14.7804 6.78468 14.3886 5.45676Z" fill="#D20A11" stroke="#D20A11" stroke-width="0.5"/>
<path d="M13.4448 3.86659L13.4374 3.85912C13.2736 3.6954 13.0082 3.6954 12.8445 3.85912C12.6807 4.02289 12.6807 4.28833 12.8445 4.45201L12.8519 4.45948C12.9337 4.54136 13.041 4.58228 13.1483 4.58228C13.2556 4.58228 13.3629 4.54136 13.4448 4.45948C13.6085 4.29575 13.6085 4.03031 13.4448 3.86659Z" fill="#D20A11" stroke="#D20A11" stroke-width="0.5"/>
<path d="M17.2155 13.0691C16.9956 12.9968 16.7586 13.1163 16.6862 13.3362C16.6138 13.5561 16.7335 13.7931 16.9534 13.8655C19.2799 14.6311 20.6688 15.7782 20.6688 16.9339C20.6688 17.9112 19.6609 18.9 17.9035 19.6467C16.0063 20.4528 13.4748 20.8968 10.7751 20.8968C8.07548 20.8968 5.54393 20.4528 3.64673 19.6467C1.88935 18.9 0.881426 17.9112 0.881426 16.9339C0.881426 16.1155 1.58731 15.2842 2.8691 14.593C4.22339 13.8626 6.14135 13.3337 8.26961 13.1037C8.49979 13.0788 8.66623 12.872 8.64133 12.6418C8.61643 12.4116 8.4096 12.245 8.17946 12.2701C5.94588 12.5115 3.91862 13.0744 2.47109 13.855C0.8826 14.7116 0.0429688 15.7763 0.0429688 16.9339C0.0429688 18.2833 1.20636 19.5207 3.31881 20.4184C5.31744 21.2675 7.96542 21.7352 10.7752 21.7352C13.5849 21.7352 16.2329 21.2675 18.2314 20.4184C20.3439 19.5207 21.5073 18.2833 21.5073 16.9339C21.5073 15.3753 19.943 13.9667 17.2155 13.0691Z" fill="#D20A11" stroke="#D20A11" stroke-width="0.5"/>
<path d="M15.2971 12.566L15.2825 12.563C15.0555 12.5173 14.8344 12.6642 14.7886 12.8911C14.7429 13.1181 14.8897 13.3392 15.1167 13.385L15.1313 13.3879C15.1593 13.3935 15.1871 13.3963 15.2146 13.3963C15.4101 13.3963 15.585 13.2588 15.6251 13.0598C15.6709 12.8329 15.524 12.6118 15.2971 12.566Z" fill="#D20A11" stroke="#D20A11" stroke-width="0.5"/>
<path d="M7.60549 14.3976C7.56008 14.1706 7.33925 14.0234 7.11217 14.0687C7.10274 14.0706 7.09272 14.073 7.08341 14.0755C6.86006 14.1365 6.72837 14.3669 6.78929 14.5903C6.84015 14.7768 7.00912 14.8993 7.19351 14.8993C7.22651 14.8993 7.25992 14.8954 7.2933 14.8872C7.51086 14.8346 7.64981 14.6191 7.60549 14.3976Z" fill="#D20A11" stroke="#D20A11" stroke-width="0.5"/>
<path d="M12.1739 13.7161C11.9429 13.6983 11.7413 13.8705 11.7233 14.1013C11.7052 14.3321 11.8777 14.5339 12.1085 14.552C14.8457 14.7663 16.3035 15.5669 16.3035 16.0624C16.3035 16.3015 15.9224 16.7076 14.8483 17.0653C13.7665 17.4256 12.32 17.624 10.7751 17.624C9.23028 17.624 7.78371 17.4256 6.70195 17.0653C5.62782 16.7076 5.2467 16.3015 5.2467 16.0624C5.2467 15.8439 5.543 15.5684 6.03929 15.3257C6.24725 15.2239 6.33333 14.9728 6.23157 14.7649C6.12981 14.5569 5.87875 14.4708 5.67075 14.5726C4.62727 15.0832 4.4082 15.6646 4.4082 16.0625C4.4082 17.6381 7.61114 18.4626 10.7751 18.4626C13.939 18.4626 17.142 17.6381 17.142 16.0624C17.142 14.6176 14.4658 13.8955 12.1739 13.7161Z" fill="#D20A11" stroke="#D20A11" stroke-width="0.5"/>
</g>
<defs>
<clipPath id="clip0">
<rect width="21.4667" height="21.4667" fill="white" transform="translate(0.0419922 0.267578)"/>
</clipPath>
</defs>
</svg>
