<svg width="11" height="17" viewBox="0 0 11 17" fill="none" xmlns="http://www.w3.org/2000/svg">
<path d="M5.77874 8.38393C8.01088 8.38393 9.83231 6.57143 9.83231 4.33928C9.83231 2.09821 8.01088 0.285713 5.77874 0.285713C3.5466 0.285713 1.72517 2.09821 1.72517 4.33928C1.72517 6.57143 3.5466 8.38393 5.77874 8.38393ZM5.77874 2.33928C6.87695 2.33928 7.76981 3.23214 7.76981 4.33928C7.76981 5.4375 6.87695 6.33036 5.77874 6.33036C4.68052 6.33036 3.78767 5.4375 3.78767 4.33928C3.78767 3.23214 4.68052 2.33928 5.77874 2.33928ZM10.4484 8.875C10.2162 8.41964 9.58231 8.03571 8.74302 8.69643C8.74302 8.69643 7.6091 9.59821 5.77874 9.59821C3.94838 9.59821 2.81445 8.69643 2.81445 8.69643C1.97517 8.03571 1.34124 8.41964 1.1091 8.875C0.716239 9.67857 1.16267 10.0625 2.18052 10.7232C3.0466 11.2768 4.24302 11.4821 5.01088 11.5625L4.36802 12.2054C3.45731 13.1071 2.59124 13.9821 1.9841 14.5893C1.61802 14.9554 1.61802 15.5446 1.9841 15.9018L2.09124 16.0179C2.44838 16.375 3.03767 16.375 3.40374 16.0179L5.78767 13.625C6.69838 14.5357 7.57338 15.4107 8.1716 16.0179C8.53767 16.375 9.12695 16.375 9.49302 16.0179L9.60017 15.9018C9.95731 15.5446 9.95731 14.9554 9.60017 14.5893L7.21624 12.2054L6.56445 11.5625C7.34124 11.4821 8.51981 11.2679 9.37695 10.7232C10.3948 10.0625 10.8412 9.67857 10.4484 8.875Z" fill="#828282"/>
</svg>
