<svg width="22" height="22" viewBox="0 0 22 22" fill="none" xmlns="http://www.w3.org/2000/svg">
<g clip-path="url(#clip0)">
<path d="M9.83222 16.3871C9.67572 16.5435 9.67572 16.7974 9.83222 16.9541C9.98903 17.1106 10.2428 17.1106 10.3992 16.9541C10.556 16.7974 10.556 16.5435 10.3992 16.3871C10.2428 16.2303 9.98903 16.2303 9.83222 16.3871Z" fill="#D20A11" stroke="#D20A11" stroke-width="0.5"/>
<path d="M20.1165 15.6906L17.0717 13.1015C17.0576 13.0896 17.0427 13.0787 17.0272 13.0688C16.2284 12.5603 15.2028 12.6729 14.5331 13.3425L12.873 15.0024C12.758 15.1176 12.5865 15.1516 12.4361 15.0895C10.5615 14.3141 9.02154 13.1467 7.85898 11.62C6.97246 10.4559 6.65287 9.53084 6.61073 9.4005C6.60572 9.37261 6.59773 9.34489 6.58645 9.31778C6.52426 9.16739 6.55825 8.99617 6.67355 8.88118L8.3335 7.22076C9.00321 6.55105 9.11569 5.52541 8.60718 4.72661C8.60311 4.72019 8.59888 4.71392 8.59449 4.70766L6.39564 1.65205C5.70384 0.578782 4.19695 0.416641 3.29256 1.32087L2.96013 1.6533C2.95998 1.65361 2.95966 1.65393 2.95935 1.65408L1.77251 2.84092C0.357263 4.25633 0.125723 6.38311 1.10311 8.99178C1.94029 11.2263 3.61622 13.6719 5.82212 15.8778C8.08019 18.1359 10.5919 19.8428 12.8944 20.6843C15.1735 21.5169 17.5978 21.6195 19.3137 19.9035L20.433 18.7843C21.3333 17.8838 21.1762 16.3868 20.1165 15.6906ZM16.5748 13.7316L19.6169 16.3185C19.6309 16.3304 19.6458 16.3414 19.6613 16.3513C20.3111 16.765 20.4095 17.6736 19.8657 18.2172L19.7827 18.3004L14.594 14.4156L15.1002 13.9096C15.4957 13.5139 16.0986 13.4423 16.5748 13.7316ZM5.72562 2.09272C5.72969 2.09915 5.73392 2.10557 5.73831 2.11168L7.93622 5.16619C8.23481 5.64416 8.16572 6.25434 7.7664 6.65366L7.2759 7.14431L3.76551 1.98212L3.85966 1.88797C4.40562 1.34202 5.31345 1.44526 5.72562 2.09272ZM13.1695 19.9309C10.9744 19.1288 8.56645 17.488 6.38922 15.3107C4.26243 13.1841 2.65183 10.84 1.85397 8.71042C1.25507 7.11189 0.853242 4.89439 2.33961 3.40818L3.18823 2.55941L6.69862 7.7216L6.10661 8.31392C5.76979 8.65011 5.66389 9.14765 5.83199 9.59068C5.95857 10.1102 6.54102 11.1884 7.12865 11.983C7.9934 13.1523 9.56295 14.7689 12.1295 15.8307C12.5805 16.0173 13.0948 15.9148 13.4401 15.5697L14.0211 14.9885L19.2098 18.8733L18.7466 19.3364C17.1532 20.9299 14.8343 20.5392 13.1695 19.9309Z" fill="#D20A11" stroke="#D20A11" stroke-width="0.5"/>
<path d="M9.07937 15.4293C8.65576 15.0579 7.92307 14.419 7.53723 14.022C6.59101 13.0497 5.59827 11.871 5.00798 11.0194C4.88188 10.8373 4.63201 10.7919 4.44997 10.9182C4.26793 11.0443 4.22266 11.2942 4.34877 11.4762C5.09321 12.5502 6.18699 13.7844 6.96229 14.5811C7.3696 15.0004 8.10856 15.6449 8.55049 16.0323C8.7167 16.178 8.97002 16.162 9.11649 15.9951C9.2625 15.8288 9.24589 15.5753 9.07937 15.4293Z" fill="#D20A11" stroke="#D20A11" stroke-width="0.5"/>
</g>
<defs>
<clipPath id="clip0">
<rect width="21.4667" height="21.4667" fill="white" transform="translate(0.0419922 0.266602)"/>
</clipPath>
</defs>
</svg>
