<svg width="22" height="22" viewBox="0 0 22 22" fill="none" xmlns="http://www.w3.org/2000/svg">
<g clip-path="url(#clip0)">
<path d="M1.37603 11.4173C1.29909 11.4173 1.22531 11.3868 1.1709 11.3324C1.1165 11.278 1.08594 11.2042 1.08594 11.1272V10.2657C1.08594 10.1887 1.1165 10.115 1.1709 10.0606C1.22531 10.0061 1.29909 9.97559 1.37603 9.97559C1.45296 9.97559 1.52675 10.0061 1.58115 10.0606C1.63556 10.115 1.66612 10.1887 1.66612 10.2657V11.1272C1.66612 11.2042 1.63556 11.278 1.58115 11.3324C1.52675 11.3868 1.45296 11.4173 1.37603 11.4173Z" fill="#D20A11" stroke="#D20A11" stroke-width="0.7"/>
<path d="M3.79828 21.1531C3.44207 21.1532 3.08933 21.0831 2.76022 20.9468C2.43111 20.8105 2.13207 20.6108 1.88019 20.3589C1.62831 20.107 1.42853 19.808 1.29225 19.4789C1.15597 19.1497 1.08586 18.797 1.08594 18.4408V13.1583C1.08594 13.0813 1.1165 13.0075 1.1709 12.9531C1.22531 12.8987 1.29909 12.8682 1.37603 12.8682C1.45296 12.8682 1.52675 12.8987 1.58115 12.9531C1.63555 13.0075 1.66612 13.0813 1.66612 13.1583V18.4408C1.66612 19.0063 1.89076 19.5486 2.29061 19.9485C2.69047 20.3483 3.2328 20.573 3.79828 20.573C4.36376 20.573 4.90609 20.3483 5.30595 19.9485C5.7058 19.5486 5.93044 19.0063 5.93044 18.4408V17.7475C5.93044 17.6705 5.961 17.5968 6.01541 17.5424C6.06981 17.488 6.14359 17.4574 6.22053 17.4574C6.29747 17.4574 6.37125 17.488 6.42566 17.5424C6.48006 17.5968 6.51062 17.6705 6.51062 17.7475V18.4408C6.50978 19.1599 6.22374 19.8493 5.71526 20.3578C5.20678 20.8663 4.51738 21.1523 3.79828 21.1531Z" fill="#D20A11" stroke="#D20A11" stroke-width="0.7"/>
<path d="M17.0612 18.0374C16.9843 18.0374 16.9105 18.0069 16.8561 17.9525C16.8017 17.8981 16.7711 17.8243 16.7711 17.7473V1.42686H1.66612V5.36048C1.66612 5.43742 1.63555 5.5112 1.58115 5.56561C1.52675 5.62001 1.45296 5.65057 1.37603 5.65057C1.29909 5.65057 1.22531 5.62001 1.1709 5.56561C1.1165 5.5112 1.08594 5.43742 1.08594 5.36048V1.13677C1.08594 1.05983 1.1165 0.986048 1.1709 0.931645C1.22531 0.877243 1.29909 0.84668 1.37603 0.84668H17.0612C17.1381 0.84668 17.2119 0.877243 17.2663 0.931645C17.3207 0.986048 17.3513 1.05983 17.3513 1.13677V17.7473C17.3513 17.8243 17.3207 17.8981 17.2663 17.9525C17.2119 18.0069 17.1381 18.0374 17.0612 18.0374Z" fill="#D20A11" stroke="#D20A11" stroke-width="0.7"/>
<path d="M1.37603 8.52493C1.29909 8.52493 1.22531 8.49437 1.1709 8.43996C1.1165 8.38556 1.08594 8.31178 1.08594 8.23484V7.39068C1.08594 7.31374 1.1165 7.23995 1.1709 7.18555C1.22531 7.13115 1.29909 7.10059 1.37603 7.10059C1.45296 7.10059 1.52675 7.13115 1.58115 7.18555C1.63556 7.23995 1.66612 7.31374 1.66612 7.39068V8.23484C1.66612 8.31178 1.63556 8.38556 1.58115 8.43996C1.52675 8.49437 1.45296 8.52493 1.37603 8.52493Z" fill="#D20A11" stroke="#D20A11" stroke-width="0.7"/>
<path d="M17.2337 21.1529H3.7979C3.72097 21.1529 3.64718 21.1223 3.59278 21.0679C3.53838 21.0135 3.50781 20.9397 3.50781 20.8628C3.50781 20.7859 3.53838 20.7121 3.59278 20.6577C3.64718 20.6033 3.72097 20.5727 3.7979 20.5727H17.2337C17.9167 20.5723 18.5733 20.3087 19.0669 19.8366C19.5606 19.3646 19.8533 18.7205 19.8843 18.0382H6.22103C6.14409 18.0382 6.0703 18.0076 6.0159 17.9532C5.9615 17.8988 5.93094 17.825 5.93094 17.7481C5.93094 17.6712 5.9615 17.5974 6.0159 17.543C6.0703 17.4886 6.14409 17.458 6.22103 17.458H20.1744C20.2513 17.458 20.3251 17.4886 20.3795 17.543C20.4339 17.5974 20.4645 17.6712 20.4645 17.7481V17.9222C20.4632 18.7786 20.1224 19.5997 19.5168 20.2053C18.9112 20.8109 18.0902 21.1516 17.2337 21.1529Z" fill="#D20A11" stroke="#D20A11" stroke-width="0.7"/>
<path d="M6.35977 6.1941H3.67876C3.60183 6.1941 3.52804 6.16354 3.47364 6.10913C3.41923 6.05473 3.38867 5.98095 3.38867 5.90401V3.22271C3.38867 3.14577 3.41923 3.07199 3.47364 3.01758C3.52804 2.96318 3.60183 2.93262 3.67876 2.93262H6.35977C6.43671 2.93262 6.51049 2.96318 6.5649 3.01758C6.6193 3.07199 6.64986 3.14577 6.64986 3.22271V5.90401C6.64986 5.98095 6.6193 6.05473 6.5649 6.10913C6.51049 6.16354 6.43671 6.1941 6.35977 6.1941ZM3.96885 5.61392H6.06968V3.5128H3.96885V5.61392Z" fill="#D20A11" stroke="#D20A11" stroke-width="0.7"/>
<path d="M6.35977 10.6668H3.67876C3.60183 10.6668 3.52804 10.6362 3.47364 10.5818C3.41923 10.5274 3.38867 10.4536 3.38867 10.3767V7.69536C3.38867 7.61843 3.41923 7.54464 3.47364 7.49024C3.52804 7.43584 3.60183 7.40527 3.67876 7.40527H6.35977C6.43671 7.40527 6.51049 7.43584 6.5649 7.49024C6.6193 7.54464 6.64986 7.61843 6.64986 7.69536V10.3767C6.64986 10.4536 6.6193 10.5274 6.5649 10.5818C6.51049 10.6362 6.43671 10.6668 6.35977 10.6668ZM3.96885 10.0866H6.06968V7.98545H3.96885V10.0866Z" fill="#D20A11" stroke="#D20A11" stroke-width="0.7"/>
<path d="M6.35977 15.1384H3.67876C3.60183 15.1384 3.52804 15.1079 3.47364 15.0535C3.41923 14.9991 3.38867 14.9253 3.38867 14.8483V12.167C3.38867 12.0901 3.41923 12.0163 3.47364 11.9619C3.52804 11.9075 3.60183 11.877 3.67876 11.877H6.35977C6.43671 11.877 6.51049 11.9075 6.5649 11.9619C6.6193 12.0163 6.64986 12.0901 6.64986 12.167V14.8483C6.64986 14.9253 6.6193 14.9991 6.5649 15.0535C6.51049 15.1079 6.43671 15.1384 6.35977 15.1384ZM3.96885 14.5583H6.06968V12.4571H3.96885V14.5583Z" fill="#D20A11" stroke="#D20A11" stroke-width="0.7"/>
<path d="M14.8358 4.04502H8.20318C8.12624 4.04502 8.05245 4.01446 7.99805 3.96006C7.94365 3.90566 7.91309 3.83187 7.91309 3.75493C7.91309 3.678 7.94365 3.60421 7.99805 3.54981C8.05245 3.49541 8.12624 3.46484 8.20318 3.46484H14.8358C14.9127 3.46484 14.9865 3.49541 15.0409 3.54981C15.0953 3.60421 15.1259 3.678 15.1259 3.75493C15.1259 3.83187 15.0953 3.90566 15.0409 3.96006C14.9865 4.01446 14.9127 4.04502 14.8358 4.04502Z" fill="#D20A11" stroke="#D20A11" stroke-width="0.7"/>
<path d="M12.5151 5.82041H8.20318C8.12624 5.82041 8.05245 5.78985 7.99805 5.73545C7.94365 5.68104 7.91309 5.60726 7.91309 5.53032C7.91309 5.45339 7.94365 5.3796 7.99805 5.3252C8.05245 5.2708 8.12624 5.24023 8.20318 5.24023H12.5151C12.592 5.24023 12.6658 5.2708 12.7202 5.3252C12.7746 5.3796 12.8052 5.45339 12.8052 5.53032C12.8052 5.60726 12.7746 5.68104 12.7202 5.73545C12.6658 5.78985 12.592 5.82041 12.5151 5.82041Z" fill="#D20A11" stroke="#D20A11" stroke-width="0.7"/>
<path d="M14.8358 8.51768H8.20318C8.12624 8.51768 8.05245 8.48711 7.99805 8.43271C7.94365 8.37831 7.91309 8.30453 7.91309 8.22759C7.91309 8.15065 7.94365 8.07687 7.99805 8.02246C8.05245 7.96806 8.12624 7.9375 8.20318 7.9375H14.8358C14.9127 7.9375 14.9865 7.96806 15.0409 8.02246C15.0953 8.07687 15.1259 8.15065 15.1259 8.22759C15.1259 8.30453 15.0953 8.37831 15.0409 8.43271C14.9865 8.48711 14.9127 8.51768 14.8358 8.51768Z" fill="#D20A11" stroke="#D20A11" stroke-width="0.7"/>
<path d="M12.5151 10.2931H8.20318C8.12624 10.2931 8.05245 10.2625 7.99805 10.2081C7.94365 10.1537 7.91309 10.0799 7.91309 10.003C7.91309 9.92604 7.94365 9.85226 7.99805 9.79786C8.05245 9.74345 8.12624 9.71289 8.20318 9.71289H12.5151C12.592 9.71289 12.6658 9.74345 12.7202 9.79786C12.7746 9.85226 12.8052 9.92604 12.8052 10.003C12.8052 10.0799 12.7746 10.1537 12.7202 10.2081C12.6658 10.2625 12.592 10.2931 12.5151 10.2931Z" fill="#D20A11" stroke="#D20A11" stroke-width="0.7"/>
<path d="M14.8358 12.9903H8.20318C8.12624 12.9903 8.05245 12.9598 7.99805 12.9054C7.94365 12.851 7.91309 12.7772 7.91309 12.7002C7.91309 12.6233 7.94365 12.5495 7.99805 12.4951C8.05245 12.4407 8.12624 12.4102 8.20318 12.4102H14.8358C14.9127 12.4102 14.9865 12.4407 15.0409 12.4951C15.0953 12.5495 15.1259 12.6233 15.1259 12.7002C15.1259 12.7772 15.0953 12.851 15.0409 12.9054C14.9865 12.9598 14.9127 12.9903 14.8358 12.9903Z" fill="#D20A11" stroke="#D20A11" stroke-width="0.7"/>
<path d="M12.5151 14.7648H8.20318C8.12624 14.7648 8.05245 14.7342 7.99805 14.6798C7.94365 14.6254 7.91309 14.5516 7.91309 14.4747C7.91309 14.3977 7.94365 14.3239 7.99805 14.2695C8.05245 14.2151 8.12624 14.1846 8.20318 14.1846H12.5151C12.592 14.1846 12.6658 14.2151 12.7202 14.2695C12.7746 14.3239 12.8052 14.3977 12.8052 14.4747C12.8052 14.5516 12.7746 14.6254 12.7202 14.6798C12.6658 14.7342 12.592 14.7648 12.5151 14.7648Z" fill="#D20A11" stroke="#D20A11" stroke-width="0.7"/>
</g>
<defs>
<clipPath id="clip0">
<rect width="21.4667" height="21.4667" fill="white" transform="translate(0.0419922 0.266602)"/>
</clipPath>
</defs>
</svg>
