<svg width="38" height="46" viewBox="0 0 38 46" fill="none" xmlns="http://www.w3.org/2000/svg">
<path d="M32.2451 16.3193C28.3449 12.0117 26.0271 8.21969 24.7694 5.79708C23.4072 3.17303 22.9608 1.54587 22.9574 1.53292L22.552 0L21.1038 0.645918C20.9346 0.721363 16.9336 2.54599 14.6917 7.02965C13.5663 9.28052 13.3412 11.7866 13.3507 13.4924C13.3562 14.4852 12.6528 15.3472 11.6783 15.542C10.995 15.6785 10.2922 15.4662 9.79907 14.973L7.10165 12.2756L6.17373 13.5551C6.07742 13.6879 3.80974 16.8154 3.3969 17.4402C1.38092 20.492 0.329715 24.0469 0.356962 27.7207C0.393471 32.6273 2.32304 37.2243 5.79021 40.665C9.25719 44.1053 13.8689 46 18.7758 46C28.9322 45.9999 37.195 37.7371 37.195 27.5808C37.1951 23.8983 35.3908 19.7937 32.2451 16.3193Z" fill="white"/>
<path d="M23.3147 30.459C22.9254 30.459 22.5361 30.8129 22.5361 31.9985C22.5361 33.184 22.9254 33.538 23.3147 33.538C23.704 33.538 24.0933 33.184 24.0933 31.9985C24.0933 30.8128 23.704 30.459 23.3147 30.459Z" fill="#D20A11"/>
<path d="M14.2366 24.6191C13.8473 24.6191 13.458 24.9731 13.458 26.1586C13.458 27.3442 13.8473 27.6981 14.2366 27.6981C14.6258 27.6981 15.0151 27.3442 15.0151 26.1586C15.0151 24.9731 14.6258 24.6191 14.2366 24.6191Z" fill="#D20A11"/>
<path d="M32.2451 16.3193C28.3449 12.0117 26.0271 8.21969 24.7694 5.79708C23.4072 3.17303 22.9608 1.54587 22.9574 1.53292L22.552 0L21.1038 0.645918C20.9346 0.721363 16.9336 2.54599 14.6917 7.02965C13.5663 9.28052 13.3412 11.7866 13.3507 13.4924C13.3562 14.4852 12.6528 15.3472 11.6783 15.542C10.995 15.6785 10.2922 15.4662 9.79907 14.973L7.10165 12.2756L6.17373 13.5551C6.07742 13.6879 3.80974 16.8154 3.3969 17.4402C1.38092 20.492 0.329715 24.0469 0.356962 27.7207C0.393471 32.6273 2.32304 37.2243 5.79021 40.665C9.25719 44.1053 13.8689 46 18.7758 46C28.9322 45.9999 37.195 37.7371 37.195 27.5808C37.195 23.8983 35.3908 19.7937 32.2451 16.3193ZM23.3145 35.449C21.4389 35.449 20.0232 34.2104 20.0232 31.9986C20.0232 29.8045 21.4388 28.5481 23.3145 28.5481C25.1902 28.5481 26.6058 29.8044 26.6058 31.9986C26.6058 34.2104 25.1901 35.449 23.3145 35.449ZM21.5097 22.8857H24.5001L16.0419 35.2721H13.0515L21.5097 22.8857ZM10.9459 26.1593C10.9459 23.9651 12.3614 22.7088 14.2371 22.7088C16.1128 22.7088 17.5284 23.9651 17.5284 26.1593C17.5284 28.3711 16.1128 29.6098 14.2371 29.6098C12.3614 29.6098 10.9459 28.3711 10.9459 26.1593Z" fill="#D20A11"/>
</svg>
