<svg width="18" height="19" viewBox="0 0 18 19" fill="none" xmlns="http://www.w3.org/2000/svg">
<path d="M8.09478 0.928375C8.45471 0.161619 9.54529 0.16162 9.90522 0.928376L11.8635 5.10005C12.0051 5.40163 12.2875 5.6129 12.6168 5.66351L17.0777 6.34914C17.882 6.47275 18.2098 7.45394 17.6413 8.03614L14.3527 11.4042C14.1309 11.6314 14.0302 11.9505 14.0813 12.2638L14.8484 16.9672C14.9828 17.7911 14.1081 18.4073 13.3776 18.0033L9.48392 15.8501C9.1828 15.6836 8.8172 15.6836 8.51608 15.8501L4.62245 18.0033C3.89189 18.4073 3.01718 17.7911 3.15157 16.9672L3.91872 12.2638C3.96983 11.9505 3.86909 11.6314 3.64727 11.4042L0.358694 8.03614C-0.209758 7.45394 0.118038 6.47275 0.922286 6.34914L5.38318 5.66351C5.71247 5.6129 5.99492 5.40163 6.13649 5.10005L8.09478 0.928375Z" fill="url(#paint0_linear)"/>
<defs>
<linearGradient id="paint0_linear" x1="9" y1="-1" x2="9" y2="19" gradientUnits="userSpaceOnUse">
<stop stop-color="#FECE10"/>
<stop offset="1" stop-color="#FE9F10"/>
</linearGradient>
</defs>
</svg>
