<svg width="41" height="40" viewBox="0 0 41 40" fill="none" xmlns="http://www.w3.org/2000/svg">
<g clip-path="url(#clip0)">
<path d="M39.0346 13.9547L28.0194 12.9131C27.325 12.85 26.725 12.4081 26.4412 11.7453L22.4958 2.18167C21.8646 0.603507 19.6233 0.603507 18.992 2.18167L15.0782 11.7453C14.8257 12.4081 14.1944 12.85 13.5 12.9131L2.48447 13.9547C0.843188 14.1125 0.180361 16.1641 1.41132 17.2689L9.71244 24.5599C10.249 25.0334 10.47 25.7278 10.3121 26.4222L7.81865 36.6483C7.43989 38.2584 9.17586 39.5837 10.6278 38.7318L19.8127 33.3342C20.4123 32.987 21.1383 32.987 21.738 33.3342L30.9232 38.7318C32.3751 39.5837 34.1111 38.2899 33.732 36.6483L31.2701 26.4222C31.1123 25.7278 31.3332 25.0334 31.8698 24.5599L40.1709 17.2689C41.3703 16.1641 40.6759 14.1125 39.0346 13.9547Z" fill="#FFE500"/>
</g>
<defs>
<clipPath id="clip0">
<rect width="39.9997" height="40" fill="white" transform="translate(0.775391)"/>
</clipPath>
</defs>
</svg>
