<svg width="11" height="10" viewBox="0 0 11 10" fill="none" xmlns="http://www.w3.org/2000/svg">
<path d="M8.89394 1.62659L8.89403 1.62649C9.18964 1.27632 9.71303 1.22641 10.0705 1.5136C10.4349 1.806 10.4881 2.33756 10.1866 2.69566L10.1863 2.696L5.39578 8.37409C5.39562 8.37428 5.39547 8.37446 5.39531 8.37465C5.24354 8.55475 5.02394 8.66165 4.79049 8.67286C4.78958 8.6729 4.78867 8.67294 4.78776 8.67299L4.76539 8.17349C4.75992 8.17382 4.75443 8.17382 4.74896 8.17382C4.65827 8.17382 4.57101 8.13908 4.50702 8.07595L8.89394 1.62659ZM8.89394 1.62659L4.68917 6.61009L2.60244 4.57351C2.60243 4.5735 2.60242 4.57349 2.60242 4.57348C2.27437 4.2533 1.74808 4.25331 1.42005 4.57351C1.08524 4.90031 1.08525 5.43464 1.42005 5.76144L4.15585 8.43187C4.15625 8.43226 4.15664 8.43265 4.15704 8.43304L8.89394 1.62659Z" fill="white" stroke="white"/>
</svg>
