<svg width="22" height="20" viewBox="0 0 22 20" fill="none" xmlns="http://www.w3.org/2000/svg">
<path d="M6.6434 5.12348C6.76647 5.09578 6.86488 5.00361 6.90057 4.88262C6.93626 4.76162 6.90362 4.63079 6.81528 4.54074C6.72694 4.45069 6.59676 4.41555 6.47511 4.44891C3.68687 5.14268 1.73089 7.64813 1.73438 10.5214C1.73438 10.7134 1.89006 10.8691 2.08209 10.8691C2.27413 10.8691 2.42981 10.7134 2.42981 10.5214C2.42673 7.96749 4.16515 5.74045 6.6434 5.12348Z" fill="#D20A11" stroke="#D20A11" stroke-width="0.5" stroke-linejoin="round"/>
<path d="M20.1634 12.6079H15.6431V10.5216C15.646 8.97392 15.1757 7.46234 14.2954 6.18943L14.4842 3.83714C14.5116 3.49798 14.3718 3.16679 14.1097 2.94978C13.1046 2.13162 11.9441 1.52554 10.6983 1.16809C10.3425 1.07001 9.9613 1.16885 9.69794 1.42749L8.19999 2.88197C8.13253 2.88024 8.06299 2.87189 7.99345 2.87189C3.77062 2.87668 0.348541 6.29876 0.34375 10.5216V16.7804C0.3449 17.9322 1.27829 18.8656 2.43003 18.8667H13.2091C14.418 18.8653 15.4426 17.9769 15.6153 16.7804H18.7726V17.8236C18.7726 18.3997 19.2396 18.8667 19.8157 18.8667H20.1634C20.7395 18.8667 21.2066 18.3997 21.2066 17.8236V13.651C21.2066 13.0749 20.7395 12.6079 20.1634 12.6079ZM10.184 1.92402C10.2685 1.83874 10.3921 1.80518 10.5081 1.83605C11.6628 2.16796 12.7384 2.73001 13.6702 3.48839C13.7556 3.56131 13.8006 3.671 13.7909 3.7829L13.6612 5.39699C13.5749 5.30206 13.4939 5.20331 13.4028 5.11221C12.2438 3.95078 10.7395 3.19643 9.11552 2.9623L10.184 1.92402ZM4.51631 18.1713H2.43003C1.66188 18.1713 1.03918 17.5486 1.03918 16.7804V13.651C1.03918 13.459 1.19485 13.3033 1.38689 13.3033H1.65428C1.78133 13.3033 1.89824 13.3727 1.95923 13.4841C2.66031 14.7892 3.72764 15.8609 5.02988 16.5673C5.14207 16.6271 5.21203 16.744 5.21174 16.8712V17.8236C5.21174 18.0156 5.05606 18.1713 4.86403 18.1713H4.51631ZM14.9477 16.4327C14.9466 17.3924 14.1689 18.1701 13.2091 18.1713H5.84319C5.88437 18.0599 5.90601 17.9423 5.90717 17.8236V16.8712C5.90906 16.4831 5.69302 16.1268 5.34804 15.9491C4.17339 15.3006 3.20906 14.3293 2.56912 13.15C2.38608 12.8157 2.03535 12.6079 1.65428 12.6079H1.38689C1.26817 12.609 1.15053 12.6307 1.03918 12.6719V10.5216C1.03918 6.68085 4.15271 3.56732 7.99345 3.56732C11.8342 3.56732 14.9477 6.68085 14.9477 10.5216V16.4327ZM15.6431 16.085V13.3033H16.6863V13.9987C16.6863 14.1908 16.842 14.3464 17.034 14.3464C17.226 14.3464 17.3817 14.1908 17.3817 13.9987V13.3033H18.7726V16.085H15.6431ZM20.5111 17.8236C20.5111 18.0156 20.3555 18.1713 20.1634 18.1713H19.8157C19.6237 18.1713 19.468 18.0156 19.468 17.8236V13.3033H20.1634C20.3555 13.3033 20.5111 13.459 20.5111 13.651V17.8236Z" fill="#D20A11" stroke="#D20A11" stroke-width="0.5" stroke-linejoin="round"/>
<path d="M7.99322 4.95812C8.18526 4.95812 8.34094 4.80245 8.34094 4.61041C8.34094 4.41837 8.18526 4.2627 7.99322 4.2627C7.80118 4.2627 7.64551 4.41837 7.64551 4.61041C7.64551 4.80245 7.80118 4.95812 7.99322 4.95812Z" fill="#D20A11" stroke="#D20A11" stroke-width="0.5" stroke-linejoin="round"/>
<path d="M11.4707 16.0852C11.4707 16.8533 12.0934 17.476 12.8616 17.476C13.6297 17.476 14.2524 16.8533 14.2524 16.0852C14.2524 15.317 13.6297 14.6943 12.8616 14.6943C12.0934 14.6943 11.4707 15.317 11.4707 16.0852ZM13.557 16.0852C13.557 16.4693 13.2456 16.7806 12.8616 16.7806C12.4775 16.7806 12.1661 16.4693 12.1661 16.0852C12.1661 15.7011 12.4775 15.3898 12.8616 15.3898C13.2456 15.3898 13.557 15.7011 13.557 16.0852Z" fill="#D20A11" stroke="#D20A11" stroke-width="0.5" stroke-linejoin="round"/>
<path d="M7.99379 7.04492C5.88139 7.04492 4.16895 8.75737 4.16895 10.8698C4.16895 12.9822 5.88139 14.6946 7.99379 14.6946C10.1062 14.6946 11.8186 12.9822 11.8186 10.8698C11.8162 8.7584 10.1052 7.04741 7.99379 7.04492ZM7.99379 13.9992C6.26546 13.9992 4.86437 12.5981 4.86437 10.8698C4.86437 9.14144 6.26546 7.74035 7.99379 7.74035C9.72213 7.74035 11.1232 9.14144 11.1232 10.8698C11.1213 12.5973 9.72133 13.9973 7.99379 13.9992Z" fill="#D20A11" stroke="#D20A11" stroke-width="0.5" stroke-linejoin="round"/>
</svg>
