<svg width="31" height="30" viewBox="0 0 31 30" fill="none" xmlns="http://www.w3.org/2000/svg">
<circle cx="15.7754" cy="15" r="15" fill="#009CE8"/>
<g clip-path="url(#clip0)">
<path d="M8.53523 14.4973L12.2034 16.3254C12.3452 16.3954 12.5127 16.3904 12.6484 16.311L15.9134 14.4129L13.9371 16.1641C13.8365 16.2535 13.779 16.381 13.779 16.5154V20.781C13.779 21.231 14.3534 21.4204 14.6227 21.0629L16.2084 18.9548L20.1296 21.1879C20.4046 21.346 20.7571 21.1873 20.8209 20.8729L23.2665 8.68538C23.3396 8.31913 22.9752 8.02038 22.6365 8.15663L8.57398 13.641C8.19648 13.7885 8.17211 14.3166 8.53523 14.4973ZM22.179 9.34163L20.0296 20.0523L16.314 17.936C16.1115 17.8204 15.8509 17.8716 15.7071 18.0616L14.7165 19.3785V16.726L20.0609 11.991C20.484 11.6166 19.9977 10.951 19.5146 11.2348L12.3959 15.3735L9.90086 14.1304L22.179 9.34163Z" fill="white"/>
</g>
<defs>
<clipPath id="clip0">
<rect width="15" height="15" fill="white" transform="translate(8.27539 7.5)"/>
</clipPath>
</defs>
</svg>
