<svg width="31" height="30" viewBox="0 0 31 30" fill="none" xmlns="http://www.w3.org/2000/svg">
<circle cx="15.7754" cy="15" r="15" fill="#7F40BD"/>
<g clip-path="url(#clip0)">
<path d="M22.7472 16.1836C23.1947 12.4167 22.5322 10.0386 21.3372 8.96294L21.3378 8.96232C19.4091 7.12544 12.8953 6.85357 10.5878 9.04482C9.55157 10.1167 9.18657 11.6898 9.14657 13.6373C9.10657 15.5854 9.05907 19.2348 12.4597 20.2248H12.4628L12.4597 21.7367C12.4597 21.7367 12.4366 22.3492 12.8278 22.4723C13.2753 22.6173 13.4778 22.3329 14.8697 20.6704C17.1972 20.8723 18.9847 20.4098 19.1878 20.3423C19.6578 20.1848 22.3172 19.8329 22.7472 16.1836ZM15.0991 19.6067C15.0991 19.6067 13.6259 21.4436 13.1678 21.9204C13.0178 22.0754 12.8534 22.0611 12.8559 21.7536C12.8559 21.5517 12.8672 19.2436 12.8672 19.2436C9.98407 18.4173 10.1541 15.3098 10.1853 13.6842C10.2166 12.0579 10.5141 10.7261 11.3916 9.82919C13.4159 7.93107 19.1266 8.35544 20.5816 9.72294C22.3603 11.2998 21.7272 15.7548 21.7309 15.9067C21.3653 18.9529 19.2103 19.1461 18.8141 19.2779C18.6447 19.3342 17.0728 19.7386 15.0991 19.6067Z" fill="white"/>
<path d="M15.9139 10.1855C15.6732 10.1855 15.6732 10.5605 15.9139 10.5637C17.7807 10.578 19.3182 11.8793 19.3351 14.2662C19.3351 14.518 19.7039 14.5149 19.7007 14.263H19.7001C19.6801 11.6912 18.0014 10.1999 15.9139 10.1855Z" fill="white"/>
<path d="M18.3695 13.8702C18.3639 14.1189 18.732 14.1308 18.7351 13.8789C18.7657 12.4608 17.8914 11.2927 16.2482 11.1695C16.0076 11.152 15.9826 11.5302 16.2226 11.5477C17.6476 11.6558 18.3982 12.6283 18.3695 13.8702Z" fill="white"/>
<path d="M17.9763 15.4841C17.6675 15.3053 17.3531 15.4166 17.2231 15.5922L16.9513 15.9441C16.8131 16.1228 16.555 16.0991 16.555 16.0991C14.6713 15.6009 14.1675 13.6297 14.1675 13.6297C14.1675 13.6297 14.1444 13.3628 14.3169 13.2197L14.6569 12.9384C14.8269 12.8034 14.9344 12.4784 14.7613 12.1591C14.2988 11.3234 13.9881 11.0353 13.83 10.8141C13.6638 10.6059 13.4138 10.5591 13.1538 10.6997H13.1481C12.6075 11.0159 12.0156 11.6078 12.205 12.2172C12.5281 12.8597 13.1219 14.9078 15.0144 16.4553C15.9038 17.1872 17.3113 17.9372 17.9088 18.1103L17.9144 18.1191C18.5031 18.3153 19.0756 17.7003 19.3813 17.1434V17.1391C19.5169 16.8697 19.4719 16.6147 19.2738 16.4478C18.9225 16.1053 18.3925 15.7272 17.9763 15.4841Z" fill="white"/>
<path d="M16.5057 12.565C17.1064 12.6 17.3976 12.9138 17.4289 13.5582C17.4401 13.8101 17.8057 13.7926 17.7945 13.5407C17.7545 12.6994 17.3157 12.2307 16.5257 12.1869C16.2851 12.1725 16.2626 12.5507 16.5057 12.565Z" fill="white"/>
</g>
<defs>
<clipPath id="clip0">
<rect width="15" height="15" fill="white" transform="translate(8.27539 7.5)"/>
</clipPath>
</defs>
</svg>
