<svg width="18" height="11" viewBox="0 0 18 11" fill="none" xmlns="http://www.w3.org/2000/svg">
<path d="M17.3211 0.928571C17.3211 0.928571 17.1961 0.571428 16.4194 0.669642L13.8479 0.6875C13.6515 0.660714 13.5086 0.741071 13.5086 0.741071C13.5086 0.741071 13.3569 0.821428 13.2854 1.01786C12.8658 2.09821 12.3301 3.02679 12.3301 3.02679C11.1872 4.97321 10.7229 5.08036 10.5354 4.95536C10.0979 4.67857 10.214 3.83036 10.214 3.22321C10.214 1.33036 10.4997 0.544642 9.65151 0.339285C9.37472 0.276785 9.16936 0.232142 8.44615 0.223214C7.52651 0.214285 6.74972 0.223214 6.31222 0.4375C6.01758 0.580357 5.79436 0.901785 5.92829 0.919642C6.09794 0.946428 6.48186 1.02678 6.68722 1.30357C6.68722 1.30357 6.91044 1.66964 6.94615 2.47321C7.04436 4.69643 6.58901 4.97321 6.58901 4.97321C6.24079 5.16071 5.63365 4.84821 4.74079 3.00893C4.74079 3.00893 4.22294 2.09821 3.82115 1.09821C3.74972 0.910714 3.60686 0.8125 3.60686 0.8125C3.60686 0.8125 3.44615 0.6875 3.21401 0.651785L0.767578 0.669642C0.392578 0.669642 0.25865 0.839285 0.25865 0.839285C0.25865 0.839285 0.124721 0.982142 0.249721 1.27678C2.16044 5.76786 4.33901 8.01786 4.33901 8.01786C4.33901 8.01786 6.33008 10.0982 8.58901 9.95536H9.61579C9.92829 9.92857 10.089 9.75893 10.089 9.75893C10.089 9.75893 10.2319 9.59821 10.2229 9.30357C10.2051 7.92857 10.8479 7.72321 10.8479 7.72321C11.4729 7.52679 12.2765 9.05357 13.1336 9.64286C13.1336 9.64286 13.7854 10.0893 14.2765 9.99107L16.5622 9.95536C17.7676 9.94643 17.1961 8.94643 17.1961 8.94643C17.1515 8.86607 16.8658 8.25 15.4908 6.97321C14.0622 5.64286 14.2497 5.85714 15.9819 3.55357C17.0354 2.15179 17.4551 1.29464 17.3211 0.928571Z" fill="#828282"/>
</svg>
