<svg width="31" height="30" viewBox="0 0 31 30" fill="none" xmlns="http://www.w3.org/2000/svg">
<circle cx="15.7754" cy="15" r="15" fill="#00B047"/>
<g clip-path="url(#clip0)">
<path d="M21.0465 9.67827C19.6374 8.27442 17.7629 7.5008 15.7678 7.5C13.7773 7.5 11.8997 8.27293 10.4814 9.67644C9.06046 11.0823 8.27722 12.9507 8.27539 14.9305V14.9328V14.9342C8.27562 16.1325 8.59045 17.3413 9.18806 18.4448L8.29588 22.5L12.3978 21.567C13.4367 22.0905 14.5958 22.3666 15.765 22.367H15.768C17.7582 22.367 19.6357 21.594 21.0543 20.1904C22.4765 18.7833 23.2601 16.9173 23.261 14.9363C23.2615 12.9691 22.4752 11.1018 21.0465 9.67827ZM15.7678 21.1963H15.7652C14.7154 21.1958 13.6753 20.9323 12.7574 20.4339L12.5634 20.3286L9.83579 20.949L10.4283 18.2564L10.314 18.0595C9.74619 17.0802 9.44612 15.9992 9.44612 14.9329C9.4483 11.4817 12.2839 8.67073 15.7676 8.67073C17.4506 8.67142 19.0319 9.32384 20.2203 10.5076C21.4266 11.7097 22.0907 13.2824 22.0901 14.9359C22.0888 18.3879 19.2526 21.1963 15.7678 21.1963Z" fill="white"/>
<path d="M13.7291 11.6562H13.4006C13.2863 11.6562 13.1007 11.6991 12.9436 11.8699C12.7865 12.0409 12.3438 12.4541 12.3438 13.2946C12.3438 14.135 12.958 14.9471 13.0436 15.0612C13.1293 15.1752 14.2292 16.955 15.9712 17.6397C17.419 18.2087 17.7137 18.0955 18.0278 18.067C18.3421 18.0386 19.0419 17.6539 19.1847 17.255C19.3275 16.8562 19.3275 16.5143 19.2847 16.4429C19.2418 16.3717 19.1275 16.329 18.9561 16.2436C18.7847 16.1581 17.9447 15.7379 17.7876 15.6808C17.6305 15.6239 17.5163 15.5954 17.4019 15.7665C17.2876 15.9373 16.951 16.3323 16.851 16.4463C16.7511 16.5604 16.6511 16.5747 16.4796 16.4892C16.3082 16.4035 15.7619 16.2199 15.1072 15.6381C14.5975 15.1853 14.2439 14.6078 14.1439 14.4368C14.044 14.266 14.1333 14.1735 14.2192 14.0882C14.2962 14.0118 14.4003 13.9072 14.486 13.8075C14.5716 13.7077 14.5959 13.6365 14.6532 13.5226C14.7103 13.4086 14.6817 13.3088 14.6389 13.2234C14.5959 13.1379 14.267 12.2932 14.1146 11.9554H14.1147C13.9863 11.6709 13.8512 11.6613 13.7291 11.6562Z" fill="white"/>
</g>
<defs>
<clipPath id="clip0">
<rect width="15" height="15" fill="white" transform="translate(8.27539 7.5)"/>
</clipPath>
</defs>
</svg>
