<svg width="17" height="12" viewBox="0 0 17 12" fill="none" xmlns="http://www.w3.org/2000/svg">
<path d="M7.12361 8.35714V3.86607L11.445 6.125L7.12361 8.35714ZM8.77539 0.660714C5.40932 0.660714 3.17718 0.821428 3.17718 0.821428C2.86468 0.857142 2.17718 0.857142 1.57003 1.5C1.57003 1.5 1.07896 1.98214 0.936105 3.08928C0.766462 4.38393 0.775391 5.67857 0.775391 5.67857V6.89286C0.775391 6.89286 0.766462 8.1875 0.936105 9.48214C1.07896 10.5804 1.57003 11.0714 1.57003 11.0714C2.17718 11.7054 2.98075 11.6875 3.33789 11.75C3.33789 11.75 4.61468 11.875 8.77539 11.9107C12.1415 11.9107 14.3736 11.7411 14.3736 11.7411C14.6861 11.7054 15.3736 11.7054 15.9807 11.0714C15.9807 11.0714 16.4718 10.5804 16.6147 9.48214C16.7843 8.1875 16.7754 6.89286 16.7754 6.89286V5.67857C16.7754 5.67857 16.7843 4.38393 16.6147 3.08928C16.4718 1.98214 15.9807 1.5 15.9807 1.5C15.3736 0.857142 14.6861 0.857142 14.3736 0.821428C14.3736 0.821428 12.1415 0.660714 8.77539 0.660714Z" fill="#828282"/>
</svg>
