<svg width="36" height="42" viewBox="0 0 36 42" fill="none" xmlns="http://www.w3.org/2000/svg">
<path d="M30.2583 4.35233V9.36611C31.4292 9.74737 32.3934 10.5492 32.9353 11.6331L35.2352 16.2436C36.7184 19.2192 36.0021 22.7356 33.4524 24.9935L26.7669 30.9117V40.9119C26.7669 41.5129 26.2458 42 25.6032 42H20.3661C19.7235 42 19.2024 41.5129 19.2024 40.9119C19.2024 40.311 19.7235 39.8238 20.3661 39.8238H24.4394V30.4435C24.4394 30.1446 24.5709 29.8588 24.8031 29.6534L31.8518 23.4134C33.6732 21.8005 34.185 19.2886 33.1255 17.1631L30.8263 12.5539C30.2683 11.4379 28.8737 11.002 27.7324 11.5003L16.2359 16.512C17.8471 18.5464 20.8244 19.3145 23.3714 18.2045L26.5357 16.8248C27.1183 16.5706 27.8107 16.8065 28.0822 17.351C28.354 17.8956 28.1019 18.543 27.5194 18.7971L24.355 20.1769C23.0579 20.7422 21.6005 20.9939 20.0952 20.8495C17.6395 23.33 16.2929 26.5355 16.2929 29.9353C16.2929 30.5363 15.7718 31.0234 15.1291 31.0234C14.4865 31.0234 13.9654 30.5363 13.9654 29.9353C13.9654 26.3629 15.2445 22.9752 17.5984 20.2271C15.8652 19.5063 14.3914 18.2214 13.5287 16.4917L13.5275 16.4891C12.9495 16.7301 12.3105 16.8653 11.6378 16.8653C10.5988 16.8653 9.63819 16.5452 8.86277 16.005C8.11539 17.477 6.51053 18.4974 4.65512 18.4974C3.93835 18.4974 3.25905 18.3449 2.65202 18.0732C2.97299 20.0265 3.49297 21.8076 4.03203 23.6508C4.91045 26.6544 5.8189 29.7604 5.8189 33.7306V39.8238H9.89213C10.5348 39.8238 11.0559 40.311 11.0559 40.9119C11.0559 41.5129 10.5348 42 9.89213 42H4.65512C4.01248 42 3.49134 41.5129 3.49134 40.9119V33.7306C3.49134 30.0526 2.66343 27.2218 1.78687 24.2249C0.908443 21.2212 0 18.1153 0 14.1451V7.61658C0 5.2167 2.08828 3.26425 4.65512 3.26425C5.69414 3.26425 6.65473 3.58436 7.43015 4.12449C8.17753 2.65253 9.78238 1.63212 11.6378 1.63212C12.6768 1.63212 13.6374 1.95224 14.4128 2.49236C15.1602 1.0204 16.7651 0 18.6205 0C20.0098 0 21.2582 0.572767 22.1118 1.47816C22.9655 0.572767 24.2138 0 25.6032 0C28.17 0 30.2583 1.95246 30.2583 4.35233ZM6.98268 7.61658C6.98268 6.41664 5.93854 5.44041 4.65512 5.44041C3.3717 5.44041 2.32756 6.41664 2.32756 7.61658V14.1451C2.32756 15.345 3.3717 16.3212 4.65512 16.3212C5.93854 16.3212 6.98268 15.345 6.98268 14.1451V7.61658ZM13.9654 5.98446C13.9654 4.78452 12.9212 3.80829 11.6378 3.80829C10.3544 3.80829 9.31024 4.78452 9.31024 5.98446V12.513C9.31024 13.7129 10.3544 14.6891 11.6378 14.6891C12.9212 14.6891 13.9654 13.7129 13.9654 12.513V5.98446ZM20.948 4.35233C20.948 3.15239 19.9039 2.17617 18.6205 2.17617C17.3371 2.17617 16.2929 3.15239 16.2929 4.35233V12.513C16.2929 13.1327 16.1527 13.7222 15.9018 14.2565L20.948 12.0567V4.35233ZM27.9307 4.35233C27.9307 3.15239 26.8866 2.17617 25.6032 2.17617C24.3197 2.17617 23.2756 3.15239 23.2756 4.35233V11.0421L26.7482 9.52834C27.1262 9.36328 27.5241 9.24794 27.9307 9.18266V4.35233Z" fill="url(#paint0_linear)"/>
<path d="M15.1291 42C14.4864 42 13.9654 41.5128 13.9654 40.9119C13.9654 40.311 14.4864 39.8238 15.1291 39.8238C15.7719 39.8238 16.2929 40.311 16.2929 40.9119C16.2929 41.5128 15.7719 42 15.1291 42Z" fill="url(#paint1_linear)"/>
<defs>
<linearGradient id="paint0_linear" x1="18" y1="0" x2="18" y2="42" gradientUnits="userSpaceOnUse">
<stop stop-color="#FECE10"/>
<stop offset="1" stop-color="#FE9F10"/>
</linearGradient>
<linearGradient id="paint1_linear" x1="18" y1="0" x2="18" y2="42" gradientUnits="userSpaceOnUse">
<stop stop-color="#FECE10"/>
<stop offset="1" stop-color="#FE9F10"/>
</linearGradient>
</defs>
</svg>
