<svg width="49" height="56" viewBox="0 0 49 56" fill="none" xmlns="http://www.w3.org/2000/svg">
<path fill-rule="evenodd" clip-rule="evenodd" d="M37.5319 0C35.232 0 33.3617 1.89643 33.3617 4.22848C33.3617 6.56053 35.232 8.45696 37.5319 8.45696C39.8308 8.45696 41.7021 6.56053 41.7021 4.22848C41.7021 1.89643 39.8319 0 37.5319 0ZM37.5319 6.34272C36.3821 6.34272 35.4468 5.39445 35.4468 4.22848C35.4468 3.06252 36.3821 2.11424 37.5319 2.11424C38.6818 2.11424 39.617 3.06252 39.617 4.22848C39.617 5.39457 38.6818 6.34272 37.5319 6.34272Z" fill="url(#paint0_linear)"/>
<path fill-rule="evenodd" clip-rule="evenodd" d="M13.5532 4.22848C11.2532 4.22848 9.38295 6.12491 9.38295 8.45696C9.38295 10.789 11.2532 12.6854 13.5532 12.6854C15.852 12.6854 17.7234 10.789 17.7234 8.45696C17.7234 6.12491 15.8531 4.22848 13.5532 4.22848ZM13.5532 10.5713C12.4033 10.5713 11.4681 9.62305 11.4681 8.45709C11.4681 7.29112 12.4033 6.34284 13.5532 6.34284C14.7031 6.34284 15.6383 7.29112 15.6383 8.45709C15.6383 9.62305 14.7032 10.5713 13.5532 10.5713Z" fill="url(#paint1_linear)"/>
<path fill-rule="evenodd" clip-rule="evenodd" d="M4.1702 10.5713C1.87029 10.5713 0 12.4678 0 14.7998C0 17.1319 1.87029 19.0283 4.1702 19.0283C6.46902 19.0283 8.34041 17.1319 8.34041 14.7998C8.34041 12.4678 6.47012 10.5713 4.1702 10.5713ZM4.1702 16.914C3.02031 16.914 2.0851 15.9658 2.0851 14.7998C2.0851 13.6338 3.02031 12.6856 4.1702 12.6856C5.3201 12.6856 6.2553 13.6338 6.2553 14.7998C6.2553 15.9658 5.3201 16.914 4.1702 16.914Z" fill="url(#paint2_linear)"/>
<path fill-rule="evenodd" clip-rule="evenodd" d="M1.04255 26.4281C1.04255 24.0961 2.91284 22.1996 5.21275 22.1996C7.51267 22.1996 9.38295 24.0961 9.38295 26.4281C9.38295 28.7602 7.51157 30.6566 5.21275 30.6566C2.91284 30.6566 1.04255 28.7602 1.04255 26.4281ZM3.12765 26.4281C3.12765 27.5941 4.06286 28.5424 5.21275 28.5424C6.36265 28.5424 7.29785 27.5941 7.29785 26.4281C7.29785 25.2622 6.36265 24.3139 5.21275 24.3139C4.06286 24.3139 3.12765 25.2622 3.12765 26.4281Z" fill="url(#paint3_linear)"/>
<path fill-rule="evenodd" clip-rule="evenodd" d="M46.6929 23.9914C46.6605 23.947 46.6262 23.9059 46.5876 23.8667L45.9332 23.2038C47.1954 22.2241 47.9575 20.7038 47.9575 19.0283C47.9575 16.1137 45.6191 13.7427 42.7447 13.7427C40.9433 13.7427 39.2933 14.699 38.3524 16.2104C36.1138 15.4382 32.9122 16.0602 29.3367 17.8377C28.8054 18.1018 28.6229 18.7776 28.9263 19.2966C29.2085 19.7792 29.8101 19.9482 30.3041 19.7026C33.7736 17.9778 36.6288 17.5377 38.1365 18.4128C38.1726 18.4452 38.2112 18.4753 38.2522 18.5029L38.2954 18.5322C38.4086 18.6088 38.5221 18.6856 38.6183 18.7831L38.6574 18.8227C39.1628 19.3611 39.419 20.1709 39.419 21.2293C39.419 25.3817 35.6178 32.0226 29.9598 37.7532C21.8883 45.9279 13.6084 48.9365 11.2272 46.5231C10.2597 45.5441 10.1807 43.5608 10.9818 40.9959C11.4655 41.1467 11.9789 41.2278 12.5106 41.2278C15.385 41.2278 17.7234 38.8566 17.7234 35.9422C17.7234 34.384 17.0549 32.981 15.9934 32.0127C17.1827 30.464 18.4889 28.968 19.8856 27.5529C20.7632 26.664 21.6431 25.8362 22.5178 25.0699C22.9852 24.6603 23.0207 23.9271 22.5833 23.4839C22.2069 23.1025 21.6093 23.0731 21.2065 23.4249C20.2687 24.2439 19.3341 25.1224 18.4115 26.057C16.8878 27.6011 15.4669 29.2388 14.1804 30.9347C13.656 30.7544 13.0944 30.6566 12.5106 30.6566C9.63624 30.6566 7.29785 33.0278 7.29785 35.9422C7.29785 37.5471 8.00693 38.9872 9.12408 39.9574C7.92016 43.5382 8.13625 46.3814 9.75311 48.0188L16.2483 54.5983C17.1865 55.5486 18.5126 56 20.111 56C24.7274 56 31.6082 52.2282 37.9292 45.8284C46.2883 37.362 50.102 27.8224 46.6929 23.9914ZM45.8723 19.0282C45.8723 20.1264 45.3252 21.1125 44.4353 21.6865L40.1266 17.3218C40.6929 16.424 41.6744 15.8568 42.7447 15.8568C44.4691 15.8568 45.8723 17.2797 45.8723 19.0282ZM41.4916 21.6943L43.489 23.7177L43.5047 23.7332L45.0258 25.2737C45.0477 25.3012 45.0706 25.3287 45.0946 25.354C47.4383 27.8172 44.467 36.2171 36.455 44.3327C28.3835 52.5074 20.1046 55.515 17.7224 53.1026L14.0756 49.409C18.6817 49.1723 25.3196 45.4406 31.4331 39.25C37.3548 33.2519 41.2487 26.4323 41.4916 21.6943ZM9.38295 35.9422C9.38295 37.6907 10.7863 39.1136 12.5106 39.1136C14.235 39.1136 15.6383 37.6908 15.6383 35.9422C15.6383 34.1938 14.235 32.7708 12.5106 32.7708C10.7863 32.7708 9.38295 34.1938 9.38295 35.9422Z" fill="url(#paint4_linear)"/>
<path fill-rule="evenodd" clip-rule="evenodd" d="M15.6383 16.914H11.4681C10.8926 16.914 10.4255 17.3877 10.4255 17.9712V22.1996C10.4255 22.7831 10.8926 23.2568 11.4681 23.2568H15.6383C16.2137 23.2568 16.6808 22.7842 16.6808 22.1996V17.9712C16.6808 17.3876 16.2138 16.914 15.6383 16.914ZM14.5957 21.1425H12.5106V19.0283H14.5957V21.1425Z" fill="url(#paint5_linear)"/>
<path fill-rule="evenodd" clip-rule="evenodd" d="M43.7872 6.34272H47.9575C48.533 6.34272 49 6.81636 49 7.39984V11.6283C49 12.2129 48.5329 12.6854 47.9575 12.6854H43.7872C43.2118 12.6854 42.7447 12.2118 42.7447 11.6283V7.39984C42.7447 6.81636 43.2118 6.34272 43.7872 6.34272ZM46.9149 10.5713V8.45709H44.8298V10.5713H46.9149Z" fill="url(#paint6_linear)"/>
<path d="M25.6605 22.7151C26.3015 22.7151 26.8211 22.1829 26.8211 21.5263C26.8211 20.8698 26.3015 20.3376 25.6605 20.3376C25.0196 20.3376 24.5 20.8698 24.5 21.5263C24.5 22.1829 25.0196 22.7151 25.6605 22.7151Z" fill="url(#paint7_linear)"/>
<defs>
<linearGradient id="paint0_linear" x1="24.5" y1="0" x2="24.5" y2="56" gradientUnits="userSpaceOnUse">
<stop stop-color="#FECE10"/>
<stop offset="1" stop-color="#FE9F10"/>
</linearGradient>
<linearGradient id="paint1_linear" x1="24.5" y1="0" x2="24.5" y2="56" gradientUnits="userSpaceOnUse">
<stop stop-color="#FECE10"/>
<stop offset="1" stop-color="#FE9F10"/>
</linearGradient>
<linearGradient id="paint2_linear" x1="24.5" y1="0" x2="24.5" y2="56" gradientUnits="userSpaceOnUse">
<stop stop-color="#FECE10"/>
<stop offset="1" stop-color="#FE9F10"/>
</linearGradient>
<linearGradient id="paint3_linear" x1="24.5" y1="0" x2="24.5" y2="56" gradientUnits="userSpaceOnUse">
<stop stop-color="#FECE10"/>
<stop offset="1" stop-color="#FE9F10"/>
</linearGradient>
<linearGradient id="paint4_linear" x1="24.5" y1="0" x2="24.5" y2="56" gradientUnits="userSpaceOnUse">
<stop stop-color="#FECE10"/>
<stop offset="1" stop-color="#FE9F10"/>
</linearGradient>
<linearGradient id="paint5_linear" x1="24.5" y1="0" x2="24.5" y2="56" gradientUnits="userSpaceOnUse">
<stop stop-color="#FECE10"/>
<stop offset="1" stop-color="#FE9F10"/>
</linearGradient>
<linearGradient id="paint6_linear" x1="24.5" y1="0" x2="24.5" y2="56" gradientUnits="userSpaceOnUse">
<stop stop-color="#FECE10"/>
<stop offset="1" stop-color="#FE9F10"/>
</linearGradient>
<linearGradient id="paint7_linear" x1="24.5" y1="0" x2="24.5" y2="56" gradientUnits="userSpaceOnUse">
<stop stop-color="#FECE10"/>
<stop offset="1" stop-color="#FE9F10"/>
</linearGradient>
</defs>
</svg>
