<svg width="57" height="44" viewBox="0 0 57 44" fill="none" xmlns="http://www.w3.org/2000/svg">
<path d="M34.2232 20.8393C34.053 20.13 33.2857 19.7118 32.5975 19.953C31.8037 20.2316 31.0326 20.6261 30.2689 21.0168C29.8992 21.2059 29.5312 21.3942 29.1632 21.568C27.7159 22.2519 28.7777 24.5058 30.2286 23.8207L32.3295 22.8281C32.4202 23.0179 32.5243 23.2201 32.6437 23.4308L30.8761 24.9585C29.6632 26.0066 31.2971 27.8887 32.5066 26.8433L34.1515 25.4216C34.3554 25.6257 34.581 25.8297 34.8267 26.0297L33.7414 27.9086C32.94 29.296 35.1001 30.5398 35.9003 29.1544L36.9636 27.3137C37.1792 27.405 37.4039 27.4901 37.638 27.5684L37.2021 29.8407C36.9007 31.4126 39.3489 31.8811 39.6505 30.3099L40.0821 28.0594C40.2933 28.0767 40.5106 28.0878 40.7326 28.094L40.9388 30.6011C41.0705 32.2013 43.5544 31.9897 43.4232 30.3966L43.1348 26.8929C43.1718 26.1667 42.537 25.5375 41.8095 25.5849C38.5967 25.7945 35.0617 24.2304 34.2232 20.8393Z" fill="url(#paint0_linear)"/>
<path fill-rule="evenodd" clip-rule="evenodd" d="M5.49333 41.9892C5.03772 42.4492 5.03772 43.195 5.49333 43.655C5.94895 44.115 6.68764 44.115 7.14325 43.655L21.389 29.2724C25.2477 31.2828 28.6132 34.213 31.1732 37.8831L31.2107 37.9364C31.6881 38.6049 32.6308 39.4784 33.9104 40.2168C36.1015 41.4812 39.2806 42.3502 42.8039 41.1192C44.9106 40.3831 46.4664 38.9063 47.5934 37.3247C50.2288 38.8999 53.6421 38.6573 55.3063 35.7762C56.7394 33.2951 55.8859 30.1113 53.4039 28.6787L50.5545 27.0344C50.3255 24.3594 49.3183 21.712 47.5371 19.1233C45.6222 16.3403 42.875 13.7009 39.3717 11.2783C39.339 11.2558 39.3062 11.235 39.2735 11.216L48.3911 2.01076C48.8468 1.55077 48.8468 0.804982 48.3911 0.344992C47.9355 -0.114998 47.1968 -0.114997 46.7412 0.344993L21.0125 26.321C17.9742 24.9531 14.6913 24.0898 11.2807 23.7985L11.2442 23.7952C10.3847 23.7122 5.82654 22.2611 4.89859 17.3674C4.04041 12.8424 8.72738 8.47245 8.77479 8.42874L8.78685 8.41757C11.4283 5.93217 14.9091 4.86177 19.1328 5.23629C22.9965 5.57894 26.7571 7.07341 29.2315 8.26684C30.675 8.96306 31.7556 6.71768 30.3149 6.0228C25.6295 3.76321 17.5242 0.932506 10.7798 4.08172L7.79768 2.36079C5.31552 0.928394 2.13026 1.78138 0.697124 4.26247C-0.736016 6.74357 0.117487 9.92737 2.59965 11.3598L3.34198 11.7881C2.5352 13.5544 2.03349 15.6396 2.44913 17.8313C3.55002 23.6374 8.7847 26.061 11.0039 26.2751L11.0725 26.2813C13.8776 26.5209 16.5888 27.1831 19.1283 28.2232L5.49333 41.9892ZM23.2176 27.4262C27.1464 29.6039 30.5767 32.671 33.2209 36.4619L33.2397 36.4886C33.7411 37.1908 37.2774 40.4107 41.9817 38.7671C46.3312 37.2474 47.7742 31.0054 47.7878 30.9444L47.7919 30.9264C48.6121 27.4502 47.8352 23.9541 45.483 20.5352C43.3123 17.3802 40.1902 14.8742 37.9533 13.3275C37.7846 13.2108 37.6608 13.0754 37.5759 12.9299L23.2176 27.4262ZM52.1573 30.8368C53.4491 31.5822 53.8932 33.2393 53.1474 34.5304C52.4016 35.8215 50.7439 36.2655 49.452 35.52L48.8662 35.1819C49.6888 33.5199 50.2834 31.7284 50.505 29.8833L52.1573 30.8368ZM4.56206 9.61509L3.84608 9.20191C2.55432 8.45647 2.11013 6.79956 2.85593 5.50841C3.60179 4.21716 5.25949 3.77319 6.55126 4.51864L8.33491 5.54794C6.84555 6.66275 5.59196 8.07056 4.56206 9.61509Z" fill="url(#paint1_linear)"/>
<path d="M24.2182 20.7165C23.551 20.7712 22.9287 20.2446 22.8738 19.577L22.6833 17.2619C22.4735 17.2783 22.2462 17.2892 22.004 17.2912L21.5641 19.5852C21.263 21.1564 18.8145 20.6882 19.1158 19.1162L19.5251 16.9817C19.2463 16.9072 18.9568 16.8139 18.6606 16.7012L17.5754 18.58C16.7752 19.9653 14.6151 18.7216 15.4165 17.3342L16.4798 15.4934C16.2929 15.3525 16.1068 15.2003 15.9219 15.037L14.171 16.5504C12.9615 17.5959 11.3279 15.7141 12.5403 14.6657L14.2743 13.1668C14.1536 12.9926 14.0354 12.81 13.9192 12.6211L11.644 13.696C10.1931 14.3812 9.13138 12.1272 10.5787 11.4433L13.759 9.9407C14.369 9.54651 15.2304 9.77747 15.5546 10.4341C18.2922 15.9777 23.1833 14.7052 23.4608 14.6277C24.2105 14.4062 24.9935 14.9435 25.0576 15.721L25.3582 19.3727C25.4146 20.0584 24.9042 20.66 24.2182 20.7165Z" fill="url(#paint2_linear)"/>
<path d="M33.2315 10.413C33.6461 10.9519 34.4375 11.0546 34.9774 10.6422C35.5162 10.2307 35.6213 9.43429 35.2084 8.89679C34.7937 8.35696 34.0015 8.25501 33.4615 8.66696C32.9219 9.0786 32.8181 9.87568 33.2315 10.413Z" fill="url(#paint3_linear)"/>
<defs>
<linearGradient id="paint0_linear" x1="28.0017" y1="0" x2="28.0017" y2="44" gradientUnits="userSpaceOnUse">
<stop stop-color="#FECE10"/>
<stop offset="1" stop-color="#FE9F10"/>
</linearGradient>
<linearGradient id="paint1_linear" x1="28.0017" y1="0" x2="28.0017" y2="44" gradientUnits="userSpaceOnUse">
<stop stop-color="#FECE10"/>
<stop offset="1" stop-color="#FE9F10"/>
</linearGradient>
<linearGradient id="paint2_linear" x1="28.0017" y1="0" x2="28.0017" y2="44" gradientUnits="userSpaceOnUse">
<stop stop-color="#FECE10"/>
<stop offset="1" stop-color="#FE9F10"/>
</linearGradient>
<linearGradient id="paint3_linear" x1="28.0017" y1="0" x2="28.0017" y2="44" gradientUnits="userSpaceOnUse">
<stop stop-color="#FECE10"/>
<stop offset="1" stop-color="#FE9F10"/>
</linearGradient>
</defs>
</svg>
