<svg width="38" height="56" viewBox="0 0 38 56" fill="none" xmlns="http://www.w3.org/2000/svg">
<path d="M16.2619 24.0632V24.0623C16.2619 23.1562 15.5257 22.4221 14.6176 22.4221C13.7095 22.4221 12.9732 23.1571 12.9732 24.0632C12.9732 24.9692 13.7095 25.7038 14.6176 25.7038C15.5257 25.7038 16.2619 24.9692 16.2619 24.0632Z" fill="url(#paint0_linear)"/>
<path d="M23.3877 22.422C22.4796 22.422 21.7433 23.157 21.7433 24.0631C21.7433 24.9692 22.4796 25.7037 23.3877 25.7037C24.2958 25.7037 25.032 24.9692 25.032 24.0631V24.0622C25.032 23.1562 24.2958 22.422 23.3877 22.422Z" fill="url(#paint1_linear)"/>
<path d="M20.912 29.0215C20.3322 29.3555 19.6719 29.5319 19.0025 29.5319C18.3332 29.5319 17.6729 29.3554 17.0932 29.0215C16.5688 28.7194 15.8985 28.8987 15.5958 29.4218C15.293 29.9449 15.4727 30.6137 15.997 30.9158C16.9095 31.4415 17.9488 31.7194 19.0025 31.7194C20.0561 31.7194 21.0956 31.4415 22.0082 30.9159C22.5324 30.614 22.7122 29.945 22.4094 29.4219C22.1069 28.8989 21.4366 28.7196 20.912 29.0215Z" fill="url(#paint2_linear)"/>
<path d="M35.431 6.80182C37.1508 4.45267 37.3425 1.30356 37.3507 1.15306C37.3698 0.800328 37.217 0.460064 36.9406 0.239456C36.6641 0.0188473 36.2977 -0.0548711 35.957 0.0414878C32.1701 1.11259 28.0064 0.938359 23.9796 0.769813C23.3745 0.74575 22.8638 1.21322 22.8384 1.81675C22.8131 2.42027 23.2828 2.93007 23.8877 2.95533C27.5374 3.10802 31.2955 3.26541 34.9251 2.53785C34.6709 3.65489 34.1539 5.1484 33.12 6.13102C32.8622 6.37591 32.7238 6.72186 32.7753 7.07307C32.8265 7.42175 33.027 7.71575 33.3401 7.87741C33.4515 7.94642 34.483 8.62761 35.1815 10.5448C35.8364 12.3422 36.2871 15.5563 34.8989 20.828C34.7202 20.7979 34.537 20.7814 34.3498 20.7814H34.3132C33.8371 13.7937 28.8635 11.8508 28.6417 11.7676C28.2786 11.6317 27.8703 11.6974 27.5683 11.9406C27.2664 12.1837 27.1158 12.5679 27.1722 12.9509C27.213 13.2278 27.1941 13.6306 27.1246 14.0629C25.158 12.1483 22.0885 10.9735 18.5062 10.8315C15.7649 10.723 12.3831 11.2839 10.6829 13.1251C9.00272 13.2022 7.49617 13.8473 6.29919 15.0086C4.86959 16.3956 3.93747 18.4989 3.70967 20.7814H3.6553C3.44844 20.7814 3.2464 20.8014 3.05007 20.8381C1.9182 17.1955 1.74182 12.2527 3.6234 9.38787C4.56681 7.95145 5.95454 7.18277 7.74775 7.10325C8.06435 7.08925 8.35945 6.93919 8.55678 6.69168C9.97059 4.91926 11.8041 3.837 14.3269 3.28565C14.9184 3.15636 15.2928 2.57329 15.1632 1.98321C15.0337 1.39314 14.4489 1.01973 13.8578 1.1488C11.0355 1.76567 8.83697 3.01243 7.15371 4.95404C4.88034 5.18471 3.03285 6.29618 1.78962 8.18901C0.622456 9.96613 0.00352327 12.4018 1.53184e-05 15.2327C-0.00283489 17.5042 0.392138 19.8739 1.11653 21.9794C0.648218 22.5464 0.366706 23.2724 0.366706 24.0628C0.366706 25.872 1.84202 27.344 3.65541 27.344H4.67425C5.72082 30.0448 7.55613 32.453 9.90427 34.1873C11.3412 35.2487 12.9219 36.0369 14.591 36.5393C14.4183 39.1394 13.4054 39.3751 12.3701 39.3751H10.2324C6.00102 39.3751 2.55873 42.8097 2.55873 47.0313V54.9063C2.55873 55.5103 3.04963 56 3.65497 56H34.3495C34.9548 56 35.4457 55.5103 35.4457 54.9063V47.0313C35.4457 42.8097 32.0035 39.3751 27.7722 39.3751H25.6344C24.5989 39.3751 23.586 39.1393 23.4135 36.5395C25.0829 36.0371 26.6639 35.2488 28.1011 34.1872C30.4492 32.4529 32.2845 30.0447 33.3311 27.3439H34.3499C36.1633 27.3439 37.6386 25.8719 37.6386 24.0626C37.6386 23.2593 37.3474 22.5229 36.8653 21.9519C39.4709 12.6346 36.9839 8.41247 35.431 6.80182ZM4.75109 51.6249H9.13635V53.8125H4.75109V51.6249ZM28.868 53.8125V51.6249H33.2532V53.8125H28.868ZM27.7721 41.5626C30.7943 41.5626 33.2532 44.0158 33.2532 47.0313V49.4374H28.868C28.868 48.8333 28.3771 48.3437 27.7718 48.3437C27.1664 48.3437 26.6755 48.8333 26.6755 49.4374V53.8125H11.3288V49.4373C11.3288 48.8332 10.8379 48.3436 10.2326 48.3436C9.62725 48.3436 9.13635 48.8332 9.13635 49.4373H4.75109V47.0312C4.75109 44.0157 7.20994 41.5625 10.2323 41.5625H12.37C13.0446 41.5625 13.6078 41.4499 14.0806 41.271C15.4028 42.5235 17.1575 43.2292 19.0021 43.2292C20.8469 43.2292 22.6016 42.5235 23.9238 41.271C24.3967 41.45 24.9597 41.5625 25.6343 41.5625H27.7721V41.5626ZM22.0499 39.7139C22.087 39.7749 22.1279 39.837 22.1709 39.8992C21.2874 40.6323 20.171 41.0417 19.0022 41.0417C17.8334 41.0417 16.7172 40.6323 15.8338 39.8993C15.8751 39.8393 15.9144 39.7796 15.9504 39.7208C16.3816 39.0167 16.6429 38.1414 16.7512 37.0207C17.4912 37.1296 18.2427 37.1874 19.0026 37.1874C19.7624 37.1874 20.5136 37.1296 21.2534 37.0208C21.3614 38.1377 21.6212 39.011 22.0499 39.7139ZM34.3498 25.1564H32.558C32.0835 25.1564 31.6627 25.4611 31.5157 25.9113C29.7403 31.3474 24.7115 34.9999 19.0026 34.9999C13.2936 34.9999 8.26485 31.3474 6.48939 25.9112C6.34238 25.461 5.92165 25.1563 5.44709 25.1563H3.6553C3.05083 25.1563 2.55906 24.6656 2.55906 24.0625C2.55906 23.4594 3.05083 22.9688 3.65541 22.9688L4.75164 22.9687C5.35698 22.9686 5.84776 22.4789 5.84776 21.8749C5.84776 19.7603 6.58794 17.7796 7.82767 16.5768C8.69819 15.7322 9.77283 15.3047 11.0237 15.3047C11.0755 15.3047 11.1273 15.3055 11.1796 15.3069C11.5507 15.3167 11.9025 15.1392 12.1133 14.8338C12.9306 13.6494 15.524 12.9027 18.4193 13.0172C21.3489 13.1334 25.0279 14.2054 26.5675 16.8659C26.7628 17.2036 27.1236 17.4119 27.5144 17.4128H27.5168C27.9066 17.4128 28.2673 17.2062 28.4637 16.8702C28.8145 16.2703 29.0873 15.477 29.2424 14.6815C30.499 15.7289 32.1575 17.87 32.1575 21.875C32.1575 22.4791 32.6483 22.9688 33.2536 22.9688H34.3499C34.9544 22.9688 35.4462 23.4594 35.4462 24.0625C35.4462 24.6656 34.9542 25.1564 34.3498 25.1564Z" fill="url(#paint3_linear)"/>
<path d="M19.0026 2.83328C19.608 2.83328 20.0989 2.34361 20.0989 1.73953C20.0989 1.13546 19.608 0.645784 19.0026 0.645784H19.0019C18.3965 0.645784 17.9061 1.13546 17.9061 1.73953C17.9061 2.34361 18.3972 2.83328 19.0026 2.83328Z" fill="url(#paint4_linear)"/>
<defs>
<linearGradient id="paint0_linear" x1="19" y1="0" x2="19" y2="56" gradientUnits="userSpaceOnUse">
<stop stop-color="#FECE10"/>
<stop offset="1" stop-color="#FE9F10"/>
</linearGradient>
<linearGradient id="paint1_linear" x1="19" y1="0" x2="19" y2="56" gradientUnits="userSpaceOnUse">
<stop stop-color="#FECE10"/>
<stop offset="1" stop-color="#FE9F10"/>
</linearGradient>
<linearGradient id="paint2_linear" x1="19" y1="0" x2="19" y2="56" gradientUnits="userSpaceOnUse">
<stop stop-color="#FECE10"/>
<stop offset="1" stop-color="#FE9F10"/>
</linearGradient>
<linearGradient id="paint3_linear" x1="19" y1="0" x2="19" y2="56" gradientUnits="userSpaceOnUse">
<stop stop-color="#FECE10"/>
<stop offset="1" stop-color="#FE9F10"/>
</linearGradient>
<linearGradient id="paint4_linear" x1="19" y1="0" x2="19" y2="56" gradientUnits="userSpaceOnUse">
<stop stop-color="#FECE10"/>
<stop offset="1" stop-color="#FE9F10"/>
</linearGradient>
</defs>
</svg>
