<svg width="56" height="50" viewBox="0 0 56 50" fill="none" xmlns="http://www.w3.org/2000/svg">
<path d="M53.0667 19.3305C53.1008 19.2584 53.1269 19.1829 53.1448 19.1047C53.7481 16.4749 52.5215 14.7089 51.4649 13.8723C51.2252 11.9 49.3851 10.6382 47.879 10.0291C47.7257 8.17116 47.0275 6.66244 45.7975 5.53619C43.7843 3.69335 40.9 3.4447 39.4897 3.4447C39.4752 3.4447 39.4611 3.4447 39.4465 3.4447C38.0725 1.07176 34.9284 0.962118 33.0951 1.30617C32.0197 0.934923 30.9354 0.639654 29.8686 0.426836C29.2743 0.308556 28.6962 0.698794 28.5787 1.30012C28.4612 1.90102 28.8483 2.48465 29.4435 2.60336C30.5026 2.81488 31.5835 3.11663 32.6546 3.50039C32.8533 3.57205 33.0678 3.58371 33.2729 3.53493C33.3096 3.52629 36.9331 2.69402 37.7277 4.95386C37.8965 5.43259 38.3673 5.7339 38.868 5.68641C38.9026 5.68296 42.3608 5.37604 44.3295 7.1865C45.0221 7.82366 45.4497 8.64557 45.6245 9.68031C44.1432 9.75197 41.8327 10.2778 40.63 12.6839C40.3566 13.2309 40.5732 13.8978 41.1145 14.1745C41.2734 14.2552 41.4426 14.2937 41.6088 14.2937C42.01 14.2937 42.3966 14.0709 42.5898 13.6846C43.6023 11.66 46.1184 11.8633 46.5751 11.9186C46.981 12.0532 49.3885 12.9205 49.2915 14.4072C49.2629 14.8475 49.4953 15.2632 49.8837 15.4657C49.8875 15.4674 50.2772 15.6889 50.6151 16.1538C51.059 16.7642 51.2047 17.514 51.0501 18.3851L50.9761 18.4844C49.2719 18.6735 46.7088 19.757 46.3589 22.9601C46.2927 23.5692 46.7272 24.1174 47.33 24.1847C47.3711 24.189 47.4116 24.1912 47.4518 24.1912C48.0042 24.1912 48.4798 23.7712 48.5417 23.2035C48.7634 21.1738 50.4887 20.7701 51.2325 20.6907C56.0437 24.2564 52.6475 32.5718 52.4228 33.1049C51.2316 35.4058 49.7367 36.583 47.8628 36.6905C47.0596 36.0123 44.9567 34.5044 41.2815 33.6148C40.6915 33.4719 40.0989 33.8392 39.9575 34.4349C39.8165 35.0311 40.1797 35.6298 40.7697 35.7723C43.91 36.5325 45.7027 37.7813 46.364 38.3183C46.3555 38.6227 46.3158 38.9235 46.2427 39.2158C45.4617 42.3506 41.2623 43.9949 36.8814 42.8803C36.1563 42.6956 35.4539 42.4413 34.7938 42.124C34.4691 41.9677 34.0893 41.9824 33.777 42.1629C33.4651 42.3429 33.26 42.6666 33.2284 43.0284C33.1028 44.4646 33.1639 45.8481 33.4091 47.1561L30.5261 47.6404C30.4031 47.1993 30.2796 46.6834 30.1458 46.1227C29.5016 43.4268 28.571 39.5378 25.835 36.3469C28.1126 35.7865 30.3039 35.4166 32.3692 35.2452C32.9738 35.1951 33.4237 34.6594 33.3737 34.049C33.3241 33.4382 32.7935 32.9845 32.1898 33.0341C29.4601 33.2603 26.5335 33.812 23.4898 34.6732C20.6995 35.0548 18.7453 34.902 18.5265 34.8826C13.767 34.16 12.4379 31.2543 12.7472 28.9824C12.7967 28.6185 12.6647 28.2533 12.3947 28.0072C12.1247 27.7612 11.7521 27.6662 11.3988 27.7534L10.6028 27.9503C9.21473 27.8808 5.74508 27.3377 4.1835 25.5005C3.50504 24.7019 3.24527 23.7375 3.39011 22.5521C3.44565 22.0945 3.21579 21.6499 2.81247 21.4354C2.80777 21.4328 2.34037 21.1483 2.22544 20.6471C2.08872 20.0501 2.48521 19.3352 2.84195 18.841C3.05771 18.5418 3.11155 18.1533 2.98551 17.8058C2.97696 17.7825 2.16734 15.4225 3.09189 13.4635C3.60629 12.3736 4.59237 11.5698 6.02321 11.0751C6.43764 10.9317 6.72731 10.5609 6.76149 10.1198C6.76277 10.1055 6.90248 8.69867 7.91676 7.9346C8.61744 7.40709 9.6283 7.27197 10.9207 7.53314C11.2138 7.59185 11.5176 7.52839 11.7628 7.35615C12.0081 7.18391 12.1734 6.91843 12.2204 6.62014C12.2242 6.59596 12.716 4.28734 17 4.20532C17.6498 5.10192 19.0836 7.45759 18.0198 9.56807C17.7447 10.1141 17.96 10.7824 18.5 11.0604C18.6598 11.1424 18.8299 11.1813 18.9973 11.1813C19.3972 11.1813 19.783 10.9598 19.977 10.5752C20.3726 9.78996 20.5546 9.00257 20.5922 8.24239C21.1848 7.98769 22.1077 7.71401 22.8442 7.93546C23.3232 8.07878 23.6915 8.43017 23.9705 9.00862C24.1606 9.40317 24.5515 9.63239 24.9587 9.63239C25.1197 9.63239 25.2838 9.59613 25.4389 9.51972C25.9841 9.25165 26.2105 8.5873 25.9448 8.03648C25.3966 6.9003 24.5408 6.12975 23.4693 5.80815C22.3281 5.46583 21.1669 5.68426 20.3077 5.97693C20.021 4.98666 19.5703 4.12633 19.1738 3.49305C19.6908 3.26556 20.3889 3.00051 21.2485 2.77215C21.8351 2.61674 22.1859 2.0098 22.0316 1.41754C21.8774 0.824413 21.2767 0.470868 20.6905 0.626272C18.955 1.08687 17.766 1.68604 17.2388 1.98347C12.7916 1.98433 11.0724 3.94718 10.4251 5.21804C8.89259 5.0717 7.60188 5.39244 6.57821 6.17508C5.38491 7.08721 4.89614 8.39995 4.69961 9.21064C3.01243 9.92464 1.80631 11.0319 1.10948 12.5082C0.0981924 14.6515 0.487839 16.9576 0.754867 18.0018C0.0832387 19.097 -0.141919 20.1533 0.0862293 21.1479C0.279344 21.9914 0.756576 22.578 1.15861 22.9415C1.10777 24.4783 1.56321 25.8229 2.51725 26.9457C4.88247 29.7279 9.59669 30.1169 10.5276 30.1669C10.7673 33.2608 13.0984 36.3136 18.2339 37.0816C18.2501 37.0842 18.2668 37.0863 18.2834 37.088C18.3291 37.0928 18.8978 37.1489 19.8587 37.1489C20.7311 37.1489 21.9282 37.1023 23.3505 36.9279C26.3797 39.821 27.3192 43.7471 28.0109 46.6433C28.263 47.6974 28.4805 48.6083 28.7641 49.3102C28.9346 49.7324 29.3401 50 29.7801 50C29.8399 50 29.9002 49.9953 29.9609 49.9849L34.9293 49.1496C35.2386 49.0974 35.5112 48.9143 35.6782 48.6463C35.8453 48.3782 35.891 48.0505 35.8034 47.7462C35.5325 46.8021 35.3856 45.7967 35.3638 44.7426C35.6859 44.8514 36.0136 44.9476 36.3447 45.0318C38.9787 45.7018 41.6605 45.5563 43.8967 44.6217C46.2457 43.6401 47.835 41.9125 48.3721 39.7575C48.446 39.4597 48.4977 39.1567 48.5285 38.8506C50.4028 38.5873 52.6591 37.4602 54.389 34.0935C54.3992 34.0736 54.4086 34.0538 54.4176 34.0335C54.465 33.926 55.584 31.3592 55.9112 28.2291C56.3154 24.3609 55.3345 21.311 53.0667 19.3305Z" fill="url(#paint0_linear)"/>
<path d="M25.541 16.0705C25.5526 16.1348 25.838 17.6638 26.8877 19.1643C27.1381 19.5222 27.4448 19.896 27.8157 20.2543C27.6183 21.3939 25.8931 22.0177 25.8525 22.032C25.28 22.2292 24.9732 22.8573 25.1663 23.4366C25.321 23.8998 25.7482 24.1921 26.2067 24.1921C26.3233 24.1921 26.4416 24.1731 26.5579 24.1334C27.573 23.7876 29.0478 22.9264 29.7002 21.5424C30.5539 21.9318 31.5831 22.1839 32.8191 22.1839C32.8978 22.1839 32.9776 22.1826 33.058 22.1809C33.6642 22.1649 34.1432 21.656 34.1274 21.0434C34.1124 20.4404 33.6241 19.9621 33.0302 19.9621C33.0208 19.9621 33.0114 19.9625 33.002 19.9625C28.5962 20.0743 27.7375 15.8615 27.7003 15.6681C27.5897 15.0677 27.0189 14.6697 26.4237 14.7802C25.8273 14.8898 25.4321 15.4678 25.541 16.0705Z" fill="url(#paint1_linear)"/>
<path d="M38.9279 25.8118C40.8342 22.4459 40.0814 19.8433 39.1146 18.2526C38.093 16.5729 36.6212 15.688 36.5592 15.6513C36.0376 15.3422 35.3698 15.5183 35.0613 16.0433C34.7528 16.5686 34.925 17.2481 35.4433 17.5623C35.4544 17.5688 36.5562 18.2457 37.2808 19.4768C38.1956 21.0309 38.108 22.7913 37.0215 24.7097C36.7203 25.2415 36.9032 25.9192 37.4295 26.2236C37.6013 26.3233 37.7888 26.3703 37.9734 26.3703C38.3549 26.3703 38.7249 26.17 38.9279 25.8118Z" fill="url(#paint2_linear)"/>
<path d="M50.5656 28.4048C51.0591 28.0487 51.1736 27.3558 50.8211 26.8573C50.4686 26.3587 49.7829 26.243 49.2894 26.5991C48.2187 27.3718 47.2446 27.6623 46.394 27.462C45.1122 27.1612 44.3842 25.8316 44.3671 25.8005C44.0851 25.2613 43.425 25.0533 42.8888 25.3356C42.3509 25.6192 42.1424 26.2892 42.4231 26.8322C42.4663 26.9155 43.4178 28.7195 45.3177 29.4447C44.9776 30.802 44.761 33.1969 46.746 34.874C46.9515 35.0475 47.201 35.1326 47.4497 35.1326C47.7637 35.1326 48.0752 34.997 48.2926 34.735C48.6814 34.2649 48.6199 33.5651 48.1546 33.1719C46.943 32.1479 47.2835 30.4678 47.5223 29.7072C48.514 29.5846 49.5325 29.1503 50.5656 28.4048Z" fill="url(#paint3_linear)"/>
<path d="M18.2394 21.28C18.1634 20.6722 17.6139 20.2426 17.012 20.319C16.4104 20.3959 15.9844 20.9515 16.0609 21.5593C16.2515 23.0775 15.0727 24.1826 14.3746 24.695C12.6173 23.8161 10.6494 24.1511 10.5516 24.1683C9.95643 24.2745 9.56037 24.8469 9.66291 25.4487C9.76545 26.0505 10.3328 26.4549 10.9288 26.3544C10.9476 26.3509 12.801 26.0509 13.9102 27.0222C14.5433 27.5769 14.8497 28.5046 14.8202 29.7793C14.8061 30.3919 15.2863 30.9 15.8926 30.9142C15.9011 30.9146 15.9097 30.9146 15.9186 30.9146C16.5129 30.9146 17.0017 30.435 17.0158 29.8311C17.0504 28.3392 16.736 27.1115 16.0801 26.1653C17.1564 25.2626 18.5334 23.6223 18.2394 21.28Z" fill="url(#paint4_linear)"/>
<path d="M7.91378 15.464C7.79458 15.7523 7.61343 16.0105 7.38485 16.2453C6.78927 16.8587 6.04159 17.0866 6.01339 17.0953C5.43234 17.258 5.08926 17.8641 5.24649 18.4533C5.3785 18.948 5.82198 19.274 6.30563 19.274C6.40048 19.274 6.49661 19.2614 6.59274 19.2351C6.66195 19.2161 8.0411 18.8272 9.10622 17.6306C9.83937 18.1805 10.7007 18.4676 11.6445 18.4676C11.9072 18.4676 12.176 18.4456 12.4503 18.4007C13.6944 18.1982 14.6262 17.6055 14.7283 17.5386C15.2372 17.2054 15.3825 16.5186 15.0526 16.0044C14.7228 15.4903 14.043 15.3435 13.5338 15.6768C13.5278 15.6807 12.8886 16.0817 12.1012 16.2103C11.31 16.3394 10.6853 16.1572 10.1705 15.6409C10.4191 14.6848 10.3892 13.6194 10.0769 12.4577C9.91841 11.8663 9.31557 11.5171 8.72982 11.6777C8.14449 11.8383 7.79885 12.4474 7.95778 13.0388C8.20986 13.9781 8.20302 14.7638 7.93429 15.4156C7.92745 15.4316 7.92061 15.4476 7.91378 15.464Z" fill="url(#paint5_linear)"/>
<path d="M33.61 6.02658C31.7553 4.915 29.6238 5.48914 29.534 5.51417C28.9496 5.67692 28.6061 6.28775 28.7671 6.87828C28.9278 7.46882 29.5332 7.81546 30.1172 7.65358C30.13 7.6497 31.446 7.3091 32.4893 7.93461C33.1101 8.30672 33.5386 8.98575 33.7638 9.95228C33.883 10.4634 34.3337 10.8079 34.8319 10.8079C34.9152 10.8079 34.9994 10.7979 35.084 10.7781C35.6744 10.6378 36.0406 10.0403 35.9013 9.44419C35.5343 7.86813 34.7635 6.71813 33.61 6.02658Z" fill="url(#paint6_linear)"/>
<path d="M29.6323 26.944C28.85 28.3021 27.7195 29.0295 26.2729 29.1059C25.1108 29.1667 24.1529 28.7882 24.1294 28.7782C23.5697 28.5469 22.9306 28.8162 22.6994 29.3809C22.4674 29.9472 22.7336 30.596 23.2937 30.83C23.4227 30.884 24.537 31.3316 26.0118 31.3316C26.1024 31.3316 26.1947 31.3299 26.2883 31.326C27.8558 31.266 30.0382 30.6504 31.5306 28.0599C31.8356 27.5307 31.6579 26.8512 31.1337 26.543C30.6099 26.2348 29.9374 26.4143 29.6323 26.944Z" fill="url(#paint7_linear)"/>
<path d="M37.5829 33.4507C37.3236 33.06 36.8382 32.8727 36.3853 32.9962C35.9474 33.1149 35.6231 33.5029 35.577 33.9584C35.5304 34.4185 35.7872 34.8731 36.2003 35.0695C36.6032 35.2608 37.0946 35.1861 37.4197 34.877C37.8085 34.5079 37.8786 33.8971 37.5829 33.4507Z" fill="url(#paint8_linear)"/>
<path d="M24.3016 1.53108C24.4759 1.95758 24.9121 2.2373 25.368 2.21529C25.8145 2.19327 26.2109 1.89067 26.3545 1.4633C26.5002 1.03119 26.3613 0.539938 26.0123 0.249848C25.6436 -0.0566446 25.1035 -0.0842722 24.7066 0.184233C24.2772 0.474754 24.1038 1.04716 24.3016 1.53108Z" fill="url(#paint9_linear)"/>
<defs>
<linearGradient id="paint0_linear" x1="28" y1="0" x2="28" y2="50" gradientUnits="userSpaceOnUse">
<stop stop-color="#FECE10"/>
<stop offset="1" stop-color="#FE9F10"/>
</linearGradient>
<linearGradient id="paint1_linear" x1="28" y1="0" x2="28" y2="50" gradientUnits="userSpaceOnUse">
<stop stop-color="#FECE10"/>
<stop offset="1" stop-color="#FE9F10"/>
</linearGradient>
<linearGradient id="paint2_linear" x1="28" y1="0" x2="28" y2="50" gradientUnits="userSpaceOnUse">
<stop stop-color="#FECE10"/>
<stop offset="1" stop-color="#FE9F10"/>
</linearGradient>
<linearGradient id="paint3_linear" x1="28" y1="0" x2="28" y2="50" gradientUnits="userSpaceOnUse">
<stop stop-color="#FECE10"/>
<stop offset="1" stop-color="#FE9F10"/>
</linearGradient>
<linearGradient id="paint4_linear" x1="28" y1="0" x2="28" y2="50" gradientUnits="userSpaceOnUse">
<stop stop-color="#FECE10"/>
<stop offset="1" stop-color="#FE9F10"/>
</linearGradient>
<linearGradient id="paint5_linear" x1="28" y1="0" x2="28" y2="50" gradientUnits="userSpaceOnUse">
<stop stop-color="#FECE10"/>
<stop offset="1" stop-color="#FE9F10"/>
</linearGradient>
<linearGradient id="paint6_linear" x1="28" y1="0" x2="28" y2="50" gradientUnits="userSpaceOnUse">
<stop stop-color="#FECE10"/>
<stop offset="1" stop-color="#FE9F10"/>
</linearGradient>
<linearGradient id="paint7_linear" x1="28" y1="0" x2="28" y2="50" gradientUnits="userSpaceOnUse">
<stop stop-color="#FECE10"/>
<stop offset="1" stop-color="#FE9F10"/>
</linearGradient>
<linearGradient id="paint8_linear" x1="28" y1="0" x2="28" y2="50" gradientUnits="userSpaceOnUse">
<stop stop-color="#FECE10"/>
<stop offset="1" stop-color="#FE9F10"/>
</linearGradient>
<linearGradient id="paint9_linear" x1="28" y1="0" x2="28" y2="50" gradientUnits="userSpaceOnUse">
<stop stop-color="#FECE10"/>
<stop offset="1" stop-color="#FE9F10"/>
</linearGradient>
</defs>
</svg>
