<svg width="57" height="56" viewBox="0 0 57 56" fill="none" xmlns="http://www.w3.org/2000/svg">
<path d="M8.99869 32.7416C7.44791 34.2929 7.44791 36.8172 8.99869 38.3685C9.77434 39.1441 10.7934 39.5316 11.812 39.5316C12.8311 39.5316 13.8502 39.1441 14.6259 38.3685C16.1766 36.8172 16.1766 34.2929 14.6259 32.7416C13.0743 31.1898 10.55 31.1908 8.99869 32.7416ZM13.1868 36.9296C12.4289 37.6865 11.1964 37.6875 10.4375 36.9296C9.68021 36.1718 9.68021 34.9383 10.4375 34.1804C10.8166 33.8019 11.3144 33.6126 11.8123 33.6126C12.3096 33.6126 12.8075 33.8019 13.1865 34.1804C13.9438 34.9385 13.9438 36.1718 13.1868 36.9296Z" fill="url(#paint0_linear)"/>
<path d="M17.633 41.3759C16.0823 42.9272 16.0823 45.4516 17.633 47.0029C18.4087 47.7785 19.4278 48.1659 20.4464 48.1659C21.4655 48.1659 22.4846 47.7785 23.2602 47.0029C24.811 45.4516 24.811 42.9272 23.2602 41.3759C21.7084 39.8241 19.1838 39.8252 17.633 41.3759ZM21.8211 42.8148C22.5784 43.5729 22.5784 44.8062 21.8211 45.564C21.0633 46.3213 19.8307 46.3213 19.0719 45.564C18.3146 44.8062 18.3146 43.5726 19.0719 42.8148C19.4509 42.4362 19.9488 42.247 20.4466 42.247C20.9442 42.247 21.4421 42.4362 21.8211 42.8148Z" fill="url(#paint1_linear)"/>
<path d="M24.8288 16.9119C24.0771 17.6632 23.6632 18.6624 23.6632 19.7253C23.6632 20.7881 24.0771 21.7871 24.8288 22.5391C25.6044 23.3148 26.623 23.7027 27.6421 23.7027C28.6612 23.7027 29.6798 23.3148 30.4555 22.5391C31.2072 21.7874 31.6211 20.7881 31.6211 19.7253C31.6211 18.6624 31.2072 17.6634 30.4555 16.9119C28.9525 15.4085 26.3312 15.4085 24.8288 16.9119ZM29.0161 21.1C28.258 21.8573 27.0257 21.8573 26.2674 21.1C25.9003 20.7329 25.6981 20.2445 25.6981 19.7253C25.6981 19.2061 25.9003 18.7181 26.2674 18.351C26.6345 17.984 27.1224 17.7817 27.6416 17.7817C28.1608 17.7817 28.6488 17.984 29.0158 18.351C29.3829 18.7181 29.5852 19.2061 29.5852 19.7253C29.5852 20.2445 29.3834 20.7329 29.0161 21.1Z" fill="url(#paint2_linear)"/>
<path d="M36.2765 32.3386C37.3393 32.3386 38.3383 31.9247 39.0898 31.173C39.8415 30.4218 40.2554 29.4225 40.2554 28.3596C40.2554 27.2968 39.8415 26.2978 39.0898 25.5463C37.5874 24.0428 34.9664 24.0428 33.4629 25.5463C31.9116 27.0976 31.9116 29.6217 33.4629 31.1727C34.2144 31.9247 35.2136 32.3386 36.2765 32.3386ZM34.9015 26.9854C35.2686 26.6183 35.757 26.4161 36.2762 26.4161C36.7954 26.4161 37.2834 26.6183 37.6505 26.9854C38.0175 27.3525 38.2198 27.8404 38.2198 28.3596C38.2198 28.8789 38.0175 29.3668 37.6505 29.7339C36.916 30.4683 35.6357 30.4683 34.9012 29.7339C34.1439 28.9763 34.1439 27.743 34.9015 26.9854Z" fill="url(#paint3_linear)"/>
<path d="M35.5563 15.787C36.5754 15.787 37.5945 15.3996 38.3701 14.6239C39.9209 13.0726 39.9209 10.5483 38.3701 8.997C36.8183 7.44571 34.294 7.44571 32.7432 8.997C31.1924 10.5483 31.1924 13.0726 32.7432 14.6239C33.5188 15.3996 34.5379 15.787 35.5563 15.787ZM34.1821 10.4359C34.5611 10.0573 35.0589 9.86805 35.5563 9.86805C36.0541 9.86805 36.552 10.0573 36.931 10.4359C37.6883 11.1939 37.6883 12.4272 36.931 13.1851C36.1732 13.9419 34.9407 13.9429 34.1818 13.1851C33.425 12.4272 33.425 11.1937 34.1821 10.4359Z" fill="url(#paint4_linear)"/>
<path d="M44.1909 24.4216C45.21 24.4216 46.2291 24.0342 47.0047 23.2585C48.5555 21.7073 48.5555 19.1829 47.0047 17.6316C45.4534 16.0798 42.9291 16.0808 41.3778 17.6316C39.827 19.1829 39.827 21.7073 41.3778 23.2585C42.1532 24.0339 43.1723 24.4216 44.1909 24.4216ZM42.8167 19.0702C43.1957 18.6917 43.6935 18.5024 44.1909 18.5024C44.6887 18.5024 45.1866 18.6917 45.5656 19.0702C46.323 19.8283 46.323 21.0616 45.5656 21.8194C44.8078 22.5763 43.5753 22.5773 42.8164 21.8194C42.0593 21.0619 42.0593 19.8281 42.8167 19.0702Z" fill="url(#paint5_linear)"/>
<path d="M16.9136 24.8269C16.1619 25.5781 15.748 26.5774 15.748 27.6402C15.748 28.7031 16.1619 29.7021 16.9136 30.4536C17.6648 31.2053 18.6641 31.6192 19.7269 31.6192C20.7898 31.6192 21.7888 31.2053 22.5408 30.4536C24.0921 28.9023 24.0921 26.3782 22.5408 24.8271C21.0371 23.3234 18.4163 23.3234 16.9136 24.8269ZM21.1017 29.0145C20.3673 29.7489 19.0869 29.7489 18.3525 29.0145C17.9854 28.6474 17.7831 28.1594 17.7831 27.6402C17.7831 27.121 17.9854 26.6331 18.3525 26.266C18.7196 25.8989 19.2075 25.6967 19.7267 25.6967C20.2459 25.6967 20.7343 25.8989 21.1014 26.266C21.8595 27.0236 21.8595 28.2569 21.1017 29.0145Z" fill="url(#paint6_linear)"/>
<path d="M42.0326 13.9691C41.6353 13.5718 40.9911 13.5718 40.5938 13.9691L13.9708 40.5919C13.5734 40.9893 13.5734 41.6334 13.9708 42.0307C14.1695 42.2294 14.43 42.3289 14.6902 42.3289C14.9505 42.3289 15.211 42.2294 15.4096 42.0307L42.0324 15.408C42.43 15.0104 42.43 14.3665 42.0326 13.9691Z" fill="url(#paint7_linear)"/>
<path d="M48.0302 26.6794C47.6328 26.282 46.9887 26.282 46.5913 26.6794L45.6305 27.6402C45.2331 28.0376 45.2331 28.6817 45.6305 29.0791C45.8292 29.2778 46.0897 29.3772 46.3499 29.3772C46.6102 29.3772 46.8707 29.2778 47.0693 29.0791L48.0302 28.1182C48.4275 27.7206 48.4275 27.0767 48.0302 26.6794Z" fill="url(#paint8_linear)"/>
<path d="M41.102 35.0464L44.6605 31.4879C45.0579 31.0906 45.0579 30.4464 44.6605 30.0491C44.2631 29.6517 43.619 29.6517 43.2216 30.0491L39.2844 33.9863C38.013 33.4139 36.6074 33.0878 35.1248 33.0878C29.5137 33.0878 24.9491 37.6524 24.9491 43.2635C24.9491 44.7461 25.2753 46.1517 25.8476 47.4231L19.7272 53.5436L2.45825 36.2746L36.2765 2.4563L53.5454 19.7253L48.5916 24.6791C48.1943 25.0764 48.1943 25.7206 48.5916 26.1179C48.989 26.5153 49.6331 26.5153 50.0305 26.1179L55.7037 20.4447C56.101 20.0473 56.101 19.4032 55.7037 19.0059L36.9959 0.298022C36.5985 -0.0993406 35.9544 -0.0993406 35.557 0.298022L0.29973 35.5552C-0.0976314 35.9525 -0.0976314 36.5966 0.29973 36.994L19.0075 55.7018C19.2062 55.9005 19.4667 56 19.7269 56C19.9872 56 20.2477 55.9005 20.4464 55.7018L26.9074 49.2408C28.7594 51.7796 31.7483 53.4393 35.1246 53.4393C40.7357 53.4393 45.3003 48.8747 45.3003 43.2635C45.3003 39.8872 43.6409 36.8984 41.102 35.0464ZM35.1246 35.1229C39.2679 35.1229 42.6912 38.2367 43.1944 42.246H27.0547C27.5582 38.2367 30.9813 35.1229 35.1246 35.1229ZM35.1246 51.4041C30.9813 51.4041 27.5579 48.2904 27.0547 44.2811H43.1944C42.6912 48.2904 39.2679 51.4041 35.1246 51.4041Z" fill="url(#paint9_linear)"/>
<defs>
<linearGradient id="paint0_linear" x1="28.0017" y1="0" x2="28.0017" y2="56" gradientUnits="userSpaceOnUse">
<stop stop-color="#FECE10"/>
<stop offset="1" stop-color="#FE9F10"/>
</linearGradient>
<linearGradient id="paint1_linear" x1="28.0017" y1="0" x2="28.0017" y2="56" gradientUnits="userSpaceOnUse">
<stop stop-color="#FECE10"/>
<stop offset="1" stop-color="#FE9F10"/>
</linearGradient>
<linearGradient id="paint2_linear" x1="28.0017" y1="0" x2="28.0017" y2="56" gradientUnits="userSpaceOnUse">
<stop stop-color="#FECE10"/>
<stop offset="1" stop-color="#FE9F10"/>
</linearGradient>
<linearGradient id="paint3_linear" x1="28.0017" y1="0" x2="28.0017" y2="56" gradientUnits="userSpaceOnUse">
<stop stop-color="#FECE10"/>
<stop offset="1" stop-color="#FE9F10"/>
</linearGradient>
<linearGradient id="paint4_linear" x1="28.0017" y1="0" x2="28.0017" y2="56" gradientUnits="userSpaceOnUse">
<stop stop-color="#FECE10"/>
<stop offset="1" stop-color="#FE9F10"/>
</linearGradient>
<linearGradient id="paint5_linear" x1="28.0017" y1="0" x2="28.0017" y2="56" gradientUnits="userSpaceOnUse">
<stop stop-color="#FECE10"/>
<stop offset="1" stop-color="#FE9F10"/>
</linearGradient>
<linearGradient id="paint6_linear" x1="28.0017" y1="0" x2="28.0017" y2="56" gradientUnits="userSpaceOnUse">
<stop stop-color="#FECE10"/>
<stop offset="1" stop-color="#FE9F10"/>
</linearGradient>
<linearGradient id="paint7_linear" x1="28.0017" y1="0" x2="28.0017" y2="56" gradientUnits="userSpaceOnUse">
<stop stop-color="#FECE10"/>
<stop offset="1" stop-color="#FE9F10"/>
</linearGradient>
<linearGradient id="paint8_linear" x1="28.0017" y1="0" x2="28.0017" y2="56" gradientUnits="userSpaceOnUse">
<stop stop-color="#FECE10"/>
<stop offset="1" stop-color="#FE9F10"/>
</linearGradient>
<linearGradient id="paint9_linear" x1="28.0017" y1="0" x2="28.0017" y2="56" gradientUnits="userSpaceOnUse">
<stop stop-color="#FECE10"/>
<stop offset="1" stop-color="#FE9F10"/>
</linearGradient>
</defs>
</svg>
