<svg width="1920" height="6904" viewBox="0 0 1920 6904" fill="none" xmlns="http://www.w3.org/2000/svg">
<g clip-path="url(#clip0)">
<path d="M883.998 30.9996C883.998 30.9996 691 -47 527 74C363 195 293.304 579.57 458.001 864C784.002 1427 1546 1432 1522 2216C1498 3000 486 2290 382 3050C278 3810 1597 3416 1369 4068C1141 4720 442 4498 384 5004C326 5510 1230 5274 1330 6106C1391.65 6618.93 1695.79 6819.44 1920 6897.79" stroke="white" stroke-width="12" stroke-linecap="round"/>
<path d="M1274.71 5814.51C1274.15 5816.7 1274.12 5818.75 1274.71 5820.93C1275 5822.02 1275.29 5823.1 1275.78 5823.85C1277.32 5826.35 1279.25 5828.16 1282.11 5829.14L1269.7 5875.33C1269.77 5875.61 1269.5 5875.68 1269.58 5875.95C1269.65 5876.22 1270.07 5876.69 1270.41 5876.89C1271.02 5877.02 1271.83 5876.8 1271.95 5876.19L1284.29 5829.72C1287 5830.16 1289.77 5829.71 1292.31 5828.44C1295.06 5826.83 1297.24 5824.2 1298.12 5821.05C1298.24 5820.43 1298.02 5819.62 1297.41 5819.49C1296.8 5819.36 1295.99 5819.58 1295.87 5820.19C1295.11 5822.73 1293.66 5824.87 1291.39 5826.06L1291.12 5826.14L1293.01 5819.21C1293.13 5818.6 1292.91 5817.78 1292.3 5817.66C1291.69 5817.53 1290.88 5817.75 1290.76 5818.36L1288.43 5826.86C1287.35 5827.15 1286.2 5827.17 1285.24 5826.84L1287.9 5817.38C1288.02 5816.77 1287.8 5815.95 1287.19 5815.82C1286.58 5815.7 1285.77 5815.91 1285.65 5816.53L1282.99 5825.99C1282.04 5825.66 1281.01 5825.06 1280.18 5824.12L1282.52 5815.62C1282.64 5815 1282.42 5814.19 1281.81 5814.06C1281.2 5813.93 1280.39 5814.15 1280.27 5814.77L1278.38 5821.69L1278.3 5821.42C1277.11 5819.12 1276.64 5816.32 1277.41 5813.79C1277.53 5813.17 1277.31 5812.36 1276.7 5812.23C1275.57 5813.41 1274.84 5813.9 1274.71 5814.51Z" fill="white"/>
<path d="M1176.1 5784.55C1177.98 5785.03 1179.75 5785.06 1181.62 5784.55C1182.55 5784.3 1183.49 5784.05 1184.13 5783.63C1186.28 5782.31 1187.84 5780.64 1188.68 5778.18L1228.42 5788.87C1228.66 5788.8 1228.72 5789.04 1228.95 5788.97C1229.19 5788.91 1229.59 5788.55 1229.76 5788.26C1229.87 5787.73 1229.69 5787.04 1229.16 5786.93L1189.18 5776.31C1189.56 5773.97 1189.17 5771.59 1188.08 5769.4C1186.69 5767.04 1184.43 5765.16 1181.72 5764.4C1181.19 5764.29 1180.49 5764.48 1180.38 5765.01C1180.27 5765.54 1180.46 5766.23 1180.99 5766.34C1183.17 5766.99 1185.01 5768.24 1186.04 5770.2L1186.1 5770.43L1180.14 5768.8C1179.61 5768.69 1178.91 5768.88 1178.8 5769.41C1178.69 5769.93 1178.88 5770.63 1179.41 5770.74L1186.72 5772.75C1186.97 5773.67 1186.99 5774.66 1186.7 5775.48L1178.57 5773.2C1178.04 5773.09 1177.33 5773.28 1177.22 5773.81C1177.12 5774.33 1177.3 5775.03 1177.83 5775.13L1185.97 5777.42C1185.69 5778.24 1185.17 5779.12 1184.36 5779.84L1177.05 5777.83C1176.52 5777.72 1175.82 5777.91 1175.71 5778.44C1175.6 5778.96 1175.79 5779.66 1176.32 5779.77L1182.27 5781.39L1182.04 5781.46C1180.06 5782.49 1177.66 5782.88 1175.48 5782.23C1174.95 5782.12 1174.24 5782.31 1174.13 5782.84C1175.15 5783.81 1175.57 5784.44 1176.1 5784.55Z" fill="white"/>
<path d="M1204.1 5631.48C1203.23 5634.86 1203.19 5638.01 1204.09 5641.36C1204.54 5643.04 1204.99 5644.71 1205.74 5645.86C1208.11 5649.71 1211.09 5652.51 1215.5 5654.02L1196.36 5725.18C1196.47 5725.6 1196.06 5725.71 1196.17 5726.13C1196.28 5726.55 1196.92 5727.27 1197.45 5727.58C1198.39 5727.78 1199.64 5727.44 1199.83 5726.49L1218.85 5654.91C1223.04 5655.58 1227.3 5654.89 1231.22 5652.93C1235.45 5650.45 1238.81 5646.4 1240.18 5641.54C1240.37 5640.6 1240.03 5639.34 1239.08 5639.14C1238.14 5638.95 1236.9 5639.28 1236.71 5640.23C1235.53 5644.14 1233.3 5647.43 1229.8 5649.27L1229.38 5649.39L1232.3 5638.72C1232.49 5637.77 1232.15 5636.52 1231.21 5636.32C1230.26 5636.12 1229.02 5636.46 1228.83 5637.41L1225.23 5650.5C1223.57 5650.95 1221.8 5650.98 1220.33 5650.47L1224.42 5635.9C1224.61 5634.95 1224.27 5633.69 1223.33 5633.5C1222.39 5633.3 1221.14 5633.64 1220.95 5634.59L1216.86 5649.16C1215.39 5648.66 1213.81 5647.73 1212.53 5646.28L1216.13 5633.19C1216.32 5632.24 1215.98 5630.98 1215.04 5630.79C1214.09 5630.59 1212.85 5630.92 1212.66 5631.87L1209.74 5642.54L1209.63 5642.12C1207.79 5638.57 1207.08 5634.27 1208.25 5630.36C1208.44 5629.42 1208.1 5628.16 1207.16 5627.96C1205.42 5629.78 1204.29 5630.53 1204.1 5631.48Z" fill="white"/>
<path d="M446.275 4902.31C443.666 4904.63 441.87 4907.22 440.747 4910.5C440.185 4912.15 439.624 4913.79 439.609 4915.16C439.425 4919.68 440.334 4923.66 443.151 4927.37L387.548 4975.73C387.408 4976.14 387.001 4976 386.861 4976.41C386.721 4976.83 386.846 4977.79 387.112 4978.33C387.785 4979.02 389.005 4979.44 389.692 4978.76L445.435 4929.99C448.532 4932.88 452.457 4934.68 456.803 4935.25C461.697 4935.55 466.745 4934.07 470.588 4930.8C471.276 4930.12 471.697 4928.89 471.024 4928.2C470.351 4927.51 469.132 4927.09 468.444 4927.77C465.288 4930.36 461.6 4931.85 457.661 4931.42L457.254 4931.28L465.628 4924.06C466.315 4923.38 466.737 4922.15 466.064 4921.46C465.391 4920.77 464.172 4920.35 463.484 4921.03L453.189 4929.89C451.562 4929.33 450.077 4928.37 449.138 4927.13L460.668 4917.32C461.355 4916.64 461.776 4915.41 461.104 4914.72C460.431 4914.03 459.211 4913.61 458.524 4914.29L446.994 4924.1C446.055 4922.86 445.257 4921.22 445.005 4919.3L455.301 4910.44C455.988 4909.76 456.409 4908.53 455.737 4907.84C455.064 4907.15 453.844 4906.73 453.157 4907.42L444.783 4914.64L444.924 4914.23C445.374 4910.25 447.185 4906.29 450.341 4903.7C451.028 4903.02 451.449 4901.79 450.776 4901.1C448.323 4901.64 446.963 4901.63 446.275 4902.31Z" fill="white"/>
<path d="M407.397 4802.05C407.815 4804.09 408.619 4805.79 409.979 4807.34C410.659 4808.12 411.338 4808.9 412.041 4809.32C414.32 4810.76 416.645 4811.48 419.401 4811.13L427.794 4854.24C427.964 4854.44 427.771 4854.61 427.941 4854.8C428.111 4855 428.644 4855.22 429.007 4855.24C429.563 4855.1 430.142 4854.6 429.995 4854.04L421.432 4810.73C423.848 4809.99 425.948 4808.51 427.537 4806.43C429.15 4804 429.889 4800.95 429.347 4797.99C429.2 4797.43 428.69 4796.85 428.135 4796.99C427.579 4797.13 427 4797.64 427.147 4798.19C427.542 4800.59 427.211 4802.94 425.814 4804.85L425.621 4805.02L424.39 4798.54C424.243 4797.98 423.733 4797.4 423.177 4797.54C422.622 4797.68 422.043 4798.19 422.19 4798.75L423.692 4806.7C422.92 4807.37 421.978 4807.85 421.06 4807.97L419.433 4799.09C419.286 4798.54 418.776 4797.95 418.22 4798.09C417.665 4798.24 417.086 4798.74 417.233 4799.3L418.859 4808.17C417.94 4808.29 416.851 4808.21 415.786 4807.77L414.283 4799.81C414.136 4799.26 413.626 4798.67 413.071 4798.81C412.515 4798.96 411.936 4799.46 412.083 4800.02L413.314 4806.49L413.144 4806.3C411.228 4804.88 409.721 4802.77 409.326 4800.37C409.179 4799.81 408.669 4799.22 408.113 4799.37C407.659 4800.79 407.25 4801.49 407.397 4802.05Z" fill="white"/>
<path d="M668.019 4567.38C667.186 4570.59 667.144 4573.6 668 4576.79C668.427 4578.39 668.855 4579.99 669.572 4581.08C671.828 4584.75 674.661 4587.42 678.862 4588.86L660.575 4656.65C660.682 4657.05 660.286 4657.16 660.393 4657.56C660.5 4657.95 661.11 4658.65 661.612 4658.94C662.51 4659.13 663.696 4658.81 663.878 4657.91L682.058 4589.71C686.045 4590.36 690.107 4589.69 693.847 4587.84C697.877 4585.47 701.083 4581.62 702.386 4576.99C702.567 4576.09 702.246 4574.89 701.348 4574.7C700.451 4574.52 699.264 4574.83 699.083 4575.74C697.961 4579.46 695.834 4582.6 692.489 4584.35L692.094 4584.46L694.882 4574.3C695.063 4573.39 694.742 4572.19 693.844 4572.01C692.946 4571.82 691.76 4572.14 691.579 4573.04L688.139 4585.52C686.557 4585.94 684.868 4585.96 683.468 4585.48L687.378 4571.6C687.559 4570.7 687.238 4569.5 686.34 4569.31C685.442 4569.12 684.256 4569.44 684.074 4570.35L680.165 4584.23C678.765 4583.75 677.257 4582.87 676.038 4581.48L679.478 4569.01C679.66 4568.11 679.339 4566.91 678.441 4566.72C677.543 4566.53 676.356 4566.85 676.175 4567.76L673.387 4577.92L673.28 4577.52C671.526 4574.14 670.852 4570.04 671.974 4566.32C672.155 4565.41 671.835 4564.21 670.937 4564.03C669.28 4565.75 668.201 4566.47 668.019 4567.38Z" fill="white"/>
<path d="M1273.01 3830.43C1276.89 3831.89 1280.6 3832.34 1284.67 3831.7C1286.7 3831.38 1288.73 3831.06 1290.17 3830.31C1295.01 3828 1298.68 3824.83 1301.01 3819.8L1382.53 3851.52C1383.04 3851.44 1383.12 3851.95 1383.62 3851.87C1384.13 3851.79 1385.07 3851.12 1385.5 3850.53C1385.84 3849.44 1385.6 3847.93 1384.51 3847.58L1302.48 3815.94C1303.8 3811.06 1303.51 3805.93 1301.7 3801.03C1299.3 3795.71 1294.94 3791.21 1289.39 3788.98C1288.29 3788.63 1286.77 3788.87 1286.42 3789.96C1286.07 3791.06 1286.31 3792.57 1287.4 3792.92C1291.87 3794.81 1295.47 3797.87 1297.2 3802.26L1297.28 3802.76L1285.07 3797.95C1283.98 3797.6 1282.45 3797.84 1282.11 3798.94C1281.76 3800.03 1282 3801.54 1283.09 3801.89L1298.08 3807.82C1298.4 3809.84 1298.21 3811.94 1297.43 3813.62L1280.76 3806.92C1279.67 3806.58 1278.14 3806.82 1277.79 3807.91C1277.44 3809 1277.68 3810.52 1278.78 3810.86L1295.45 3817.56C1294.67 3819.24 1293.39 3821 1291.52 3822.33L1276.53 3816.4C1275.43 3816.05 1273.91 3816.29 1273.56 3817.38C1273.21 3818.48 1273.45 3819.99 1274.55 3820.34L1286.76 3825.15L1286.25 3825.23C1281.84 3826.96 1276.68 3827.26 1272.22 3825.37C1271.12 3825.02 1269.6 3825.26 1269.25 3826.36C1271.17 3828.64 1271.92 3830.08 1273.01 3830.43Z" fill="white"/>
<path d="M1304.01 3710.68C1304.37 3712.85 1305.15 3714.68 1306.52 3716.37C1307.21 3717.22 1307.89 3718.07 1308.62 3718.54C1310.97 3720.15 1313.4 3721 1316.33 3720.73L1323.39 3766.65C1323.56 3766.86 1323.35 3767.04 1323.52 3767.25C1323.69 3767.46 1324.25 3767.71 1324.63 3767.76C1325.23 3767.63 1325.86 3767.11 1325.73 3766.52L1318.5 3720.38C1321.09 3719.69 1323.38 3718.2 1325.15 3716.06C1326.96 3713.55 1327.87 3710.35 1327.42 3707.2C1327.29 3706.6 1326.78 3705.97 1326.18 3706.1C1325.59 3706.23 1324.95 3706.74 1325.08 3707.33C1325.4 3709.89 1324.95 3712.36 1323.39 3714.32L1323.18 3714.49L1322.15 3707.6C1322.02 3707 1321.5 3706.37 1320.91 3706.5C1320.32 3706.63 1319.68 3707.14 1319.81 3707.73L1321.07 3716.2C1320.22 3716.89 1319.2 3717.36 1318.22 3717.45L1316.88 3708C1316.75 3707.4 1316.23 3706.77 1315.64 3706.89C1315.04 3707.02 1314.41 3707.54 1314.54 3708.13L1315.89 3717.58C1314.91 3717.67 1313.76 3717.55 1312.65 3717.04L1311.4 3708.57C1311.26 3707.97 1310.75 3707.34 1310.15 3707.46C1309.56 3707.59 1308.93 3708.11 1309.06 3708.7L1310.09 3715.6L1309.91 3715.39C1307.95 3713.82 1306.44 3711.52 1306.12 3708.97C1305.99 3708.37 1305.48 3707.73 1304.88 3707.86C1304.34 3709.36 1303.88 3710.08 1304.01 3710.68Z" fill="white"/>
<path d="M499.195 2816.56C497.209 2817.25 495.612 2818.27 494.232 2819.84C493.542 2820.62 492.852 2821.4 492.529 2822.16C491.389 2824.63 490.983 2827.05 491.7 2829.77L449.6 2843.76C449.427 2843.95 449.233 2843.78 449.06 2843.97C448.888 2844.17 448.737 2844.73 448.76 2845.1C448.977 2845.64 449.561 2846.15 450.101 2845.94L492.373 2831.76C493.436 2834.08 495.211 2836 497.503 2837.32C500.162 2838.62 503.317 2838.97 506.21 2838.05C506.75 2837.83 507.267 2837.24 507.05 2836.7C506.833 2836.16 506.249 2835.65 505.709 2835.87C503.356 2836.57 500.958 2836.55 498.861 2835.39L498.666 2835.22L504.992 2833.15C505.531 2832.93 506.049 2832.34 505.832 2831.8C505.615 2831.26 505.031 2830.75 504.491 2830.97L496.719 2833.5C495.94 2832.82 495.333 2831.93 495.094 2831.03L503.773 2828.25C504.313 2828.03 504.831 2827.44 504.614 2826.9C504.397 2826.37 503.812 2825.85 503.273 2826.07L494.593 2828.85C494.354 2827.94 494.287 2826.84 494.588 2825.71L502.36 2823.18C502.9 2822.96 503.417 2822.37 503.201 2821.83C502.984 2821.29 502.399 2820.78 501.86 2821L495.534 2823.07L495.706 2822.87C496.869 2820.77 498.789 2818.99 501.142 2818.28C501.682 2818.06 502.199 2817.47 501.982 2816.93C500.491 2816.66 499.734 2816.34 499.195 2816.56Z" fill="white"/>
<path d="M467.342 2686.21C467.603 2689.98 468.641 2693.23 470.716 2696.35C471.753 2697.91 472.791 2699.47 473.958 2700.39C477.718 2703.52 481.737 2705.35 486.793 2705.37L491.486 2784.98C491.745 2785.37 491.357 2785.63 491.616 2786.02C491.875 2786.41 492.783 2786.94 493.431 2787.07C494.468 2786.94 495.634 2786.17 495.504 2785.13L490.552 2705.12C495.088 2704.36 499.236 2702.17 502.605 2698.81C506.103 2694.79 508.176 2689.48 507.915 2684.02C507.785 2682.98 507.006 2681.81 505.969 2681.94C504.932 2682.06 503.766 2682.84 503.896 2683.88C504.027 2688.29 502.862 2692.44 499.882 2695.55L499.493 2695.81L498.841 2683.86C498.711 2682.82 497.932 2681.65 496.896 2681.77C495.859 2681.9 494.692 2682.68 494.822 2683.71L495.605 2698.39C494.05 2699.42 492.235 2700.07 490.55 2700.06L489.767 2683.7C489.637 2682.66 488.859 2681.49 487.822 2681.61C486.785 2681.74 485.618 2682.51 485.748 2683.55L486.532 2699.91C484.846 2699.91 482.902 2699.51 481.087 2698.47L480.304 2683.79C480.174 2682.75 479.396 2681.58 478.359 2681.71C477.322 2681.83 476.156 2682.61 476.286 2683.65L476.938 2695.59L476.678 2695.2C473.566 2692.21 471.361 2688.04 471.23 2683.63C471.1 2682.59 470.322 2681.42 469.285 2681.54C468.119 2684 467.212 2685.17 467.342 2686.21Z" fill="white"/>
<path d="M1468.84 2105.51C1470.34 2107.25 1472.03 2108.47 1474.19 2109.24C1475.27 2109.62 1476.34 2110.01 1477.25 2110.03C1480.23 2110.19 1482.86 2109.62 1485.34 2107.79L1516.65 2145.03C1516.92 2145.13 1516.83 2145.4 1517.1 2145.5C1517.37 2145.59 1518 2145.52 1518.37 2145.35C1518.83 2144.91 1519.12 2144.1 1518.67 2143.64L1487.09 2106.3C1489.03 2104.28 1490.26 2101.69 1490.69 2098.82C1490.94 2095.58 1490.01 2092.22 1487.9 2089.65C1487.45 2089.19 1486.65 2088.9 1486.19 2089.34C1485.72 2089.78 1485.44 2090.58 1485.88 2091.04C1487.55 2093.16 1488.49 2095.61 1488.17 2098.22L1488.07 2098.48L1483.4 2092.88C1482.96 2092.42 1482.15 2092.13 1481.69 2092.57C1481.22 2093 1480.94 2093.81 1481.38 2094.27L1487.11 2101.17C1486.73 2102.24 1486.07 2103.21 1485.25 2103.82L1478.9 2096.1C1478.46 2095.64 1477.65 2095.35 1477.19 2095.79C1476.73 2096.23 1476.44 2097.04 1476.88 2097.5L1483.23 2105.22C1482.4 2105.83 1481.3 2106.34 1480.03 2106.49L1474.3 2099.6C1473.86 2099.14 1473.05 2098.85 1472.59 2099.29C1472.13 2099.73 1471.84 2100.53 1472.28 2100.99L1476.96 2106.6L1476.69 2106.5C1474.07 2106.17 1471.48 2104.94 1469.8 2102.83C1469.36 2102.36 1468.55 2102.07 1468.09 2102.51C1468.42 2104.14 1468.4 2105.04 1468.84 2105.51Z" fill="white"/>
<path d="M1534.43 1982.7C1533.37 1985.71 1533.09 1988.59 1533.66 1991.71C1533.94 1993.27 1534.22 1994.83 1534.82 1995.93C1536.7 1999.62 1539.21 2002.39 1543.13 2004.1L1520.12 2067.51C1520.19 2067.9 1519.8 2067.97 1519.87 2068.36C1519.94 2068.75 1520.47 2069.46 1520.93 2069.78C1521.78 2070.03 1522.94 2069.82 1523.19 2068.97L1546.13 2005.16C1549.91 2006.09 1553.86 2005.78 1557.61 2004.29C1561.67 2002.35 1565.06 1998.91 1566.68 1994.59C1566.93 1993.74 1566.71 1992.57 1565.87 1992.32C1565.02 1992.07 1563.85 1992.28 1563.61 1993.13C1562.23 1996.6 1559.94 1999.44 1556.58 2000.85L1556.19 2000.92L1559.69 1991.42C1559.93 1990.57 1559.72 1989.4 1558.87 1989.15C1558.03 1988.9 1556.86 1989.11 1556.61 1989.96L1552.31 2001.63C1550.75 2001.91 1549.13 2001.8 1547.82 2001.23L1552.69 1988.26C1552.94 1987.41 1552.73 1986.23 1551.88 1985.99C1551.03 1985.74 1549.87 1985.95 1549.62 1986.8L1544.75 1999.77C1543.44 1999.2 1542.06 1998.24 1541.01 1996.82L1545.31 1985.16C1545.56 1984.31 1545.35 1983.14 1544.5 1982.89C1543.65 1982.64 1542.48 1982.85 1542.24 1983.7L1538.74 1993.2L1538.67 1992.81C1537.26 1989.44 1536.94 1985.47 1538.32 1982C1538.56 1981.15 1538.35 1979.97 1537.5 1979.73C1535.77 1981.25 1534.68 1981.85 1534.43 1982.7Z" fill="white"/>
<path d="M873.27 1363.48C876.464 1363.49 879.269 1362.81 882.029 1361.25C883.409 1360.47 884.789 1359.68 885.63 1358.75C888.497 1355.77 890.284 1352.49 890.604 1348.22L958.058 1349.04C958.403 1348.85 958.598 1349.19 958.943 1348.99C959.288 1348.8 959.783 1348.06 959.934 1347.52C959.89 1346.64 959.306 1345.61 958.421 1345.66L890.622 1345.04C890.251 1341.16 888.651 1337.53 886.015 1334.49C882.84 1331.3 878.479 1329.23 873.861 1329.12C872.976 1329.17 871.941 1329.76 871.985 1330.64C872.029 1331.52 872.613 1332.55 873.497 1332.5C877.231 1332.66 880.663 1333.89 883.104 1336.59L883.299 1336.93L873.178 1336.77C872.294 1336.82 871.258 1337.4 871.302 1338.28C871.347 1339.17 871.93 1340.2 872.815 1340.15L885.244 1340.37C886.022 1341.74 886.456 1343.31 886.349 1344.73L872.496 1344.41C871.611 1344.46 870.576 1345.05 870.62 1345.93C870.664 1346.81 871.248 1347.84 872.132 1347.8L885.986 1348.12C885.879 1349.54 885.428 1351.15 884.437 1352.62L872.007 1352.4C871.123 1352.45 870.088 1353.04 870.132 1353.92C870.176 1354.8 870.759 1355.83 871.644 1355.79L881.765 1355.95L881.419 1356.15C878.703 1358.59 875.058 1360.2 871.325 1360.05C870.44 1360.1 869.405 1360.68 869.449 1361.57C871.457 1362.7 872.386 1363.53 873.27 1363.48Z" fill="white"/>
<path d="M990.792 1328.83C990.789 1330.53 991.15 1332.01 991.979 1333.48C992.393 1334.21 992.807 1334.94 993.3 1335.39C994.883 1336.91 996.622 1337.85 998.883 1338.02L998.45 1373.79C998.553 1373.97 998.371 1374.07 998.475 1374.25C998.579 1374.44 998.968 1374.7 999.254 1374.78C999.721 1374.76 1000.27 1374.45 1000.24 1373.98L1000.57 1338.03C1002.63 1337.84 1004.55 1336.99 1006.16 1335.59C1007.86 1333.91 1008.95 1331.6 1009.01 1329.15C1008.99 1328.68 1008.67 1328.13 1008.21 1328.15C1007.74 1328.18 1007.19 1328.49 1007.22 1328.95C1007.14 1330.93 1006.48 1332.75 1005.05 1334.05L1004.87 1334.15L1004.96 1328.79C1004.93 1328.32 1004.62 1327.77 1004.15 1327.79C1003.68 1327.81 1003.14 1328.12 1003.16 1328.59L1003.05 1335.18C1002.32 1335.59 1001.49 1335.82 1000.73 1335.77L1000.9 1328.42C1000.88 1327.95 1000.57 1327.41 1000.1 1327.43C999.631 1327.45 999.085 1327.76 999.11 1328.23L998.94 1335.58C998.186 1335.52 997.329 1335.28 996.55 1334.75L996.667 1328.16C996.642 1327.7 996.331 1327.15 995.863 1327.17C995.395 1327.19 994.849 1327.5 994.874 1327.97L994.786 1333.34L994.682 1333.15C993.385 1331.71 992.532 1329.78 992.613 1327.8C992.588 1327.33 992.277 1326.78 991.81 1326.81C991.21 1327.87 990.767 1328.37 990.792 1328.83Z" fill="white"/>
<path d="M772.53 1168.79C773.133 1171.06 774.152 1172.93 775.789 1174.59C776.607 1175.42 777.426 1176.26 778.247 1176.68C780.914 1178.15 783.587 1178.79 786.679 1178.21L798.945 1226.31C799.15 1226.52 798.943 1226.72 799.148 1226.93C799.352 1227.14 799.969 1227.35 800.38 1227.36C800.999 1227.16 801.621 1226.54 801.419 1225.92L788.947 1177.61C791.63 1176.61 793.906 1174.78 795.568 1172.33C797.232 1169.46 797.871 1165.97 797.068 1162.67C796.866 1162.05 796.252 1161.42 795.633 1161.62C795.014 1161.82 794.393 1162.43 794.595 1163.05C795.196 1165.74 794.974 1168.41 793.519 1170.66L793.312 1170.86L791.503 1163.64C791.301 1163.02 790.687 1162.4 790.068 1162.59C789.449 1162.79 788.828 1163.41 789.03 1164.02L791.241 1172.9C790.412 1173.72 789.379 1174.32 788.348 1174.52L785.938 1164.61C785.736 1163.99 785.122 1163.37 784.503 1163.57C783.884 1163.76 783.263 1164.38 783.465 1165L785.875 1174.9C784.845 1175.1 783.609 1175.09 782.377 1174.66L780.166 1165.78C779.964 1165.17 779.35 1164.54 778.731 1164.74C778.112 1164.94 777.491 1165.55 777.693 1166.17L779.502 1173.4L779.297 1173.19C777.041 1171.72 775.202 1169.44 774.601 1166.76C774.399 1166.14 773.785 1165.51 773.166 1165.71C772.744 1167.35 772.327 1168.17 772.53 1168.79Z" fill="white"/>
<path d="M393.937 447.279C392.417 449.415 391.539 451.618 391.269 454.212C391.135 455.509 391 456.806 391.22 457.812C391.847 461.155 393.184 463.915 395.873 466.161L363.298 510.956C363.264 511.28 362.943 511.247 362.909 511.571C362.876 511.895 363.13 512.577 363.417 512.935C364.026 513.326 364.989 513.426 365.378 512.811L397.987 467.692C400.743 469.289 403.921 469.947 407.201 469.632C410.835 469.026 414.283 467.09 416.547 464.048C416.936 463.432 417.037 462.46 416.428 462.069C415.819 461.678 414.856 461.578 414.467 462.193C412.592 464.62 410.141 466.332 407.183 466.68L406.861 466.647L411.778 459.947C412.167 459.332 412.268 458.359 411.659 457.968C411.05 457.577 410.087 457.477 409.698 458.093L403.649 466.313C402.364 466.18 401.113 465.722 400.217 464.974L407.009 455.847C407.398 455.232 407.499 454.259 406.89 453.868C406.281 453.477 405.317 453.377 404.929 453.992L398.137 463.119C397.24 462.37 396.378 461.298 395.87 459.934L401.919 451.713C402.307 451.098 402.408 450.125 401.8 449.734C401.191 449.343 400.227 449.243 399.839 449.858L394.922 456.558L394.956 456.234C394.616 453.249 395.274 450.04 397.15 447.613C397.538 446.998 397.639 446.025 397.03 445.634C395.323 446.44 394.326 446.664 393.937 447.279Z" fill="white"/>
<path d="M330.49 418.985C331.554 420.273 332.765 421.177 334.317 421.77C335.093 422.067 335.869 422.364 336.525 422.394C338.685 422.559 340.605 422.192 342.43 420.907L364.627 448.342C364.821 448.416 364.747 448.609 364.941 448.683C365.135 448.757 365.597 448.713 365.864 448.595C366.205 448.285 366.426 447.708 366.111 447.368L343.721 419.859C345.158 418.426 346.087 416.578 346.434 414.508C346.661 412.171 346.038 409.73 344.539 407.835C344.224 407.494 343.642 407.272 343.301 407.582C342.96 407.892 342.74 408.469 343.054 408.809C344.239 410.364 344.888 412.154 344.615 414.032L344.541 414.225L341.229 410.094C340.914 409.753 340.332 409.531 339.991 409.841C339.65 410.151 339.43 410.728 339.744 411.068L343.806 416.146C343.512 416.915 343.024 417.61 342.416 418.038L337.919 412.353C337.604 412.012 337.022 411.79 336.681 412.1C336.34 412.41 336.12 412.987 336.434 413.327L340.931 419.012C340.323 419.441 339.52 419.795 338.597 419.882L334.535 414.804C334.221 414.463 333.639 414.241 333.298 414.551C332.957 414.861 332.736 415.438 333.051 415.778L336.363 419.909L336.169 419.835C334.276 419.551 332.41 418.617 331.225 417.063C330.911 416.722 330.329 416.5 329.988 416.81C330.202 417.993 330.176 418.644 330.49 418.985Z" fill="white"/>
<path d="M349.675 268.179C350.48 270.368 351.656 272.117 353.426 273.613C354.311 274.36 355.196 275.108 356.046 275.448C358.817 276.656 361.517 277.05 364.519 276.189L381.04 322.608C381.261 322.794 381.075 323.015 381.296 323.202C381.517 323.389 382.146 323.542 382.553 323.509C383.147 323.255 383.705 322.594 383.449 322L366.707 275.395C369.267 274.16 371.349 272.144 372.767 269.568C374.15 266.584 374.462 263.073 373.366 259.882C373.11 259.288 372.446 258.728 371.853 258.981C371.259 259.235 370.701 259.896 370.958 260.49C371.797 263.086 371.822 265.75 370.59 268.106L370.404 268.326L367.955 261.351C367.699 260.757 367.035 260.196 366.442 260.45C365.848 260.703 365.29 261.364 365.547 261.958L368.543 270.529C367.799 271.41 366.833 272.104 365.832 272.391L362.544 262.819C362.288 262.225 361.624 261.664 361.031 261.918C360.437 262.172 359.879 262.833 360.136 263.427L363.424 272.999C362.423 273.286 361.201 273.386 359.944 273.079L356.947 264.508C356.691 263.914 356.027 263.353 355.434 263.607C354.84 263.86 354.282 264.521 354.538 265.115L356.987 272.091L356.766 271.904C354.402 270.662 352.376 268.573 351.536 265.976C351.28 265.382 350.616 264.822 350.023 265.075C349.756 266.737 349.419 267.585 349.675 268.179Z" fill="white"/>
<path d="M435.38 278.169C432.639 280.863 430.811 283.818 429.767 287.491C429.245 289.327 428.724 291.164 428.789 292.671C428.856 297.652 430.098 301.974 433.429 305.898L374.938 362.219C374.807 362.678 374.35 362.548 374.22 363.007C374.089 363.466 374.285 364.515 374.612 365.104C375.396 365.823 376.767 366.212 377.485 365.424L436.107 308.644C439.699 311.65 444.139 313.408 448.971 313.789C454.391 313.84 459.875 311.925 463.923 308.113C464.641 307.325 465.032 305.948 464.248 305.229C463.465 304.51 462.093 304.12 461.375 304.908C458.046 307.932 454.063 309.777 449.688 309.527L449.231 309.397L458.044 300.985C458.762 300.196 459.154 298.819 458.37 298.1C457.586 297.381 456.215 296.991 455.497 297.78L444.66 308.098C442.832 307.578 441.134 306.599 440.023 305.291L452.166 293.856C452.884 293.067 453.275 291.69 452.491 290.971C451.708 290.252 450.336 289.862 449.618 290.651L437.476 302.086C436.366 300.778 435.386 299.011 434.993 296.915L445.83 286.597C446.548 285.809 446.94 284.431 446.156 283.712C445.372 282.993 444.001 282.604 443.283 283.392L434.47 291.804L434.6 291.345C434.86 286.953 436.622 282.492 439.952 279.468C440.67 278.68 441.061 277.302 440.277 276.583C437.6 277.311 436.099 277.381 435.38 278.169Z" fill="white"/>
<path d="M274.53 536.931C277.657 539.167 280.882 540.457 284.68 540.852C286.579 541.049 288.478 541.246 289.951 540.921C294.846 539.996 298.89 538.028 302.18 534.069L367.747 581.966C368.222 582.015 368.173 582.488 368.648 582.537C369.123 582.587 370.121 582.213 370.645 581.789C371.218 580.893 371.365 579.475 370.465 578.904L304.423 530.958C306.763 526.901 307.729 522.224 307.27 517.399C306.386 512.051 303.554 506.98 299.101 503.651C298.2 503.079 296.776 502.931 296.203 503.828C295.63 504.724 295.483 506.142 296.383 506.713C299.936 509.471 302.441 513.075 302.948 517.428L302.899 517.9L293.093 510.671C292.192 510.1 290.768 509.952 290.195 510.848C289.622 511.744 289.475 513.162 290.376 513.733L302.408 522.627C302.212 524.518 301.541 526.359 300.444 527.678L287.085 517.691C286.185 517.12 284.76 516.972 284.188 517.868C283.615 518.764 283.467 520.182 284.368 520.753L297.727 530.74C296.63 532.06 295.059 533.33 293.061 534.078L281.028 525.184C280.128 524.613 278.704 524.465 278.131 525.361C277.558 526.257 277.411 527.675 278.311 528.246L288.118 535.476L287.643 535.426C283.272 535.928 278.573 534.962 275.021 532.204C274.12 531.633 272.696 531.485 272.123 532.381C273.302 534.893 273.629 536.36 274.53 536.931Z" fill="white"/>
<path d="M442.899 211.271C441.535 212.237 440.544 213.377 439.837 214.881C439.483 215.632 439.129 216.384 439.05 217.036C438.725 219.178 438.949 221.119 440.094 223.035L411.086 243.132C410.997 243.32 410.811 243.232 410.723 243.42C410.634 243.608 410.644 244.072 410.741 244.347C411.025 244.71 411.584 244.973 411.947 244.685L441.044 224.4C442.366 225.94 444.139 227.004 446.178 227.504C448.492 227.903 450.972 227.463 452.974 226.109C453.337 225.821 453.602 225.257 453.318 224.894C453.034 224.531 452.475 224.268 452.112 224.557C450.474 225.622 448.64 226.137 446.788 225.725L446.601 225.637L450.967 222.641C451.33 222.352 451.595 221.789 451.311 221.425C451.027 221.062 450.469 220.8 450.106 221.088L444.74 224.761C443.995 224.411 443.338 223.873 442.957 223.234L448.96 219.172C449.323 218.884 449.588 218.32 449.304 217.957C449.02 217.594 448.462 217.331 448.099 217.619L442.095 221.681C441.713 221.043 441.42 220.216 441.401 219.289L446.767 215.616C447.13 215.327 447.396 214.764 447.112 214.4C446.828 214.037 446.269 213.775 445.906 214.063L441.54 217.059L441.629 216.871C442.052 215.005 443.122 213.213 444.761 212.147C445.124 211.859 445.389 211.295 445.105 210.932C443.909 211.058 443.262 210.983 442.899 211.271Z" fill="white"/>
</g>
<defs>
<clipPath id="clip0">
<rect width="1920" height="6904" fill="white"/>
</clipPath>
</defs>
</svg>
