<svg width="1792" height="86" viewBox="0 0 1792 86" fill="none" xmlns="http://www.w3.org/2000/svg">
<path d="M23.356 72.7851V0.516207H17.7219L4.40486 63.0804H4.19999V0.516207H0V72.7851H5.63413L18.9512 10.3241H19.156V59.054L19.0536 72.7851H23.356Z" fill="#DDE4EB"/>
<path d="M63.5824 72.7851V0.516207H57.8458L51.5971 39.9544L47.602 64.9388H47.2947L43.2996 39.9544L37.0508 0.516207H31.2118V72.7851H35.6167V9.91116H35.7191L45.3483 72.7851H49.5483L59.28 9.91116H59.4849V72.7851H63.5824Z" fill="#DDE4EB"/>
<path d="M93.8491 4.02641V0.516207H72.2345V72.7851H93.8491V69.3782H76.6394V35.4118H92.4149V31.9016H76.6394V4.02641H93.8491Z" fill="#DDE4EB"/>
<path d="M120.938 0C114.382 0 110.591 2.78752 110.591 8.98199V32.3145H104.65V0.516207H100.245V72.7851H104.65V35.7215H110.591V64.4226C110.591 70.7203 114.382 73.4046 120.938 73.4046H122.986C129.543 73.4046 133.333 70.7203 133.333 64.4226V8.98199C133.333 2.68428 129.543 0 122.986 0H120.938ZM122.986 3.30372C127.596 3.30372 129.03 4.95558 129.03 10.6338V62.7707C129.03 68.449 127.596 70.1008 122.986 70.1008H120.938C116.328 70.1008 114.894 68.449 114.894 62.7707V10.6338C114.894 4.95558 116.328 3.30372 120.938 3.30372H122.986Z" fill="#DDE4EB"/>
<path d="M160.926 4.02641V0.516207H139.209V4.02641H147.917V72.7851H152.219V4.02641H160.926Z" fill="#DDE4EB"/>
<path d="M177.205 0C170.648 0 166.858 2.78752 166.858 8.98199V64.4226C166.858 70.7203 170.648 73.4046 177.205 73.4046H179.253C185.809 73.4046 189.6 70.7203 189.6 64.4226V55.7503H185.297V62.7707C185.297 68.449 183.863 70.1008 179.253 70.1008H177.205C172.595 70.1008 171.263 68.449 171.263 62.7707V10.6338C171.263 4.95558 172.595 3.30372 177.205 3.30372H179.253C183.863 3.30372 185.297 4.95558 185.297 10.6338V17.7575H189.6V8.98199C189.6 2.68428 185.809 0 179.253 0H177.205Z" fill="#DDE4EB"/>
<path d="M218.072 72.7851V0.619446H205.574C199.018 0.619446 195.535 2.78751 195.535 9.18847V26.946C195.535 30.8691 197.072 33.5534 200.555 34.5858C196.765 35.515 195.331 38.6122 195.331 42.4322V72.7851H199.735V43.5678C199.735 38.1993 200.965 36.4442 204.96 36.3409H213.77V72.7851H218.072ZM213.77 3.92317V32.934H205.062C201.067 32.7275 199.838 31.0756 199.838 25.7071V11.2533C199.838 5.57503 201.272 3.92317 205.882 3.92317H213.77Z" fill="#DDE4EB"/>
<path d="M274.944 72.7851V0.516207H252.202V72.7851H256.607V4.02641H270.641V72.7851H274.944Z" fill="#DDE4EB"/>
<path d="M283.414 0.619446V72.7851H287.819V37.9928H296.117C302.673 37.9928 306.156 35.7215 306.156 29.3205V9.18847C306.156 2.78751 302.673 0.619446 296.117 0.619446H283.414ZM287.819 3.92317H295.809C300.419 3.92317 301.853 5.57503 301.853 11.2533V27.2557C301.853 32.934 300.419 34.5858 295.809 34.5858H287.819V3.92317Z" fill="#DDE4EB"/>
<path d="M323.26 0C316.704 0 312.913 2.78752 312.913 8.98199V64.4226C312.913 70.7203 316.704 73.4046 323.26 73.4046H325.308C331.865 73.4046 335.655 70.7203 335.655 64.4226V8.98199C335.655 2.68428 331.865 0 325.308 0H323.26ZM325.308 3.30372C329.918 3.30372 331.352 4.95558 331.352 10.6338V62.7707C331.352 68.449 329.918 70.1008 325.308 70.1008H323.26C318.65 70.1008 317.318 68.449 317.318 62.7707V10.6338C317.318 4.95558 318.65 3.30372 323.26 3.30372H325.308Z" fill="#DDE4EB"/>
<path d="M363.203 4.02641V0.516207H341.486V4.02641H350.193V72.7851H354.496V4.02641H363.203Z" fill="#DDE4EB"/>
<path d="M392.696 72.7851V0.516207H387.061L373.744 63.0804H373.539V0.516207H369.34V72.7851H374.974L388.291 10.3241H388.496V59.054L388.393 72.7851H392.696Z" fill="#DDE4EB"/>
<path d="M400.859 0.619446V72.7851H413.561C420.117 72.7851 423.6 70.617 423.6 64.2161V41.1933C423.6 37.1669 422.166 34.0696 418.171 33.1405C421.551 32.2113 423.088 29.4238 423.088 25.6038V9.18847C423.088 2.78751 419.605 0.619446 412.946 0.619446H400.859ZM405.263 3.92317H412.741C417.351 3.92317 418.785 5.57503 418.785 11.2533V24.3649C418.785 29.8367 417.454 31.4886 413.151 31.5918H405.263V3.92317ZM405.263 34.9988H413.254C417.863 34.9988 419.298 36.5474 419.298 42.2257V62.1513C419.298 67.8295 417.863 69.4814 413.254 69.4814H405.263V34.9988Z" fill="#DDE4EB"/>
<path d="M439.804 0C433.248 0 429.457 2.78752 429.457 8.98199V64.4226C429.457 70.7203 433.248 73.4046 439.804 73.4046H441.852C448.409 73.4046 452.199 70.7203 452.199 64.4226V8.98199C452.199 2.68428 448.409 0 441.852 0H439.804ZM441.852 3.30372C446.462 3.30372 447.896 4.95558 447.896 10.6338V62.7707C447.896 68.449 446.462 70.1008 441.852 70.1008H439.804C435.194 70.1008 433.862 68.449 433.862 62.7707V10.6338C433.862 4.95558 435.194 3.30372 439.804 3.30372H441.852Z" fill="#DDE4EB"/>
<path d="M482.922 72.7851V0.516207H460.181V72.7851H464.586V4.02641H478.62V72.7851H482.922Z" fill="#DDE4EB"/>
<path d="M501.227 0C494.671 0 490.881 2.78752 490.881 8.98199V64.4226C490.881 70.7203 494.671 73.4046 501.227 73.4046H503.276C509.832 73.4046 513.622 70.7203 513.622 64.4226V8.98199C513.622 2.68428 509.832 0 503.276 0H501.227ZM503.276 3.30372C507.885 3.30372 509.32 4.95558 509.32 10.6338V62.7707C509.32 68.449 507.885 70.1008 503.276 70.1008H501.227C496.617 70.1008 495.285 68.449 495.285 62.7707V10.6338C495.285 4.95558 496.617 3.30372 501.227 3.30372H503.276Z" fill="#DDE4EB"/>
<path d="M534.819 34.6891L543.731 0.516207H539.736L531.131 32.934H526.009V0.516207H521.604V72.7851H526.009V36.3409H531.131L540.35 72.7851H544.346L534.819 34.6891Z" fill="#DDE4EB"/>
<path d="M572.739 72.7851L564.032 0.516207H557.271L548.564 72.7851H552.662L555.632 47.5942H565.671L568.642 72.7851H572.739ZM560.549 3.51021H560.754L561.983 14.97L565.364 44.084H555.94L559.32 14.97L560.549 3.51021Z" fill="#DDE4EB"/>
<path d="M587.526 0C580.867 0 577.18 2.68428 577.18 8.98199V16.2089H581.482V10.6338C581.482 4.95558 582.916 3.30372 587.526 3.30372H589.37C593.98 3.30372 595.414 4.95558 595.414 10.6338V24.3649C595.414 29.8367 594.082 31.4886 589.882 31.5918H583.326V34.9988H589.882C594.492 34.9988 595.926 36.5474 595.926 42.2257V62.7707C595.926 68.449 594.492 70.1008 589.882 70.1008H587.526C582.916 70.1008 581.482 68.449 581.482 62.7707V57.1957H577.18V64.4226C577.18 70.617 580.867 73.4046 587.219 73.5078H590.189C596.54 73.4046 600.228 70.617 600.228 64.4226V41.1933C600.228 37.1669 598.794 34.0696 594.799 33.1405C598.18 32.2113 599.716 29.4238 599.716 25.6038V8.77551C599.614 2.68428 595.926 0 589.37 0H587.526Z" fill="#DDE4EB"/>
<path d="M629.261 72.7851L620.554 0.516207H613.793L605.085 72.7851H609.183L612.154 47.5942H622.193L625.163 72.7851H629.261ZM617.071 3.51021H617.276L618.505 14.97L621.885 44.084H612.461L615.841 14.97L617.071 3.51021Z" fill="#DDE4EB"/>
<path d="M658.389 72.7851V0.516207H654.086V31.9016H640.052V0.516207H635.647V72.7851H640.052V35.4118H654.086V72.7851H658.389Z" fill="#DDE4EB"/>
<path d="M689.908 72.7851V0.516207H684.274L670.957 63.0804H670.752V0.516207H666.552V72.7851H672.186L685.503 10.3241H685.708V59.054L685.605 72.7851H689.908Z" fill="#DDE4EB"/>
<path d="M718.661 72.7851V0.619446H706.164C699.607 0.619446 696.125 2.78751 696.125 9.18847V26.946C696.125 30.8691 697.661 33.5534 701.144 34.5858C697.354 35.515 695.92 38.6122 695.92 42.4322V72.7851H700.324V43.5678C700.324 38.1993 701.554 36.4442 705.549 36.3409H714.359V72.7851H718.661ZM714.359 3.92317V32.934H705.651C701.656 32.7275 700.427 31.0756 700.427 25.7071V11.2533C700.427 5.57503 701.861 3.92317 706.471 3.92317H714.359Z" fill="#DDE4EB"/>
<path d="M731.792 72.7851V66.4874H727.182V72.7851H731.792Z" fill="#DDE4EB"/>
<path d="M788.738 72.7851V0.516207H784.436V31.9016H770.401V0.516207H765.997V72.7851H770.401V35.4118H784.436V72.7851H788.738Z" fill="#DDE4EB"/>
<path d="M818.823 4.02641V0.516207H797.208V72.7851H818.823V69.3782H801.613V35.4118H817.389V31.9016H801.613V4.02641H818.823Z" fill="#DDE4EB"/>
<path d="M835.053 0C828.497 0 824.707 2.78752 824.707 8.98199V64.4226C824.707 70.7203 828.497 73.4046 835.053 73.4046H837.102C843.658 73.4046 847.448 70.7203 847.448 64.4226V8.98199C847.448 2.68428 843.658 0 837.102 0H835.053ZM837.102 3.30372C841.712 3.30372 843.146 4.95558 843.146 10.6338V62.7707C843.146 68.449 841.712 70.1008 837.102 70.1008H835.053C830.443 70.1008 829.112 68.449 829.112 62.7707V10.6338C829.112 4.95558 830.443 3.30372 835.053 3.30372H837.102Z" fill="#DDE4EB"/>
<path d="M876.84 4.02641V0.516207H855.43V72.7851H868.133C874.689 72.7851 878.172 70.617 878.172 64.2161V39.9544C878.172 33.5534 874.689 31.2821 868.133 31.2821H859.835V4.02641H876.84ZM859.835 34.6891H867.825C872.435 34.6891 873.869 36.3409 873.869 42.0192V62.1513C873.869 67.8295 872.435 69.4814 867.825 69.4814H859.835V34.6891Z" fill="#DDE4EB"/>
<path d="M897.449 36.3409L905.029 0.516207H900.829L893.966 34.7923L887.205 0.516207H883.005L890.585 36.2377L882.39 72.7851H886.59L894.068 37.8896L901.341 72.7851H905.541L897.449 36.3409Z" fill="#DDE4EB"/>
<path d="M921.786 0C915.23 0 911.439 2.78752 911.439 8.98199V64.4226C911.439 70.7203 915.23 73.4046 921.786 73.4046H923.835C930.391 73.4046 934.181 70.7203 934.181 64.4226V8.98199C934.181 2.68428 930.391 0 923.835 0H921.786ZM923.835 3.30372C928.444 3.30372 929.878 4.95558 929.878 10.6338V62.7707C929.878 68.449 928.444 70.1008 923.835 70.1008H921.786C917.176 70.1008 915.844 68.449 915.844 62.7707V10.6338C915.844 4.95558 917.176 3.30372 921.786 3.30372H923.835Z" fill="#DDE4EB"/>
<path d="M965.555 69.3782V0.516207H946.399L943.838 62.1513C943.633 67.2101 943.019 69.0684 940.56 69.3782H938.921L938.511 69.7911V85.587H942.916V72.8884H963.814V85.587H968.219V69.3782H965.555ZM950.394 4.02641H961.253V69.3782H946.399C947.321 68.3457 947.936 65.2485 948.038 62.874L950.394 4.02641Z" fill="#DDE4EB"/>
<path d="M997.624 72.7851V0.516207H991.99L978.673 63.0804H978.468V0.516207H974.268V72.7851H979.902L993.219 10.3241H993.424V59.054L993.322 72.7851H997.624Z" fill="#DDE4EB"/>
<path d="M1037.85 72.7851V0.516207H1032.11L1025.87 39.9544L1021.87 64.9388H1021.56L1017.57 39.9544L1011.32 0.516207H1005.48V72.7851H1009.88V9.91116H1009.99L1019.62 72.7851H1023.82L1033.55 9.91116H1033.75V72.7851H1037.85Z" fill="#DDE4EB"/>
<path d="M1068.53 72.7851L1059.82 0.516207H1053.06L1044.35 72.7851H1048.45L1051.42 47.5942H1061.46L1064.43 72.7851H1068.53ZM1056.34 3.51021H1056.54L1057.77 14.97L1061.15 44.084H1051.73L1055.11 14.97L1056.34 3.51021Z" fill="#DDE4EB"/>
<path d="M1113.74 34.6891L1122.65 0.516207H1118.65L1110.05 32.934H1104.93V0.516207H1100.52V72.7851H1104.93V36.3409H1110.05L1119.27 72.7851H1123.26L1113.74 34.6891Z" fill="#DDE4EB"/>
<path d="M1138.77 0C1132.21 0 1128.42 2.78752 1128.42 8.98199V64.4226C1128.42 70.7203 1132.21 73.4046 1138.77 73.4046H1140.82C1147.37 73.4046 1151.16 70.7203 1151.16 64.4226V8.98199C1151.16 2.68428 1147.37 0 1140.82 0H1138.77ZM1140.82 3.30372C1145.43 3.30372 1146.86 4.95558 1146.86 10.6338V62.7707C1146.86 68.449 1145.43 70.1008 1140.82 70.1008H1138.77C1134.16 70.1008 1132.83 68.449 1132.83 62.7707V10.6338C1132.83 4.95558 1134.16 3.30372 1138.77 3.30372H1140.82Z" fill="#DDE4EB"/>
<path d="M1181.89 72.7851V0.516207H1177.58V31.9016H1163.55V0.516207H1159.15V72.7851H1163.55V35.4118H1177.58V72.7851H1181.89Z" fill="#DDE4EB"/>
<path d="M1200.19 0C1193.63 0 1189.84 2.78752 1189.84 8.98199V64.4226C1189.84 70.7203 1193.63 73.4046 1200.19 73.4046H1202.24C1208.8 73.4046 1212.59 70.7203 1212.59 64.4226V55.7503H1208.28V62.7707C1208.28 68.449 1206.85 70.1008 1202.24 70.1008H1200.19C1195.58 70.1008 1194.25 68.449 1194.25 62.7707V10.6338C1194.25 4.95558 1195.58 3.30372 1200.19 3.30372H1202.24C1206.85 3.30372 1208.28 4.95558 1208.28 10.6338V17.7575H1212.59V8.98199C1212.59 2.68428 1208.8 0 1202.24 0H1200.19Z" fill="#DDE4EB"/>
<path d="M1227.78 72.7851L1239.97 0.516207H1235.87L1228.39 47.3878L1221.02 0.516207H1216.82L1226.24 56.06L1223.37 72.7851H1227.78Z" fill="#DDE4EB"/>
<path d="M1268.76 72.7851V0.516207H1249.5L1247.04 62.7707C1246.84 68.2425 1246.02 70.1008 1243.05 70.1008H1242.23V73.4046H1244.58C1248.27 73.4046 1250.93 71.1333 1251.14 65.8679L1253.6 4.02641H1264.46V72.7851H1268.76Z" fill="#DDE4EB"/>
<path d="M1281.69 31.2821V0.516207H1277.29V72.7851H1289.99C1296.55 72.7851 1300.03 70.617 1300.03 64.2161V39.9544C1300.03 33.5534 1296.55 31.2821 1289.99 31.2821H1281.69ZM1281.69 34.6891H1289.68C1294.29 34.6891 1295.73 36.3409 1295.73 42.0192V62.1513C1295.73 67.8295 1294.29 69.4814 1289.68 69.4814H1281.69V34.6891Z" fill="#DDE4EB"/>
<path d="M1323.77 4.02641V0.516207H1302.05V4.02641H1310.76V72.7851H1315.06V4.02641H1323.77Z" fill="#DDE4EB"/>
<path d="M1350.23 72.7851L1341.53 0.516207H1334.77L1326.06 72.7851H1330.16L1333.13 47.5942H1343.16L1346.14 72.7851H1350.23ZM1338.04 3.51021H1338.25L1339.48 14.97L1342.86 44.084H1333.43L1336.81 14.97L1338.04 3.51021Z" fill="#DDE4EB"/>
<path d="M1378.95 69.3782V0.516207H1374.65V69.3782H1361.02V0.516207H1356.62V72.7851H1377.62V86H1381.92V69.3782H1378.95Z" fill="#DDE4EB"/>
<path d="M1411.28 72.7851V0.516207H1405.65L1392.33 63.0804H1392.12V0.516207H1387.92V72.7851H1393.56L1406.88 10.3241H1407.08V59.054L1406.98 72.7851H1411.28Z" fill="#DDE4EB"/>
<path d="M1440.03 72.7851V0.619446H1427.54C1420.98 0.619446 1417.5 2.78751 1417.5 9.18847V26.946C1417.5 30.8691 1419.03 33.5534 1422.52 34.5858C1418.73 35.515 1417.29 38.6122 1417.29 42.4322V72.7851H1421.7V43.5678C1421.7 38.1993 1422.93 36.4442 1426.92 36.3409H1435.73V72.7851H1440.03ZM1435.73 3.92317V32.934H1427.02C1423.03 32.7275 1421.8 31.0756 1421.8 25.7071V11.2533C1421.8 5.57503 1423.23 3.92317 1427.84 3.92317H1435.73Z" fill="#DDE4EB"/>
<path d="M1484 0C1477.44 0 1473.65 2.78752 1473.65 8.98199V64.4226C1473.65 70.7203 1477.44 73.4046 1484 73.4046H1486.05C1492.6 73.4046 1496.39 70.7203 1496.39 64.4226V55.7503H1492.09V62.7707C1492.09 68.449 1490.66 70.1008 1486.05 70.1008H1484C1479.39 70.1008 1478.06 68.449 1478.06 62.7707V10.6338C1478.06 4.95558 1479.39 3.30372 1484 3.30372H1486.05C1490.66 3.30372 1492.09 4.95558 1492.09 10.6338V17.7575H1496.39V8.98199C1496.39 2.68428 1492.6 0 1486.05 0H1484Z" fill="#DDE4EB"/>
<path d="M1525.52 72.7851V0.516207H1502.77V72.7851H1507.18V4.02641H1521.21V72.7851H1525.52Z" fill="#DDE4EB"/>
<path d="M1555.6 4.02641V0.516207H1533.99V72.7851H1555.6V69.3782H1538.39V35.4118H1554.17V31.9016H1538.39V4.02641H1555.6Z" fill="#DDE4EB"/>
<path d="M1584.33 69.3782V0.516207H1580.03V69.3782H1566.4V0.516207H1562V72.7851H1583V86H1587.3V69.3782H1584.33Z" fill="#DDE4EB"/>
<path d="M1616.66 72.7851V0.516207H1611.02L1597.71 63.0804H1597.5V0.516207H1593.3V72.7851H1598.94L1612.25 10.3241H1612.46V59.054L1612.36 72.7851H1616.66Z" fill="#DDE4EB"/>
<path d="M1646.85 72.7851L1638.14 0.516207H1631.38L1622.67 72.7851H1626.77L1629.74 47.5942H1639.78L1642.75 72.7851H1646.85ZM1634.66 3.51021H1634.86L1636.09 14.97L1639.47 44.084H1630.05L1633.43 14.97L1634.66 3.51021Z" fill="#DDE4EB"/>
<path d="M1677.61 72.7851V0.516207H1658.35L1655.9 62.7707C1655.69 68.2425 1654.87 70.1008 1651.9 70.1008H1651.08V73.4046H1653.44C1657.12 73.4046 1659.79 71.1333 1659.99 65.8679L1662.45 4.02641H1673.31V72.7851H1677.61Z" fill="#DDE4EB"/>
<path d="M1709.19 72.7851V0.516207H1703.56L1690.24 63.0804H1690.04V0.516207H1685.84V72.7851H1691.47L1704.79 10.3241H1704.99V59.054L1704.89 72.7851H1709.19Z" fill="#DDE4EB"/>
<path d="M1727.19 0C1720.63 0 1716.84 2.78752 1716.84 8.98199V64.4226C1716.84 70.7203 1720.63 73.4046 1727.19 73.4046H1729.24C1735.79 73.4046 1739.59 70.7203 1739.59 64.4226V55.7503H1735.28V62.7707C1735.28 68.449 1733.85 70.1008 1729.24 70.1008H1727.19C1722.58 70.1008 1721.25 68.449 1721.25 62.7707V10.6338C1721.25 4.95558 1722.58 3.30372 1727.19 3.30372H1729.24C1733.85 3.30372 1735.28 4.95558 1735.28 10.6338V17.7575H1739.59V8.98199C1739.59 2.68428 1735.79 0 1729.24 0H1727.19Z" fill="#DDE4EB"/>
<path d="M1765.53 4.02641V0.516207H1743.82V4.02641H1752.52V72.7851H1756.83V4.02641H1765.53Z" fill="#DDE4EB"/>
<path d="M1792 72.7851L1783.29 0.516207H1776.53L1767.82 72.7851H1771.92L1774.89 47.5942H1784.93L1787.9 72.7851H1792ZM1779.81 3.51021H1780.01L1781.24 14.97L1784.62 44.084H1775.2L1778.58 14.97L1779.81 3.51021Z" fill="#DDE4EB"/>
</svg>
