<svg width="256" height="90" viewBox="0 0 256 90" fill="none" xmlns="http://www.w3.org/2000/svg">
<path d="M7.66982 22.3968V0.158842H5.29506L2.08593 16.9961H1.98966V4.41581L2.05384 0.158842H0V22.3968H2.37475L5.58388 5.59125H5.68016V18.1715L5.61598 22.3968H7.66982Z" fill="#DDE4EB"/>
<path d="M21.4307 22.3968V0.158842H18.8955L17.0663 12.2944L16.2319 17.9174H16.1357L15.2692 12.2944L13.44 0.158842H10.9048V22.3968H12.9586V5.01941L15.3976 22.3968H16.9379L19.3448 5.01941H19.4411V22.3968H21.4307Z" fill="#DDE4EB"/>
<path d="M31.7192 1.68373V0.158842H24.8517V22.3968H31.7192V20.9036H26.9055V11.1507H31.3341V9.62584H26.9055V1.68373H31.7192Z" fill="#DDE4EB"/>
<path d="M41.5928 0C39.4427 0 38.2874 0.857748 38.2874 2.76385V9.84822H36.6508V0.158842H34.5969V22.3968H36.6508V11.3731H38.2874V19.8235C38.2874 21.7614 39.4427 22.6191 41.5928 22.6191H42.2667C44.3848 22.6191 45.5721 21.7614 45.5721 19.8235V2.76385C45.5721 0.82598 44.3848 0 42.2667 0H41.5928ZM42.2347 1.49312C43.1974 1.49312 43.5183 1.84257 43.5183 2.98623V19.6011C43.5183 20.7448 43.1974 21.0942 42.2347 21.0942H41.6249C40.6622 21.0942 40.3413 20.7448 40.3413 19.6011V2.98623C40.3413 1.84257 40.6622 1.49312 41.6249 1.49312H42.2347Z" fill="#DDE4EB"/>
<path d="M55.3053 1.68373V0.158842H48.3094V1.68373H50.7805V22.3968H52.8343V1.68373H55.3053Z" fill="#DDE4EB"/>
<path d="M61.3377 0C59.1876 0 58.0323 0.857748 58.0323 2.76385V19.8235C58.0323 21.7614 59.1876 22.5874 61.3377 22.5874H61.9796C64.1297 22.5874 65.3171 21.7614 65.3171 19.8235V17.155H63.2632V19.6011C63.2632 20.7448 62.9423 21.0942 61.9796 21.0942H61.3698C60.4071 21.0942 60.0862 20.7448 60.0862 19.6011V2.98623C60.0862 1.84257 60.4071 1.49312 61.3698 1.49312H61.9796C62.9423 1.49312 63.2632 1.84257 63.2632 2.98623V5.46417H65.3171V2.76385C65.3171 0.82598 64.1297 0 61.9796 0H61.3377Z" fill="#DDE4EB"/>
<path d="M75.2413 22.3968V0.19061H71.1978C69.0477 0.19061 68.0528 0.667138 68.0528 2.70032V8.41864C68.0528 9.5623 68.5342 10.4518 69.8179 10.6424C68.3096 10.833 67.9566 11.9449 67.9566 13.0251V22.3968H70.0425V12.9298C70.0425 11.8496 70.2992 11.4684 71.1657 11.4366H73.1875V22.3968H75.2413ZM73.1875 1.68373V9.94352H71.262C70.3955 9.91176 70.1067 9.53053 70.1067 8.45041V3.17684C70.1067 2.03318 70.4276 1.68373 71.3903 1.68373H73.1875Z" fill="#DDE4EB"/>
<path d="M95.2773 22.3968V0.158842H87.9926V22.3968H90.0464V1.68373H93.2235V22.3968H95.2773Z" fill="#DDE4EB"/>
<path d="M98.7093 0.19061V22.3968H100.763V12.1355H102.849C104.999 12.1355 105.994 11.6273 105.994 9.59407V2.70032C105.994 0.667138 104.999 0.19061 102.849 0.19061H98.7093ZM100.763 1.68373H102.657C103.619 1.68373 103.94 2.03318 103.94 3.17684V9.14931C103.94 10.293 103.619 10.6424 102.657 10.6424H100.763V1.68373Z" fill="#DDE4EB"/>
<path d="M112.289 0C110.139 0 108.984 0.857748 108.984 2.76385V19.8235C108.984 21.7614 110.139 22.5874 112.289 22.5874H112.931C115.081 22.5874 116.268 21.7614 116.268 19.8235V2.76385C116.268 0.82598 115.081 0 112.931 0H112.289ZM112.931 1.49312C113.894 1.49312 114.214 1.84257 114.214 2.98623V19.6011C114.214 20.7448 113.894 21.0942 112.931 21.0942H112.321C111.358 21.0942 111.037 20.7448 111.037 19.6011V2.98623C111.037 1.84257 111.358 1.49312 112.321 1.49312H112.931Z" fill="#DDE4EB"/>
<path d="M125.998 1.68373V0.158842H119.002V1.68373H121.473V22.3968H123.527V1.68373H125.998Z" fill="#DDE4EB"/>
<path d="M136.459 22.3968V0.158842H134.084L130.875 16.9961H130.779V4.41581L130.843 0.158842H128.789V22.3968H131.164L134.373 5.59125H134.469V18.1715L134.405 22.3968H136.459Z" fill="#DDE4EB"/>
<path d="M139.79 0.19061V22.3968H143.93C146.08 22.3968 147.075 21.9202 147.075 19.887V12.6756C147.075 11.5319 146.722 10.4201 145.181 10.2612C146.433 10.0706 146.914 9.18108 146.914 8.03742V2.70032C146.914 0.667138 145.887 0.19061 143.737 0.19061H139.79ZM141.844 1.68373H143.577C144.539 1.68373 144.86 2.03318 144.86 3.17684V8.06918C144.86 9.18108 144.539 9.5623 143.673 9.5623H141.844V1.68373ZM141.844 11.0872H143.737C144.7 11.0872 145.021 11.4366 145.021 12.5485V19.4105C145.021 20.5542 144.7 20.9036 143.737 20.9036H141.844V11.0872Z" fill="#DDE4EB"/>
<path d="M153.119 0C150.969 0 149.813 0.857748 149.813 2.76385V19.8235C149.813 21.7614 150.969 22.5874 153.119 22.5874H153.761C155.911 22.5874 157.098 21.7614 157.098 19.8235V2.76385C157.098 0.82598 155.911 0 153.761 0H153.119ZM153.761 1.49312C154.723 1.49312 155.044 1.84257 155.044 2.98623V19.6011C155.044 20.7448 154.723 21.0942 153.761 21.0942H153.151C152.188 21.0942 151.867 20.7448 151.867 19.6011V2.98623C151.867 1.84257 152.188 1.49312 153.151 1.49312H153.761Z" fill="#DDE4EB"/>
<path d="M167.662 22.3968V0.158842H160.377V22.3968H162.431V1.68373H165.608V22.3968H167.662Z" fill="#DDE4EB"/>
<path d="M174.239 0C172.089 0 170.934 0.857748 170.934 2.76385V19.8235C170.934 21.7614 172.089 22.5874 174.239 22.5874H174.881C177.031 22.5874 178.218 21.7614 178.218 19.8235V2.76385C178.218 0.82598 177.031 0 174.881 0H174.239ZM174.881 1.49312C175.843 1.49312 176.164 1.84257 176.164 2.98623V19.6011C176.164 20.7448 175.843 21.0942 174.881 21.0942H174.271C173.308 21.0942 172.987 20.7448 172.987 19.6011V2.98623C172.987 1.84257 173.308 1.49312 174.271 1.49312H174.881Z" fill="#DDE4EB"/>
<path d="M186.375 10.706L188.622 0.158842H186.696L184.61 9.94352H183.551V0.158842H181.497V22.3968H183.551V11.4684H184.578L186.889 22.3968H188.782L186.375 10.706Z" fill="#DDE4EB"/>
<path d="M199.03 22.3968L196.72 0.158842H193.446L191.136 22.3968H193.125L193.831 14.9312H196.335L197.041 22.3968H199.03ZM195.019 1.30251H195.115L195.404 4.60643L196.206 13.4381H193.928L194.762 4.60643L195.019 1.30251Z" fill="#DDE4EB"/>
<path d="M204.816 0C202.666 0 201.479 0.82598 201.479 2.76385V5.17826H203.533V2.98623C203.533 1.84257 203.853 1.49312 204.816 1.49312H205.33C206.292 1.49312 206.613 1.84257 206.613 2.98623V8.06918C206.613 9.18108 206.324 9.5623 205.426 9.5623H203.725V11.0872H205.49C206.453 11.0872 206.774 11.4366 206.774 12.5485V19.6011C206.774 20.7448 206.453 21.0942 205.49 21.0942H204.816C203.853 21.0942 203.533 20.7448 203.533 19.6011V17.4091H201.479V19.8235C201.479 21.6978 202.602 22.5556 204.656 22.6191H205.683C207.736 22.5556 208.828 21.6978 208.828 19.8235V12.6756C208.828 11.5319 208.475 10.4201 206.966 10.2612C208.186 10.0706 208.667 9.18108 208.667 8.03742V2.60501C208.603 0.794212 207.448 0 205.362 0H204.816Z" fill="#DDE4EB"/>
<path d="M219.179 22.3968L216.868 0.158842H213.595L211.284 22.3968H213.274L213.98 14.9312H216.483L217.189 22.3968H219.179ZM215.167 1.30251H215.264L215.552 4.60643L216.355 13.4381H214.076L214.911 4.60643L215.167 1.30251Z" fill="#DDE4EB"/>
<path d="M229.361 22.3968V0.158842H227.307V9.62584H224.13V0.158842H222.077V22.3968H224.13V11.1507H227.307V22.3968H229.361Z" fill="#DDE4EB"/>
<path d="M240.367 22.3968V0.158842H237.992L234.783 16.9961H234.687V4.41581L234.751 0.158842H232.697V22.3968H235.072L238.281 5.59125H238.377V18.1715L238.313 22.3968H240.367Z" fill="#DDE4EB"/>
<path d="M250.437 22.3968V0.19061H246.394C244.244 0.19061 243.249 0.667138 243.249 2.70032V8.41864C243.249 9.5623 243.73 10.4518 245.014 10.6424C243.505 10.833 243.152 11.9449 243.152 13.0251V22.3968H245.238V12.9298C245.238 11.8496 245.495 11.4684 246.362 11.4366H248.383V22.3968H250.437ZM248.383 1.68373V9.94352H246.458C245.591 9.91176 245.303 9.53053 245.303 8.45041V3.17684C245.303 2.03318 245.624 1.68373 246.586 1.68373H248.383Z" fill="#DDE4EB"/>
<path d="M256 22.3968V19.8553H253.882V22.3968H256Z" fill="#DDE4EB"/>
<path d="M17.2829 54.1652V31.9273H15.2291V41.3943H12.052V31.9273H9.99819V54.1652H12.052V42.9192H15.2291V54.1652H17.2829Z" fill="#DDE4EB"/>
<path d="M27.5825 33.4522V31.9273H20.7149V54.1652H27.5825V52.6721H22.7688V42.9192H27.1974V41.3943H22.7688V33.4522H27.5825Z" fill="#DDE4EB"/>
<path d="M33.6051 31.7684C31.455 31.7684 30.2997 32.6262 30.2997 34.5323V51.592C30.2997 53.5298 31.455 54.3558 33.6051 54.3558H34.2469C36.397 54.3558 37.5844 53.5298 37.5844 51.592V34.5323C37.5844 32.5944 36.397 31.7684 34.2469 31.7684H33.6051ZM34.2469 33.2616C35.2097 33.2616 35.5306 33.611 35.5306 34.7547V51.3696C35.5306 52.5132 35.2097 52.8627 34.2469 52.8627H33.6372C32.6744 52.8627 32.3535 52.5132 32.3535 51.3696V34.7547C32.3535 33.611 32.6744 33.2616 33.6372 33.2616H34.2469Z" fill="#DDE4EB"/>
<path d="M47.6348 33.4522V31.9273H40.8635V54.1652H45.0033C47.1534 54.1652 48.1482 53.6887 48.1482 51.6555V43.6816C48.1482 41.6484 47.1534 41.1719 45.0033 41.1719H42.9173V33.4522H47.6348ZM42.9173 42.665H44.8107C45.7735 42.665 46.0944 43.0145 46.0944 44.1581V51.179C46.0944 52.3226 45.7735 52.6721 44.8107 52.6721H42.9173V42.665Z" fill="#DDE4EB"/>
<path d="M55.8933 42.8239L57.8508 31.9273H55.8612L54.2566 42.1885L52.6841 31.9273H50.6945L52.652 42.8239L50.5019 54.1652H52.5237L54.2887 43.5545L56.0216 54.1652H58.0434L55.8933 42.8239Z" fill="#DDE4EB"/>
<path d="M64.063 31.7684C61.9129 31.7684 60.7576 32.6262 60.7576 34.5323V51.592C60.7576 53.5298 61.9129 54.3558 64.063 54.3558H64.7048C66.8549 54.3558 68.0423 53.5298 68.0423 51.592V34.5323C68.0423 32.5944 66.8549 31.7684 64.7048 31.7684H64.063ZM64.7048 33.2616C65.6676 33.2616 65.9885 33.611 65.9885 34.7547V51.3696C65.9885 52.5132 65.6676 52.8627 64.7048 52.8627H64.0951C63.1323 52.8627 62.8114 52.5132 62.8114 51.3696V34.7547C62.8114 33.611 63.1323 33.2616 64.0951 33.2616H64.7048Z" fill="#DDE4EB"/>
<path d="M79.1584 52.6721V31.9273H72.7723L72.0021 51.179C71.97 52.1956 71.7774 52.6085 71.2319 52.6721H70.7184L70.4938 52.7356V57.9774H72.5797V54.1652H78.0032V57.9774H80.057V52.6721H79.1584ZM74.7298 33.4522H77.0725V52.6721H73.6708C73.8955 52.4815 74.0238 51.1472 74.0559 50.6389L74.7298 33.4522Z" fill="#DDE4EB"/>
<path d="M90.5205 54.1652V31.9273H88.1458L84.9366 48.7646H84.8404V36.1843L84.9045 31.9273H82.8507V54.1652H85.2255L88.4346 37.3597H88.5309V49.94L88.4667 54.1652H90.5205Z" fill="#DDE4EB"/>
<path d="M104.281 54.1652V31.9273H101.746L99.917 44.0628L99.0826 49.6858H98.9863L98.1199 44.0628L96.2907 31.9273H93.7555V54.1652H95.8093V36.7879L98.2482 54.1652H99.7886L102.195 36.7879H102.292V54.1652H104.281Z" fill="#DDE4EB"/>
<path d="M115.051 54.1652L112.741 31.9273H109.467L107.157 54.1652H109.146L109.853 46.6996H112.356L113.062 54.1652H115.051ZM111.04 33.0709H111.136L111.425 36.3749L112.227 45.2065H109.949L110.783 36.3749L111.04 33.0709Z" fill="#DDE4EB"/>
<path d="M132.133 42.4744L134.38 31.9273H132.454L130.368 41.712H129.309V31.9273H127.256V54.1652H129.309V43.2369H130.336L132.647 54.1652H134.54L132.133 42.4744Z" fill="#DDE4EB"/>
<path d="M140.459 31.7684C138.309 31.7684 137.154 32.6262 137.154 34.5323V51.592C137.154 53.5298 138.309 54.3558 140.459 54.3558H141.101C143.251 54.3558 144.438 53.5298 144.438 51.592V34.5323C144.438 32.5944 143.251 31.7684 141.101 31.7684H140.459ZM141.101 33.2616C142.064 33.2616 142.385 33.611 142.385 34.7547V51.3696C142.385 52.5132 142.064 52.8627 141.101 52.8627H140.491C139.528 52.8627 139.208 52.5132 139.208 51.3696V34.7547C139.208 33.611 139.528 33.2616 140.491 33.2616H141.101Z" fill="#DDE4EB"/>
<path d="M155.002 54.1652V31.9273H152.948V41.3943H149.771V31.9273H147.717V54.1652H149.771V42.9192H152.948V54.1652H155.002Z" fill="#DDE4EB"/>
<path d="M161.579 31.7684C159.429 31.7684 158.274 32.6262 158.274 34.5323V51.592C158.274 53.5298 159.429 54.3558 161.579 54.3558H162.221C164.371 54.3558 165.558 53.5298 165.558 51.592V48.9234H163.505V51.3696C163.505 52.5132 163.184 52.8627 162.221 52.8627H161.611C160.649 52.8627 160.328 52.5132 160.328 51.3696V34.7547C160.328 33.611 160.649 33.2616 161.611 33.2616H162.221C163.184 33.2616 163.505 33.611 163.505 34.7547V37.2326H165.558V34.5323C165.558 32.5944 164.371 31.7684 162.221 31.7684H161.579Z" fill="#DDE4EB"/>
<path d="M171.895 54.1652L175.457 31.9273H173.436L171.671 45.2383L169.906 31.9273H167.916L170.644 49.0505L169.809 54.1652H171.895Z" fill="#DDE4EB"/>
<path d="M185.568 54.1652V31.9273H179.181L178.411 51.3696C178.379 52.4815 178.155 52.8627 177.513 52.8627H177.16V54.3558H178.508C179.599 54.3558 180.337 53.6887 180.401 52.3544L181.139 33.4522H183.482V54.1652H185.568Z" fill="#DDE4EB"/>
<path d="M191.04 41.1719V31.9273H188.986V54.1652H193.126C195.276 54.1652 196.271 53.6887 196.271 51.6555V43.6816C196.271 41.6484 195.276 41.1719 193.126 41.1719H191.04ZM191.04 42.665H192.933C193.896 42.665 194.217 43.0145 194.217 44.1581V51.179C194.217 52.3226 193.896 52.6721 192.933 52.6721H191.04V42.665Z" fill="#DDE4EB"/>
<path d="M204.868 33.4522V31.9273H197.872V33.4522H200.343V54.1652H202.397V33.4522H204.868Z" fill="#DDE4EB"/>
<path d="M214.478 54.1652L212.167 31.9273H208.894L206.583 54.1652H208.573L209.279 46.6996H211.782L212.488 54.1652H214.478ZM210.466 33.0709H210.563L210.852 36.3749L211.654 45.2065H209.375L210.21 36.3749L210.466 33.0709Z" fill="#DDE4EB"/>
<path d="M224.596 52.6721V31.9273H222.51V52.6721H219.429V31.9273H217.376V54.1652H223.505V58.2316H225.559V52.6721H224.596Z" fill="#DDE4EB"/>
<path d="M236.011 54.1652V31.9273H233.636L230.427 48.7646H230.33V36.1843L230.395 31.9273H228.341V54.1652H230.716L233.925 37.3597H234.021V49.94L233.957 54.1652H236.011Z" fill="#DDE4EB"/>
<path d="M246.081 54.1652V31.9591H242.038C239.887 31.9591 238.893 32.4356 238.893 34.4688V40.1871C238.893 41.3307 239.374 42.2203 240.658 42.4109C239.149 42.6015 238.796 43.7134 238.796 44.7935V54.1652H240.882V44.6982C240.882 43.6181 241.139 43.2369 242.005 43.2051H244.027V54.1652H246.081ZM244.027 33.4522V41.712H242.102C241.235 41.6802 240.946 41.299 240.946 40.2188V34.9453C240.946 33.8016 241.267 33.4522 242.23 33.4522H244.027Z" fill="#DDE4EB"/>
<path d="M76.6124 63.5369C74.4623 63.5369 73.307 64.3946 73.307 66.3007V83.3604C73.307 85.2983 74.4623 86.1242 76.6124 86.1242H77.2543C79.4044 86.1242 80.5918 85.2983 80.5918 83.3604V80.6918H78.5379V83.138C78.5379 84.2817 78.217 84.6311 77.2543 84.6311H76.6445C75.6818 84.6311 75.3609 84.2817 75.3609 83.138V66.5231C75.3609 65.3794 75.6818 65.03 76.6445 65.03H77.2543C78.217 65.03 78.5379 65.3794 78.5379 66.5231V69.0011H80.5918V66.3007C80.5918 64.3629 79.4044 63.5369 77.2543 63.5369H76.6124Z" fill="#DDE4EB"/>
<path d="M90.7795 85.9336V63.6957H83.4948V85.9336H85.5486V65.2206H88.7257V85.9336H90.7795Z" fill="#DDE4EB"/>
<path d="M101.079 65.2206V63.6957H94.2115V85.9336H101.079V84.4405H96.2653V74.6876H100.694V73.1627H96.2653V65.2206H101.079Z" fill="#DDE4EB"/>
<path d="M111.177 84.4405V63.6957H109.091V84.4405H106.011V63.6957H103.957V85.9336H110.086V90H112.14V84.4405H111.177Z" fill="#DDE4EB"/>
<path d="M122.592 85.9336V63.6957H120.217L117.008 80.533H116.912V67.9527L116.976 63.6957H114.922V85.9336H117.297L120.506 69.1281H120.602V81.7084L120.538 85.9336H122.592Z" fill="#DDE4EB"/>
<path d="M133.272 85.9336L130.961 63.6957H127.688L125.377 85.9336H127.367L128.073 78.468H130.576L131.282 85.9336H133.272ZM129.26 64.8394H129.357L129.646 68.1433L130.448 76.9749H128.169L129.004 68.1433L129.26 64.8394Z" fill="#DDE4EB"/>
<path d="M144.032 85.9336V63.6957H137.646L136.876 83.138C136.844 84.2499 136.619 84.6311 135.977 84.6311H135.624V86.1242H136.972C138.063 86.1242 138.801 85.4571 138.865 84.1228L139.603 65.2206H141.946V85.9336H144.032Z" fill="#DDE4EB"/>
<path d="M155.024 85.9336V63.6957H152.649L149.44 80.533H149.344V67.9527L149.408 63.6957H147.354V85.9336H149.729L152.938 69.1281H153.034V81.7084L152.97 85.9336H155.024Z" fill="#DDE4EB"/>
<path d="M161.5 63.5369C159.35 63.5369 158.195 64.3946 158.195 66.3007V83.3604C158.195 85.2983 159.35 86.1242 161.5 86.1242H162.142C164.292 86.1242 165.479 85.2983 165.479 83.3604V80.6918H163.426V83.138C163.426 84.2817 163.105 84.6311 162.142 84.6311H161.532C160.57 84.6311 160.249 84.2817 160.249 83.138V66.5231C160.249 65.3794 160.57 65.03 161.532 65.03H162.142C163.105 65.03 163.426 65.3794 163.426 66.5231V69.0011H165.479V66.3007C165.479 64.3629 164.292 63.5369 162.142 63.5369H161.5Z" fill="#DDE4EB"/>
<path d="M174.833 65.2206V63.6957H167.837V65.2206H170.308V85.9336H172.362V65.2206H174.833Z" fill="#DDE4EB"/>
<path d="M184.442 85.9336L182.132 63.6957H178.859L176.548 85.9336H178.538L179.244 78.468H181.747L182.453 85.9336H184.442ZM180.431 64.8394H180.527L180.816 68.1433L181.618 76.9749H179.34L180.174 68.1433L180.431 64.8394Z" fill="#DDE4EB"/>
</svg>
