<svg width="349" height="95" viewBox="0 0 349 95" fill="none" xmlns="http://www.w3.org/2000/svg">
<path fill-rule="evenodd" clip-rule="evenodd" d="M348.043 4.78446C348.538 2.3093 346.645 0 344.121 0H22.2793C20.3726 0 18.7309 1.34584 18.357 3.21554L11.0001 40L8.00007 55L0.956966 90.2155C0.461933 92.6907 2.3551 95 4.87928 95H145.721C147.628 95 149.269 93.6542 149.643 91.7845L156.357 58.2155C156.731 56.3458 158.373 55 160.279 55H334.721C336.628 55 338.269 53.6542 338.643 51.7845L348.043 4.78446Z" fill="url(#paint0_linear)"/>
<path d="M30.9041 80H25.8641L26.2961 77.696C24.9521 77.552 23.7881 77.24 22.8041 76.76C21.8201 76.28 21.0041 75.68 20.3561 74.96C19.7081 74.24 19.2281 73.424 18.9161 72.512C18.6041 71.576 18.4481 70.592 18.4481 69.56C18.4481 67.832 18.7241 66.2 19.2761 64.664C19.8521 63.104 20.6561 61.736 21.6881 60.56C22.7441 59.36 24.0041 58.412 25.4681 57.716C26.9561 57.02 28.6001 56.648 30.4001 56.6L30.7241 54.944H35.7641L35.4401 56.6C38.0561 56.792 40.0361 57.632 41.3801 59.12C42.7241 60.608 43.3961 62.54 43.3961 64.916C43.3961 66.764 43.1081 68.444 42.5321 69.956C41.9801 71.468 41.1761 72.788 40.1201 73.916C39.0881 75.02 37.8281 75.908 36.3401 76.58C34.8521 77.228 33.1841 77.6 31.3361 77.696L30.9041 80ZM38.2121 65.06C38.2121 64.604 38.1401 64.148 37.9961 63.692C37.8761 63.212 37.6721 62.78 37.3841 62.396C37.0961 62.012 36.7241 61.7 36.2681 61.46C35.8121 61.196 35.2481 61.04 34.5761 60.992L32.2001 73.34C33.3041 73.196 34.2401 72.872 35.0081 72.368C35.7761 71.84 36.3881 71.204 36.8441 70.46C37.3241 69.716 37.6721 68.876 37.8881 67.94C38.1041 67.004 38.2121 66.044 38.2121 65.06ZM29.5361 61.064C28.4801 61.136 27.5681 61.436 26.8001 61.964C26.0561 62.492 25.4441 63.152 24.9641 63.944C24.4841 64.712 24.1361 65.564 23.9201 66.5C23.7041 67.436 23.5961 68.36 23.5961 69.272C23.5961 70.352 23.8961 71.252 24.4961 71.972C25.1201 72.668 26.0081 73.124 27.1601 73.34L29.5361 61.064ZM57.2778 54.764C58.8618 54.764 60.2658 55.016 61.4898 55.52C62.7138 56 63.7098 56.672 64.4778 57.536C65.2698 58.4 65.8098 59.432 66.0978 60.632C66.3858 61.832 66.3978 63.128 66.1338 64.52L64.9818 70.424C64.6938 71.912 64.2858 73.268 63.7578 74.492C63.2298 75.692 62.5338 76.724 61.6698 77.588C60.8298 78.428 59.8098 79.076 58.6098 79.532C57.4098 79.988 56.0058 80.216 54.3978 80.216C52.5978 80.216 51.0738 79.952 49.8258 79.424C48.5778 78.896 47.5818 78.188 46.8378 77.3C46.1178 76.388 45.6378 75.344 45.3978 74.168C45.1818 72.968 45.2058 71.72 45.4698 70.424L46.6218 64.52C46.8618 63.224 47.2218 61.988 47.7018 60.812C48.2058 59.636 48.8658 58.604 49.6818 57.716C50.5218 56.804 51.5538 56.084 52.7778 55.556C54.0258 55.028 55.5258 54.764 57.2778 54.764ZM56.9178 59.624C56.1498 59.624 55.5018 59.756 54.9738 60.02C54.4458 60.26 54.0018 60.584 53.6418 60.992C53.3058 61.4 53.0298 61.868 52.8138 62.396C52.6218 62.9 52.4778 63.404 52.3818 63.908L50.9418 71.036C50.8458 71.516 50.8098 72.008 50.8338 72.512C50.8818 72.992 51.0378 73.436 51.3018 73.844C51.5658 74.252 51.9618 74.588 52.4898 74.852C53.0178 75.116 53.7378 75.248 54.6498 75.248C55.3698 75.248 55.9938 75.14 56.5218 74.924C57.0498 74.708 57.4938 74.408 57.8538 74.024C58.2138 73.64 58.5018 73.196 58.7178 72.692C58.9338 72.164 59.1018 71.612 59.2218 71.036L60.6618 63.764C60.7578 63.212 60.7458 62.684 60.6258 62.18C60.5058 61.676 60.2778 61.244 59.9418 60.884C59.6298 60.5 59.2098 60.2 58.6818 59.984C58.1778 59.744 57.5898 59.624 56.9178 59.624ZM81.6146 54.944C83.9666 54.944 85.8146 55.532 87.1586 56.708C88.5266 57.86 89.2106 59.468 89.2106 61.532C89.2106 63.02 88.9586 64.34 88.4546 65.492C87.9506 66.644 87.2546 67.616 86.3666 68.408C85.5026 69.2 84.4706 69.812 83.2706 70.244C82.0946 70.652 80.8226 70.856 79.4546 70.856H74.3066L72.5066 80H67.1066L71.9666 54.944H81.6146ZM76.5026 59.804L75.2426 65.888H80.0666C80.5706 65.888 81.0386 65.816 81.4706 65.672C81.9266 65.504 82.3226 65.276 82.6586 64.988C83.0186 64.676 83.2946 64.304 83.4866 63.872C83.7026 63.416 83.8106 62.912 83.8106 62.36C83.8106 60.656 82.7906 59.804 80.7506 59.804H76.5026ZM106.155 80L108.459 68.084L108.351 68.048L105.147 73.124L102.807 76.652H98.6311L97.6231 72.944L96.4351 68.048L96.2911 68.156L93.9871 80H88.5871L93.4471 54.944H98.3431L100.251 62.216L101.943 69.74H102.087L106.623 62.216L111.303 54.944H116.415L111.555 80H106.155ZM131.305 80L130.513 74.636H122.449L119.461 80H113.629L127.741 54.944H132.457L136.957 80H131.305ZM129.433 66.86L128.929 61.892H128.821L126.481 66.788L124.933 69.992H129.829L129.433 66.86Z" fill="white"/>
<path d="M45.3121 40H39.8761L42.8641 24.988H42.7921C42.1201 25.852 41.4361 26.752 40.7401 27.688C40.0441 28.6 39.3481 29.476 38.6521 30.316C37.2841 31.972 35.9041 33.604 34.5121 35.212C33.1201 36.82 31.7041 38.416 30.2641 40H25.0801L29.9401 14.944H35.3761L32.2081 30.712H32.2801C32.9041 29.944 33.5521 29.128 34.2241 28.264C34.8961 27.4 35.5441 26.584 36.1681 25.816C37.6801 23.992 39.1921 22.18 40.7041 20.38C42.2401 18.556 43.7761 16.744 45.3121 14.944H50.0641L45.3121 40ZM63.0112 40L65.0272 29.776H56.9632L54.9832 40H49.5832L54.4432 14.944H59.8432L57.8992 24.988H65.9632L67.9072 14.944H73.2712L68.4112 40H63.0112ZM86.812 40L88.828 29.776H80.764L78.784 40H73.384L78.244 14.944H83.644L81.7 24.988H89.764L91.708 14.944H97.072L92.212 40H86.812ZM109.821 14.764C111.405 14.764 112.809 15.016 114.033 15.52C115.257 16 116.253 16.672 117.021 17.536C117.813 18.4 118.353 19.432 118.641 20.632C118.929 21.832 118.941 23.128 118.677 24.52L117.525 30.424C117.237 31.912 116.829 33.268 116.301 34.492C115.773 35.692 115.077 36.724 114.213 37.588C113.373 38.428 112.353 39.076 111.153 39.532C109.953 39.988 108.549 40.216 106.941 40.216C105.141 40.216 103.617 39.952 102.369 39.424C101.121 38.896 100.125 38.188 99.3807 37.3C98.6607 36.388 98.1807 35.344 97.9407 34.168C97.7247 32.968 97.7487 31.72 98.0127 30.424L99.1647 24.52C99.4047 23.224 99.7647 21.988 100.245 20.812C100.749 19.636 101.409 18.604 102.225 17.716C103.065 16.804 104.097 16.084 105.321 15.556C106.569 15.028 108.069 14.764 109.821 14.764ZM109.461 19.624C108.693 19.624 108.045 19.756 107.517 20.02C106.989 20.26 106.545 20.584 106.185 20.992C105.849 21.4 105.573 21.868 105.357 22.396C105.165 22.9 105.021 23.404 104.925 23.908L103.485 31.036C103.389 31.516 103.353 32.008 103.377 32.512C103.425 32.992 103.581 33.436 103.845 33.844C104.109 34.252 104.505 34.588 105.033 34.852C105.561 35.116 106.281 35.248 107.193 35.248C107.913 35.248 108.537 35.14 109.065 34.924C109.593 34.708 110.037 34.408 110.397 34.024C110.757 33.64 111.045 33.196 111.261 32.692C111.477 32.164 111.645 31.612 111.765 31.036L113.205 23.764C113.301 23.212 113.289 22.684 113.169 22.18C113.049 21.676 112.821 21.244 112.485 20.884C112.173 20.5 111.753 20.2 111.225 19.984C110.721 19.744 110.133 19.624 109.461 19.624ZM134.122 14.944C136.546 14.944 138.37 15.472 139.594 16.528C140.842 17.584 141.466 19.096 141.466 21.064C141.466 21.592 141.394 22.132 141.25 22.684C141.13 23.236 140.914 23.776 140.602 24.304C140.314 24.832 139.918 25.324 139.414 25.78C138.91 26.236 138.286 26.62 137.542 26.932L137.506 27.076C138.442 27.532 139.138 28.24 139.594 29.2C140.05 30.136 140.278 31.108 140.278 32.116C140.278 33.412 140.002 34.552 139.45 35.536C138.898 36.52 138.178 37.348 137.29 38.02C136.426 38.668 135.454 39.16 134.374 39.496C133.294 39.832 132.238 40 131.206 40H119.506L124.366 14.944H134.122ZM129.046 19.804L128.002 24.916H131.962C133.234 24.916 134.17 24.616 134.77 24.016C135.37 23.392 135.67 22.696 135.67 21.928C135.67 21.352 135.466 20.86 135.058 20.452C134.674 20.02 133.99 19.804 133.006 19.804H129.046ZM127.102 29.488L126.022 35.032H130.738C131.386 35.032 131.95 34.936 132.43 34.744C132.91 34.552 133.294 34.3 133.582 33.988C133.894 33.652 134.122 33.292 134.266 32.908C134.434 32.5 134.518 32.08 134.518 31.648C134.518 31.072 134.314 30.568 133.906 30.136C133.522 29.704 132.826 29.488 131.818 29.488H127.102ZM157.27 40L156.478 34.636H148.414L145.426 40H139.594L153.706 14.944H158.422L162.922 40H157.27ZM155.398 26.86L154.894 21.892H154.786L152.446 26.788L150.898 29.992H155.794L155.398 26.86ZM182.955 40H165.423L170.175 14.944H175.611L171.795 34.996H179.823L183.639 14.944H189.003L185.151 35.068H188.391L186.339 45.796H181.803L182.955 40ZM210.933 40H205.497L208.485 24.988H208.413C207.741 25.852 207.057 26.752 206.361 27.688C205.665 28.6 204.969 29.476 204.273 30.316C202.905 31.972 201.525 33.604 200.133 35.212C198.741 36.82 197.325 38.416 195.885 40H190.701L195.561 14.944H200.997L197.829 30.712H197.901C198.525 29.944 199.173 29.128 199.845 28.264C200.517 27.4 201.165 26.584 201.789 25.816C203.301 23.992 204.813 22.18 206.325 20.38C207.861 18.556 209.397 16.744 210.933 14.944H215.685L210.933 40ZM227.84 14.764C229.424 14.764 230.828 15.016 232.052 15.52C233.276 16 234.272 16.672 235.04 17.536C235.832 18.4 236.372 19.432 236.66 20.632C236.948 21.832 236.96 23.128 236.696 24.52L235.544 30.424C235.256 31.912 234.848 33.268 234.32 34.492C233.792 35.692 233.096 36.724 232.232 37.588C231.392 38.428 230.372 39.076 229.172 39.532C227.972 39.988 226.568 40.216 224.96 40.216C223.16 40.216 221.636 39.952 220.388 39.424C219.14 38.896 218.144 38.188 217.4 37.3C216.68 36.388 216.2 35.344 215.96 34.168C215.744 32.968 215.768 31.72 216.032 30.424L217.184 24.52C217.424 23.224 217.784 21.988 218.264 20.812C218.768 19.636 219.428 18.604 220.244 17.716C221.084 16.804 222.116 16.084 223.34 15.556C224.588 15.028 226.088 14.764 227.84 14.764ZM227.48 19.624C226.712 19.624 226.064 19.756 225.536 20.02C225.008 20.26 224.564 20.584 224.204 20.992C223.868 21.4 223.592 21.868 223.376 22.396C223.184 22.9 223.04 23.404 222.944 23.908L221.504 31.036C221.408 31.516 221.372 32.008 221.396 32.512C221.444 32.992 221.6 33.436 221.864 33.844C222.128 34.252 222.524 34.588 223.052 34.852C223.58 35.116 224.3 35.248 225.212 35.248C225.932 35.248 226.556 35.14 227.084 34.924C227.612 34.708 228.056 34.408 228.416 34.024C228.776 33.64 229.064 33.196 229.28 32.692C229.496 32.164 229.664 31.612 229.784 31.036L231.224 23.764C231.32 23.212 231.308 22.684 231.188 22.18C231.068 21.676 230.84 21.244 230.504 20.884C230.192 20.5 229.772 20.2 229.244 19.984C228.74 19.744 228.152 19.624 227.48 19.624ZM251.097 40L253.113 29.776H245.049L243.069 40H237.669L242.529 14.944H247.929L245.985 24.988H254.049L255.993 14.944H261.357L256.497 40H251.097ZM274.898 40L276.914 29.776H268.85L266.87 40H261.47L266.33 14.944H271.73L269.786 24.988H277.85L279.794 14.944H285.158L280.298 40H274.898ZM300.391 40L299.599 34.636H291.535L288.547 40H282.715L296.827 14.944H301.543L306.043 40H300.391ZM298.519 26.86L298.015 21.892H297.907L295.567 26.788L294.019 29.992H298.915L298.519 26.86ZM331.584 14.944L326.76 40H321.288L323.34 29.704H320.856C320.424 29.704 319.992 29.752 319.56 29.848C319.128 29.944 318.708 30.148 318.3 30.46C317.916 30.748 317.532 31.156 317.148 31.684C316.788 32.212 316.428 32.908 316.068 33.772L313.548 40H307.68L310.38 32.8C310.548 32.368 310.74 31.924 310.956 31.468C311.172 31.012 311.436 30.592 311.748 30.208C312.084 29.824 312.468 29.488 312.9 29.2C313.356 28.888 313.884 28.672 314.484 28.552C314.124 28.408 313.752 28.192 313.368 27.904C312.984 27.616 312.636 27.256 312.324 26.824C312.036 26.392 311.796 25.888 311.604 25.312C311.436 24.736 311.364 24.088 311.388 23.368C311.436 21.784 311.76 20.452 312.36 19.372C312.96 18.292 313.716 17.428 314.628 16.78C315.564 16.108 316.584 15.64 317.688 15.376C318.816 15.088 319.92 14.944 321 14.944H331.584ZM317.004 22.972C317.004 23.812 317.268 24.388 317.796 24.7C318.348 24.988 319.128 25.132 320.136 25.132H324.168L325.212 19.804H320.532C319.524 19.804 318.684 20.092 318.012 20.668C317.34 21.244 317.004 22.012 317.004 22.972Z" fill="white"/>
<defs>
<linearGradient id="paint0_linear" x1="174.5" y1="0" x2="174.5" y2="95" gradientUnits="userSpaceOnUse">
<stop stop-color="#FF9141"/>
<stop offset="1" stop-color="#FC2E2E"/>
</linearGradient>
</defs>
</svg>
