<svg width="280" height="72" viewBox="0 0 280 72" fill="none" xmlns="http://www.w3.org/2000/svg">
<path d="M244.15 39.051C246.079 39.051 247.602 37.5256 247.602 35.5934C247.602 33.6612 246.079 32.1357 244.15 32.1357C242.22 32.1357 240.697 33.6612 240.697 35.5934C240.798 37.4239 242.322 38.9493 244.15 39.051Z" fill="#00549F"/>
<path d="M229.424 15.7625C229.83 15.8642 230.236 15.9659 230.541 15.9659C231.15 15.9659 231.76 15.8642 232.369 15.5591L240.9 30.6099C241.002 30.7116 241.103 30.8133 241.306 30.8133C241.408 30.8133 241.408 30.8133 241.509 30.7116C241.713 30.6099 241.814 30.3048 241.713 30.1015L233.182 15.0506C235.01 13.7286 235.619 11.2879 234.502 9.25403C234.4 9.05064 234.096 8.94894 233.892 9.05064C233.689 9.15233 233.588 9.45742 233.689 9.66081C234.197 10.5761 234.299 11.593 233.994 12.5083L232.674 10.271C232.572 10.0676 232.267 9.96589 232.064 10.0676C231.861 10.1693 231.76 10.4744 231.861 10.6778L233.486 13.4235C233.283 13.7286 232.978 14.0337 232.674 14.2371L230.947 11.1862C230.846 10.9828 230.541 10.8811 230.338 10.9828C230.135 11.0845 230.033 11.3896 230.135 11.593L231.861 14.6439C231.455 14.8472 231.049 14.8472 230.744 14.9489L229.119 12.2032C229.018 11.9998 228.713 11.8981 228.51 11.9998C228.307 12.1015 228.205 12.4066 228.307 12.61L229.627 14.8472H229.525C228.611 14.6439 227.799 14.0337 227.393 13.1184C227.291 12.915 226.986 12.8133 226.783 12.915C226.58 13.0167 226.479 13.3218 226.58 13.5252C227.291 14.6439 228.307 15.4574 229.424 15.7625Z" fill="#00549F"/>
<path d="M218.151 25.3218C218.862 25.7286 219.572 25.932 220.385 25.932C220.791 25.932 221.197 25.932 221.502 25.8303C222.518 25.5252 223.33 25.0168 223.94 24.1015L238.869 32.8473C238.97 32.8473 238.97 32.9489 239.072 32.9489C239.174 32.9489 239.377 32.8473 239.478 32.7456C239.58 32.5422 239.58 32.2371 239.377 32.1354L224.346 23.3896C224.752 22.4744 224.854 21.4574 224.65 20.4405C224.346 19.3218 223.635 18.3049 222.619 17.6947C222.416 17.593 222.111 17.593 222.01 17.7964C221.908 17.9998 221.908 18.3049 222.111 18.4066C222.924 18.9151 223.533 19.6269 223.736 20.5422V20.6439L221.502 19.3218C221.299 19.2202 220.994 19.2202 220.893 19.4235C220.791 19.6269 220.791 19.932 220.994 20.0337L223.736 21.6608C223.736 22.0676 223.635 22.4744 223.432 22.7795L220.385 20.949C220.182 20.8473 219.877 20.8473 219.776 21.0507C219.674 21.254 219.674 21.5591 219.877 21.6608L222.924 23.4913C222.721 23.7964 222.416 24.1015 222.01 24.3049L219.268 22.6778C219.065 22.5761 218.76 22.5761 218.658 22.7795C218.557 22.9829 218.557 23.2879 218.76 23.3896L220.994 24.7117H220.893C219.979 24.9151 218.963 24.8134 218.151 24.3049C217.948 24.2032 217.643 24.2032 217.541 24.4066C217.846 24.9151 217.948 25.2201 218.151 25.3218Z" fill="#00549F"/>
<path d="M220.892 35.7969L238.158 35.8986C238.361 35.8986 238.564 35.6952 238.564 35.4918C238.564 35.2884 238.361 35.085 238.158 35.085L220.892 34.9833C220.689 32.746 218.861 31.0172 216.525 30.9155C216.322 30.9155 216.119 31.1189 216.119 31.3223C216.119 31.5257 216.322 31.7291 216.525 31.7291C217.541 31.7291 218.455 32.1359 219.166 32.8477H216.525C216.322 32.8477 216.119 33.0511 216.119 33.2545C216.119 33.4579 216.322 33.6613 216.525 33.6613H219.674C219.877 33.9664 219.978 34.3732 219.978 34.7799H216.424C216.221 34.7799 216.018 34.9833 216.018 35.1867C216.018 35.3901 216.221 35.5935 216.424 35.5935H219.978C219.877 36.0003 219.775 36.407 219.674 36.7121H216.525C216.322 36.7121 216.119 36.9155 216.119 37.1189C216.119 37.3223 216.322 37.5257 216.525 37.5257H219.166C218.557 38.2376 217.541 38.6443 216.525 38.6443C216.322 38.6443 216.119 38.8477 216.119 39.0511C216.119 39.2545 216.322 39.4579 216.525 39.4579C218.76 39.763 220.689 38.0342 220.892 35.7969Z" fill="#00549F"/>
<path d="M239.072 38.8476C239.275 38.7459 239.377 38.4408 239.275 38.2374C239.174 38.034 238.869 37.9323 238.666 38.034L223.635 46.5764C222.315 44.7459 219.877 44.1357 217.846 45.2544C217.643 45.3561 217.541 45.6611 217.643 45.8645C217.744 46.0679 218.049 46.1696 218.252 46.0679C219.166 45.5594 220.182 45.4578 221.096 45.7628L218.862 47.0849C218.658 47.1866 218.557 47.4917 218.658 47.695C218.76 47.7967 218.862 47.8984 219.065 47.8984C219.166 47.8984 219.166 47.8984 219.268 47.7967L222.01 46.2713C222.315 46.4747 222.619 46.7798 222.822 47.0849L219.776 48.8137C219.572 48.9154 219.471 49.2205 219.573 49.4238C219.674 49.5255 219.776 49.6272 219.979 49.6272C220.08 49.6272 220.08 49.6272 220.182 49.5255L223.229 47.7967C223.432 48.2035 223.432 48.6103 223.533 48.9154L220.791 50.5425C220.588 50.6442 220.487 50.9493 220.588 51.1527C220.69 51.2544 220.791 51.3561 220.994 51.3561C221.096 51.3561 221.096 51.3561 221.197 51.2544L223.432 49.9323C223.229 50.8476 222.619 51.6611 221.705 52.1696C221.502 52.2713 221.401 52.5764 221.502 52.7798C221.604 52.8815 221.705 52.9832 221.908 52.9832C222.01 52.9832 222.01 52.9832 222.111 52.8815C224.143 51.7628 224.854 49.3222 223.94 47.1866L239.072 38.8476Z" fill="#00549F"/>
<path d="M232.674 55.8302L241.408 40.8811C241.509 40.6777 241.509 40.3726 241.306 40.2709C241.103 40.1692 240.799 40.1692 240.697 40.3726L231.963 55.3217C231.049 54.9149 230.033 54.8133 229.018 55.0166C227.9 55.3217 226.885 56.0336 226.275 57.0505C226.174 57.2539 226.174 57.559 226.377 57.6607C226.58 57.7624 226.885 57.7624 226.986 57.4573C227.494 56.6438 228.205 56.0336 229.119 55.8302H229.221L227.9 58.0675C227.799 58.2709 227.799 58.576 228.002 58.6777C228.104 58.6777 228.104 58.7793 228.205 58.7793C228.307 58.7793 228.51 58.6777 228.611 58.576L230.236 55.8302C230.643 55.8302 231.049 55.9319 231.353 56.1353L229.525 59.1861C229.424 59.3895 229.424 59.6946 229.627 59.7963C229.728 59.7963 229.728 59.898 229.83 59.898C229.932 59.898 230.135 59.7963 230.236 59.6946L232.064 56.6438C232.369 56.8472 232.674 57.1522 232.877 57.559L231.252 60.3048C231.15 60.5082 231.15 60.8132 231.455 60.9149C231.557 60.9149 231.557 61.0166 231.658 61.0166C231.76 61.0166 231.963 60.9149 232.064 60.8132L233.385 58.576C233.689 59.4912 233.588 60.5082 233.08 61.4234C232.978 61.6268 232.978 61.9319 233.182 62.0336C233.283 62.0336 233.283 62.1353 233.385 62.1353C233.486 62.1353 233.689 62.0336 233.791 61.9319C235.01 59.6946 234.502 57.1522 232.674 55.8302Z" fill="#00549F"/>
<path d="M244.353 58.8814L244.454 41.5933C244.454 41.3899 244.251 41.1865 244.048 41.1865C243.845 41.1865 243.642 41.3899 243.642 41.5933L243.54 58.8814C241.306 59.0848 239.58 60.9153 239.478 63.2543C239.478 63.4577 239.681 63.6611 239.884 63.6611C240.087 63.6611 240.29 63.4577 240.29 63.2543C240.29 62.2373 240.798 61.3221 241.408 60.6102V63.2543C241.408 63.4577 241.611 63.6611 241.814 63.6611C242.017 63.6611 242.22 63.4577 242.22 63.2543V60.1018C242.525 59.8984 242.931 59.7967 243.337 59.7967V63.356C243.337 63.5594 243.54 63.7628 243.743 63.7628C243.946 63.7628 244.149 63.5594 244.149 63.356V59.7967C244.556 59.8984 244.962 60.0001 245.266 60.1018V63.2543C245.266 63.4577 245.47 63.6611 245.673 63.6611C245.876 63.6611 246.079 63.4577 246.079 63.2543V60.6102C246.79 61.2204 247.196 62.2373 247.196 63.2543C247.196 63.4577 247.399 63.6611 247.602 63.6611C247.805 63.6611 248.008 63.4577 248.008 63.2543C248.313 61.017 246.587 59.0848 244.353 58.8814Z" fill="#00549F"/>
<path d="M258.876 55.4236C257.86 55.1185 256.844 55.2202 255.93 55.627L247.399 40.6779C247.298 40.4745 246.993 40.3728 246.79 40.4745C246.587 40.5762 246.485 40.8812 246.587 41.0846L255.118 56.1355C253.29 57.4575 252.681 59.8982 253.798 61.9321C253.899 62.0338 254.001 62.1355 254.204 62.1355C254.306 62.1355 254.305 62.1355 254.407 62.0338C254.61 61.9321 254.712 61.627 254.61 61.4236C254.102 60.5083 254.001 59.4914 254.305 58.5761L255.626 60.8134C255.727 60.9151 255.829 61.0168 256.032 61.0168C256.134 61.0168 256.134 61.0168 256.235 60.9151C256.438 60.8134 256.54 60.5083 256.438 60.3049L254.813 57.5592C255.016 57.2541 255.321 56.949 255.626 56.7456L257.352 59.7965C257.454 59.8982 257.555 59.9999 257.759 59.9999C257.86 59.9999 257.86 59.9999 257.962 59.8982C258.165 59.7965 258.266 59.4914 258.165 59.288L256.438 56.2372C256.844 56.0338 257.251 56.0338 257.555 55.9321L259.18 58.6778C259.282 58.7795 259.383 58.8812 259.587 58.8812C259.688 58.8812 259.688 58.8812 259.79 58.7795C259.993 58.6778 260.094 58.3727 259.993 58.1694L258.673 55.9321H258.774C259.688 56.1355 260.501 56.7456 260.907 57.6609C261.008 57.8643 261.313 57.966 261.516 57.8643C261.719 57.7626 261.821 57.4575 261.719 57.2541C261.008 56.5422 259.993 55.8304 258.876 55.4236Z" fill="#00549F"/>
<path d="M270.149 45.8647C269.133 45.2545 267.915 45.0511 266.798 45.3562C265.782 45.6613 264.969 46.1698 264.36 47.085L249.431 38.3393C249.228 38.2376 248.923 38.2376 248.821 38.441C248.72 38.6443 248.72 38.9494 249.025 39.0511L263.954 47.7969C263.548 48.7121 263.446 49.7291 263.649 50.746C263.954 51.8647 264.665 52.8816 265.68 53.4918C265.782 53.4918 265.782 53.5935 265.884 53.5935C265.985 53.5935 266.188 53.4918 266.29 53.3901C266.391 53.1867 266.391 52.8816 266.087 52.7799C265.274 52.2714 264.665 51.5596 264.462 50.6443V50.5426L266.696 51.8647C266.798 51.8647 266.798 51.9664 266.899 51.9664C267.001 51.9664 267.204 51.8647 267.305 51.763C267.407 51.5596 267.407 51.2545 267.204 51.1528L264.462 49.5257C264.462 49.1189 264.563 48.7121 264.766 48.407L267.813 50.2376C267.915 50.2376 267.915 50.3392 268.016 50.3392C268.118 50.3392 268.321 50.2376 268.423 50.1359C268.524 49.9325 268.524 49.6274 268.321 49.5257L265.274 47.6952C265.477 47.3901 265.782 47.085 266.188 46.8816L268.93 48.5087C269.032 48.5087 269.032 48.6104 269.133 48.6104C269.235 48.6104 269.438 48.5087 269.54 48.407C269.641 48.2037 269.641 47.8986 269.438 47.7969L267.204 46.4748H267.305C268.219 46.2715 269.235 46.3731 270.047 46.8816C270.251 46.9833 270.555 46.9833 270.657 46.6782C270.454 46.2715 270.352 45.9664 270.149 45.8647Z" fill="#00549F"/>
<path d="M271.774 34.3727C271.977 34.3727 272.18 34.1693 272.18 33.9659C272.18 33.7625 271.977 33.5592 271.774 33.5592H269.133C269.743 32.8473 270.758 32.4405 271.774 32.4405C271.977 32.4405 272.18 32.2371 272.18 32.0337C272.18 31.8303 271.977 31.627 271.774 31.627C269.438 31.627 267.61 33.3558 267.305 35.5931L250.04 35.4914C249.837 35.4914 249.634 35.6947 249.634 35.8981C249.634 36.1015 249.837 36.3049 250.04 36.3049L267.305 36.4066C267.509 38.6439 269.337 40.3727 271.672 40.4744C271.876 40.4744 272.079 40.271 272.079 40.0676C272.079 39.8642 271.876 39.6608 271.672 39.6608C270.657 39.6608 269.743 39.1524 269.032 38.5422H271.672C271.876 38.5422 272.079 38.3388 272.079 38.1354C272.079 37.932 271.876 37.7286 271.672 37.7286H268.524C268.321 37.4236 268.219 37.0168 268.219 36.61H271.774C271.977 36.61 272.18 36.4066 272.18 36.2032C272.18 35.9998 271.977 35.7964 271.774 35.7964H268.219C268.321 35.3897 268.423 34.9829 268.524 34.6778L271.774 34.3727Z" fill="#00549F"/>
<path opacity="0.85" d="M221.096 63.8644C221.603 64.2711 222.111 64.6779 222.619 65.0847L225.259 61.4237C224.752 61.1186 224.345 60.7118 223.939 60.4067L221.096 63.8644Z" fill="#00549F"/>
<path opacity="0.9" d="M224.752 66.6095C225.26 66.9146 225.869 67.3214 226.478 67.6265L228.611 63.6604C228.103 63.3553 227.595 63.0502 227.088 62.7451L224.752 66.6095Z" fill="#00549F"/>
<path opacity="0.8" d="M217.744 60.8135C218.15 61.322 218.658 61.7288 219.166 62.2373L222.212 58.983C221.806 58.5763 221.4 58.1695 220.994 57.7627L217.744 60.8135Z" fill="#00549F"/>
<path opacity="0.95" d="M228.814 68.7455C229.424 69.0506 230.033 69.254 230.642 69.5591L232.267 65.3896C231.759 65.1862 231.252 64.9828 230.642 64.6777L228.814 68.7455Z" fill="#00549F"/>
<path opacity="0.75" d="M214.799 57.2539C215.205 57.7624 215.611 58.2709 216.018 58.7793L219.47 55.9319C219.064 55.5251 218.76 55.0166 218.455 54.6099L214.799 57.2539Z" fill="#00549F"/>
<path d="M233.08 70.3729C233.689 70.5763 234.298 70.7796 235.009 70.8813L236.126 66.5085C235.619 66.4068 235.009 66.2034 234.502 66L233.08 70.3729Z" fill="#00549F"/>
<path d="M237.549 71.4912C238.158 71.5929 238.869 71.6946 239.478 71.7963L239.986 67.3217C239.377 67.22 238.869 67.1183 238.259 67.0166L237.549 71.4912Z" fill="#00549F"/>
<path d="M242.119 72C242.728 72 243.439 72 244.048 72V67.5254C243.439 67.5254 242.931 67.5254 242.322 67.5254L242.119 72Z" fill="#00549F"/>
<path d="M246.282 67.4236L246.587 71.8982C247.196 71.7965 247.907 71.7965 248.517 71.6948L247.907 67.2202C247.501 67.3219 246.892 67.4236 246.282 67.4236Z" fill="#00549F"/>
<path d="M250.243 66.9146L251.157 71.2875C251.767 71.1858 252.478 70.9824 253.087 70.8807L251.97 66.5078C251.462 66.6095 250.853 66.8129 250.243 66.9146Z" fill="#00549F"/>
<path d="M254.205 65.7967L255.626 70.0679C256.236 69.8645 256.845 69.6611 257.454 69.356L255.728 65.1865C255.22 65.4916 254.712 65.695 254.205 65.7967Z" fill="#00549F"/>
<path d="M257.861 64.2716L259.892 68.3394C260.501 68.0343 261.11 67.7292 261.618 67.4241L259.384 63.458C258.876 63.7631 258.368 64.0682 257.861 64.2716Z" fill="#00549F"/>
<path d="M261.313 62.3387L263.75 66.1014C264.258 65.6947 264.868 65.3896 265.375 64.9828L262.735 61.3218C262.329 61.6269 261.821 62.0336 261.313 62.3387Z" fill="#00549F"/>
<path fill-rule="evenodd" clip-rule="evenodd" d="M275.126 31.0158C275.024 30.406 274.923 29.7964 274.821 29.2883L279.29 28.373C279.34 28.6781 279.391 29.0086 279.442 29.3391L279.442 29.3394C279.493 29.6698 279.543 30.0002 279.594 30.3052L275.126 31.0171L275.126 31.0158ZM275.43 33.2543C275.43 33.5594 275.455 33.839 275.48 34.1187C275.506 34.3984 275.531 34.678 275.531 34.9831L280 34.8814C280 34.5763 279.974 34.2458 279.949 33.9153C279.923 33.5848 279.898 33.2543 279.898 32.9492L275.43 33.2543ZM279.898 39.4579L275.43 39.0511C275.43 38.7321 275.457 38.4131 275.484 38.1087C275.508 37.8307 275.531 37.5649 275.531 37.3223L280 37.5257C280 38.1358 280 38.8477 279.898 39.4579ZM274.72 42.9156L279.086 43.9325C279.137 43.6274 279.213 43.2969 279.29 42.9664L279.29 42.9664L279.29 42.9664L279.29 42.9664L279.29 42.9664L279.29 42.9664C279.366 42.6359 279.442 42.3054 279.493 42.0003L275.024 41.1868C275.024 41.6292 274.918 42.0716 274.82 42.4753L274.82 42.4753L274.82 42.4753C274.783 42.6284 274.748 42.7758 274.72 42.9156ZM277.868 48.3051L273.603 46.7797L273.603 46.7794C273.806 46.271 274.009 45.7626 274.212 45.1526L278.477 46.4746L277.868 48.3051ZM271.978 50.4406L275.938 52.5762L275.938 52.576C276.243 51.9659 276.547 51.3558 276.852 50.8474L272.79 49.0168C272.606 49.2623 272.459 49.5447 272.305 49.8418C272.203 50.0371 272.098 50.2389 271.978 50.4406ZM270.048 53.6953L269.845 54.0004L273.602 56.5428L273.805 56.2377C273.958 56.0343 274.11 55.8055 274.262 55.5767C274.415 55.3478 274.567 55.119 274.719 54.9156L270.86 52.5767C270.67 52.7669 270.52 52.9966 270.36 53.2413L270.36 53.2413C270.263 53.389 270.163 53.5422 270.048 53.6953ZM264.562 59.8989L267.507 63.3565C268.015 62.9498 268.523 62.4413 268.929 62.0346L268.929 62.0345L265.781 58.7803C265.375 59.0854 264.969 59.4921 264.562 59.8989ZM270.758 60.1016L267.407 57.0508C267.744 56.7138 268.011 56.3768 268.323 55.982C268.388 55.9002 268.455 55.816 268.524 55.7288L272.079 58.5762C271.876 58.8305 271.647 59.0847 271.419 59.3389C271.19 59.5932 270.962 59.8474 270.758 60.1016Z" fill="url(#paint0_linear)"/>
<path opacity="0.7" d="M212.26 53.3896C212.565 53.9998 212.869 54.5083 213.276 55.1184L217.134 52.6778C216.83 52.1693 216.525 51.6608 216.221 51.1523L212.26 53.3896Z" fill="#00549F"/>
<path opacity="0.65" d="M210.33 49.22C210.533 49.8302 210.838 50.4404 211.143 51.0505L215.205 49.1183C215.002 48.6099 214.697 48.1014 214.494 47.4912L210.33 49.22Z" fill="#00549F"/>
<path opacity="0.6" d="M208.908 44.8475C209.112 45.4577 209.213 46.0679 209.416 46.7797L213.681 45.4577C213.478 44.9492 213.377 44.339 213.174 43.8306L208.908 44.8475Z" fill="#00549F"/>
<path opacity="0.55" d="M208.096 40.3729C208.197 40.983 208.299 41.6949 208.401 42.3051L212.869 41.4915C212.767 40.8813 212.666 40.3729 212.564 39.7627L208.096 40.3729Z" fill="#00549F"/>
<path opacity="0.5" d="M207.791 35.7969C207.791 36.407 207.791 37.1189 207.893 37.7291L212.361 37.5257C212.361 36.9155 212.361 36.407 212.361 35.7969H207.791V35.7969Z" fill="#00549F"/>
<path opacity="0.45" d="M207.893 33.1525L212.361 33.4576C212.361 32.8475 212.463 32.339 212.564 31.7288L208.096 31.1187C207.994 31.8305 207.893 32.5424 207.893 33.1525Z" fill="#00549F"/>
<path opacity="0.4" d="M208.502 28.6782L212.869 29.5934C212.971 29.0849 213.072 28.4748 213.275 27.9663L208.909 26.8477C208.807 27.3561 208.604 27.9663 208.502 28.6782Z" fill="#00549F"/>
<path opacity="0.35" d="M209.721 24.2037L213.986 25.6274C214.189 25.1189 214.392 24.5088 214.595 24.0003L210.432 22.2715C210.127 22.9833 209.924 23.5935 209.721 24.2037Z" fill="#00549F"/>
<path opacity="0.3" d="M211.448 19.9319L215.51 21.9658C215.713 21.4574 216.017 20.9489 216.322 20.4404L212.361 18.2031C212.057 18.8133 211.752 19.4235 211.448 19.9319Z" fill="#00549F"/>
<path opacity="0.25" d="M214.088 15.5591C213.986 15.7625 213.885 15.8642 213.783 16.0675L217.541 18.5082C217.642 18.4065 217.744 18.2031 217.845 18.1014C218.048 17.7964 218.353 17.3896 218.556 17.0845L214.9 14.4404C214.596 14.7455 214.291 15.1523 214.088 15.5591Z" fill="#00549F"/>
<path opacity="0.18" d="M216.424 12.3047L219.877 15.2539C220.283 14.8471 220.587 14.4403 220.994 13.9318L217.744 10.7793C217.338 11.2878 216.932 11.7962 216.424 12.3047Z" fill="#00549F"/>
<path opacity="0.14" d="M219.674 9.0509L222.72 12.4068C223.127 12.0001 223.533 11.695 224.041 11.2882L221.197 7.83057C220.588 8.13565 220.182 8.54243 219.674 9.0509Z" fill="#00549F"/>
<path opacity="0.12" d="M223.229 6.2036L225.767 9.86462C226.275 9.55953 226.681 9.25445 227.189 8.94936L224.853 5.08496C224.346 5.39005 223.736 5.79682 223.229 6.2036Z" fill="#00549F"/>
<path opacity="0.1" d="M227.189 3.76278L229.322 7.72887C229.83 7.42379 230.338 7.2204 230.845 7.01701L229.017 2.94922C228.307 3.15261 227.697 3.45769 227.189 3.76278Z" fill="#00549F"/>
<path opacity="0.06" d="M235.72 0.609904L236.736 4.98278C237.243 4.88109 237.853 4.77939 238.462 4.6777L237.65 0.203125C237.04 0.30482 236.33 0.406515 235.72 0.609904Z" fill="#00549F"/>
<path opacity="0.08" d="M231.353 1.9323L232.877 6.20348C233.384 6.00009 233.994 5.7967 234.501 5.69501L233.181 1.42383C232.572 1.52552 231.963 1.72891 231.353 1.9323Z" fill="#00549F"/>
<path d="M4.26522 59.1861L3.75747 54.3048C3.75747 54.2031 3.75747 54.2031 3.65591 54.2031C3.55436 54.2031 3.55436 54.2031 3.45281 54.3048L1.21867 59.1861C1.21867 59.2878 1.11712 59.2878 1.01557 59.2878H0.609364C0.507813 59.2878 0.507812 59.2878 0.507812 59.1861V59.0844L2.8435 54.1014C3.0466 53.6946 3.35126 53.4912 3.75747 53.4912C4.16367 53.4912 4.36678 53.6946 4.46833 54.1014L4.97609 59.0844C4.97609 59.1861 4.97609 59.1861 4.87453 59.1861H4.36678C4.26522 59.2878 4.26522 59.2878 4.26522 59.1861Z" fill="#00549F"/>
<path d="M8.32738 54.2031C8.02272 54.2031 7.81962 54.2031 7.71807 54.3048C7.61652 54.4065 7.51496 54.4065 7.41341 54.5082C7.31186 54.6099 7.31186 54.8132 7.21031 55.1183L7.00721 56.0336H9.34289C9.44445 56.0336 9.44445 56.0336 9.44445 56.1353C9.44445 56.1353 9.44445 56.237 9.44445 56.3387C9.44445 56.4404 9.44445 56.5421 9.34289 56.5421H9.24134H6.90565C6.70255 57.559 6.601 58.0675 6.601 58.1692C6.601 58.3726 6.70255 58.4743 6.8041 58.576C6.90565 58.6776 7.10876 58.6776 7.41341 58.6776H8.83514C8.93669 58.6776 8.93669 58.6776 8.93669 58.7793L8.83514 59.0844C8.83514 59.1861 8.83514 59.1861 8.83514 59.2878C8.83514 59.2878 8.63203 59.2878 8.32738 59.2878C8.02272 59.2878 7.61652 59.2878 7.31186 59.2878C6.90565 59.2878 6.49945 59.1861 6.29634 58.9827C6.09324 58.7793 5.89014 58.4743 5.89014 58.1692C5.89014 58.0675 5.89014 57.9658 5.89014 57.8641L6.3979 54.9149C6.49945 54.4065 6.70255 53.9997 6.90565 53.7963C7.21031 53.5929 7.61652 53.4912 8.22583 53.4912C8.73358 53.4912 9.13979 53.4912 9.34289 53.4912C9.546 53.4912 9.64755 53.4912 9.7491 53.4912C9.7491 53.4912 9.7491 53.4912 9.7491 53.5929C9.7491 53.5929 9.7491 53.6946 9.7491 53.7963C9.7491 53.898 9.7491 53.9997 9.64755 53.9997C9.64755 53.9997 9.64755 53.9997 9.546 53.9997H8.32738V54.2031Z" fill="#00549F"/>
<path d="M14.4202 54.9149C14.4202 55.1183 14.3186 55.4234 14.2171 55.7285C14.1155 56.0336 13.8109 56.237 13.4047 56.4404C13.6078 56.5421 13.8109 56.6438 13.9124 56.8471C14.014 57.0505 14.1155 57.2539 14.1155 57.4573C14.1155 57.7624 14.014 58.0675 13.9124 58.3726C13.7093 58.6777 13.5062 58.9827 13.1 59.0844C12.6938 59.2878 12.1861 59.2878 11.5767 59.2878C11.2721 59.2878 10.9674 59.2878 10.6628 59.2878C10.3581 59.2878 10.2566 59.2878 10.155 59.1861C10.0535 59.1861 10.0535 59.0844 10.0535 58.9827V58.881L10.9674 53.7963C10.9674 53.6946 10.9674 53.6946 11.069 53.5929C11.069 53.5929 11.1705 53.4912 11.2721 53.4912C11.3736 53.4912 11.4752 53.4912 11.7798 53.4912C11.9829 53.4912 12.2876 53.4912 12.4907 53.4912C13.1 53.4912 13.6078 53.5929 14.014 53.7963C14.3186 53.9997 14.5217 54.3048 14.5217 54.7115V54.9149H14.4202ZM10.7643 58.7793C11.069 58.7793 11.3736 58.7793 11.5767 58.7793C12.2876 58.7793 12.7954 58.6777 12.9985 58.3726C13.2016 58.0675 13.3031 57.7624 13.3031 57.3556C13.3031 56.8471 12.9985 56.6438 12.2876 56.6438H11.1705L10.7643 58.7793ZM13.7093 54.9149C13.7093 54.6099 13.6078 54.4065 13.4047 54.3048C13.2016 54.2031 12.7954 54.1014 12.2876 54.1014C12.1861 54.1014 11.9829 54.1014 11.4752 54.1014L11.1705 56.1353H12.3892C12.8969 56.1353 13.2016 56.0336 13.4047 55.7285C13.6078 55.5251 13.7093 55.22 13.7093 54.9149Z" fill="#00549F"/>
<path d="M17.5695 53.5928C18.0773 53.5928 18.4835 53.7962 18.7881 54.1012C19.0928 54.4063 19.1943 54.8131 19.1943 55.4233C19.1943 55.7284 19.0928 56.3385 18.8897 57.1521C18.6866 57.9657 18.3819 58.5758 17.9757 58.9826C17.5695 59.3894 17.0618 59.4911 16.3509 59.4911C15.8431 59.4911 15.4369 59.2877 15.1323 58.9826C14.8276 58.6775 14.7261 58.2707 14.7261 57.6606C14.7261 57.3555 14.8276 56.7453 15.0307 55.9318C15.2338 55.1182 15.5385 54.508 15.9447 54.2029C16.4525 53.7962 16.9602 53.5928 17.5695 53.5928ZM16.6556 58.7792C16.8587 58.7792 17.0618 58.7792 17.2649 58.6775C17.468 58.5758 17.5695 58.4741 17.7726 58.3724C17.8742 58.169 18.0773 58.0673 18.1788 57.7623C18.2804 57.5589 18.3819 57.1521 18.4835 56.6436C18.585 56.1351 18.585 55.8301 18.6866 55.7284C18.6866 55.6267 18.6866 55.525 18.6866 55.3216C18.6866 54.9148 18.585 54.6097 18.3819 54.508C18.1788 54.3046 17.8742 54.2029 17.5695 54.2029C17.2649 54.2029 17.0618 54.3046 16.8587 54.4063C16.6556 54.508 16.4525 54.7114 16.2493 55.0165C16.0462 55.2199 15.9447 55.6267 15.9447 55.9318C15.7416 56.7453 15.7416 57.2538 15.7416 57.5589C15.7416 57.9656 15.8431 58.2707 16.0462 58.4741C16.0462 58.6775 16.3509 58.7792 16.6556 58.7792Z" fill="#00549F"/>
<path d="M23.5616 59.2877H20.8197C20.5151 59.2877 20.312 59.186 20.1089 59.0843C19.9058 58.9826 19.9058 58.7792 19.9058 58.4741C19.9058 58.3724 19.9058 58.2707 19.9058 58.2707L20.7182 53.7962C20.7182 53.7962 20.7182 53.6945 20.8197 53.6945H20.9213H21.3275C21.429 53.6945 21.429 53.7962 21.429 53.8979L20.6166 58.4741C20.6166 58.5758 20.6166 58.5758 20.6166 58.5758C20.6166 58.6775 20.6166 58.6775 20.7182 58.6775C20.7182 58.6775 20.8197 58.6775 20.9213 58.6775H22.8508C22.9523 58.6775 23.0539 58.6775 23.1554 58.5758C23.1554 58.5758 23.257 58.4741 23.257 58.2707L24.0694 53.6945C24.0694 53.6945 24.0694 53.5928 24.1709 53.5928H24.2725H24.6787C24.7802 53.5928 24.7802 53.6945 24.7802 53.7962L23.9678 58.3724C23.9678 58.4741 23.9678 58.5758 23.8663 58.6775H24.2725C24.374 58.6775 24.374 58.6775 24.374 58.7792C24.374 58.7792 24.374 58.8809 24.2725 59.186L24.1709 59.7962C24.1709 59.9995 24.0694 60.1012 24.0694 60.1012C24.0694 60.1012 24.0694 60.1012 23.9678 60.2029H23.8663H23.4601C23.3585 60.2029 23.3585 60.2029 23.3585 60.1012L23.5616 59.2877Z" fill="#00549F"/>
<path d="M27.5227 54.2031C27.218 54.2031 27.0149 54.2031 26.9134 54.3048C26.8118 54.4065 26.7103 54.4065 26.6087 54.5082C26.5072 54.7115 26.4056 54.9149 26.4056 55.1183L26.2025 56.0336H28.5382C28.6398 56.0336 28.6398 56.0336 28.6398 56.1353C28.6398 56.1353 28.6398 56.237 28.6398 56.3387C28.6398 56.4404 28.6398 56.5421 28.5382 56.5421C28.4367 56.5421 28.4367 56.5421 28.4367 56.5421H26.101C25.8979 57.559 25.7963 58.0675 25.7963 58.1692C25.7963 58.3726 25.8979 58.4743 25.9994 58.576C26.101 58.6776 26.3041 58.6776 26.6087 58.6776H28.0304C28.132 58.6776 28.132 58.6776 28.132 58.7793L28.0304 59.0844C28.0304 59.1861 28.0304 59.1861 28.0304 59.2878C28.0304 59.2878 27.8273 59.2878 27.5227 59.2878C27.218 59.2878 26.8118 59.2878 26.5072 59.2878C26.101 59.2878 25.6948 59.1861 25.4917 58.9827C25.2886 58.7793 25.0854 58.4743 25.0854 58.1692C25.0854 58.0675 25.0854 57.9658 25.0854 57.8641L25.5932 54.9149C25.6948 54.4065 25.8979 53.9997 26.101 53.7963C26.4056 53.5929 26.8118 53.4912 27.4211 53.4912C27.9289 53.4912 28.3351 53.4912 28.5382 53.4912C28.7413 53.4912 28.8429 53.4912 28.9444 53.4912C28.9444 53.4912 28.9444 53.4912 28.9444 53.5929C28.9444 53.5929 28.9444 53.6946 28.9444 53.7963C28.9444 53.898 28.9444 53.9997 28.8429 53.9997C28.8429 53.9997 28.8429 53.9997 28.7413 53.9997H27.5227V54.2031Z" fill="#00549F"/>
<path d="M32.0928 54.2028L31.2804 59.1859C31.2804 59.2876 31.1788 59.3892 31.0773 59.3892H30.6711C30.5695 59.3892 30.5695 59.2876 30.5695 59.1859L31.4835 54.2028H29.9602C29.8586 54.2028 29.8586 54.2028 29.8586 54.1011C29.8586 54.1011 29.8586 53.9994 29.8586 53.8977C29.8586 53.796 29.9602 53.6943 29.9602 53.6943H30.0617H33.7176C33.8192 53.6943 33.8192 53.6943 33.8192 53.796C33.8192 53.796 33.8192 53.8977 33.8192 53.9994C33.8192 54.1011 33.8192 54.2028 33.7176 54.2028H33.6161H32.0928Z" fill="#00549F"/>
<path d="M33.718 59.0842L34.632 53.796C34.632 53.6943 34.7335 53.6943 34.8351 53.6943H35.2413H35.3428V53.796L34.5304 58.2706L37.6785 53.796C37.6785 53.6943 37.7801 53.6943 37.7801 53.6943C37.7801 53.6943 37.8816 53.6943 37.9832 53.6943H38.3894C38.4909 53.6943 38.4909 53.6943 38.4909 53.6943C38.4909 53.6943 38.4909 53.796 38.4909 53.8977L37.577 59.2876C37.577 59.3892 37.4754 59.3892 37.3739 59.3892H36.9677C36.8661 59.3892 36.8661 59.3892 36.8661 59.2876L37.6785 54.813L34.5304 59.2876C34.4289 59.3892 34.3273 59.4909 34.2258 59.4909H33.718C33.6165 59.4909 33.6165 59.4909 33.6165 59.3892C33.718 59.1859 33.718 59.1859 33.718 59.0842Z" fill="#00549F"/>
<path d="M40.0145 57.0503L39.8114 58.3723C39.6083 58.8808 39.6083 59.1859 39.6083 59.1859C39.6083 59.1859 39.6083 59.1859 39.6083 59.2875H39.5068H39.1006H38.999V59.1859L39.913 53.8977C39.913 53.796 39.913 53.796 40.0145 53.796C40.0145 53.796 40.2176 53.6943 40.6238 53.6943C40.9285 53.6943 41.2332 53.6943 41.4363 53.6943C42.0456 53.6943 42.5533 53.796 42.858 53.9994C43.1626 54.2028 43.3657 54.6096 43.3657 55.0164C43.3657 55.3215 43.2642 55.6265 43.1626 55.9316C43.0611 56.2367 42.858 56.4401 42.6549 56.6435C42.4518 56.8469 42.1471 56.9486 41.8425 57.0503C41.5378 57.152 41.2332 57.152 40.827 57.152C40.5223 57.0503 40.3192 57.0503 40.0145 57.0503ZM40.1161 56.4401C40.6238 56.4401 40.8269 56.4401 40.9285 56.4401C41.3347 56.4401 41.7409 56.3384 41.944 56.2367C42.1471 56.135 42.3502 55.9316 42.4518 55.7282C42.5533 55.5248 42.5533 55.2198 42.5533 55.0164C42.5533 54.7113 42.4518 54.5079 42.2487 54.4062C42.0456 54.3045 41.7409 54.2028 41.2332 54.2028C41.0301 54.2028 40.7254 54.2028 40.4207 54.2028L40.1161 56.4401Z" fill="#00549F"/>
<path d="M43.4673 59.0842L44.3813 53.796C44.3813 53.6943 44.4828 53.6943 44.5844 53.6943H44.9906H45.0921V53.796L44.2797 58.2706L47.4278 53.796C47.4278 53.6943 47.5294 53.6943 47.5294 53.6943C47.5294 53.6943 47.6309 53.6943 47.7325 53.6943H48.1387C48.2402 53.6943 48.2402 53.6943 48.2402 53.6943C48.2402 53.6943 48.2402 53.796 48.2402 53.8977L47.3262 59.2876C47.3262 59.3892 47.2247 59.3892 47.1231 59.3892H46.7169C46.6154 59.3892 46.6154 59.3892 46.6154 59.2876L47.4278 54.813L44.2797 59.2876C44.1781 59.3892 44.0766 59.4909 43.975 59.4909H43.6704C43.5688 59.4909 43.5688 59.4909 43.5688 59.3892C43.4673 59.1859 43.4673 59.1859 43.4673 59.0842Z" fill="#00549F"/>
<path d="M52.8108 54.7114C52.8108 55.0165 52.7093 55.4233 52.5062 55.7284C52.3031 56.0334 52.1 56.2368 51.7953 56.4402C52.1 56.6436 52.3031 56.9487 52.3031 57.3555C52.3031 58.0673 52.1 58.5758 51.6938 58.8809C51.2876 59.186 50.7798 59.3894 50.0689 59.3894C49.7643 59.3894 49.4596 59.3894 49.155 59.2877C48.8503 59.2877 48.7488 59.186 48.6472 59.186C48.6472 59.186 48.6472 59.186 48.6472 59.0843C48.6472 59.0843 48.6472 58.9826 48.6472 58.8809C48.6472 58.7792 48.6472 58.6775 48.7488 58.6775H48.8503C49.3581 58.7792 49.7643 58.7792 50.0689 58.7792C50.9829 58.7792 51.4907 58.2707 51.4907 57.3555C51.4907 57.1521 51.3891 56.9487 51.2876 56.847C51.186 56.7453 50.9829 56.6436 50.7798 56.6436H49.3581C49.2565 56.6436 49.2565 56.6436 49.2565 56.5419C49.2565 56.5419 49.2565 56.4402 49.2565 56.3385C49.2565 56.2368 49.2565 56.1351 49.3581 56.1351H49.4596H50.8813C51.186 56.1351 51.4907 56.0335 51.6938 55.8301C51.8969 55.6267 51.9984 55.3216 51.9984 54.9148C51.9984 54.6097 51.8969 54.508 51.7953 54.4063C51.6938 54.3046 51.3891 54.3046 50.9829 54.3046C50.7798 54.3046 50.5767 54.3046 50.3736 54.3046L49.6627 54.4063C49.5612 54.4063 49.5612 54.4063 49.5612 54.3046C49.5612 54.3046 49.5612 54.2029 49.5612 54.1012C49.5612 53.9996 49.5612 53.8979 49.6627 53.8979C49.7643 53.8979 49.7643 53.8979 49.7643 53.7962C49.7643 53.6945 49.9674 53.7962 50.272 53.6945C50.5767 53.6945 50.7798 53.5928 51.0845 53.5928C51.5922 53.5928 51.9984 53.6945 52.3031 53.8979C52.6077 54.1012 52.8108 54.4063 52.8108 54.7114Z" fill="#00549F"/>
<path d="M53.3191 59.0842L54.233 53.796C54.233 53.6943 54.3346 53.6943 54.4361 53.6943H54.8424H54.9439V53.796L54.1315 58.2706L57.2796 53.796C57.2796 53.6943 57.3811 53.6943 57.3811 53.6943C57.3811 53.6943 57.4827 53.6943 57.5842 53.6943H57.9904C58.092 53.6943 58.092 53.6943 58.092 53.6943C58.092 53.6943 58.092 53.796 58.092 53.8977L57.178 59.2876C57.178 59.3892 57.0765 59.3892 56.9749 59.3892H56.5687C56.4672 59.3892 56.4672 59.3892 56.4672 59.2876L57.2796 54.813L54.1315 59.2876C54.0299 59.3892 53.9284 59.4909 53.8268 59.4909H53.3191C53.2175 59.4909 53.2175 59.4909 53.2175 59.3892C53.3191 59.1859 53.3191 59.1859 53.3191 59.0842Z" fill="#00549F"/>
<path d="M62.8652 53.5929H63.2715H63.373V53.6946L62.459 59.0844C62.459 59.0844 62.459 59.1861 62.3575 59.1861H62.2559H61.8497C61.7482 59.1861 61.7482 59.1861 61.7482 59.0844C61.7482 59.0844 61.7482 58.881 61.8497 58.4743L62.1544 56.5421H59.514L59.2094 58.1692C59.1078 58.7793 59.0063 59.0844 59.0063 59.1861C59.0063 59.1861 59.0063 59.1861 59.0063 59.2878H58.9047H58.4985C58.397 59.2878 58.397 59.1861 58.397 59.0844L59.3109 53.6946C59.3109 53.5929 59.4125 53.4912 59.514 53.4912H59.9202C60.0218 53.4912 60.0218 53.4912 60.0218 53.5929C60.0218 53.5929 60.0218 53.7963 59.9202 54.2031L59.6156 55.8302H62.2559L62.459 54.4065C62.5606 53.898 62.5606 53.5929 62.5606 53.5929C62.5606 53.5929 62.5606 53.5929 62.5606 53.4912C62.7637 53.6946 62.8652 53.5929 62.8652 53.5929Z" fill="#00549F"/>
<path d="M67.2325 53.5928H69.8729C69.9744 53.5928 69.9744 53.5928 69.9744 53.6945C69.9744 53.6945 69.9744 53.7962 69.9744 53.8979C69.9744 53.9996 69.9744 54.1012 69.9744 54.1012C69.9744 54.1012 69.9744 54.1012 69.8729 54.1012H69.7713H67.5372L67.131 55.9318H67.5372C68.8573 55.9318 69.5682 56.3385 69.5682 57.2538C69.5682 57.9657 69.3651 58.4741 68.9589 58.8809C68.5527 59.2877 67.9434 59.4911 67.2325 59.4911C66.9278 59.4911 66.6232 59.4911 66.3185 59.3894C66.0139 59.3894 65.9123 59.2877 65.8108 59.2877L65.7092 59.186L65.8108 58.8809C65.8108 58.8809 65.8108 58.7792 65.9123 58.7792H66.0139C66.4201 58.8809 66.8263 58.8809 67.3341 58.8809C67.8418 58.8809 68.1465 58.7792 68.4511 58.4741C68.7558 58.169 68.8573 57.864 68.8573 57.3555C68.8573 57.0504 68.7558 56.847 68.5527 56.7453C68.3496 56.6436 67.9434 56.5419 67.4356 56.5419H66.5216C66.4201 56.5419 66.4201 56.5419 66.4201 56.4402C66.4201 56.4402 66.5216 56.0334 66.7247 55.4233C66.9278 54.8131 67.0294 54.3046 67.0294 54.1012C67.0294 53.7962 67.0294 53.6945 67.2325 53.5928C67.2325 53.5928 67.131 53.6945 67.2325 53.5928Z" fill="#00549F"/>
<path d="M75.2553 53.5928H75.7631H75.8646C75.8646 53.5928 75.8647 53.5928 75.9662 53.6945V53.7962L75.0522 59.0843C75.0522 59.186 74.9507 59.2877 74.8491 59.2877H74.4429C74.3414 59.2877 74.3414 59.186 74.3414 59.0843L75.1538 54.6097L73.6305 56.9487C73.529 57.0504 73.4274 57.1521 73.2243 57.1521H72.9197C72.8181 57.1521 72.7165 57.1521 72.7165 57.1521C72.7165 57.1521 72.615 57.0504 72.615 56.9487L72.1072 55.4233C72.0057 54.9148 71.9041 54.7114 71.9041 54.7114C71.9041 54.7114 71.9041 54.7114 71.9041 54.8131L71.0917 59.186C71.0917 59.2877 70.9902 59.3894 70.8886 59.3894H70.4824C70.3809 59.3894 70.3809 59.2877 70.3809 59.186L71.2948 53.8979C71.2948 53.7962 71.3964 53.6945 71.5995 53.6945H72.1072C72.2088 53.6945 72.2088 53.6945 72.2088 53.6945C72.2088 53.6945 72.3103 53.6945 72.3103 53.7962L73.1228 56.4402C73.1228 56.5419 73.1228 56.5419 73.2243 56.5419C73.2243 56.5419 73.3259 56.5419 73.3259 56.4402L75.0522 53.7962C75.0522 53.6945 75.1538 53.5928 75.2553 53.5928Z" fill="#00549F"/>
<path d="M77.5916 55.0164L76.8808 59.1859C76.8808 59.2876 76.7792 59.3892 76.6777 59.3892H76.2715C76.1699 59.3892 76.1699 59.3892 76.1699 59.3892V59.2875L76.8808 55.1181C76.9823 54.6096 77.1854 54.2028 77.3885 53.9994C77.6932 53.796 78.0994 53.6943 78.7087 53.6943C79.2165 53.6943 79.6227 53.6943 79.8258 53.6943C80.0289 53.6943 80.1304 53.6943 80.232 53.6943C80.232 53.6943 80.232 53.6943 80.232 53.796C80.232 53.796 80.232 53.8977 80.232 53.9994C80.232 54.1011 80.232 54.2028 80.1304 54.2028C80.1304 54.2028 80.1304 54.2028 80.0289 54.2028H78.5056C78.201 54.2028 77.8963 54.2028 77.7947 54.3045C77.7947 54.4062 77.6932 54.6096 77.5916 55.0164Z" fill="#00549F"/>
<path d="M161.277 37.8305V38.4406C161.277 40.983 160.566 42.8135 159.043 43.9321C157.519 45.0508 156.097 45.661 153.355 45.661H145.434L144.621 41.6949H153.051C154.472 41.6949 154.98 41.4915 155.59 40.983C156.199 40.4745 156.504 39.5593 156.504 38.2372V37.6271V33.9661H152.847H147.769L147.059 30.1016H152.543H156.3V26.8474V26.3389C156.3 25.322 155.996 24.6101 155.488 24.1017C154.98 23.6949 154.066 23.4915 152.847 23.4915H144.824L144.012 19.5254H153.355C156.097 19.5254 158.027 20.0339 159.246 21.0508C160.464 22.0678 161.074 23.6949 161.074 25.9322V26.3389L161.277 37.8305Z" fill="#00549F"/>
<path d="M17.3667 38.6435H7.31231L4.87487 45.5588H0L9.64818 19.5249H15.234L24.8822 45.5588H19.8042L17.3667 38.6435ZM8.53103 34.6774H15.9449L12.1872 24.1012L8.53103 34.6774Z" fill="#00549F"/>
<path d="M97.396 19.5254L96.5835 23.6949H83.8885V30.1017H96.3804L95.5679 34.3728H83.8885V41.3898H97.4976L96.6851 45.5593H79.0137V19.5254H97.396Z" fill="#00549F"/>
<path d="M105.419 36.1016V45.5593H100.544V19.5254H110.599C113.95 19.5254 116.388 20.1356 117.809 21.3559C119.231 22.5762 120.044 24.5084 120.044 27.0508V28.6779C120.044 31.2203 119.333 33.1525 117.809 34.3728C116.286 35.5932 113.95 36.2033 110.7 36.2033H105.419V36.1016ZM115.169 27.5593C115.169 26.7457 115.067 26.1356 114.966 25.6271C114.763 25.1186 114.559 24.7118 114.153 24.4067C113.747 24.1017 113.239 23.8983 112.731 23.7966C112.122 23.6949 111.411 23.5932 110.497 23.5932H105.419V31.9322H110.497C111.411 31.9322 112.122 31.8305 112.731 31.7288C113.341 31.6271 113.849 31.4237 114.153 31.1186C114.559 30.8135 114.763 30.4067 114.966 29.8983C115.169 29.3898 115.169 28.6779 115.169 27.9661V27.5593Z" fill="#00549F"/>
<path d="M122.481 19.5254H133.653C136.395 19.5254 138.325 20.0339 139.543 21.0508C140.762 22.0678 141.371 23.6949 141.371 25.9322V26.3389C141.371 27.661 141.067 28.7796 140.559 29.6949C140.051 30.6101 139.137 31.322 138.02 31.7288C139.239 32.1355 140.254 32.7457 141.067 33.7627C141.778 34.7796 142.184 36.1016 142.184 37.7288V38.3389C142.184 40.8813 141.473 42.7118 139.949 43.8304C138.426 44.9491 136.293 45.5593 133.551 45.5593H122.38V19.5254H122.481ZM127.356 23.4915V30.1017H132.84C134.262 30.1017 135.176 29.7966 135.786 29.2881C136.395 28.7796 136.598 27.9661 136.598 26.8474V26.3389C136.598 25.322 136.293 24.6101 135.786 24.1017C135.278 23.6949 134.364 23.4915 133.145 23.4915H127.356ZM127.356 41.5932H133.45C134.871 41.5932 135.887 41.3898 136.496 40.8813C137.106 40.3728 137.41 39.4576 137.41 38.1355V37.6271C137.41 36.305 137.106 35.2881 136.496 34.7796C135.887 34.2711 134.77 33.9661 133.247 33.9661H127.458V41.5932H127.356Z" fill="#00549F"/>
<path d="M53.0142 46.2711V41.1864C54.1313 41.0847 55.35 40.3728 55.35 37.6271L55.4516 19.5254H75.1542L75.0526 45.5593H69.9747L70.0762 24H60.428L60.3265 37.7288C60.3265 38.9491 60.1233 40.1694 59.7171 41.1864C59.3109 42.2033 58.8031 43.1186 58.0922 43.9321C57.3812 44.644 56.4672 45.2542 55.4516 45.661C55.35 45.7626 54.9438 45.8643 54.9438 45.8643C54.3344 46.1694 54.0298 46.2711 53.0142 46.2711Z" fill="#00549F"/>
<path d="M27.218 46.2711V41.1864C28.3352 41.0847 29.5539 40.3728 29.5539 37.6271L29.6555 19.5254H49.3581L49.2565 45.5593H44.1785L44.2801 24H34.6319L34.5303 37.7288C34.5303 39.0508 34.3272 40.1694 33.921 41.1864C33.5147 42.2033 33.0069 43.1186 32.296 43.9321C31.5851 44.644 30.6711 45.2542 29.6555 45.661C29.5539 45.7626 29.4523 45.7626 29.3508 45.8643C28.5383 46.1694 28.3352 46.2711 27.218 46.2711Z" fill="#00549F"/>
<path d="M186.261 19.5254V45.5593H181.386V27.661L168.995 45.5593H164.73V19.5254H169.605V37.6271L182.097 19.5254H186.261Z" fill="#00549F"/>
<path d="M181.08 11.4912C181.486 11.4912 181.588 11.5929 181.588 11.9997C181.182 15.3556 179.658 16.576 175.901 16.576C172.042 16.576 170.62 15.4573 170.214 12.1014C170.113 11.6946 170.316 11.5929 170.722 11.5929H172.651C172.956 11.5929 173.159 11.6946 173.261 11.9997C173.87 13.22 174.479 13.6268 176.104 13.6268C177.729 13.6268 178.338 13.22 178.846 11.9997C178.948 11.6946 179.151 11.5929 179.455 11.5929H181.08V11.4912Z" fill="#00549F"/>
<path d="M239.986 0.406779C239.986 2.74576 241.712 4.57627 243.947 4.88135L243.845 22.1695C243.845 22.3729 244.048 22.5762 244.251 22.5762C244.454 22.5762 244.657 22.3729 244.657 22.1695L244.759 4.88135C246.993 4.67796 248.72 2.84745 248.821 0.508474C248.821 0.305084 248.618 0.101695 248.415 0.101695C248.212 0.101695 248.009 0.305084 248.009 0.508474C248.009 1.52542 247.602 2.44067 246.892 3.15254V0.508474C246.892 0.305084 246.688 0.101695 246.485 0.101695C246.282 0.101695 246.079 0.305084 246.079 0.508474V3.66101C245.775 3.8644 245.368 3.9661 244.962 3.9661V0.406779C244.962 0.20339 244.759 0 244.556 0C244.353 0 244.15 0.20339 244.15 0.406779V3.9661C243.743 3.8644 243.337 3.76271 243.033 3.66101V0.508474C243.033 0.305084 242.83 0.101695 242.626 0.101695C242.423 0.101695 242.22 0.305084 242.22 0.508474V3.15254C241.509 2.54237 241.103 1.52542 241.103 0.508474C241.103 0.305084 240.9 0.101695 240.697 0.101695C240.189 0 239.986 0.20339 239.986 0.406779Z" fill="#FFCC00"/>
<path d="M274.821 13.017C272.79 14.1356 272.079 16.5763 272.993 18.7119L257.962 27.1526C257.759 27.2543 257.657 27.5594 257.759 27.7627C257.86 27.8644 257.962 27.9661 258.165 27.9661C258.267 27.9661 258.267 27.9661 258.368 27.8644L273.399 19.3221C274.212 20.5424 275.633 21.1526 276.954 21.2543C277.665 21.2543 278.477 21.0509 279.188 20.6441C279.391 20.5424 279.493 20.2373 279.391 20.0339C279.29 19.8305 278.985 19.7289 278.782 19.8305C277.868 20.339 276.852 20.4407 275.938 20.1356L278.172 18.8136C278.375 18.7119 278.477 18.4068 278.376 18.2034C278.274 18 277.969 17.8983 277.766 18L275.024 19.6272C274.719 19.4238 274.415 19.1187 274.212 18.8136L277.258 17.0848C277.461 16.9831 277.563 16.678 277.461 16.4746C277.36 16.2712 277.055 16.1695 276.852 16.2712L273.805 18C273.602 17.5933 273.602 17.1865 273.501 16.8814L276.243 15.2543C276.446 15.1526 276.547 14.8475 276.446 14.6441C276.344 14.4407 276.04 14.339 275.837 14.4407L273.602 15.7628C273.805 14.8475 274.415 14.0339 275.329 13.5255C275.532 13.4238 275.633 13.1187 275.532 12.9153C275.43 12.8136 275.329 12.7119 275.126 12.7119C275.024 12.9153 274.922 13.017 274.821 13.017Z" fill="#FFCC00"/>
<path d="M259.384 0.914989C258.266 2.84719 258.774 5.38956 260.602 6.71159L251.868 21.6607C251.767 21.8641 251.767 22.1692 251.97 22.2709C252.071 22.2709 252.071 22.3726 252.173 22.3726C252.274 22.3726 252.478 22.2709 252.579 22.1692L261.313 7.11837C261.923 7.42346 262.532 7.52515 263.141 7.52515C263.548 7.52515 263.954 7.52515 264.259 7.42346C265.376 7.11837 266.391 6.40651 267.001 5.38956C267.102 5.18617 267.102 4.88109 266.899 4.77939C266.696 4.6777 266.391 4.6777 266.29 4.88109C265.782 5.69464 265.071 6.30481 264.157 6.5082H264.055L265.376 4.27092C265.477 4.06753 265.477 3.76244 265.274 3.66075C265.071 3.55905 264.766 3.55905 264.665 3.76244L263.04 6.5082C262.634 6.5082 262.227 6.40651 261.923 6.20312L263.751 3.15227C263.852 2.94888 263.852 2.6438 263.649 2.54211C263.446 2.44041 263.141 2.44041 263.04 2.6438L261.212 5.69464C260.907 5.49125 260.602 5.18617 260.399 4.77939L262.024 2.03363C262.126 1.83024 262.126 1.52516 261.923 1.42346C261.72 1.32177 261.415 1.32177 261.313 1.52516L259.993 3.76244C259.688 2.84719 259.79 1.83024 260.298 0.914989C260.399 0.711599 260.399 0.406515 260.196 0.30482C260.095 0.30482 260.095 0.203125 259.993 0.203125C259.587 0.711599 259.384 0.711599 259.384 0.914989Z" fill="#FFCC00"/>
<defs>
<linearGradient id="paint0_linear" x1="272.281" y1="28.373" x2="272.281" y2="63.3565" gradientUnits="userSpaceOnUse">
<stop stop-color="#FECE10"/>
<stop offset="1" stop-color="#FE9F10"/>
</linearGradient>
</defs>
</svg>
