<svg width="334" height="72" viewBox="0 0 334 72" fill="none" xmlns="http://www.w3.org/2000/svg">
<path d="M222.656 47.5197C227.522 48.5118 229.976 51.4512 229.976 55.0351C229.976 59.0097 226.869 63.0888 220.4 63.0888C213.879 63.0888 211.116 59.4059 210.342 56.6206C210.225 56.0549 210.555 55.4759 211.124 55.3136L215.324 54.3954C215.581 54.3535 215.844 54.5147 215.919 54.7792C216.261 56.5223 217.696 58.0177 220.349 58.0177C222.554 58.0177 223.614 56.871 223.614 55.5783C223.614 54.4856 222.854 53.5869 220.958 53.1949L217.691 52.4433C212.929 51.4024 210.776 48.5639 210.776 45.1325C210.776 40.7549 214.685 37.1202 220 37.1202C226.133 37.1202 228.707 40.4976 229.459 43.1121C229.563 43.6665 229.249 44.2298 228.684 44.4021L225.105 45.2051C224.435 45.3486 224.059 44.9998 223.844 44.4477C223.362 43.2666 222.248 42.1432 220.048 42.1432C218.297 42.1432 216.893 43.1885 216.893 44.5785C216.893 45.7773 217.793 46.522 219.15 46.7736L222.656 47.5197ZM303.969 33.0416C303.969 36.8066 300.889 39.8611 297.095 39.8611C293.302 39.8611 290.225 36.8066 290.225 33.0416C290.225 29.273 293.302 26.2216 297.095 26.2216C300.889 26.2216 303.969 29.273 303.969 33.0416ZM303.523 22.9424C297.149 22.9424 291.973 17.8098 291.973 11.4724C291.973 5.13622 297.149 0 303.523 0C309.912 0 315.093 5.13622 315.093 11.4724C315.093 17.8098 309.912 22.9424 303.523 22.9424ZM327.684 7.88669C331.168 7.88669 334 10.6887 334 14.157C334 17.6158 331.168 20.4231 327.684 20.4231C324.198 20.4231 321.366 17.6158 321.366 14.157C321.366 10.6887 324.198 7.88669 327.684 7.88669ZM319.309 22.6001C325.965 22.6001 331.351 27.9435 331.351 34.5519C331.351 41.1449 325.965 46.4896 319.309 46.4896C312.667 46.4896 307.276 41.1449 307.276 34.5519C307.276 27.9435 312.667 22.6001 319.309 22.6001ZM293 64.8628C294.727 64.8628 296.127 66.253 296.127 67.9685C296.127 69.6824 294.727 71.0693 293 71.0693C291.271 71.0693 289.872 69.6824 289.872 67.9685C289.872 66.253 291.271 64.8628 293 64.8628ZM302.065 44.4603C307.063 44.4603 311.126 48.4837 311.126 53.4552C311.126 58.4175 307.063 62.4473 302.065 62.4473C297.054 62.4473 292.999 58.4175 292.999 53.4552C292.999 48.4837 297.054 44.4603 302.065 44.4603ZM286.82 69.9677V20.6966C286.644 13.168 282.067 6.72057 275.541 3.78555C273.375 2.85351 271.036 2.2551 268.604 2.12678C256.556 1.49397 247.252 8.56458 244.769 18.1067C243.153 23.9177 244.403 30.9021 248.434 36.7715C253.381 43.979 273.723 63.0877 283.542 71.6015C283.882 71.8479 284.297 72 284.752 72C285.888 72 286.806 71.0925 286.82 69.9677ZM282.577 47.3439C282.577 49.34 280.946 50.9637 278.933 50.9637C276.914 50.9637 275.285 49.34 275.285 47.3439C275.285 45.3491 276.914 43.7261 278.933 43.7261C280.946 43.7261 282.577 45.3491 282.577 47.3439ZM212.685 31.6571C212.488 32.0908 208.957 39.0178 208.957 39.0178C208.841 39.2342 208.583 39.3886 208.369 39.3886H206.141C205.911 39.3886 205.727 39.2053 205.727 38.9765C205.727 38.9413 205.731 38.9058 205.74 38.8727L207.967 33.9292C206.199 33.4929 204.871 31.91 204.871 30.026C204.871 27.8115 206.703 25.9924 208.935 25.9924C211.212 25.9924 213.044 27.8115 213.044 30.026C213.044 30.794 212.881 31.2221 212.685 31.6571H212.685ZM130.357 57.0194C126.84 57.0194 124.237 54.4317 124.237 50.0565C124.237 45.6777 126.944 43.1871 130.357 43.1871C133.765 43.1871 136.423 45.6265 136.423 50.0053C136.423 54.4317 133.765 57.0194 130.357 57.0194ZM136.29 40.249C135.56 38.9591 133.555 37.2659 129.353 37.2659C122.383 37.2659 117.522 42.8923 117.522 50.0565C117.522 57.4674 122.529 62.9407 129.554 62.9407C132.861 62.9407 135.367 61.4464 136.469 59.5086C136.476 60.3123 136.581 61.521 136.655 61.9339C136.693 62.1459 137.014 62.3491 137.263 62.3491H141.727C142.357 62.3491 142.868 61.8383 142.868 61.2192V27.4502C142.868 26.8256 142.357 26.3206 141.727 26.3206H137.43C136.802 26.3206 136.29 26.8256 136.29 27.4502V40.249ZM160.018 57.0194C156.5 57.0194 153.897 54.4317 153.897 50.0565C153.897 45.6777 156.605 43.1871 160.018 43.1871C163.425 43.1871 166.083 45.6265 166.083 50.0053C166.083 54.4317 163.425 57.0194 160.018 57.0194ZM165.951 40.249C165.22 38.9591 163.214 37.2659 159.014 37.2659C152.044 37.2659 147.181 42.8923 147.181 50.0565C147.181 57.4674 152.19 62.9407 159.214 62.9407C162.521 62.9407 165.027 61.4464 166.129 59.5086C166.136 60.3123 166.241 61.521 166.315 61.9339C166.353 62.1459 166.673 62.3491 166.925 62.3491H171.388C172.017 62.3491 172.527 61.8383 172.527 61.2192V27.4502C172.527 26.8256 172.017 26.3206 171.388 26.3206H167.09C166.462 26.3206 165.951 26.8256 165.951 27.4502V40.249ZM96.1372 47.317C96.2892 45.0755 98.1915 42.4919 101.651 42.4919C105.463 42.4919 107.067 44.879 107.167 47.317H96.1372ZM101.551 37.1189C95.2334 37.1189 89.4215 42.1906 89.4215 50.0053C89.4215 58.2637 95.384 63.0888 102.152 63.0888C107.808 63.0888 111.552 60.0244 113.055 56.1894C113.22 55.74 112.984 55.2586 112.532 55.0946L108.68 53.9397C108.269 53.858 107.729 53.9775 107.489 54.4505C106.585 56.2231 104.939 57.4179 102.204 57.4179C98.8956 57.4179 96.1372 55.0809 95.9859 51.8467H112.582C113.202 51.8467 113.675 51.3547 113.708 50.7331C113.723 50.4379 113.736 50.1279 113.736 49.8019C113.736 41.9422 109.174 37.1189 101.551 37.1189ZM202.326 38.9847L187.823 70.9348C187.485 71.522 186.753 72 186.146 72H181.348C180.725 72 180.493 71.4994 180.787 70.8703L186.087 59.2595L176.161 38.998C175.804 38.3744 176.036 37.865 176.658 37.865H181.815C182.441 37.865 183.238 38.3743 183.592 38.9911L189.645 52.1966L195.237 38.9884C195.59 38.3744 196.387 37.8681 197.005 37.8637H201.836C202.453 37.8637 202.624 38.3395 202.326 38.9847ZM46.0764 37.6685C46.6283 37.6685 47.1278 37.7148 47.6305 37.7634V44.4294C46.878 44.2793 46.224 44.2307 45.6241 44.2307C42.2174 44.2307 39.2555 45.8751 39.2555 51.1485V61.2251C39.2466 61.841 38.7395 62.3473 38.1175 62.3473H33.7262C33.1036 62.3473 32.5971 61.841 32.5878 61.2251V38.9611C32.6078 38.3589 33.1132 37.8645 33.7262 37.8645H37.9876C38.5792 37.9023 39.0517 38.3859 39.0517 38.9836V41.4962C40.5599 38.262 43.9721 37.668 46.0764 37.668V37.6685ZM75.2273 42.8435H69.609V33.0367H75.2273C78.7361 33.0367 80.7924 34.977 80.7924 37.9646C80.7924 40.8556 78.7361 42.8435 75.2273 42.8435ZM80.2891 47.9123C84.9496 46.5733 87.8644 42.8435 87.8644 37.9195C87.8644 31.7905 83.4528 27.0704 76.5283 27.0704H63.7791C63.1496 27.0704 62.6398 27.5812 62.6398 28.2008V61.2192C62.6398 61.8438 63.1496 62.3491 63.7791 62.3491H68.4699C69.097 62.3491 69.609 61.837 69.609 61.2192V48.7635H73.2182L79.6304 61.2192C79.9535 61.8438 80.7274 62.3491 81.3556 62.3491H86.7536C87.3748 62.3491 87.6323 61.837 87.3161 61.2192L80.2891 47.9123ZM50.8814 53.633C53.4404 53.633 55.496 55.6749 55.496 58.1641C55.496 60.6491 53.4404 62.694 50.8814 62.694C48.3741 62.694 46.3206 60.6491 46.3206 58.1641C46.3206 55.6749 48.3741 53.633 50.8814 53.633ZM10.3986 55.986H6.91799V33.439H10.454C16.2683 33.439 21.0829 37.0718 21.0829 44.7319C21.0829 52.3994 16.2203 55.986 10.3986 55.986ZM10.6988 27.0654H1.1404C0.519581 27.0654 0 27.5792 0 28.1963V61.2181C0 61.8438 0.519581 62.3477 1.1404 62.3477H10.6482C20.7814 62.3477 28.259 55.8833 28.259 44.7319C28.259 33.5868 20.833 27.0654 10.6988 27.0654Z" fill="#96ABBA"/>
</svg>
