<svg width="24" height="24" viewBox="0 0 24 24" fill="none" xmlns="http://www.w3.org/2000/svg">
<g clip-path="url(#clip0)">
<path d="M21.6374 20.8473H1.95008C1.74874 20.8473 1.58545 20.6841 1.58545 20.4827V3.71192C1.58545 3.51044 1.74874 3.34729 1.95008 3.34729H21.6374C21.8389 3.34729 22.0022 3.51044 22.0022 3.71192V20.4827C22.0022 20.6841 21.8389 20.8473 21.6374 20.8473ZM2.31457 20.1182H21.273V4.07641H2.31457V20.1182Z" fill="#D20A11"/>
<path d="M22.0024 4.07641H1.61584C1.21316 4.07641 0.886719 3.74997 0.886719 3.34729V2.61817C0.886719 2.21536 1.21316 1.88892 1.61584 1.88892H22.0024C22.4051 1.88892 22.7315 2.21536 22.7315 2.61817V3.34729C22.7315 3.74997 22.4051 4.07641 22.0024 4.07641ZM1.61584 2.61817V3.34729H22.0024V2.61817H1.61584Z" fill="#D20A11"/>
<path d="M22.0024 22.3915H1.61584C1.21316 22.3915 0.886719 22.065 0.886719 21.6624V20.9332C0.886719 20.5304 1.21316 20.204 1.61584 20.204H22.0024C22.4051 20.204 22.7315 20.5304 22.7315 20.9332V21.6624C22.7315 22.065 22.4051 22.3915 22.0024 22.3915ZM1.61584 20.9332V21.6624H22.0024V20.9332H1.61584Z" fill="#D20A11"/>
<path d="M3.40845 20.8473H1.95008C1.74874 20.8473 1.58545 20.6841 1.58545 20.4827V3.71192C1.58545 3.51044 1.74874 3.34729 1.95008 3.34729H3.40845C3.60966 3.34729 3.77295 3.51044 3.77295 3.71192V20.4827C3.77295 20.6841 3.60966 20.8473 3.40845 20.8473ZM2.31457 20.1182H3.04383V4.07641H2.31457V20.1182Z" fill="#D20A11"/>
<path d="M21.6377 20.8473H20.1794C19.9781 20.8473 19.8149 20.6841 19.8149 20.4827V3.71192C19.8149 3.51044 19.9781 3.34729 20.1794 3.34729H21.6377C21.8391 3.34729 22.0024 3.51044 22.0024 3.71192V20.4827C22.0024 20.6841 21.8391 20.8473 21.6377 20.8473ZM20.5441 20.1182H21.2732V4.07641H20.5441V20.1182Z" fill="#D20A11"/>
<path d="M20.1793 6.26391H3.40857C3.2071 6.26391 3.04395 6.10062 3.04395 5.89942C3.04395 5.69794 3.2071 5.53479 3.40857 5.53479H20.1793C20.3808 5.53479 20.5439 5.69794 20.5439 5.89942C20.5439 6.10062 20.3808 6.26391 20.1793 6.26391Z" fill="#D20A11"/>
<path d="M20.1793 18.6598H3.40857C3.2071 18.6598 3.04395 18.4966 3.04395 18.2952C3.04395 18.094 3.2071 17.9307 3.40857 17.9307H20.1793C20.3808 17.9307 20.5439 18.094 20.5439 18.2952C20.5439 18.4966 20.3808 18.6598 20.1793 18.6598Z" fill="#D20A11"/>
<path d="M5.59621 20.8473C5.39473 20.8473 5.23145 20.6841 5.23145 20.4827V3.71192C5.23145 3.51044 5.39473 3.34729 5.59621 3.34729C5.79741 3.34729 5.9607 3.51044 5.9607 3.71192V20.4827C5.9607 20.6841 5.79741 20.8473 5.59621 20.8473Z" fill="#D20A11"/>
<path d="M17.9919 20.8473C17.7907 20.8473 17.6274 20.6841 17.6274 20.4827V3.71192C17.6274 3.51044 17.7907 3.34729 17.9919 3.34729C18.1934 3.34729 18.3566 3.51044 18.3566 3.71192V20.4827C18.3566 20.6841 18.1934 20.8473 17.9919 20.8473Z" fill="#D20A11"/>
</g>
<defs>
<clipPath id="clip0">
<rect width="23.3333" height="23.3333" fill="white" transform="translate(0.108887 0.333374)"/>
</clipPath>
</defs>
</svg>
