<svg width="24" height="24" viewBox="0 0 24 24" fill="none" xmlns="http://www.w3.org/2000/svg">
<g clip-path="url(#clip0)">
<path d="M3.65918 22.1112H10.6592V16.6667H3.65918V22.1112ZM4.43696 17.4445H9.8814V21.3334H4.43696V17.4445Z" fill="#D20A11"/>
<path d="M3.65918 15.9227H10.6592V3.37683H3.65918V15.9227ZM4.43696 4.15461H9.8814V15.145H4.43696V4.15461Z" fill="#D20A11"/>
<path d="M12.8911 22.1112H19.8911V16.6667H12.8911V22.1112ZM13.6689 17.4445H19.1133V21.3334H13.6689V17.4445Z" fill="#D20A11"/>
<path d="M0.497559 0.333374V23.6667H2.05311H11.3864H12.1642H21.4976H23.0531V0.333374H0.497559ZM2.83089 22.8889V2.66671H11.3864V22.8889H2.83089ZM12.1642 22.8889V2.66671H20.7198V22.8889H12.1642ZM22.2753 22.8889H21.4976V1.88893H12.1642H11.3864H2.05311V22.8889H1.27534V1.11115H22.2753V22.8889Z" fill="#D20A11"/>
<path d="M12.8916 15.9227H19.8916V3.37683H12.8916V15.9227ZM13.6694 4.15461H19.1138V15.145H13.6694V4.15461Z" fill="#D20A11"/>
</g>
<defs>
<clipPath id="clip0">
<rect width="23.3333" height="23.3333" fill="white" transform="translate(0.108887 0.333374)"/>
</clipPath>
</defs>
</svg>
