<svg width="24" height="24" viewBox="0 0 24 24" fill="none" xmlns="http://www.w3.org/2000/svg">
<g clip-path="url(#clip0)">
<path d="M21.7313 2.19986C21.4735 2.19986 21.2646 2.40872 21.2646 2.66652V22.7334H12.2424V1.26671H21.7313C21.989 1.26671 22.1979 1.05785 22.1979 0.800041C22.1979 0.542235 21.989 0.333374 21.7313 0.333374H1.82018C1.56247 0.333374 1.35352 0.542235 1.35352 0.800041V18.2222C1.35352 18.4801 1.56247 18.6889 1.82018 18.6889C2.0779 18.6889 2.28685 18.4801 2.28685 18.2222V1.26671H11.3091V22.7334H2.28685V20.0891C2.28685 19.8312 2.0779 19.6224 1.82018 19.6224C1.56247 19.6224 1.35352 19.8312 1.35352 20.0891V23.2C1.35352 23.4578 1.56247 23.6667 1.82018 23.6667H21.7313C21.989 23.6667 22.198 23.4578 22.198 23.2V2.66652C22.1979 2.40872 21.989 2.19986 21.7313 2.19986Z" fill="#D20A11"/>
<path d="M7.71244 9.18113L3.3569 13.5367C3.17465 13.719 3.17465 14.0144 3.3569 14.1967C3.448 14.2878 3.56745 14.3334 3.68685 14.3334C3.80625 14.3334 3.92574 14.2878 4.0168 14.1967L8.37234 9.8412C8.55458 9.65891 8.55458 9.36346 8.37234 9.18122C8.19018 8.99902 7.8946 8.99902 7.71244 9.18113Z" fill="#D20A11"/>
<path d="M5.2236 16.0634C5.3147 16.1545 5.43415 16.2001 5.55355 16.2001C5.67295 16.2001 5.79245 16.1545 5.8835 16.0634L10.239 11.7079C10.4213 11.5256 10.4213 11.2302 10.239 11.0479C10.0568 10.8657 9.7613 10.8657 9.5791 11.0479L5.22356 15.4034C5.04136 15.5857 5.04136 15.8811 5.2236 16.0634Z" fill="#D20A11"/>
<path d="M18.3279 9.18108C18.1457 8.99888 17.8502 8.99888 17.668 9.18108L13.3125 13.5366C13.1302 13.7189 13.1302 14.0144 13.3125 14.1966C13.4036 14.2877 13.523 14.3332 13.6424 14.3332C13.7618 14.3332 13.8813 14.2877 13.9724 14.1966L18.3279 9.84107C18.5102 9.65883 18.5102 9.36338 18.3279 9.18108Z" fill="#D20A11"/>
<path d="M15.5091 16.2001C15.6285 16.2001 15.748 16.1545 15.8391 16.0634L20.1946 11.7079C20.3768 11.5256 20.3768 11.2302 20.1946 11.0479C20.0123 10.8657 19.7169 10.8657 19.5347 11.0479L15.1792 15.4034C14.9969 15.5857 14.9969 15.8812 15.1792 16.0634C15.2702 16.1545 15.3897 16.2001 15.5091 16.2001Z" fill="#D20A11"/>
</g>
<defs>
<clipPath id="clip0">
<rect width="23.3333" height="23.3333" fill="white" transform="translate(0.108887 0.333374)"/>
</clipPath>
</defs>
</svg>
