<svg width="24" height="24" viewBox="0 0 24 24" fill="none" xmlns="http://www.w3.org/2000/svg">
<g clip-path="url(#clip0)">
<path d="M11.0353 21.4679H2.64992C2.44844 21.4679 2.28516 21.3046 2.28516 21.1031V2.87416C2.28516 2.67269 2.44844 2.5094 2.64992 2.5094H11.0353C11.2365 2.5094 11.3998 2.67269 11.3998 2.87416V21.1031C11.3998 21.3046 11.2365 21.4679 11.0353 21.4679ZM3.01441 20.7387H10.6707V3.23866H3.01441V20.7387Z" fill="#D20A11"/>
<path d="M2.89657 3.50695C2.79469 3.50695 2.69723 3.46422 2.6282 3.38905L2.38147 3.12082C2.29308 3.02496 2.26291 2.88944 2.30189 2.76514C2.34075 2.6407 2.44302 2.54658 2.57026 2.51827C2.69723 2.4897 2.82981 2.53122 2.91793 2.62722L3.1648 2.89558C3.2628 3.00199 3.28856 3.15634 3.23035 3.28878C3.17241 3.42123 3.0413 3.50695 2.89657 3.50695Z" fill="#D20A11"/>
<path d="M2.64982 21.468C2.50509 21.468 2.37412 21.3823 2.31577 21.2498C2.25782 21.1172 2.28346 20.963 2.38146 20.8565L2.62819 20.5882C2.76571 20.4461 2.99135 20.4394 3.13688 20.5732C3.28242 20.7071 3.29497 20.9326 3.16479 21.0813L2.91792 21.3497C2.84903 21.425 2.75183 21.4677 2.64982 21.468Z" fill="#D20A11"/>
<path d="M21.9725 22.9261H1.55578C1.1531 22.9261 0.82666 22.5997 0.82666 22.197V1.78027C0.82666 1.37759 1.1531 1.05115 1.55578 1.05115H21.9725C22.3752 1.05115 22.7017 1.37759 22.7017 1.78027V22.197C22.7017 22.5997 22.3752 22.9261 21.9725 22.9261ZM1.55578 1.78027V22.197H21.9725V1.78027H1.55578ZM20.8787 21.4679H12.4933C12.2921 21.4679 12.1288 21.3046 12.1288 21.1031V2.87415C12.1288 2.67268 12.2921 2.50939 12.4933 2.50939H20.8787C21.0801 2.50939 21.2434 2.67268 21.2434 2.87415V21.1031C21.2434 21.3046 21.0801 21.4679 20.8787 21.4679ZM12.8579 20.7386H20.5142V3.23865H12.8579V20.7386ZM11.035 21.4679H2.64967C2.44819 21.4679 2.2849 21.3046 2.2849 21.1031V2.87415C2.2849 2.67268 2.44819 2.50939 2.64967 2.50939H11.035C11.2362 2.50939 11.3995 2.67268 11.3995 2.87415V21.1031C11.3995 21.3046 11.2362 21.4679 11.035 21.4679ZM3.01416 20.7386H10.6704V3.23865H3.01416V20.7386Z" fill="#D20A11"/>
<path d="M20.8788 21.4679H12.4934C12.2922 21.4679 12.1289 21.3046 12.1289 21.1031V2.87416C12.1289 2.67269 12.2922 2.5094 12.4934 2.5094H20.8788C21.0802 2.5094 21.2435 2.67269 21.2435 2.87416V21.1031C21.2435 21.3046 21.0802 21.4679 20.8788 21.4679ZM12.858 20.7387H20.5143V3.23866H12.858V20.7387Z" fill="#D20A11"/>
<path d="M20.6321 3.50708C20.4874 3.50708 20.3563 3.42136 20.2983 3.28892C20.2401 3.15647 20.2659 3.00213 20.3639 2.89572L20.6108 2.62735C20.747 2.47902 20.9777 2.46927 21.1259 2.60559C21.2743 2.74204 21.284 2.97262 21.1476 3.12096L20.9008 3.38919C20.8316 3.46449 20.7341 3.50721 20.6321 3.50708Z" fill="#D20A11"/>
<path d="M20.8788 21.4679C20.7768 21.4679 20.6796 21.4252 20.6107 21.35L20.3638 21.0816C20.2275 20.9334 20.2371 20.7026 20.3855 20.5664C20.5337 20.4301 20.7645 20.4398 20.9007 20.5882L21.1476 20.8564C21.2457 20.9629 21.2712 21.1173 21.213 21.2499C21.1546 21.3824 21.0237 21.468 20.8788 21.4679Z" fill="#D20A11"/>
</g>
<defs>
<clipPath id="clip0">
<rect width="23.3333" height="23.3333" fill="white" transform="translate(0.108887 0.333374)"/>
</clipPath>
</defs>
</svg>
