<svg width="24" height="24" viewBox="0 0 24 24" fill="none" xmlns="http://www.w3.org/2000/svg">
<g clip-path="url(#clip0)">
<path d="M23.1125 20.6987H0.438559C0.256471 20.6987 0.108889 20.5511 0.108889 20.369C0.108889 20.1869 0.256471 20.0393 0.438559 20.0393H2.49702V12.3296H1.23438L2.07592 13.1713C2.20472 13.3001 2.20472 13.5088 2.07592 13.6375C1.94713 13.7662 1.73856 13.7662 1.60977 13.6375L0.205482 12.2331C0.162515 12.1901 0.133944 12.1383 0.119658 12.0836C0.119658 12.0834 0.119658 12.0831 0.119438 12.0831C0.0911962 11.9739 0.119658 11.8533 0.204713 11.7677C0.204823 11.7674 0.205152 11.7673 0.205482 11.7669L1.60977 10.3626C1.73856 10.2338 1.94713 10.2338 2.07592 10.3626C2.20472 10.4913 2.20472 10.7001 2.07592 10.8288L1.23438 11.6703H2.49702V3.63106C2.49702 3.44897 2.64461 3.30139 2.82669 3.30139H20.7243C20.9064 3.30139 21.054 3.44897 21.054 3.63106V11.6703H22.3167L21.4752 10.8288C21.3464 10.7001 21.3464 10.4913 21.4752 10.3626C21.604 10.2338 21.8125 10.2338 21.9413 10.3626L23.3456 11.7669C23.3458 11.7671 23.3462 11.7672 23.3464 11.7677C23.3466 11.7679 23.3469 11.768 23.3472 11.7684C23.3473 11.7685 23.3475 11.7687 23.3476 11.7689C23.3479 11.7692 23.3483 11.7694 23.3485 11.7698C23.3486 11.7698 23.3486 11.7699 23.3487 11.77C23.3493 11.7705 23.3497 11.771 23.3502 11.7715C23.3725 11.7947 23.3908 11.8203 23.4051 11.8476C23.4051 11.8476 23.4051 11.8476 23.4051 11.8477C23.4053 11.8482 23.4056 11.8488 23.406 11.8493C23.406 11.8493 23.406 11.8494 23.4061 11.8494C23.4062 11.8498 23.4063 11.85 23.4064 11.8503C23.4065 11.8503 23.4065 11.8503 23.4065 11.8504C23.4072 11.8516 23.4077 11.8527 23.4084 11.8539V11.854C23.4085 11.8543 23.4086 11.8545 23.4087 11.8547C23.4087 11.8547 23.4088 11.8548 23.4088 11.8549C23.409 11.8553 23.4093 11.8555 23.4093 11.8558C23.4095 11.8563 23.4096 11.8566 23.4097 11.8568C23.4098 11.857 23.4099 11.8571 23.4099 11.8573C23.41 11.8574 23.4101 11.8576 23.4101 11.8577C23.4102 11.8579 23.4104 11.8581 23.4105 11.8583C23.4105 11.8585 23.4107 11.8588 23.4109 11.8592C23.4109 11.8594 23.411 11.8596 23.4112 11.8599C23.4686 11.9821 23.4468 12.1323 23.3458 12.2333L21.9416 13.6377C21.813 13.7665 21.6042 13.7665 21.4754 13.6377C21.3466 13.509 21.3466 13.3003 21.4754 13.1715L22.3169 12.3299H21.054V20.0396H23.1125C23.2946 20.0396 23.4422 20.1871 23.4422 20.3692C23.4422 20.5513 23.2946 20.6987 23.1125 20.6987ZM12.1052 20.0393H20.3946V12.3296H19.0295C18.8474 12.3296 18.6998 12.1821 18.6998 12C18.6998 11.8179 18.8474 11.6703 19.0295 11.6703H20.3946V3.96073H12.1052V20.0393ZM3.15648 20.0393H11.4459V3.96073H3.15648V11.6703H4.52175C4.70384 11.6703 4.85142 11.8179 4.85142 12C4.85142 12.1821 4.70384 12.3296 4.52175 12.3296H3.15648V20.0393ZM13.9788 14.0246H13.0975C12.9154 14.0246 12.7678 13.877 12.7678 13.6949C12.7678 13.5128 12.9154 13.3653 13.0975 13.3653H13.9788C14.2269 13.3653 14.4288 13.1634 14.4288 12.9153V11.0848C14.4288 10.8367 14.2269 10.6348 13.9788 10.6348H13.0975C12.9154 10.6348 12.7678 10.4872 12.7678 10.3051C12.7678 10.123 12.9154 9.97547 13.0975 9.97547H13.9788C14.5904 9.97547 15.0881 10.4731 15.0881 11.0848V12.9153C15.0881 13.527 14.5904 14.0246 13.9788 14.0246ZM10.4536 14.0246H9.5722C8.96055 14.0246 8.46286 13.527 8.46286 12.9153V11.0848C8.46286 10.4732 8.96044 9.97547 9.5722 9.97547H10.4536C10.6357 9.97547 10.7833 10.123 10.7833 10.3051C10.7833 10.4872 10.6357 10.6348 10.4536 10.6348H9.5722C9.32407 10.6348 9.1222 10.8367 9.1222 11.0848V12.9153C9.1222 13.1634 9.32407 13.3653 9.5722 13.3653H10.4536C10.6357 13.3653 10.7833 13.5128 10.7833 13.6949C10.7833 13.877 10.6357 14.0246 10.4536 14.0246Z" fill="#D20A11"/>
</g>
<defs>
<clipPath id="clip0">
<rect width="23.3333" height="23.3333" fill="white" transform="translate(0.108887 0.333374)"/>
</clipPath>
</defs>
</svg>
