<svg width="24" height="24" viewBox="0 0 24 24" fill="none" xmlns="http://www.w3.org/2000/svg">
<g clip-path="url(#clip0)">
<path d="M10.4738 23.6637C10.4722 23.6639 10.4707 23.6641 10.4692 23.6643C10.4716 23.664 10.4739 23.6637 10.4738 23.6637Z" fill="#D20A11"/>
<path d="M10.4694 23.6643C10.467 23.6646 10.4647 23.6649 10.4648 23.6649C10.4664 23.6648 10.4679 23.6645 10.4694 23.6643Z" fill="#D20A11"/>
<path d="M10.7735 21.174V6.22141C10.7735 6.0326 10.6205 5.87956 10.4317 5.87956C10.2429 5.87956 10.0898 6.03255 10.0898 6.22141V10.1881C9.31647 6.12958 9.03182 2.19786 8.95931 1.01706H10.0898V4.85408C10.0898 5.04289 10.2428 5.19592 10.4317 5.19592C10.6205 5.19592 10.7735 5.04293 10.7735 4.85408V0.675217C10.7735 0.486408 10.6205 0.333374 10.4317 0.333374H3.45268C3.26387 0.333374 3.11084 0.486363 3.11084 0.675217V16.6369C3.11084 16.8257 3.26383 16.9787 3.45268 16.9787C3.64154 16.9787 3.79453 16.8257 3.79453 16.6369V5.69946C4.47844 8.14213 5.33945 13.409 4.32819 22.983H3.79453V18.0042C3.79453 17.8155 3.64154 17.6624 3.45268 17.6624C3.26383 17.6624 3.11084 17.8154 3.11084 18.0042V23.3248C3.11084 23.5136 3.26383 23.6666 3.45268 23.6666H4.63498C4.63526 23.6666 4.63553 23.6667 4.6358 23.6667C4.63612 23.6667 4.63644 23.6666 4.63676 23.6666H5.9787C5.97888 23.6666 10.4737 23.6637 10.4739 23.6637C10.4812 23.6628 10.4886 23.6618 10.4959 23.6604C10.501 23.6594 10.5058 23.6582 10.5108 23.657C10.5159 23.6558 10.521 23.6546 10.526 23.6531C10.5319 23.6514 10.5377 23.6495 10.5435 23.6476C10.5457 23.6468 10.548 23.6462 10.5502 23.6454C10.552 23.6447 10.5535 23.6439 10.5552 23.6432C10.5622 23.6406 10.569 23.6376 10.5758 23.6344C10.5797 23.6326 10.5835 23.6308 10.5874 23.6289C10.5931 23.6259 10.5988 23.6228 10.6043 23.6195C10.6088 23.6169 10.6133 23.6142 10.6177 23.6114C10.6222 23.6085 10.6265 23.6054 10.6308 23.6023C10.6358 23.5988 10.6406 23.5952 10.6453 23.5914C10.649 23.5885 10.6524 23.5855 10.656 23.5824C10.6608 23.5782 10.6657 23.5739 10.6703 23.5694C10.6735 23.5662 10.6766 23.5629 10.6797 23.5596C10.6841 23.555 10.6884 23.5504 10.6925 23.5456C10.6957 23.5417 10.6988 23.5377 10.7019 23.5337C10.7054 23.5292 10.7089 23.5247 10.7121 23.5201C10.7154 23.5153 10.7185 23.5103 10.7217 23.5053C10.7242 23.5012 10.7268 23.4972 10.7292 23.493C10.7324 23.4873 10.7353 23.4815 10.7383 23.4755C10.7401 23.4717 10.7421 23.4679 10.7438 23.464C10.7465 23.4578 10.749 23.4516 10.7514 23.4452C10.7529 23.4412 10.7545 23.4371 10.7558 23.433C10.7579 23.427 10.7596 23.4209 10.7612 23.4148C10.7625 23.41 10.7639 23.4051 10.765 23.4002C10.7662 23.3948 10.7672 23.3893 10.7682 23.3838C10.7692 23.3779 10.7702 23.3719 10.7709 23.366C10.7714 23.3613 10.7718 23.3565 10.7723 23.3518C10.7728 23.3449 10.7732 23.3379 10.7733 23.331C10.7733 23.3289 10.7736 23.3269 10.7736 23.3248C10.7735 23.3238 10.7735 21.1751 10.7735 21.174ZM5.68307 22.9829H5.01552C5.45689 18.7669 5.78702 12.8665 4.98416 7.96116C4.55081 5.31327 3.96447 4.03837 3.79443 3.70906V1.01706H4.13095C4.52912 1.54566 5.28385 2.99429 5.81409 5.46394C6.23646 7.43114 6.46351 9.74087 6.48889 12.329C6.51979 15.4871 6.24863 19.0703 5.68307 22.9829ZM8.1853 22.9829C7.91455 21.6823 7.68459 19.717 8.02375 18.918C8.19592 19.13 8.55968 19.6968 9.20837 21.1967C9.50482 21.8822 9.77088 22.555 9.93612 22.9829H8.1853ZM10.0898 21.526C9.99209 21.29 9.88805 21.044 9.78049 20.798C8.7417 18.4209 8.33729 18.1748 8.03983 18.1306C7.86141 18.104 7.69402 18.1748 7.58046 18.3246C6.85115 19.2864 7.27712 21.9194 7.48826 22.9829H6.37409C6.9402 19.0379 7.20849 15.424 7.17171 12.2357C7.14122 9.59199 6.90197 7.23126 6.46068 5.21907C5.97355 2.99812 5.34647 1.68735 4.94502 1.01701H6.77555C6.89937 2.03338 7.32662 5.48385 7.8749 9.28801C8.74252 15.3083 9.4876 19.3254 10.0898 21.2311V21.526ZM10.0898 18.3839C8.93913 12.8575 7.71531 3.06775 7.46434 1.01706H8.2744C8.36094 2.44463 8.78099 8.29589 10.0898 13.3314V18.3839H10.0898Z" fill="#D20A11"/>
<path d="M10.4318 23.6667C10.4429 23.6667 10.4539 23.666 10.465 23.6649L10.4307 23.6666C10.4311 23.6666 10.4314 23.6667 10.4318 23.6667Z" fill="#D20A11"/>
<path d="M20.0982 0.333374H19.0421C19.0413 0.333374 19.0404 0.333374 19.0395 0.333374H15.2824C15.2819 0.333374 15.2815 0.333374 15.281 0.333374H13.1192C12.9304 0.333374 12.7773 0.486363 12.7773 0.675217V4.74079C12.7773 4.74192 12.7773 4.74306 12.7773 4.74425V9.36257C12.7773 9.36326 12.7773 9.36389 12.7773 9.36458V23.3248C12.7773 23.5136 12.9303 23.6667 13.1192 23.6667H20.0982C20.287 23.6667 20.44 23.5137 20.44 23.3248V18.4671C20.44 18.2782 20.287 18.1252 20.0982 18.1252C19.9094 18.1252 19.7563 18.2782 19.7563 18.4671V22.9829H18.7499C18.7047 19.0502 18.8066 13.529 19.5122 8.90156C19.5936 8.36739 19.6761 7.89234 19.7564 7.47275V17.0998C19.7564 17.2886 19.9094 17.4416 20.0982 17.4416C20.287 17.4416 20.4401 17.2886 20.4401 17.0998V4.73892C20.4401 4.73832 20.4401 4.73769 20.4401 4.73709V0.675217C20.44 0.486363 20.287 0.333374 20.0982 0.333374ZM15.3991 7.14877C15.5377 7.14877 15.6676 7.08287 15.7559 6.96488C15.8732 6.80816 16.1174 6.48195 15.8965 3.46429C15.8246 2.48264 15.7256 1.52771 15.6695 1.01706H16.3121C16.4772 2.24389 17.0286 7.07973 15.8576 9.58292C15.669 9.98606 15.5264 10.0628 15.4862 10.058C15.4649 10.0555 14.9554 9.96746 14.1647 7.42052C13.7777 6.17365 13.5071 4.92385 13.461 4.70683V3.77304C13.5424 3.98455 13.6278 4.20266 13.7155 4.42077C14.6932 6.85492 15.0373 7.09764 15.3304 7.14339C15.3534 7.14699 15.3764 7.14877 15.3991 7.14877ZM13.461 1.01706H14.9818C15.0341 1.48906 15.1356 2.45256 15.2101 3.4528C15.3263 5.01482 15.3136 5.79913 15.2772 6.19019C14.8663 5.49206 14.1348 3.73467 13.461 1.79157V1.01706H13.461ZM14.6506 22.983H13.461V11.8936C14.0702 14.4279 14.8484 18.6323 14.6506 22.983ZM15.3349 22.9829C15.4951 19.37 14.9933 15.8948 14.535 13.5844C14.0656 11.2184 13.5615 9.61304 13.461 9.30269V7.45744H13.461C13.4773 7.51117 13.4937 7.56494 13.5104 7.61877C13.9444 9.01777 14.5521 10.6366 15.4064 10.737C15.4368 10.7406 15.4668 10.7424 15.4965 10.7424C15.8771 10.7423 16.2066 10.4503 16.4768 9.87258C17.081 8.58109 17.3428 6.62764 17.255 4.06658C17.2091 2.72933 17.0784 1.59046 17.0025 1.01706H18.6256C18.4186 2.0795 17.8494 5.09662 17.3212 8.75681C16.73 12.854 16.0742 18.5967 16.2511 22.983H15.3349V22.9829ZM19.7563 4.67926C19.6509 4.96405 19.2386 6.18053 18.8446 8.74383C18.1254 13.4228 18.0207 19.0051 18.0661 22.983H16.9352C16.6151 15.2326 18.9346 2.9968 19.3224 1.01706H19.7563V4.67926H19.7563Z" fill="#D20A11"/>
</g>
<defs>
<clipPath id="clip0">
<rect width="23.3333" height="23.3333" fill="white" transform="translate(0.108887 0.333374)"/>
</clipPath>
</defs>
</svg>
