<svg width="128" height="128" viewBox="0 0 128 128" fill="none" xmlns="http://www.w3.org/2000/svg">
<path d="M127.993 64.9896C127.997 64.6603 128 64.3305 128 64C128 63.6695 127.997 63.3397 127.993 63.0104L119.993 63.1316C119.998 63.4205 120 63.71 120 64C120 64.29 119.998 64.5795 119.993 64.8683L127.993 64.9896Z" fill="white"/>
<path d="M127.813 59.0719C127.763 58.4156 127.703 57.762 127.634 57.1114L119.679 57.9627C119.74 58.5322 119.792 59.1045 119.836 59.6794L127.813 59.0719Z" fill="white"/>
<path d="M127.093 53.2048C126.983 52.5561 126.863 51.9107 126.734 51.2687L118.892 52.8516C119.005 53.4128 119.11 53.9772 119.206 54.5446L127.093 53.2048Z" fill="white"/>
<path d="M125.834 47.4296C125.664 46.7935 125.484 46.1613 125.295 45.5332L117.635 47.838C117.8 48.387 117.957 48.9395 118.105 49.4955L125.834 47.4296Z" fill="white"/>
<path d="M124.043 41.796C123.815 41.1785 123.577 40.5654 123.33 39.957L115.917 42.9641C116.133 43.496 116.341 44.0319 116.54 44.5717L124.043 41.796Z" fill="white"/>
<path d="M120.856 34.5877C121.158 35.1708 121.452 35.7592 121.737 36.3526L114.524 39.8128C114.275 39.2939 114.018 38.7794 113.754 38.2694L120.856 34.5877Z" fill="white"/>
<path d="M118.935 31.146C118.597 30.5818 118.25 30.0233 117.895 29.4706L111.163 33.7925C111.474 34.2762 111.777 34.765 112.073 35.2586L118.935 31.146Z" fill="white"/>
<path d="M115.665 26.2205C115.276 25.6901 114.88 25.1659 114.476 24.6481L108.17 29.5712C108.524 30.0246 108.871 30.4835 109.211 30.9478L115.665 26.2205Z" fill="white"/>
<path d="M111.956 21.6167C111.52 21.1244 111.077 20.6389 110.627 20.1603L104.8 25.6413C105.194 26.0605 105.582 26.4857 105.963 26.9168L111.956 21.6167Z" fill="white"/>
<path d="M107.84 17.3727C107.361 16.9226 106.876 16.4797 106.383 16.0443L101.083 22.0367C101.514 22.418 101.94 22.8058 102.359 23.2001L107.84 17.3727Z" fill="white"/>
<path d="M103.352 13.5243C102.834 13.12 102.31 12.7236 101.78 12.3351L97.0522 18.7889C97.5165 19.129 97.9754 19.4761 98.4288 19.8301L103.352 13.5243Z" fill="white"/>
<path d="M98.5294 10.1045C97.9767 9.74966 97.4182 9.40308 96.854 9.06495L92.7414 15.9269C93.235 16.2227 93.7237 16.526 94.2074 16.8365L98.5294 10.1045Z" fill="white"/>
<path d="M93.4123 7.14387C92.8292 6.8416 92.2408 6.54804 91.6474 6.26336L88.1872 13.4763C88.7061 13.7253 89.2206 13.982 89.7306 14.2464L93.4123 7.14387Z" fill="white"/>
<path d="M88.043 4.66955C87.4346 4.42276 86.8215 4.18505 86.2039 3.95659L83.4283 11.4597C83.9681 11.6593 84.504 11.8671 85.0359 12.0829L88.043 4.66955Z" fill="white"/>
<path d="M82.4668 2.7045C81.8387 2.51553 81.2065 2.33595 80.5704 2.16592L78.5045 9.89457C79.0605 10.0432 79.613 10.2001 80.162 10.3653L82.4668 2.7045Z" fill="white"/>
<path d="M76.7312 1.26631C76.0893 1.13674 75.4439 1.01678 74.7952 0.906583L73.4554 8.7936C74.0228 8.88998 74.5872 8.99488 75.1484 9.10817L76.7312 1.26631Z" fill="white"/>
<path d="M70.8886 0.366397C70.2379 0.296769 69.5844 0.236891 68.9281 0.186913L68.3206 8.16382C68.8955 8.20759 69.4678 8.26003 70.0373 8.32098L70.8886 0.366397Z" fill="white"/>
<path d="M64.9896 0.00749545C64.6603 0.00250446 64.3305 0 64 0C63.6695 0 63.3397 0.00250462 63.0104 0.00749591L63.1316 8.00658C63.4205 8.0022 63.71 8 64 8C64.29 8 64.5795 8.0022 64.8683 8.00658L64.9896 0.00749545Z" fill="white"/>
<path d="M59.0719 0.186915C58.4156 0.236893 57.762 0.296771 57.1114 0.3664L57.9627 8.32098C58.5322 8.26003 59.1045 8.2076 59.6794 8.16382L59.0719 0.186915Z" fill="white"/>
<path d="M53.2048 0.906587C52.5561 1.01679 51.9107 1.13675 51.2687 1.26632L52.8516 9.10817C53.4128 8.99489 53.9772 8.88998 54.5446 8.7936L53.2048 0.906587Z" fill="white"/>
<path d="M47.4296 2.16593C46.7935 2.33595 46.1613 2.51553 45.5332 2.70451L47.838 10.3653C48.387 10.2001 48.9395 10.0432 49.4955 9.89458L47.4296 2.16593Z" fill="white"/>
<path d="M41.796 3.9566C41.1785 4.18505 40.5654 4.42276 39.957 4.66956L42.9641 12.0829C43.496 11.8671 44.0319 11.6593 44.5717 11.4597L41.796 3.9566Z" fill="white"/>
<path d="M36.3526 6.26337C35.7592 6.54805 35.1708 6.84161 34.5877 7.14388L38.2694 14.2464C38.7794 13.982 39.2939 13.7253 39.8128 13.4763L36.3526 6.26337Z" fill="white"/>
<path d="M31.146 9.06495C30.5818 9.40308 30.0233 9.74966 29.4706 10.1045L33.7925 16.8366C34.2762 16.526 34.765 16.2227 35.2586 15.9269L31.146 9.06495Z" fill="white"/>
<path d="M26.2205 12.3351C25.6901 12.7236 25.1659 13.12 24.6481 13.5243L29.5712 19.8301C30.0246 19.4761 30.4835 19.129 30.9478 18.7889L26.2205 12.3351Z" fill="white"/>
<path d="M21.6167 16.0443C21.1244 16.4797 20.6389 16.9226 20.1603 17.3727L25.6413 23.2001C26.0605 22.8059 26.4857 22.418 26.9168 22.0367L21.6167 16.0443Z" fill="white"/>
<path d="M17.3727 20.1603C16.9226 20.6389 16.4797 21.1244 16.0443 21.6167L22.0367 26.9168C22.418 26.4857 22.8058 26.0605 23.2001 25.6413L17.3727 20.1603Z" fill="white"/>
<path d="M13.5243 24.6481C13.12 25.1659 12.7236 25.6901 12.3351 26.2205L18.7889 30.9478C19.129 30.4835 19.4761 30.0246 19.8301 29.5712L13.5243 24.6481Z" fill="white"/>
<path d="M10.1045 29.4706C9.74966 30.0233 9.40308 30.5818 9.06494 31.146L15.9269 35.2586C16.2227 34.765 16.526 34.2763 16.8365 33.7926L10.1045 29.4706Z" fill="white"/>
<path d="M7.14387 34.5877C6.8416 35.1708 6.54804 35.7592 6.26336 36.3526L13.4763 39.8128C13.7253 39.2939 13.982 38.7794 14.2464 38.2694L7.14387 34.5877Z" fill="white"/>
<path d="M4.66955 39.957C4.42276 40.5654 4.18505 41.1785 3.95659 41.7961L11.4597 44.5717C11.6593 44.0319 11.8671 43.496 12.0829 42.9641L4.66955 39.957Z" fill="white"/>
<path d="M2.7045 45.5332C2.51553 46.1613 2.33595 46.7935 2.16592 47.4296L9.89457 49.4955C10.0432 48.9395 10.2001 48.387 10.3653 47.838L2.7045 45.5332Z" fill="white"/>
<path d="M1.26631 51.2688C1.13674 51.9107 1.01678 52.5561 0.906583 53.2048L8.7936 54.5446C8.88998 53.9772 8.99488 53.4128 9.10817 52.8516L1.26631 51.2688Z" fill="white"/>
<path d="M0.366396 57.1114C0.296769 57.7621 0.236891 58.4156 0.186913 59.0719L8.16382 59.6794C8.20759 59.1045 8.26003 58.5322 8.32098 57.9627L0.366396 57.1114Z" fill="white"/>
<path d="M0 64C0 63.6695 0.00250447 63.3397 0.00749548 63.0104L8.00658 63.1317C8.0022 63.4205 8 63.71 8 64C8 64.29 8.0022 64.5795 8.00658 64.8684L0.00749585 64.9896C0.0025046 64.6603 0 64.3305 0 64Z" fill="white"/>
<path d="M0.186915 68.9281C0.236893 69.5844 0.296771 70.238 0.3664 70.8886L8.32098 70.0373C8.26003 69.4678 8.2076 68.8955 8.16382 68.3206L0.186915 68.9281Z" fill="white"/>
<path d="M0.906588 74.7952C1.01679 75.4439 1.13675 76.0893 1.26632 76.7313L9.10817 75.1484C8.99489 74.5872 8.88998 74.0228 8.7936 73.4554L0.906588 74.7952Z" fill="white"/>
<path d="M2.16593 80.5704C2.33596 81.2065 2.51554 81.8387 2.70451 82.4668L10.3653 80.162C10.2001 79.613 10.0432 79.0605 9.89458 78.5045L2.16593 80.5704Z" fill="white"/>
<path d="M3.9566 86.2039C4.18505 86.8215 4.42276 87.4346 4.66956 88.043L12.0829 85.0359C11.8671 84.504 11.6593 83.9681 11.4597 83.4283L3.9566 86.2039Z" fill="white"/>
<path d="M6.26337 91.6474C6.54805 92.2408 6.84161 92.8292 7.14388 93.4123L14.2464 89.7306C13.982 89.2206 13.7253 88.7061 13.4763 88.1872L6.26337 91.6474Z" fill="white"/>
<path d="M9.06495 96.854C9.40308 97.4182 9.74966 97.9767 10.1045 98.5294L16.8366 94.2075C16.526 93.7237 16.2227 93.235 15.9269 92.7414L9.06495 96.854Z" fill="white"/>
<path d="M12.3351 101.78C12.7236 102.31 13.12 102.834 13.5243 103.352L19.8301 98.4288C19.4761 97.9754 19.129 97.5165 18.7889 97.0522L12.3351 101.78Z" fill="white"/>
<path d="M16.0443 106.383C16.4797 106.876 16.9226 107.361 17.3727 107.84L23.2001 102.359C22.8059 101.94 22.418 101.514 22.0367 101.083L16.0443 106.383Z" fill="white"/>
<path d="M20.1603 110.627C20.6389 111.077 21.1244 111.52 21.6167 111.956L26.9168 105.963C26.4857 105.582 26.0605 105.194 25.6413 104.8L20.1603 110.627Z" fill="white"/>
<path d="M24.6481 114.476C25.1659 114.88 25.6901 115.276 26.2205 115.665L30.9478 109.211C30.4835 108.871 30.0246 108.524 29.5712 108.17L24.6481 114.476Z" fill="white"/>
<path d="M29.4706 117.895C30.0233 118.25 30.5818 118.597 31.146 118.935L35.2586 112.073C34.765 111.777 34.2763 111.474 33.7926 111.163L29.4706 117.895Z" fill="white"/>
<path d="M34.5877 120.856C35.1708 121.158 35.7592 121.452 36.3526 121.737L39.8128 114.524C39.2939 114.275 38.7794 114.018 38.2694 113.754L34.5877 120.856Z" fill="white"/>
<path d="M39.957 123.33C40.5654 123.577 41.1785 123.815 41.7961 124.043L44.5717 116.54C44.0319 116.341 43.496 116.133 42.9641 115.917L39.957 123.33Z" fill="white"/>
<path d="M45.5332 125.296C46.1613 125.484 46.7935 125.664 47.4296 125.834L49.4955 118.105C48.9395 117.957 48.387 117.8 47.838 117.635L45.5332 125.296Z" fill="white"/>
<path d="M51.2688 126.734C51.9107 126.863 52.5561 126.983 53.2048 127.093L54.5446 119.206C53.9772 119.11 53.4128 119.005 52.8516 118.892L51.2688 126.734Z" fill="white"/>
<path d="M57.1114 127.634C57.7621 127.703 58.4156 127.763 59.0719 127.813L59.6794 119.836C59.1045 119.792 58.5322 119.74 57.9627 119.679L57.1114 127.634Z" fill="white"/>
<path d="M63.0104 127.993C63.3397 127.997 63.6695 128 64 128C64.3305 128 64.6603 127.997 64.9896 127.993L64.8684 119.993C64.5795 119.998 64.29 120 64 120C63.71 120 63.4205 119.998 63.1317 119.993L63.0104 127.993Z" fill="white"/>
<path d="M68.9281 127.813C69.5844 127.763 70.238 127.703 70.8886 127.634L70.0373 119.679C69.4678 119.74 68.8955 119.792 68.3206 119.836L68.9281 127.813Z" fill="white"/>
<path d="M74.7952 127.093C75.4439 126.983 76.0893 126.863 76.7312 126.734L75.1484 118.892C74.5872 119.005 74.0228 119.11 73.4554 119.206L74.7952 127.093Z" fill="white"/>
<path d="M80.5704 125.834C81.2065 125.664 81.8387 125.484 82.4668 125.295L80.162 117.635C79.613 117.8 79.0605 117.957 78.5045 118.105L80.5704 125.834Z" fill="white"/>
<path d="M86.204 124.043C86.8215 123.815 87.4346 123.577 88.043 123.33L85.0359 115.917C84.504 116.133 83.9681 116.341 83.4283 116.54L86.204 124.043Z" fill="white"/>
<path d="M91.6474 121.737C92.2408 121.452 92.8292 121.158 93.4123 120.856L89.7306 113.754C89.2206 114.018 88.7061 114.275 88.1872 114.524L91.6474 121.737Z" fill="white"/>
<path d="M96.854 118.935C97.4182 118.597 97.9767 118.25 98.5294 117.895L94.2075 111.163C93.7237 111.474 93.235 111.777 92.7414 112.073L96.854 118.935Z" fill="white"/>
<path d="M101.78 115.665C102.31 115.276 102.834 114.88 103.352 114.476L98.4288 108.17C97.9754 108.524 97.5165 108.871 97.0522 109.211L101.78 115.665Z" fill="white"/>
<path d="M106.383 111.956C106.876 111.52 107.361 111.077 107.84 110.627L102.359 104.8C101.94 105.194 101.514 105.582 101.083 105.963L106.383 111.956Z" fill="white"/>
<path d="M110.627 107.84C111.077 107.361 111.52 106.876 111.956 106.383L105.963 101.083C105.582 101.514 105.194 101.94 104.8 102.359L110.627 107.84Z" fill="white"/>
<path d="M114.476 103.352C114.88 102.834 115.276 102.31 115.665 101.78L109.211 97.0522C108.871 97.5165 108.524 97.9754 108.17 98.4288L114.476 103.352Z" fill="white"/>
<path d="M118.935 96.854C118.597 97.4182 118.25 97.9767 117.895 98.5294L111.163 94.2074C111.474 93.7237 111.777 93.235 112.073 92.7414L118.935 96.854Z" fill="white"/>
<path d="M120.856 93.4123C121.158 92.8292 121.452 92.2408 121.737 91.6474L114.524 88.1872C114.275 88.7061 114.018 89.2206 113.754 89.7306L120.856 93.4123Z" fill="white"/>
<path d="M123.33 88.043C123.577 87.4346 123.815 86.8215 124.043 86.2039L116.54 83.4283C116.341 83.9681 116.133 84.504 115.917 85.0359L123.33 88.043Z" fill="white"/>
<path d="M125.296 82.4668C125.484 81.8387 125.664 81.2065 125.834 80.5704L118.105 78.5045C117.957 79.0605 117.8 79.613 117.635 80.162L125.296 82.4668Z" fill="white"/>
<path d="M126.734 76.7312C126.863 76.0893 126.983 75.4439 127.093 74.7952L119.206 73.4554C119.11 74.0228 119.005 74.5872 118.892 75.1484L126.734 76.7312Z" fill="white"/>
<path d="M127.634 70.8886C127.703 70.2379 127.763 69.5844 127.813 68.9281L119.836 68.3206C119.792 68.8955 119.74 69.4678 119.679 70.0373L127.634 70.8886Z" fill="white"/>
<path d="M94.75 36.3042C94.3677 36.3042 94.0015 36.2329 93.6641 36.104L94.9531 34.8149C95.4409 34.3267 95.4409 33.5352 94.9531 33.0469C94.4648 32.5591 93.6733 32.5591 93.1851 33.0469L91.896 34.3359C91.7671 33.9985 91.6958 33.6323 91.6958 33.25C91.6958 32.5596 91.1362 32 90.4458 32C89.7559 32 89.1958 32.5596 89.1958 33.25C89.1958 34.3657 89.5278 35.4048 90.0962 36.2759C89.0278 38.041 87.2827 39.2983 85.2578 39.7451L85.1987 39.7583C84.5244 39.9077 84.0991 40.5747 84.248 41.249C84.377 41.832 84.894 42.229 85.4673 42.229C85.5566 42.229 85.6475 42.2197 85.7388 42.1992L85.7974 42.1865C88.3096 41.6318 90.4985 40.1392 91.9355 38.0352C92.7612 38.5229 93.7231 38.8042 94.75 38.8042C95.4399 38.8042 96 38.2441 96 37.5542C96 36.8638 95.4404 36.3042 94.75 36.3042Z" fill="white"/>
<path d="M52.9712 40.2085H52.896C52.2056 40.2085 51.646 39.6489 51.646 38.9585C51.646 38.2681 52.2056 37.7085 52.896 37.7085H52.9775C53.6675 37.7119 54.2246 38.2744 54.2212 38.9648C54.2178 39.6528 53.6587 40.2085 52.9712 40.2085Z" fill="white"/>
<path fill-rule="evenodd" clip-rule="evenodd" d="M70.3481 52.7725C70.1299 52.1177 70.4834 51.4097 71.1382 51.1909C71.7935 50.9717 72.501 51.3257 72.7197 51.9805C73.4307 54.1099 73.7915 56.3384 73.7915 58.604C73.7915 70.126 64.418 79.5 52.8955 79.5C51.2388 79.5 49.6001 79.3066 48.0059 78.9243C48.002 79.1084 48 79.2925 48 79.4771V89.75C48 90.4404 47.4399 91 46.75 91C46.0596 91 45.5 90.4404 45.5 89.75V79.4771C45.5 78.7456 45.5298 78.0166 45.5859 77.2915C45.5864 77.2368 45.5913 77.1816 45.5986 77.127C45.9595 72.7988 47.3105 68.6201 49.5298 64.9233C49.5635 64.8535 49.603 64.7871 49.6489 64.7251C50.3945 63.5059 51.2349 62.3398 52.1665 61.2397C52.5771 60.7549 52.542 60.0181 52.0859 59.562C51.8369 59.313 51.5068 59.1831 51.1538 59.1987C50.7959 59.2139 50.4712 59.3735 50.2388 59.6489C48.2051 62.0591 46.5576 64.7686 45.3418 67.7021C43.7881 71.4546 43 75.416 43 79.4771V94.75C43 95.4404 42.4404 96 41.75 96C41.0596 96 40.5 95.4404 40.5 94.75V79.4771C40.5 78.1714 40.5771 76.876 40.7271 75.5928C35.2505 71.6655 32 65.3628 32 58.604C32 49.1099 38.4062 40.7979 47.5786 38.3916C48.2466 38.2158 48.9297 38.6157 49.105 39.2832C49.2798 39.9507 48.8809 40.6343 48.2129 40.8096C40.1392 42.9277 34.5 50.2456 34.5 58.604C34.5 64.1279 36.9673 69.3047 41.1787 72.7852C41.6011 70.728 42.2188 68.71 43.0322 66.7456C43.9077 64.6323 44.9922 62.627 46.2681 60.7524C46.1401 60.3628 45.8389 59.9644 45.292 59.8032C44.7603 59.6465 44.395 59.1587 44.395 58.604C44.395 58.0498 44.7603 57.5615 45.292 57.4053C45.7632 57.2666 46.1201 56.9189 46.272 56.4517C46.4238 55.9849 46.3389 55.4937 46.0396 55.1045C45.7012 54.6655 45.6929 54.0557 46.0186 53.6074C46.3447 53.1592 46.9263 52.979 47.4492 53.1646C47.9116 53.3296 48.4048 53.2583 48.8018 52.9697C49.1992 52.6807 49.4194 52.2339 49.4058 51.7427C49.3901 51.189 49.7417 50.6909 50.269 50.5195C50.7959 50.3481 51.373 50.5444 51.6865 51.002C51.9639 51.4072 52.4048 51.6392 52.8955 51.6392C53.3867 51.6392 53.8276 51.4072 54.1055 51.002C54.4185 50.5449 54.9956 50.3481 55.5229 50.5195C56.0498 50.6909 56.4014 51.189 56.3862 51.7432C56.3726 52.2339 56.5923 52.6812 56.9897 52.9697C57.3872 53.2583 57.8804 53.3296 58.3428 53.1646C58.8647 52.979 59.4473 53.1592 59.7729 53.6074C60.0986 54.0562 60.0903 54.6655 59.7524 55.105C59.4526 55.4941 59.3682 55.9854 59.52 56.4521C59.6714 56.9189 60.0288 57.2666 60.4995 57.4053C61.0317 57.562 61.3965 58.0503 61.3965 58.6045C61.3965 59.1587 61.0317 59.647 60.4995 59.8032C60.0288 59.9419 59.6714 60.2896 59.52 60.7563C59.3682 61.2236 59.4526 61.7148 59.7524 62.1035C60.0903 62.543 60.0986 63.1523 59.7729 63.6011C59.4473 64.0493 58.8652 64.2295 58.3428 64.0439C57.8804 63.8789 57.3867 63.9502 56.9897 64.2388C56.5923 64.5278 56.3726 64.9746 56.3862 65.4653C56.4014 66.0195 56.0498 66.5176 55.5229 66.689C55.3955 66.7305 55.2651 66.7505 55.1367 66.7505C54.7324 66.7505 54.3428 66.5537 54.1055 66.2065C53.8276 65.8013 53.3867 65.5693 52.8955 65.5693C52.4048 65.5693 51.9639 65.8013 51.6865 66.2065C51.6689 66.2324 51.6499 66.2568 51.6309 66.2812C49.7944 69.3623 48.6182 72.8081 48.187 76.3887C49.7163 76.7925 51.2954 77 52.896 77C63.0391 77 71.2915 68.7476 71.2915 58.604C71.2915 56.6084 70.9741 54.6465 70.3481 52.7725ZM48.3286 58.0366C49.0073 57.2319 49.9985 56.7451 51.0483 56.7012C52.0928 56.6558 53.1147 57.0552 53.8535 57.7944C55.2222 59.1631 55.3193 61.3862 54.0742 62.856C53.9844 62.9619 53.8965 63.0693 53.8086 63.1768C54.0283 63.2285 54.2432 63.2983 54.4497 63.3862C54.7202 62.9346 55.0815 62.5352 55.52 62.2163C55.959 61.8979 56.4502 61.6777 56.9634 61.5596C56.917 61.0352 56.9746 60.4995 57.1421 59.9839C57.3096 59.4688 57.5776 59.0015 57.9238 58.6045C57.5776 58.2075 57.3096 57.7402 57.1421 57.2246C56.9746 56.709 56.917 56.1733 56.9634 55.6489C56.4502 55.5312 55.959 55.3105 55.52 54.9922C55.082 54.6738 54.7202 54.2739 54.4497 53.8228C53.9653 54.0288 53.438 54.1392 52.896 54.1392C52.354 54.1392 51.8267 54.0288 51.3423 53.8228C51.0713 54.2739 50.71 54.6733 50.2715 54.9922C49.833 55.3105 49.3413 55.5312 48.8286 55.6489C48.8745 56.1733 48.8169 56.709 48.6494 57.2246C48.5186 57.6274 48.3252 58.0005 48.082 58.334L48.1513 58.2501C48.2101 58.1789 48.2691 58.1074 48.3286 58.0366Z" fill="white"/>
<path d="M57.5786 40.8096C60.3662 41.541 62.9824 42.9478 65.144 44.8784C65.3823 45.0918 65.6797 45.1963 65.9761 45.1963C66.3198 45.1963 66.6621 45.0557 66.9092 44.7788C67.3687 44.2642 67.3242 43.4736 66.8091 43.0142C64.354 40.8213 61.3813 39.2227 58.2129 38.3916C57.5459 38.2158 56.8618 38.6152 56.6865 39.2832C56.5117 39.9507 56.9106 40.6343 57.5786 40.8096Z" fill="white"/>
<path d="M45.8662 93.8062C46.0986 93.5737 46.4214 93.4399 46.75 93.4399C47.0801 93.4399 47.4014 93.5737 47.6338 93.8062C47.8662 94.0386 48 94.3613 48 94.6899C48 95.0186 47.8662 95.3413 47.6338 95.5737C47.4014 95.8062 47.0786 95.9399 46.75 95.9399C46.4214 95.9399 46.0986 95.8062 45.8662 95.5737C45.6338 95.3413 45.5 95.0186 45.5 94.6899C45.5 94.3613 45.6338 94.0386 45.8662 93.8062Z" fill="white"/>
<path d="M80.8618 43.6338C80.8618 44.3242 80.3018 44.8838 79.6118 44.8838C78.5957 44.8838 77.644 44.6069 76.8257 44.126C75.4004 46.2085 73.231 47.686 70.7417 48.2358L70.6831 48.2485C70.5923 48.2686 70.5015 48.2783 70.4121 48.2783C69.8389 48.2783 69.3218 47.8809 69.1929 47.2979C69.0439 46.6235 69.4697 45.9565 70.1436 45.8076L70.2026 45.7944C72.2036 45.3525 73.9292 44.1113 74.9863 42.3677C74.4243 41.5034 74.0962 40.4736 74.0962 39.3682C74.0962 38.6782 74.6558 38.1182 75.3462 38.1182C76.0361 38.1182 76.5962 38.6782 76.5962 39.3682C76.5962 39.7402 76.6641 40.0957 76.7876 40.4248L78.0527 39.1592C78.541 38.6709 79.3325 38.6709 79.8208 39.1592C80.3091 39.6475 80.3091 40.439 79.8208 40.9272L78.5552 42.1924C78.8843 42.3159 79.2402 42.3838 79.6118 42.3838C80.3018 42.3838 80.8618 42.9434 80.8618 43.6338Z" fill="white"/>
<path d="M89.5547 50.374C89.1831 50.374 88.8271 50.3062 88.4985 50.1826L89.7637 48.9175C90.252 48.4292 90.252 47.6377 89.7637 47.1494C89.2759 46.6616 88.4844 46.6616 87.9961 47.1494L86.7305 48.415C86.6069 48.0859 86.5391 47.7305 86.5391 47.3589C86.5391 46.6685 85.9795 46.1089 85.2891 46.1089C84.5991 46.1089 84.0391 46.6685 84.0391 47.3589C84.0391 48.4644 84.3672 49.4937 84.9297 50.3579C83.8721 52.1016 82.147 53.3428 80.1455 53.7847L80.0869 53.7979C79.4126 53.9468 78.9868 54.6138 79.1362 55.2881C79.2646 55.8711 79.7817 56.2686 80.3555 56.2686C80.4448 56.2686 80.5352 56.2588 80.6265 56.2388L80.6851 56.2261C83.1738 55.6763 85.3433 54.1987 86.769 52.1162C87.5874 52.5972 88.5391 52.874 89.5547 52.874C90.2451 52.874 90.8047 52.3145 90.8047 51.624C90.8047 50.9336 90.2451 50.374 89.5547 50.374Z" fill="white"/>
<path d="M54.146 47.1533C54.146 47.8433 53.5859 48.4033 52.896 48.4033C52.2056 48.4033 51.646 47.8433 51.646 47.1528V44.2563C51.646 43.5659 52.2056 43.0063 52.896 43.0063C53.5859 43.0063 54.146 43.5659 54.146 44.2563V47.1533Z" fill="white"/>
<path d="M52.8955 68.8052C52.2056 68.8052 51.6455 69.3647 51.6455 70.0552V72.9521C51.6455 73.6426 52.2056 74.2021 52.8955 74.2021C53.5859 74.2021 54.1455 73.6426 54.1455 72.9521V70.0552C54.1455 69.3647 53.5859 68.8052 52.8955 68.8052Z" fill="white"/>
<path d="M37.2979 58.604C37.2979 57.9136 37.8579 57.354 38.5479 57.354H41.4448C42.1348 57.354 42.6948 57.9136 42.6948 58.604C42.6948 59.2944 42.1348 59.854 41.4448 59.854H38.5479C37.8579 59.854 37.2979 59.2944 37.2979 58.604Z" fill="white"/>
<path d="M63.0967 58.604C63.0967 59.2944 63.6567 59.854 64.3467 59.854H67.2437C67.9341 59.854 68.4937 59.2944 68.4937 58.604C68.4937 57.9136 67.9341 57.354 67.2437 57.354H64.3467C63.6567 57.354 63.0967 57.9141 63.0967 58.604Z" fill="white"/>
<path d="M45.6826 51.3911C45.4385 51.6348 45.1187 51.7568 44.7988 51.7568C44.4785 51.7568 44.1587 51.6348 43.9146 51.3911L41.8662 49.3423C41.3784 48.8545 41.3784 48.063 41.8662 47.5747C42.355 47.0864 43.146 47.0864 43.6343 47.5747L45.6826 49.623C46.1709 50.1113 46.1709 50.9028 45.6826 51.3911Z" fill="white"/>
<path d="M60.1089 65.8174C59.6211 66.3057 59.6211 67.0972 60.1089 67.5854L62.1572 69.6338C62.4014 69.8779 62.7212 70 63.041 70C63.3613 70 63.6812 69.8779 63.9253 69.6338C64.4131 69.1455 64.4131 68.354 63.9253 67.8657L61.877 65.8174C61.3887 65.3296 60.5972 65.3296 60.1089 65.8174Z" fill="white"/>
<path d="M62.1572 47.5747C62.6455 47.0869 63.437 47.0869 63.9253 47.5747C64.4136 48.063 64.4136 48.8545 63.9253 49.3428L61.877 51.3911C61.6328 51.6348 61.313 51.7573 60.9927 51.7573C60.6729 51.7573 60.353 51.6348 60.1089 51.3911C59.6211 50.9028 59.6211 50.1113 60.1089 49.623L62.1572 47.5747Z" fill="white"/>
</svg>
