<svg width="128" height="128" viewBox="0 0 128 128" fill="none" xmlns="http://www.w3.org/2000/svg">
<path d="M127.993 64.9896C127.997 64.6603 128 64.3305 128 64C128 63.6695 127.997 63.3397 127.993 63.0104L119.993 63.1316C119.998 63.4205 120 63.71 120 64C120 64.29 119.998 64.5795 119.993 64.8683L127.993 64.9896Z" fill="white"/>
<path d="M127.813 59.0719C127.763 58.4156 127.703 57.762 127.634 57.1114L119.679 57.9627C119.74 58.5322 119.792 59.1045 119.836 59.6794L127.813 59.0719Z" fill="white"/>
<path d="M127.093 53.2048C126.983 52.5561 126.863 51.9107 126.734 51.2687L118.892 52.8516C119.005 53.4128 119.11 53.9772 119.206 54.5446L127.093 53.2048Z" fill="white"/>
<path d="M125.834 47.4296C125.664 46.7935 125.484 46.1613 125.295 45.5332L117.635 47.838C117.8 48.387 117.957 48.9395 118.105 49.4955L125.834 47.4296Z" fill="white"/>
<path d="M124.043 41.796C123.815 41.1785 123.577 40.5654 123.33 39.957L115.917 42.9641C116.133 43.496 116.341 44.0319 116.54 44.5717L124.043 41.796Z" fill="white"/>
<path d="M120.856 34.5877C121.158 35.1708 121.452 35.7592 121.737 36.3526L114.524 39.8128C114.275 39.2939 114.018 38.7794 113.754 38.2694L120.856 34.5877Z" fill="white"/>
<path d="M118.935 31.146C118.597 30.5818 118.25 30.0233 117.895 29.4706L111.163 33.7925C111.474 34.2762 111.777 34.765 112.073 35.2586L118.935 31.146Z" fill="white"/>
<path d="M115.665 26.2205C115.276 25.6901 114.88 25.1659 114.476 24.6481L108.17 29.5712C108.524 30.0246 108.871 30.4835 109.211 30.9478L115.665 26.2205Z" fill="white"/>
<path d="M111.956 21.6167C111.52 21.1244 111.077 20.6389 110.627 20.1603L104.8 25.6413C105.194 26.0605 105.582 26.4857 105.963 26.9168L111.956 21.6167Z" fill="white"/>
<path d="M107.84 17.3727C107.361 16.9226 106.876 16.4797 106.383 16.0443L101.083 22.0367C101.514 22.418 101.94 22.8058 102.359 23.2001L107.84 17.3727Z" fill="white"/>
<path d="M103.352 13.5243C102.834 13.12 102.31 12.7236 101.78 12.3351L97.0522 18.7889C97.5165 19.129 97.9754 19.4761 98.4288 19.8301L103.352 13.5243Z" fill="white"/>
<path d="M98.5294 10.1045C97.9767 9.74966 97.4182 9.40308 96.854 9.06495L92.7414 15.9269C93.235 16.2227 93.7237 16.526 94.2074 16.8365L98.5294 10.1045Z" fill="white"/>
<path d="M93.4123 7.14387C92.8292 6.8416 92.2408 6.54804 91.6474 6.26336L88.1872 13.4763C88.7061 13.7253 89.2206 13.982 89.7306 14.2464L93.4123 7.14387Z" fill="white"/>
<path d="M88.043 4.66955C87.4346 4.42276 86.8215 4.18505 86.2039 3.95659L83.4283 11.4597C83.9681 11.6593 84.504 11.8671 85.0359 12.0829L88.043 4.66955Z" fill="white"/>
<path d="M82.4668 2.7045C81.8387 2.51553 81.2065 2.33595 80.5704 2.16592L78.5045 9.89457C79.0605 10.0432 79.613 10.2001 80.162 10.3653L82.4668 2.7045Z" fill="white"/>
<path d="M76.7312 1.26631C76.0893 1.13674 75.4439 1.01678 74.7952 0.906583L73.4554 8.7936C74.0228 8.88998 74.5872 8.99488 75.1484 9.10817L76.7312 1.26631Z" fill="white"/>
<path d="M70.8886 0.366397C70.2379 0.296769 69.5844 0.236891 68.9281 0.186913L68.3206 8.16382C68.8955 8.20759 69.4678 8.26003 70.0373 8.32098L70.8886 0.366397Z" fill="white"/>
<path d="M64.9896 0.00749545C64.6603 0.00250446 64.3305 0 64 0C63.6695 0 63.3397 0.00250462 63.0104 0.00749591L63.1316 8.00658C63.4205 8.0022 63.71 8 64 8C64.29 8 64.5795 8.0022 64.8683 8.00658L64.9896 0.00749545Z" fill="white"/>
<path d="M59.0719 0.186915C58.4156 0.236893 57.762 0.296771 57.1114 0.3664L57.9627 8.32098C58.5322 8.26003 59.1045 8.2076 59.6794 8.16382L59.0719 0.186915Z" fill="white"/>
<path d="M53.2048 0.906587C52.5561 1.01679 51.9107 1.13675 51.2687 1.26632L52.8516 9.10817C53.4128 8.99489 53.9772 8.88998 54.5446 8.7936L53.2048 0.906587Z" fill="white"/>
<path d="M47.4296 2.16593C46.7935 2.33595 46.1613 2.51553 45.5332 2.70451L47.838 10.3653C48.387 10.2001 48.9395 10.0432 49.4955 9.89458L47.4296 2.16593Z" fill="white"/>
<path d="M41.796 3.9566C41.1785 4.18505 40.5654 4.42276 39.957 4.66956L42.9641 12.0829C43.496 11.8671 44.0319 11.6593 44.5717 11.4597L41.796 3.9566Z" fill="white"/>
<path d="M36.3526 6.26337C35.7592 6.54805 35.1708 6.84161 34.5877 7.14388L38.2694 14.2464C38.7794 13.982 39.2939 13.7253 39.8128 13.4763L36.3526 6.26337Z" fill="white"/>
<path d="M31.146 9.06495C30.5818 9.40308 30.0233 9.74966 29.4706 10.1045L33.7925 16.8366C34.2762 16.526 34.765 16.2227 35.2586 15.9269L31.146 9.06495Z" fill="white"/>
<path d="M26.2205 12.3351C25.6901 12.7236 25.1659 13.12 24.6481 13.5243L29.5712 19.8301C30.0246 19.4761 30.4835 19.129 30.9478 18.7889L26.2205 12.3351Z" fill="white"/>
<path d="M21.6167 16.0443C21.1244 16.4797 20.6389 16.9226 20.1603 17.3727L25.6413 23.2001C26.0605 22.8059 26.4857 22.418 26.9168 22.0367L21.6167 16.0443Z" fill="white"/>
<path d="M17.3727 20.1603C16.9226 20.6389 16.4797 21.1244 16.0443 21.6167L22.0367 26.9168C22.418 26.4857 22.8058 26.0605 23.2001 25.6413L17.3727 20.1603Z" fill="white"/>
<path d="M13.5243 24.6481C13.12 25.1659 12.7236 25.6901 12.3351 26.2205L18.7889 30.9478C19.129 30.4835 19.4761 30.0246 19.8301 29.5712L13.5243 24.6481Z" fill="white"/>
<path d="M10.1045 29.4706C9.74966 30.0233 9.40308 30.5818 9.06494 31.146L15.9269 35.2586C16.2227 34.765 16.526 34.2763 16.8365 33.7926L10.1045 29.4706Z" fill="white"/>
<path d="M7.14387 34.5877C6.8416 35.1708 6.54804 35.7592 6.26336 36.3526L13.4763 39.8128C13.7253 39.2939 13.982 38.7794 14.2464 38.2694L7.14387 34.5877Z" fill="white"/>
<path d="M4.66955 39.957C4.42276 40.5654 4.18505 41.1785 3.95659 41.7961L11.4597 44.5717C11.6593 44.0319 11.8671 43.496 12.0829 42.9641L4.66955 39.957Z" fill="white"/>
<path d="M2.7045 45.5332C2.51553 46.1613 2.33595 46.7935 2.16592 47.4296L9.89457 49.4955C10.0432 48.9395 10.2001 48.387 10.3653 47.838L2.7045 45.5332Z" fill="white"/>
<path d="M1.26631 51.2688C1.13674 51.9107 1.01678 52.5561 0.906583 53.2048L8.7936 54.5446C8.88998 53.9772 8.99488 53.4128 9.10817 52.8516L1.26631 51.2688Z" fill="white"/>
<path d="M0.366396 57.1114C0.296769 57.7621 0.236891 58.4156 0.186913 59.0719L8.16382 59.6794C8.20759 59.1045 8.26003 58.5322 8.32098 57.9627L0.366396 57.1114Z" fill="white"/>
<path d="M0 64C0 63.6695 0.00250447 63.3397 0.00749548 63.0104L8.00658 63.1317C8.0022 63.4205 8 63.71 8 64C8 64.29 8.0022 64.5795 8.00658 64.8684L0.00749585 64.9896C0.0025046 64.6603 0 64.3305 0 64Z" fill="white"/>
<path d="M0.186915 68.9281C0.236893 69.5844 0.296771 70.238 0.3664 70.8886L8.32098 70.0373C8.26003 69.4678 8.2076 68.8955 8.16382 68.3206L0.186915 68.9281Z" fill="white"/>
<path d="M0.906588 74.7952C1.01679 75.4439 1.13675 76.0893 1.26632 76.7313L9.10817 75.1484C8.99489 74.5872 8.88998 74.0228 8.7936 73.4554L0.906588 74.7952Z" fill="white"/>
<path d="M2.16593 80.5704C2.33596 81.2065 2.51554 81.8387 2.70451 82.4668L10.3653 80.162C10.2001 79.613 10.0432 79.0605 9.89458 78.5045L2.16593 80.5704Z" fill="white"/>
<path d="M3.9566 86.2039C4.18505 86.8215 4.42276 87.4346 4.66956 88.043L12.0829 85.0359C11.8671 84.504 11.6593 83.9681 11.4597 83.4283L3.9566 86.2039Z" fill="white"/>
<path d="M6.26337 91.6474C6.54805 92.2408 6.84161 92.8292 7.14388 93.4123L14.2464 89.7306C13.982 89.2206 13.7253 88.7061 13.4763 88.1872L6.26337 91.6474Z" fill="white"/>
<path d="M9.06495 96.854C9.40308 97.4182 9.74966 97.9767 10.1045 98.5294L16.8366 94.2075C16.526 93.7237 16.2227 93.235 15.9269 92.7414L9.06495 96.854Z" fill="white"/>
<path d="M12.3351 101.78C12.7236 102.31 13.12 102.834 13.5243 103.352L19.8301 98.4288C19.4761 97.9754 19.129 97.5165 18.7889 97.0522L12.3351 101.78Z" fill="white"/>
<path d="M16.0443 106.383C16.4797 106.876 16.9226 107.361 17.3727 107.84L23.2001 102.359C22.8059 101.94 22.418 101.514 22.0367 101.083L16.0443 106.383Z" fill="white"/>
<path d="M20.1603 110.627C20.6389 111.077 21.1244 111.52 21.6167 111.956L26.9168 105.963C26.4857 105.582 26.0605 105.194 25.6413 104.8L20.1603 110.627Z" fill="white"/>
<path d="M24.6481 114.476C25.1659 114.88 25.6901 115.276 26.2205 115.665L30.9478 109.211C30.4835 108.871 30.0246 108.524 29.5712 108.17L24.6481 114.476Z" fill="white"/>
<path d="M29.4706 117.895C30.0233 118.25 30.5818 118.597 31.146 118.935L35.2586 112.073C34.765 111.777 34.2763 111.474 33.7926 111.163L29.4706 117.895Z" fill="white"/>
<path d="M34.5877 120.856C35.1708 121.158 35.7592 121.452 36.3526 121.737L39.8128 114.524C39.2939 114.275 38.7794 114.018 38.2694 113.754L34.5877 120.856Z" fill="white"/>
<path d="M39.957 123.33C40.5654 123.577 41.1785 123.815 41.7961 124.043L44.5717 116.54C44.0319 116.341 43.496 116.133 42.9641 115.917L39.957 123.33Z" fill="white"/>
<path d="M45.5332 125.296C46.1613 125.484 46.7935 125.664 47.4296 125.834L49.4955 118.105C48.9395 117.957 48.387 117.8 47.838 117.635L45.5332 125.296Z" fill="white"/>
<path d="M51.2688 126.734C51.9107 126.863 52.5561 126.983 53.2048 127.093L54.5446 119.206C53.9772 119.11 53.4128 119.005 52.8516 118.892L51.2688 126.734Z" fill="white"/>
<path d="M57.1114 127.634C57.7621 127.703 58.4156 127.763 59.0719 127.813L59.6794 119.836C59.1045 119.792 58.5322 119.74 57.9627 119.679L57.1114 127.634Z" fill="white"/>
<path d="M63.0104 127.993C63.3397 127.997 63.6695 128 64 128C64.3305 128 64.6603 127.997 64.9896 127.993L64.8684 119.993C64.5795 119.998 64.29 120 64 120C63.71 120 63.4205 119.998 63.1317 119.993L63.0104 127.993Z" fill="white"/>
<path d="M68.9281 127.813C69.5844 127.763 70.238 127.703 70.8886 127.634L70.0373 119.679C69.4678 119.74 68.8955 119.792 68.3206 119.836L68.9281 127.813Z" fill="white"/>
<path d="M74.7952 127.093C75.4439 126.983 76.0893 126.863 76.7312 126.734L75.1484 118.892C74.5872 119.005 74.0228 119.11 73.4554 119.206L74.7952 127.093Z" fill="white"/>
<path d="M80.5704 125.834C81.2065 125.664 81.8387 125.484 82.4668 125.295L80.162 117.635C79.613 117.8 79.0605 117.957 78.5045 118.105L80.5704 125.834Z" fill="white"/>
<path d="M86.204 124.043C86.8215 123.815 87.4346 123.577 88.043 123.33L85.0359 115.917C84.504 116.133 83.9681 116.341 83.4283 116.54L86.204 124.043Z" fill="white"/>
<path d="M91.6474 121.737C92.2408 121.452 92.8292 121.158 93.4123 120.856L89.7306 113.754C89.2206 114.018 88.7061 114.275 88.1872 114.524L91.6474 121.737Z" fill="white"/>
<path d="M96.854 118.935C97.4182 118.597 97.9767 118.25 98.5294 117.895L94.2075 111.163C93.7237 111.474 93.235 111.777 92.7414 112.073L96.854 118.935Z" fill="white"/>
<path d="M101.78 115.665C102.31 115.276 102.834 114.88 103.352 114.476L98.4288 108.17C97.9754 108.524 97.5165 108.871 97.0522 109.211L101.78 115.665Z" fill="white"/>
<path d="M106.383 111.956C106.876 111.52 107.361 111.077 107.84 110.627L102.359 104.8C101.94 105.194 101.514 105.582 101.083 105.963L106.383 111.956Z" fill="white"/>
<path d="M110.627 107.84C111.077 107.361 111.52 106.876 111.956 106.383L105.963 101.083C105.582 101.514 105.194 101.94 104.8 102.359L110.627 107.84Z" fill="white"/>
<path d="M114.476 103.352C114.88 102.834 115.276 102.31 115.665 101.78L109.211 97.0522C108.871 97.5165 108.524 97.9754 108.17 98.4288L114.476 103.352Z" fill="white"/>
<path d="M118.935 96.854C118.597 97.4182 118.25 97.9767 117.895 98.5294L111.163 94.2074C111.474 93.7237 111.777 93.235 112.073 92.7414L118.935 96.854Z" fill="white"/>
<path d="M120.856 93.4123C121.158 92.8292 121.452 92.2408 121.737 91.6474L114.524 88.1872C114.275 88.7061 114.018 89.2206 113.754 89.7306L120.856 93.4123Z" fill="white"/>
<path d="M123.33 88.043C123.577 87.4346 123.815 86.8215 124.043 86.2039L116.54 83.4283C116.341 83.9681 116.133 84.504 115.917 85.0359L123.33 88.043Z" fill="white"/>
<path d="M125.296 82.4668C125.484 81.8387 125.664 81.2065 125.834 80.5704L118.105 78.5045C117.957 79.0605 117.8 79.613 117.635 80.162L125.296 82.4668Z" fill="white"/>
<path d="M126.734 76.7312C126.863 76.0893 126.983 75.4439 127.093 74.7952L119.206 73.4554C119.11 74.0228 119.005 74.5872 118.892 75.1484L126.734 76.7312Z" fill="white"/>
<path d="M127.634 70.8886C127.703 70.2379 127.763 69.5844 127.813 68.9281L119.836 68.3206C119.792 68.8955 119.74 69.4678 119.679 70.0373L127.634 70.8886Z" fill="white"/>
<path fill-rule="evenodd" clip-rule="evenodd" d="M82.3215 71.7794C82.8156 71.1668 83.7519 71.1675 84.2452 71.7794L89.4314 78.2111C93.6009 83.3818 89.8571 91 83.2832 91C78.6272 91 74.9744 87.0033 75.43 82.3712C67.4937 85.0875 60.4115 85.2413 52.3946 82.8157C51.7424 82.6182 51.3741 81.9312 51.5721 81.2809C51.7702 80.6306 52.4594 80.2635 53.1115 80.4608C61.2367 82.9192 68.4695 82.5436 76.3346 79.4137C76.7036 78.7324 76.7042 78.7317 79.5716 75.1846C80.2908 74.2949 81.1904 73.1821 82.3215 71.7794ZM79.4507 86.9601C81.564 89.067 85.0028 89.067 87.1162 86.9601C89.0766 85.0057 89.2449 81.9073 87.508 79.753L83.2835 74.514C82.3701 75.6467 81.6396 76.5493 81.0527 77.2746C78.6525 80.2403 78.6515 80.2416 78.3534 80.8918C77.4279 82.9024 77.8148 85.3293 79.4507 86.9601Z" fill="white"/>
<path fill-rule="evenodd" clip-rule="evenodd" d="M89.1529 48.6438L95.6622 55.1334C98.7793 58.2412 98.7793 63.2979 95.6619 66.4058L90.6309 72.8954C90.1489 73.3759 89.3676 73.3759 88.8856 72.8954C88.4035 72.4149 88.4035 71.6359 88.8856 71.1554L93.9166 64.6658C96.0714 62.5175 96.0714 59.0219 93.9166 56.8735L87.4074 50.384C72.8346 35.8554 55.1651 35.8554 40.5923 50.384L34.0831 56.8735C31.9282 59.0219 31.9282 62.5175 34.0831 64.6658C37.9487 68.5196 39.4791 70.5319 40.5158 71.895C41.3638 73.0099 41.8814 73.6905 43.0765 74.5894L43.358 74.2402C43.8521 73.6275 44.7884 73.6284 45.2817 74.2402L48.9572 78.7983C50.8641 81.1631 50.6793 84.5643 48.5273 86.7097C46.2074 89.0227 42.4327 89.0226 40.1128 86.7097C37.9607 84.5643 37.7759 81.1631 39.6827 78.7983L41.5294 76.5081C40.2609 75.55 39.7004 74.8213 38.7938 73.6426C37.7176 72.2433 36.1536 70.2099 32.338 66.4058C29.2207 63.2979 29.2207 58.2413 32.338 55.1334L38.8472 48.6438C54.4201 33.118 73.5815 33.1194 89.1529 48.6438ZM46.7817 84.9695C48.041 83.7142 48.1491 81.724 47.0333 80.3402L44.3199 76.9749L41.6063 80.3401C40.4904 81.7238 40.5986 83.714 41.8579 84.9695C43.2153 86.3229 45.4241 86.3232 46.7817 84.9695Z" fill="white"/>
<path d="M79.2725 60.7695C79.2725 64.4994 77.9063 68.088 75.4252 70.8742C74.9727 71.3824 75.019 72.16 75.5288 72.6111C76.0386 73.0624 76.8185 73.0161 77.271 72.5079C80.1535 69.2708 81.741 65.1022 81.741 60.7695C81.741 51.0167 73.7824 43.0822 64 43.0822C54.2176 43.0822 46.259 51.0167 46.259 60.7695C46.259 72.9395 58.3946 81.5353 69.9468 77.4383C70.5888 77.2106 70.9244 76.507 70.6959 75.8667C70.4674 75.2264 69.7612 74.8923 69.1194 75.1198C59.1775 78.6455 48.7272 71.2489 48.7272 60.7695C48.7272 52.3736 55.5784 45.543 63.9998 45.543C72.4212 45.543 79.2725 52.3736 79.2725 60.7695Z" fill="white"/>
<path d="M64 67.6907C58.8992 67.6907 55.5411 62.3599 57.7325 57.7888C58.0264 57.1756 57.7661 56.4412 57.1511 56.1481C56.5363 55.8549 55.7992 56.1144 55.5055 56.7276C52.5298 62.9343 57.0934 70.1515 64 70.1515C69.189 70.1515 73.4104 65.9429 73.4104 60.7695C73.4104 55.5962 69.189 51.3875 64 51.3875C63.3184 51.3875 62.7658 51.9385 62.7658 52.618C62.7658 53.2975 63.3184 53.8484 64 53.8484C67.8279 53.8484 70.9421 56.9532 70.9421 60.7695C70.9421 64.5859 67.8279 67.6907 64 67.6907Z" fill="white"/>
</svg>
