<svg width="44" height="34" viewBox="0 0 44 34" fill="none" xmlns="http://www.w3.org/2000/svg">
<path fill-rule="evenodd" clip-rule="evenodd" d="M33.8551 21.8981C34.1748 21.5124 34.7806 21.5129 35.0998 21.8981L38.4556 25.9477C41.1535 29.2034 38.731 34 34.4774 34C31.4647 34 29.1011 31.4835 29.3959 28.567C24.2607 30.2773 19.6781 30.3742 14.4906 28.8469C14.0686 28.7226 13.8303 28.29 13.9584 27.8806C14.0866 27.4711 14.5326 27.24 14.9545 27.3642C20.212 28.9121 24.892 28.6756 29.9812 26.7049C30.22 26.2759 30.2203 26.2755 32.0757 24.0422C32.5411 23.482 33.1232 22.7813 33.8551 21.8981ZM31.9975 31.4563C33.365 32.7829 35.5901 32.7829 36.9575 31.4563C38.2261 30.2258 38.335 28.275 37.2111 26.9185L34.4776 23.6199C33.8865 24.3331 33.4139 24.9014 33.0341 25.3581C31.481 27.2254 31.4804 27.2262 31.2875 27.6355C30.6886 28.9015 30.939 30.4295 31.9975 31.4563Z" fill="white"/>
<path fill-rule="evenodd" clip-rule="evenodd" d="M38.2754 7.33131L42.4873 11.4173C44.5043 13.3741 44.5043 16.5579 42.4871 18.5148L39.2318 22.6008C38.9199 22.9033 38.4143 22.9033 38.1025 22.6008C37.7905 22.2983 37.7905 21.8078 38.1025 21.5052L41.3578 17.4192C42.7521 16.0666 42.7521 13.8656 41.3578 12.513L37.1459 8.42694C27.7165 -0.720664 16.2833 -0.720664 6.85385 8.42694L2.642 12.513C1.24769 13.8656 1.24769 16.0666 2.642 17.4192C5.14325 19.8457 6.13353 21.1127 6.80434 21.9709C7.35303 22.6729 7.68798 23.1014 8.46124 23.6674L8.64341 23.4476C8.96314 23.0617 9.56896 23.0623 9.88818 23.4476L12.2664 26.3175C13.5003 27.8064 13.3807 29.9479 11.9882 31.2987C10.4871 32.755 8.04469 32.7549 6.54357 31.2987C5.15107 29.9479 5.03148 27.8064 6.26527 26.3175L7.46023 24.8754C6.63938 24.2722 6.27671 23.8134 5.69013 23.0713C4.99374 22.1903 3.98175 20.9099 1.51282 18.5148C-0.504272 16.5579 -0.504272 13.3742 1.51282 11.4173L5.72468 7.33131C15.8012 -2.44421 28.1998 -2.44333 38.2754 7.33131ZM10.8587 30.203C11.6736 29.4126 11.7436 28.1595 11.0216 27.2883L9.2658 25.1694L7.50994 27.2882C6.78793 28.1594 6.85791 29.4125 7.67275 30.203C8.55108 31.0551 9.98032 31.0553 10.8587 30.203Z" fill="white"/>
<path d="M31.8822 14.966C31.8822 17.3144 30.9982 19.5739 29.3928 21.3282C29.1 21.6482 29.1299 22.1378 29.4598 22.4218C29.7897 22.706 30.2944 22.6768 30.5871 22.3569C32.4523 20.3187 33.4794 17.694 33.4794 14.966C33.4794 8.82534 28.3298 3.82951 22 3.82951C15.6702 3.82951 10.5206 8.82534 10.5206 14.966C10.5206 22.6286 18.373 28.0407 25.8479 25.4611C26.2634 25.3178 26.4805 24.8748 26.3326 24.4716C26.1848 24.0685 25.7278 23.8581 25.3126 24.0014C18.8796 26.2212 12.1176 21.5641 12.1176 14.966C12.1176 9.67965 16.5508 5.37894 21.9999 5.37894C27.449 5.37894 31.8822 9.67965 31.8822 14.966Z" fill="white"/>
<path d="M22 19.3238C18.6995 19.3238 16.5266 15.9673 17.9446 13.0893C18.1347 12.7032 17.9663 12.2408 17.5683 12.0562C17.1706 11.8716 16.6936 12.035 16.5035 12.4211C14.5781 16.329 17.531 20.8732 22 20.8732C25.3576 20.8732 28.0891 18.2233 28.0891 14.966C28.0891 11.7087 25.3576 9.05882 22 9.05882C21.559 9.05882 21.2014 9.4057 21.2014 9.83353C21.2014 10.2614 21.559 10.6082 22 10.6082C24.4769 10.6082 26.492 12.5631 26.492 14.966C26.492 17.3689 24.4769 19.3238 22 19.3238Z" fill="white"/>
</svg>
