<svg width="40" height="40" viewBox="0 0 40 40" fill="none" xmlns="http://www.w3.org/2000/svg">
<path d="M20.3586 28.7106C20.2121 28.5641 20.0134 28.4818 19.8062 28.4818H19.805L16.4865 28.4866H16.4725C14.5078 28.4866 12.6071 27.9083 10.9753 26.814L6.08917 23.5376C5.76538 23.32 5.54718 22.9892 5.47577 22.6056C5.40405 22.222 5.48767 21.8347 5.71167 21.5152C6.14532 20.896 6.99158 20.7178 7.63824 21.1096L9.75006 22.3901C10.2341 22.6834 10.8386 22.5732 11.1877 22.128C11.5372 21.6827 11.4999 21.0693 11.0999 20.6693L1.97021 11.5393C1.70746 11.2766 1.5625 10.9268 1.5625 10.5548C1.5625 10.1828 1.70746 9.83307 1.97052 9.57001C2.23328 9.30725 2.58301 9.16229 2.95502 9.16229C3.2782 9.16229 3.58459 9.27185 3.83179 9.47327L11.0492 16.6797C11.3541 16.9849 11.8488 16.9849 12.1539 16.6797C12.4591 16.3745 12.4591 15.8798 12.1539 15.5746L3.10455 6.53625C2.56165 5.99335 2.56165 5.11017 3.10455 4.56726C3.64746 4.02405 4.53094 4.02435 5.07385 4.56726L14.118 13.6111C14.4229 13.9163 14.9176 13.9163 15.2228 13.6111C15.528 13.306 15.528 12.8113 15.2228 12.5061L8.01086 5.29449C7.80975 5.047 7.69989 4.74091 7.69989 4.41742C7.69989 4.04541 7.84485 3.69598 8.10791 3.43292C8.65082 2.89001 9.534 2.89001 10.0769 3.43292L15.3516 8.71826C15.3763 8.74298 17.1866 10.5423 17.1866 10.5423C17.4918 10.8475 17.9865 10.8475 18.2916 10.5423C18.5965 10.2374 18.5965 9.74274 18.2916 9.43756L12.6859 3.83179C12.4844 3.58459 12.3749 3.2782 12.3749 2.95471C12.3749 2.58301 12.5195 2.23328 12.7826 1.97021C13.0457 1.70715 13.3954 1.5625 13.7674 1.5625C14.1391 1.5625 14.4888 1.70715 14.7519 1.97021L18.2211 5.43945C18.5263 5.74463 19.021 5.74463 19.3259 5.43945C19.631 5.13458 19.631 4.63989 19.3259 4.33472L15.8569 0.865479C15.2982 0.307312 14.5563 0 13.7671 0C12.9776 0 12.2354 0.307312 11.6776 0.865479C11.3251 1.21765 11.073 1.64337 10.9348 2.10785C9.7757 1.18195 8.07587 1.25488 7.00287 2.32819C6.64917 2.68158 6.40442 3.10364 6.26801 3.55164L6.17859 3.46222C5.02655 2.31018 3.15186 2.31018 1.99982 3.46222C1.44165 4.02039 1.13434 4.76227 1.13434 5.55176C1.13434 6.34094 1.44165 7.08282 1.99982 7.64099L2.0874 7.72858C1.63086 7.86835 1.21246 8.11798 0.865479 8.46527C0.307312 9.02344 0 9.76562 0 10.5548C0 11.344 0.307312 12.0862 0.865479 12.6443L7.66022 19.4388C6.47308 19.1263 5.16754 19.5682 4.43176 20.6189C3.96515 21.2854 3.79028 22.0926 3.93982 22.8925C4.08905 23.6923 4.54346 24.382 5.21912 24.8352L10.1053 28.1116C11.9998 29.3823 14.2081 30.0488 16.4886 30.0488L19.483 30.0446L29.2096 39.7711C29.3622 39.9237 29.5621 40 29.762 40C29.9619 40 30.1617 39.9237 30.3143 39.7711C30.6195 39.4659 30.6195 38.9716 30.3143 38.6664L20.3586 28.7106Z" fill="white"/>
<path d="M28.9743 18.7354L28.9719 20.556L37.5601 29.1446C37.8653 29.4495 37.8653 29.9442 37.5601 30.2493C37.4078 30.4019 37.2076 30.4782 37.0078 30.4782C36.8079 30.4782 36.608 30.4019 36.4554 30.2493L27.6376 21.4316C27.4908 21.2848 27.4084 21.0855 27.4088 20.878L27.4118 18.7332C27.4158 16.0913 26.3889 13.6078 24.5209 11.7398L22.6401 9.85901C22.3352 9.55383 22.3352 9.05914 22.6401 8.75427C22.9453 8.4491 23.4399 8.4491 23.7451 8.75427L25.6259 10.6351C27.7896 12.7988 28.9789 15.6754 28.9743 18.7354Z" fill="white"/>
<path d="M39.2172 31.1249C39.4226 31.1249 39.6243 31.2085 39.7696 31.3538C39.9149 31.4993 39.9985 31.7007 39.9985 31.9061C39.9985 32.1118 39.9149 32.3132 39.7696 32.4585C39.6243 32.6038 39.4226 32.6874 39.2172 32.6874C39.0118 32.6874 38.8101 32.6038 38.6649 32.4585C38.5196 32.3132 38.436 32.1118 38.436 31.9061C38.436 31.7007 38.5196 31.4993 38.6649 31.3538C38.8101 31.2085 39.0118 31.1249 39.2172 31.1249Z" fill="white"/>
<path fill-rule="evenodd" clip-rule="evenodd" d="M23.6292 15.2594C23.6292 16.5515 22.5775 17.6031 21.2854 17.6031C19.993 17.6031 18.9417 16.5515 18.9417 15.2594C18.9417 13.967 19.993 12.9156 21.2854 12.9156C22.5775 12.9156 23.6292 13.967 23.6292 15.2594ZM22.0667 15.2594C22.0667 14.8285 21.716 14.4781 21.2854 14.4781C20.8545 14.4781 20.5042 14.8285 20.5042 15.2594C20.5042 15.69 20.8545 16.0406 21.2854 16.0406C21.716 16.0406 22.0667 15.69 22.0667 15.2594Z" fill="white"/>
<path fill-rule="evenodd" clip-rule="evenodd" d="M16.8341 26.1438C18.1265 26.1438 19.1779 25.0922 19.1779 23.8C19.1779 22.5076 18.1265 21.4563 16.8341 21.4563C15.5417 21.4563 14.4904 22.5076 14.4904 23.8C14.4904 25.0922 15.5417 26.1438 16.8341 26.1438ZM16.8341 23.0188C17.265 23.0188 17.6154 23.3691 17.6154 23.8C17.6154 24.2307 17.265 24.5813 16.8341 24.5813C16.4035 24.5813 16.0529 24.2307 16.0529 23.8C16.0529 23.3691 16.4035 23.0188 16.8341 23.0188Z" fill="white"/>
<path fill-rule="evenodd" clip-rule="evenodd" d="M26.6238 28.2828C26.6238 26.9907 27.6752 25.939 28.9676 25.939C30.26 25.939 31.3113 26.9907 31.3113 28.2828C31.3113 29.5752 30.26 30.6265 28.9676 30.6265C27.6752 30.6265 26.6238 29.5752 26.6238 28.2828ZM28.1863 28.2828C28.1863 28.7137 28.537 29.064 28.9676 29.064C29.3985 29.064 29.7488 28.7137 29.7488 28.2828C29.7488 27.8522 29.3985 27.5015 28.9676 27.5015C28.537 27.5015 28.1863 27.8522 28.1863 28.2828Z" fill="white"/>
<path fill-rule="evenodd" clip-rule="evenodd" d="M35.444 35.3101C34.1516 35.3101 33.1003 36.3617 33.1003 37.6538C33.1003 38.9462 34.1516 39.9976 35.444 39.9976C36.7365 39.9976 37.7878 38.9462 37.7878 37.6538C37.7878 36.3617 36.7365 35.3101 35.444 35.3101ZM35.444 38.4351C35.0134 38.4351 34.6628 38.0847 34.6628 37.6538C34.6628 37.2232 35.0134 36.8726 35.444 36.8726C35.8749 36.8726 36.2253 37.2232 36.2253 37.6538C36.2253 38.0847 35.8749 38.4351 35.444 38.4351Z" fill="white"/>
<path d="M16.3797 17.4298C16.3797 17.6352 16.2961 17.836 16.1508 17.9822C16.0056 18.1274 15.8038 18.2101 15.5984 18.2101C15.3922 18.2101 15.1913 18.1274 15.0461 17.9822C14.8999 17.8366 14.8172 17.6352 14.8172 17.4298C14.8172 17.2235 14.8999 17.0218 15.0461 16.8765C15.1913 16.7313 15.3922 16.6486 15.5984 16.6486C15.8038 16.6486 16.0056 16.7313 16.1508 16.8765C16.2961 17.0227 16.3797 17.2235 16.3797 17.4298Z" fill="white"/>
<path d="M24.7446 22.0374C24.8898 21.8921 24.9734 21.6907 24.9734 21.4853C24.9734 21.279 24.8898 21.0782 24.7446 20.9329C24.5993 20.7874 24.3976 20.704 24.1922 20.704C23.9859 20.704 23.7851 20.7874 23.6398 20.9329C23.4937 21.0782 23.4109 21.279 23.4109 21.4853C23.4109 21.6907 23.4937 21.8921 23.6398 22.0374C23.7851 22.1829 23.9859 22.2665 24.1922 22.2665C24.3976 22.2665 24.5993 22.1829 24.7446 22.0374Z" fill="white"/>
<path d="M22.3428 27.2086C22.3428 27.0032 22.4265 26.8015 22.572 26.6562C22.7173 26.5109 22.9187 26.4273 23.1241 26.4273C23.3298 26.4273 23.5312 26.5109 23.6765 26.6562C23.822 26.8015 23.9053 27.0032 23.9053 27.2086C23.9053 27.4139 23.822 27.6157 23.6765 27.7609C23.5312 27.9062 23.3298 27.9898 23.1241 27.9898C22.9187 27.9898 22.7173 27.9062 22.572 27.7609C22.4265 27.6157 22.3428 27.4149 22.3428 27.2086Z" fill="white"/>
<path d="M30.2829 33.125C30.0772 33.125 29.8758 33.2086 29.7305 33.3539C29.5853 33.4991 29.5016 33.7009 29.5016 33.9062C29.5016 34.1116 29.5853 34.3134 29.7305 34.4586C29.8758 34.6039 30.0772 34.6875 30.2829 34.6875C30.4883 34.6875 30.6897 34.6039 30.8353 34.4586C30.9805 34.3134 31.0641 34.1116 31.0641 33.9062C31.0641 33.7009 30.9805 33.4991 30.8353 33.3539C30.6897 33.2086 30.4883 33.125 30.2829 33.125Z" fill="white"/>
<path d="M21.535 7.64923C21.3898 7.79449 21.189 7.87811 20.9827 7.87811C20.7773 7.87811 20.5759 7.79449 20.4306 7.64923C20.285 7.50397 20.2014 7.30225 20.2014 7.09686C20.2014 6.89148 20.285 6.68976 20.4306 6.54449C20.5759 6.39923 20.7773 6.31561 20.9827 6.31561C21.1884 6.31561 21.3898 6.39923 21.535 6.54449C21.6806 6.68976 21.7639 6.89148 21.7639 7.09686C21.7639 7.30225 21.6806 7.50397 21.535 7.64923Z" fill="white"/>
</svg>
