<svg width="128" height="128" viewBox="0 0 128 128" fill="none" xmlns="http://www.w3.org/2000/svg">
<path d="M127.993 64.9896C127.997 64.6603 128 64.3305 128 64C128 63.6695 127.997 63.3397 127.993 63.0104L119.993 63.1316C119.998 63.4205 120 63.71 120 64C120 64.29 119.998 64.5795 119.993 64.8683L127.993 64.9896Z" fill="white"/>
<path d="M127.813 59.0719C127.763 58.4156 127.703 57.762 127.634 57.1114L119.679 57.9627C119.74 58.5322 119.792 59.1045 119.836 59.6794L127.813 59.0719Z" fill="white"/>
<path d="M127.093 53.2048C126.983 52.5561 126.863 51.9107 126.734 51.2687L118.892 52.8516C119.005 53.4128 119.11 53.9772 119.206 54.5446L127.093 53.2048Z" fill="white"/>
<path d="M125.834 47.4296C125.664 46.7935 125.484 46.1613 125.295 45.5332L117.635 47.838C117.8 48.387 117.957 48.9395 118.105 49.4955L125.834 47.4296Z" fill="white"/>
<path d="M124.043 41.796C123.815 41.1785 123.577 40.5654 123.33 39.957L115.917 42.9641C116.133 43.496 116.341 44.0319 116.54 44.5717L124.043 41.796Z" fill="white"/>
<path d="M120.856 34.5877C121.158 35.1708 121.452 35.7592 121.737 36.3526L114.524 39.8128C114.275 39.2939 114.018 38.7794 113.754 38.2694L120.856 34.5877Z" fill="white"/>
<path d="M118.935 31.146C118.597 30.5818 118.25 30.0233 117.895 29.4706L111.163 33.7925C111.474 34.2762 111.777 34.765 112.073 35.2586L118.935 31.146Z" fill="white"/>
<path d="M115.665 26.2205C115.276 25.6901 114.88 25.1659 114.476 24.6481L108.17 29.5712C108.524 30.0246 108.871 30.4835 109.211 30.9478L115.665 26.2205Z" fill="white"/>
<path d="M111.956 21.6167C111.52 21.1244 111.077 20.6389 110.627 20.1603L104.8 25.6413C105.194 26.0605 105.582 26.4857 105.963 26.9168L111.956 21.6167Z" fill="white"/>
<path d="M107.84 17.3727C107.361 16.9226 106.876 16.4797 106.383 16.0443L101.083 22.0367C101.514 22.418 101.94 22.8058 102.359 23.2001L107.84 17.3727Z" fill="white"/>
<path d="M103.352 13.5243C102.834 13.12 102.31 12.7236 101.78 12.3351L97.0522 18.7889C97.5165 19.129 97.9754 19.4761 98.4288 19.8301L103.352 13.5243Z" fill="white"/>
<path d="M98.5294 10.1045C97.9767 9.74966 97.4182 9.40308 96.854 9.06495L92.7414 15.9269C93.235 16.2227 93.7237 16.526 94.2074 16.8365L98.5294 10.1045Z" fill="white"/>
<path d="M93.4123 7.14387C92.8292 6.8416 92.2408 6.54804 91.6474 6.26336L88.1872 13.4763C88.7061 13.7253 89.2206 13.982 89.7306 14.2464L93.4123 7.14387Z" fill="white"/>
<path d="M88.043 4.66955C87.4346 4.42276 86.8215 4.18505 86.2039 3.95659L83.4283 11.4597C83.9681 11.6593 84.504 11.8671 85.0359 12.0829L88.043 4.66955Z" fill="white"/>
<path d="M82.4668 2.7045C81.8387 2.51553 81.2065 2.33595 80.5704 2.16592L78.5045 9.89457C79.0605 10.0432 79.613 10.2001 80.162 10.3653L82.4668 2.7045Z" fill="white"/>
<path d="M76.7312 1.26631C76.0893 1.13674 75.4439 1.01678 74.7952 0.906583L73.4554 8.7936C74.0228 8.88998 74.5872 8.99488 75.1484 9.10817L76.7312 1.26631Z" fill="white"/>
<path d="M70.8886 0.366397C70.2379 0.296769 69.5844 0.236891 68.9281 0.186913L68.3206 8.16382C68.8955 8.20759 69.4678 8.26003 70.0373 8.32098L70.8886 0.366397Z" fill="white"/>
<path d="M64.9896 0.00749545C64.6603 0.00250446 64.3305 0 64 0C63.6695 0 63.3397 0.00250462 63.0104 0.00749591L63.1316 8.00658C63.4205 8.0022 63.71 8 64 8C64.29 8 64.5795 8.0022 64.8683 8.00658L64.9896 0.00749545Z" fill="white"/>
<path d="M59.0719 0.186915C58.4156 0.236893 57.762 0.296771 57.1114 0.3664L57.9627 8.32098C58.5322 8.26003 59.1045 8.2076 59.6794 8.16382L59.0719 0.186915Z" fill="white"/>
<path d="M53.2048 0.906587C52.5561 1.01679 51.9107 1.13675 51.2687 1.26632L52.8516 9.10817C53.4128 8.99489 53.9772 8.88998 54.5446 8.7936L53.2048 0.906587Z" fill="white"/>
<path d="M47.4296 2.16593C46.7935 2.33595 46.1613 2.51553 45.5332 2.70451L47.838 10.3653C48.387 10.2001 48.9395 10.0432 49.4955 9.89458L47.4296 2.16593Z" fill="white"/>
<path d="M41.796 3.9566C41.1785 4.18505 40.5654 4.42276 39.957 4.66956L42.9641 12.0829C43.496 11.8671 44.0319 11.6593 44.5717 11.4597L41.796 3.9566Z" fill="white"/>
<path d="M36.3526 6.26337C35.7592 6.54805 35.1708 6.84161 34.5877 7.14388L38.2694 14.2464C38.7794 13.982 39.2939 13.7253 39.8128 13.4763L36.3526 6.26337Z" fill="white"/>
<path d="M31.146 9.06495C30.5818 9.40308 30.0233 9.74966 29.4706 10.1045L33.7925 16.8366C34.2762 16.526 34.765 16.2227 35.2586 15.9269L31.146 9.06495Z" fill="white"/>
<path d="M26.2205 12.3351C25.6901 12.7236 25.1659 13.12 24.6481 13.5243L29.5712 19.8301C30.0246 19.4761 30.4835 19.129 30.9478 18.7889L26.2205 12.3351Z" fill="white"/>
<path d="M21.6167 16.0443C21.1244 16.4797 20.6389 16.9226 20.1603 17.3727L25.6413 23.2001C26.0605 22.8059 26.4857 22.418 26.9168 22.0367L21.6167 16.0443Z" fill="white"/>
<path d="M17.3727 20.1603C16.9226 20.6389 16.4797 21.1244 16.0443 21.6167L22.0367 26.9168C22.418 26.4857 22.8058 26.0605 23.2001 25.6413L17.3727 20.1603Z" fill="white"/>
<path d="M13.5243 24.6481C13.12 25.1659 12.7236 25.6901 12.3351 26.2205L18.7889 30.9478C19.129 30.4835 19.4761 30.0246 19.8301 29.5712L13.5243 24.6481Z" fill="white"/>
<path d="M10.1045 29.4706C9.74966 30.0233 9.40308 30.5818 9.06494 31.146L15.9269 35.2586C16.2227 34.765 16.526 34.2763 16.8365 33.7926L10.1045 29.4706Z" fill="white"/>
<path d="M7.14387 34.5877C6.8416 35.1708 6.54804 35.7592 6.26336 36.3526L13.4763 39.8128C13.7253 39.2939 13.982 38.7794 14.2464 38.2694L7.14387 34.5877Z" fill="white"/>
<path d="M4.66955 39.957C4.42276 40.5654 4.18505 41.1785 3.95659 41.7961L11.4597 44.5717C11.6593 44.0319 11.8671 43.496 12.0829 42.9641L4.66955 39.957Z" fill="white"/>
<path d="M2.7045 45.5332C2.51553 46.1613 2.33595 46.7935 2.16592 47.4296L9.89457 49.4955C10.0432 48.9395 10.2001 48.387 10.3653 47.838L2.7045 45.5332Z" fill="white"/>
<path d="M1.26631 51.2688C1.13674 51.9107 1.01678 52.5561 0.906583 53.2048L8.7936 54.5446C8.88998 53.9772 8.99488 53.4128 9.10817 52.8516L1.26631 51.2688Z" fill="white"/>
<path d="M0.366396 57.1114C0.296769 57.7621 0.236891 58.4156 0.186913 59.0719L8.16382 59.6794C8.20759 59.1045 8.26003 58.5322 8.32098 57.9627L0.366396 57.1114Z" fill="white"/>
<path d="M0 64C0 63.6695 0.00250447 63.3397 0.00749548 63.0104L8.00658 63.1317C8.0022 63.4205 8 63.71 8 64C8 64.29 8.0022 64.5795 8.00658 64.8684L0.00749585 64.9896C0.0025046 64.6603 0 64.3305 0 64Z" fill="white"/>
<path d="M0.186915 68.9281C0.236893 69.5844 0.296771 70.238 0.3664 70.8886L8.32098 70.0373C8.26003 69.4678 8.2076 68.8955 8.16382 68.3206L0.186915 68.9281Z" fill="white"/>
<path d="M0.906588 74.7952C1.01679 75.4439 1.13675 76.0893 1.26632 76.7313L9.10817 75.1484C8.99489 74.5872 8.88998 74.0228 8.7936 73.4554L0.906588 74.7952Z" fill="white"/>
<path d="M2.16593 80.5704C2.33596 81.2065 2.51554 81.8387 2.70451 82.4668L10.3653 80.162C10.2001 79.613 10.0432 79.0605 9.89458 78.5045L2.16593 80.5704Z" fill="white"/>
<path d="M3.9566 86.2039C4.18505 86.8215 4.42276 87.4346 4.66956 88.043L12.0829 85.0359C11.8671 84.504 11.6593 83.9681 11.4597 83.4283L3.9566 86.2039Z" fill="white"/>
<path d="M6.26337 91.6474C6.54805 92.2408 6.84161 92.8292 7.14388 93.4123L14.2464 89.7306C13.982 89.2206 13.7253 88.7061 13.4763 88.1872L6.26337 91.6474Z" fill="white"/>
<path d="M9.06495 96.854C9.40308 97.4182 9.74966 97.9767 10.1045 98.5294L16.8366 94.2075C16.526 93.7237 16.2227 93.235 15.9269 92.7414L9.06495 96.854Z" fill="white"/>
<path d="M12.3351 101.78C12.7236 102.31 13.12 102.834 13.5243 103.352L19.8301 98.4288C19.4761 97.9754 19.129 97.5165 18.7889 97.0522L12.3351 101.78Z" fill="white"/>
<path d="M16.0443 106.383C16.4797 106.876 16.9226 107.361 17.3727 107.84L23.2001 102.359C22.8059 101.94 22.418 101.514 22.0367 101.083L16.0443 106.383Z" fill="white"/>
<path d="M20.1603 110.627C20.6389 111.077 21.1244 111.52 21.6167 111.956L26.9168 105.963C26.4857 105.582 26.0605 105.194 25.6413 104.8L20.1603 110.627Z" fill="white"/>
<path d="M24.6481 114.476C25.1659 114.88 25.6901 115.276 26.2205 115.665L30.9478 109.211C30.4835 108.871 30.0246 108.524 29.5712 108.17L24.6481 114.476Z" fill="white"/>
<path d="M29.4706 117.895C30.0233 118.25 30.5818 118.597 31.146 118.935L35.2586 112.073C34.765 111.777 34.2763 111.474 33.7926 111.163L29.4706 117.895Z" fill="white"/>
<path d="M34.5877 120.856C35.1708 121.158 35.7592 121.452 36.3526 121.737L39.8128 114.524C39.2939 114.275 38.7794 114.018 38.2694 113.754L34.5877 120.856Z" fill="white"/>
<path d="M39.957 123.33C40.5654 123.577 41.1785 123.815 41.7961 124.043L44.5717 116.54C44.0319 116.341 43.496 116.133 42.9641 115.917L39.957 123.33Z" fill="white"/>
<path d="M45.5332 125.296C46.1613 125.484 46.7935 125.664 47.4296 125.834L49.4955 118.105C48.9395 117.957 48.387 117.8 47.838 117.635L45.5332 125.296Z" fill="white"/>
<path d="M51.2688 126.734C51.9107 126.863 52.5561 126.983 53.2048 127.093L54.5446 119.206C53.9772 119.11 53.4128 119.005 52.8516 118.892L51.2688 126.734Z" fill="white"/>
<path d="M57.1114 127.634C57.7621 127.703 58.4156 127.763 59.0719 127.813L59.6794 119.836C59.1045 119.792 58.5322 119.74 57.9627 119.679L57.1114 127.634Z" fill="white"/>
<path d="M63.0104 127.993C63.3397 127.997 63.6695 128 64 128C64.3305 128 64.6603 127.997 64.9896 127.993L64.8684 119.993C64.5795 119.998 64.29 120 64 120C63.71 120 63.4205 119.998 63.1317 119.993L63.0104 127.993Z" fill="white"/>
<path d="M68.9281 127.813C69.5844 127.763 70.238 127.703 70.8886 127.634L70.0373 119.679C69.4678 119.74 68.8955 119.792 68.3206 119.836L68.9281 127.813Z" fill="white"/>
<path d="M74.7952 127.093C75.4439 126.983 76.0893 126.863 76.7312 126.734L75.1484 118.892C74.5872 119.005 74.0228 119.11 73.4554 119.206L74.7952 127.093Z" fill="white"/>
<path d="M80.5704 125.834C81.2065 125.664 81.8387 125.484 82.4668 125.295L80.162 117.635C79.613 117.8 79.0605 117.957 78.5045 118.105L80.5704 125.834Z" fill="white"/>
<path d="M86.204 124.043C86.8215 123.815 87.4346 123.577 88.043 123.33L85.0359 115.917C84.504 116.133 83.9681 116.341 83.4283 116.54L86.204 124.043Z" fill="white"/>
<path d="M91.6474 121.737C92.2408 121.452 92.8292 121.158 93.4123 120.856L89.7306 113.754C89.2206 114.018 88.7061 114.275 88.1872 114.524L91.6474 121.737Z" fill="white"/>
<path d="M96.854 118.935C97.4182 118.597 97.9767 118.25 98.5294 117.895L94.2075 111.163C93.7237 111.474 93.235 111.777 92.7414 112.073L96.854 118.935Z" fill="white"/>
<path d="M101.78 115.665C102.31 115.276 102.834 114.88 103.352 114.476L98.4288 108.17C97.9754 108.524 97.5165 108.871 97.0522 109.211L101.78 115.665Z" fill="white"/>
<path d="M106.383 111.956C106.876 111.52 107.361 111.077 107.84 110.627L102.359 104.8C101.94 105.194 101.514 105.582 101.083 105.963L106.383 111.956Z" fill="white"/>
<path d="M110.627 107.84C111.077 107.361 111.52 106.876 111.956 106.383L105.963 101.083C105.582 101.514 105.194 101.94 104.8 102.359L110.627 107.84Z" fill="white"/>
<path d="M114.476 103.352C114.88 102.834 115.276 102.31 115.665 101.78L109.211 97.0522C108.871 97.5165 108.524 97.9754 108.17 98.4288L114.476 103.352Z" fill="white"/>
<path d="M118.935 96.854C118.597 97.4182 118.25 97.9767 117.895 98.5294L111.163 94.2074C111.474 93.7237 111.777 93.235 112.073 92.7414L118.935 96.854Z" fill="white"/>
<path d="M120.856 93.4123C121.158 92.8292 121.452 92.2408 121.737 91.6474L114.524 88.1872C114.275 88.7061 114.018 89.2206 113.754 89.7306L120.856 93.4123Z" fill="white"/>
<path d="M123.33 88.043C123.577 87.4346 123.815 86.8215 124.043 86.2039L116.54 83.4283C116.341 83.9681 116.133 84.504 115.917 85.0359L123.33 88.043Z" fill="white"/>
<path d="M125.296 82.4668C125.484 81.8387 125.664 81.2065 125.834 80.5704L118.105 78.5045C117.957 79.0605 117.8 79.613 117.635 80.162L125.296 82.4668Z" fill="white"/>
<path d="M126.734 76.7312C126.863 76.0893 126.983 75.4439 127.093 74.7952L119.206 73.4554C119.11 74.0228 119.005 74.5872 118.892 75.1484L126.734 76.7312Z" fill="white"/>
<path d="M127.634 70.8886C127.703 70.2379 127.763 69.5844 127.813 68.9281L119.836 68.3206C119.792 68.8955 119.74 69.4678 119.679 70.0373L127.634 70.8886Z" fill="white"/>
<path d="M64.5737 77.937C64.3394 77.7026 64.0215 77.5708 63.6899 77.5708H63.688L58.3784 77.5786H58.356C55.2124 77.5786 52.1714 76.6533 49.5605 74.9023L41.7427 69.6602C41.2246 69.312 40.8755 68.7827 40.7612 68.1689C40.6465 67.5552 40.7803 66.9355 41.1387 66.4243C41.8325 65.4336 43.1865 65.1484 44.2212 65.7754L47.6001 67.8242C48.3745 68.2935 49.3418 68.1172 49.9004 67.4048C50.4595 66.6924 50.3999 65.7109 49.7598 65.0708L35.1523 50.4629C34.7319 50.0425 34.5 49.4829 34.5 48.8877C34.5 48.2925 34.7319 47.7329 35.1528 47.312C35.5732 46.8916 36.1328 46.6597 36.728 46.6597C37.2451 46.6597 37.7354 46.835 38.1309 47.1572L49.6787 58.6875C50.1665 59.1758 50.958 59.1758 51.4463 58.6875C51.9346 58.1992 51.9346 57.4077 51.4463 56.9194L36.9673 42.458C36.0986 41.5894 36.0986 40.1763 36.9673 39.3076C37.8359 38.4385 39.2495 38.439 40.1182 39.3076L54.5889 53.7778C55.0767 54.2661 55.8682 54.2661 56.3564 53.7778C56.8447 53.2896 56.8447 52.498 56.3564 52.0098L44.8174 40.4712C44.4956 40.0752 44.3198 39.5854 44.3198 39.0679C44.3198 38.4727 44.5518 37.9136 44.9727 37.4927C45.8413 36.624 47.2544 36.624 48.123 37.4927L56.5625 45.9492C56.6021 45.9888 59.4985 48.8677 59.4985 48.8677C59.9868 49.356 60.7783 49.356 61.2666 48.8677C61.7544 48.3799 61.7544 47.5884 61.2666 47.1001L52.2974 38.1309C51.9751 37.7354 51.7998 37.2451 51.7998 36.7275C51.7998 36.1328 52.0312 35.5732 52.4521 35.1523C52.873 34.7314 53.4326 34.5 54.0278 34.5C54.6226 34.5 55.1821 34.7314 55.603 35.1523L61.1538 40.7031C61.6421 41.1914 62.4336 41.1914 62.9214 40.7031C63.4097 40.2153 63.4097 39.4238 62.9214 38.9355L57.3711 33.3848C56.4771 32.4917 55.29 32 54.0273 32C52.7642 32 51.5767 32.4917 50.6841 33.3848C50.1201 33.9482 49.7168 34.6294 49.4956 35.3726C47.6411 33.8911 44.9214 34.0078 43.2046 35.7251C42.6387 36.2905 42.2471 36.9658 42.0288 37.6826L41.8857 37.5396C40.0425 35.6963 37.043 35.6963 35.1997 37.5396C34.3066 38.4326 33.8149 39.6196 33.8149 40.8828C33.8149 42.1455 34.3066 43.3325 35.1997 44.2256L35.3398 44.3657C34.6094 44.5894 33.9399 44.9888 33.3848 45.5444C32.4917 46.4375 32 47.625 32 48.8877C32 50.1504 32.4917 51.3379 33.3848 52.231L44.2563 63.1021C42.3569 62.6021 40.2681 63.3091 39.0908 64.9902C38.3442 66.0566 38.0645 67.3481 38.3037 68.6279C38.5425 69.9077 39.2695 71.0112 40.3506 71.7363L48.1685 76.9785C51.1997 79.0117 54.7329 80.0781 58.3818 80.0781L63.1729 80.0713L78.7354 95.6338C78.9795 95.8779 79.2993 96 79.6191 96C79.939 96 80.2588 95.8779 80.5029 95.6338C80.9912 95.1455 80.9912 94.3545 80.5029 93.8662L64.5737 77.937Z" fill="white"/>
<path d="M78.3589 61.9766L78.355 64.8896L92.0962 78.6313C92.5845 79.1191 92.5845 79.9106 92.0962 80.3989C91.8525 80.6431 91.5322 80.7651 91.2124 80.7651C90.8926 80.7651 90.5728 80.6431 90.3286 80.3989L76.2202 66.2905C75.9854 66.0557 75.8535 65.7368 75.854 65.4048L75.8589 61.9731C75.8652 57.7461 74.2222 53.7725 71.2334 50.7837L68.2241 47.7744C67.7363 47.2861 67.7363 46.4946 68.2241 46.0068C68.7124 45.5186 69.5039 45.5186 69.9922 46.0068L73.0015 49.0161C76.4634 52.478 78.3662 57.0806 78.3589 61.9766Z" fill="white"/>
<path d="M94.7476 81.7998C95.0762 81.7998 95.3989 81.9336 95.6313 82.166C95.8638 82.3989 95.9976 82.7212 95.9976 83.0498C95.9976 83.3789 95.8638 83.7012 95.6313 83.9336C95.3989 84.166 95.0762 84.2998 94.7476 84.2998C94.4189 84.2998 94.0962 84.166 93.8638 83.9336C93.6313 83.7012 93.4976 83.3789 93.4976 83.0498C93.4976 82.7212 93.6313 82.3989 93.8638 82.166C94.0962 81.9336 94.4189 81.7998 94.7476 81.7998Z" fill="white"/>
<path fill-rule="evenodd" clip-rule="evenodd" d="M69.8066 56.415C69.8066 58.4824 68.124 60.165 66.0566 60.165C63.9888 60.165 62.3066 58.4824 62.3066 56.415C62.3066 54.3472 63.9888 52.665 66.0566 52.665C68.124 52.665 69.8066 54.3472 69.8066 56.415ZM67.3066 56.415C67.3066 55.7256 66.7456 55.165 66.0566 55.165C65.3672 55.165 64.8066 55.7256 64.8066 56.415C64.8066 57.104 65.3672 57.665 66.0566 57.665C66.7456 57.665 67.3066 57.104 67.3066 56.415Z" fill="white"/>
<path fill-rule="evenodd" clip-rule="evenodd" d="M58.9346 73.8301C61.0024 73.8301 62.6846 72.1475 62.6846 70.0801C62.6846 68.0122 61.0024 66.3301 58.9346 66.3301C56.8667 66.3301 55.1846 68.0122 55.1846 70.0801C55.1846 72.1475 56.8667 73.8301 58.9346 73.8301ZM58.9346 68.8301C59.624 68.8301 60.1846 69.3906 60.1846 70.0801C60.1846 70.769 59.624 71.3301 58.9346 71.3301C58.2456 71.3301 57.6846 70.769 57.6846 70.0801C57.6846 69.3906 58.2456 68.8301 58.9346 68.8301Z" fill="white"/>
<path fill-rule="evenodd" clip-rule="evenodd" d="M74.5981 77.2524C74.5981 75.1851 76.2803 73.5024 78.3481 73.5024C80.416 73.5024 82.0981 75.1851 82.0981 77.2524C82.0981 79.3203 80.416 81.0024 78.3481 81.0024C76.2803 81.0024 74.5981 79.3203 74.5981 77.2524ZM77.0981 77.2524C77.0981 77.9419 77.6592 78.5024 78.3481 78.5024C79.0376 78.5024 79.5981 77.9419 79.5981 77.2524C79.5981 76.5635 79.0376 76.0024 78.3481 76.0024C77.6592 76.0024 77.0981 76.5635 77.0981 77.2524Z" fill="white"/>
<path fill-rule="evenodd" clip-rule="evenodd" d="M88.7104 88.4961C86.6426 88.4961 84.9604 90.1787 84.9604 92.2461C84.9604 94.314 86.6426 95.9961 88.7104 95.9961C90.7783 95.9961 92.4604 94.314 92.4604 92.2461C92.4604 90.1787 90.7783 88.4961 88.7104 88.4961ZM88.7104 93.4961C88.0215 93.4961 87.4604 92.9355 87.4604 92.2461C87.4604 91.5571 88.0215 90.9961 88.7104 90.9961C89.3999 90.9961 89.9604 91.5571 89.9604 92.2461C89.9604 92.9355 89.3999 93.4961 88.7104 93.4961Z" fill="white"/>
<path d="M58.2075 59.8877C58.2075 60.2163 58.0737 60.5376 57.8413 60.7715C57.6089 61.0039 57.2861 61.1362 56.9575 61.1362C56.6274 61.1362 56.3062 61.0039 56.0737 60.7715C55.8398 60.5386 55.7075 60.2163 55.7075 59.8877C55.7075 59.5576 55.8398 59.2349 56.0737 59.0024C56.3062 58.77 56.6274 58.6377 56.9575 58.6377C57.2861 58.6377 57.6089 58.77 57.8413 59.0024C58.0737 59.2363 58.2075 59.5576 58.2075 59.8877Z" fill="white"/>
<path d="M71.5913 67.2598C71.8237 67.0273 71.9575 66.7051 71.9575 66.3765C71.9575 66.0464 71.8237 65.7251 71.5913 65.4927C71.3589 65.2598 71.0361 65.1265 70.7075 65.1265C70.3774 65.1265 70.0562 65.2598 69.8237 65.4927C69.5898 65.7251 69.4575 66.0464 69.4575 66.3765C69.4575 66.7051 69.5898 67.0273 69.8237 67.2598C70.0562 67.4927 70.3774 67.6265 70.7075 67.6265C71.0361 67.6265 71.3589 67.4927 71.5913 67.2598Z" fill="white"/>
<path d="M67.7485 75.5337C67.7485 75.2051 67.8823 74.8823 68.1152 74.6499C68.3477 74.4175 68.6699 74.2837 68.9985 74.2837C69.3276 74.2837 69.6499 74.4175 69.8823 74.6499C70.1152 74.8823 70.2485 75.2051 70.2485 75.5337C70.2485 75.8623 70.1152 76.1851 69.8823 76.4175C69.6499 76.6499 69.3276 76.7837 68.9985 76.7837C68.6699 76.7837 68.3477 76.6499 68.1152 76.4175C67.8823 76.1851 67.7485 75.8638 67.7485 75.5337Z" fill="white"/>
<path d="M80.4526 85C80.1235 85 79.8013 85.1338 79.5688 85.3662C79.3364 85.5986 79.2026 85.9214 79.2026 86.25C79.2026 86.5786 79.3364 86.9014 79.5688 87.1338C79.8013 87.3662 80.1235 87.5 80.4526 87.5C80.7812 87.5 81.1035 87.3662 81.3364 87.1338C81.5688 86.9014 81.7026 86.5786 81.7026 86.25C81.7026 85.9214 81.5688 85.5986 81.3364 85.3662C81.1035 85.1338 80.7812 85 80.4526 85Z" fill="white"/>
<path d="M66.4561 44.2388C66.2236 44.4712 65.9023 44.605 65.5723 44.605C65.2437 44.605 64.9214 44.4712 64.689 44.2388C64.4561 44.0063 64.3223 43.6836 64.3223 43.355C64.3223 43.0264 64.4561 42.7036 64.689 42.4712C64.9214 42.2388 65.2437 42.105 65.5723 42.105C65.9014 42.105 66.2236 42.2388 66.4561 42.4712C66.689 42.7036 66.8223 43.0264 66.8223 43.355C66.8223 43.6836 66.689 44.0063 66.4561 44.2388Z" fill="white"/>
</svg>
