<svg width="28" height="40" viewBox="0 0 28 40" fill="none" xmlns="http://www.w3.org/2000/svg">
<path d="M23.944 14.8695L23.9353 14.8615C23.754 14.6949 23.572 14.5277 23.3914 14.3594C22.5098 13.5375 21.917 12.5107 21.5259 11.1282C21.4085 10.713 20.9755 10.4713 20.5585 10.5881C20.1417 10.7052 19.899 11.1367 20.0164 11.552C20.482 13.1978 21.2354 14.4893 22.3201 15.5004C22.4937 15.6622 22.6683 15.8226 22.8423 15.9826L22.8808 16.018C25.0408 18.0024 26.9061 19.7162 26.3173 22.7324C25.7636 25.5562 23.0077 27.4065 20.174 26.8566C19.7994 26.7841 19.4395 26.6722 19.0961 26.5247C19.8689 25.3291 20.3263 23.8533 20.3263 22.2577C20.3263 22.2546 20.3259 22.2515 20.3259 22.2485L20.326 22.2446C20.3261 22.243 20.3261 22.2414 20.3261 22.2398C20.3213 22.0324 20.3964 21.8397 20.5375 21.6973C20.6785 21.555 20.8737 21.4785 21.0786 21.48C21.5324 21.4846 21.9101 21.8564 21.9204 22.3088C21.9302 22.7341 22.2793 23.0722 22.704 23.0722L22.7222 23.072C23.1552 23.0622 23.4982 22.7044 23.4883 22.2731C23.4588 20.9873 22.385 19.9306 21.0946 19.9175C20.4551 19.9111 19.8638 20.1533 19.4214 20.5995C18.9845 21.0404 18.7498 21.6267 18.7582 22.2525C18.7582 22.2543 18.7579 22.2559 18.7579 22.2577C18.7579 25.3718 16.6233 27.9053 13.9996 27.9053C11.3759 27.9053 9.24132 25.3718 9.24132 22.2577C9.24132 22.256 9.24109 22.2543 9.24109 22.2525C9.24948 21.6267 9.01478 21.0404 8.57785 20.5995C8.14138 20.159 7.5568 19.9174 6.92955 19.9174L6.90469 19.9175C5.61428 19.9305 4.54046 20.9872 4.51097 22.273C4.50102 22.7043 4.84401 23.0621 5.27702 23.0719L5.29529 23.0721C5.71999 23.0721 6.06909 22.734 6.07882 22.3087C6.08924 21.8563 6.46682 21.4845 6.92069 21.4799C7.13061 21.4782 7.32084 21.555 7.46176 21.6972C7.6029 21.8396 7.67795 22.0323 7.67316 22.2397C7.67312 22.2413 7.6732 22.2429 7.67327 22.2446L7.6734 22.2484L7.67334 22.2504L7.67316 22.253C7.67305 22.2545 7.67293 22.2561 7.67293 22.2576C7.67293 23.8532 8.13041 25.3291 8.90319 26.5247C8.5595 26.6725 8.19949 26.7844 7.82498 26.8566C4.99143 27.4063 2.23566 25.5561 1.68213 22.7329C1.09362 19.7186 2.95679 18.0057 5.11411 16.0224L5.13501 16.0032C5.31649 15.8363 5.49855 15.6689 5.67952 15.5C7.9993 13.3365 8.3335 10.3574 8.62827 7.729C8.82148 6.00687 9.00398 4.38013 9.71872 3.27259C10.193 2.5386 11.1522 1.5625 13.9998 1.5625C17.5107 1.5625 18.4132 3.03688 18.8654 4.63009C18.9833 5.04524 19.4162 5.28665 19.8335 5.16923C20.2502 5.05181 20.4925 4.62009 20.3746 4.20485C19.9899 2.84954 19.3553 1.85915 18.4347 1.17688C17.3658 0.385001 15.9152 0 13.9998 0C11.2861 0 9.4543 0.794141 8.4 2.42774C7.48661 3.84305 7.28422 5.64642 7.07007 7.55564C6.7924 10.0306 6.50526 12.5902 4.60813 14.3595C4.42299 14.5321 4.23675 14.7034 4.05106 14.8741C1.75846 16.9818 -0.612386 19.1614 0.143218 23.0319C0.777209 26.2655 3.63319 28.5161 6.82235 28.5161C7.25168 28.5161 7.68767 28.4752 8.12437 28.3904C8.75836 28.2681 9.36271 28.0604 9.92832 27.7714C11.0294 28.8291 12.4504 29.4676 13.9999 29.4676C15.5495 29.4676 16.9704 28.8291 18.0716 27.7713C18.6365 28.0599 19.2407 28.2676 19.8747 28.3903C20.3121 28.4751 20.7474 28.516 21.1772 28.516C24.3664 28.5158 27.2227 26.265 27.8568 23.0313C28.6127 19.1587 26.2393 16.9782 23.944 14.8695Z" fill="white"/>
<path fill-rule="evenodd" clip-rule="evenodd" d="M20.0598 30.9499C20.3219 30.6249 20.7415 30.1929 21.3578 30.1929C21.9742 30.1929 22.3938 30.625 22.6557 30.9498C23.4677 31.9607 25.0575 34.6734 25.0575 36.3687C25.0575 38.7527 23.1958 40 21.3567 40C19.5175 40 17.6558 38.7527 17.6558 36.3687C17.6558 34.6702 19.2479 31.9583 20.0598 30.9499ZM19.2242 36.3687C19.2242 37.7979 20.2953 38.4376 21.3568 38.4376C22.4182 38.4376 23.4893 37.7979 23.4893 36.3687C23.4893 35.3561 22.3583 33.0801 21.4323 31.9273C21.4044 31.8927 21.3796 31.864 21.3579 31.8401C21.336 31.8642 21.3108 31.8933 21.2825 31.9285C20.3752 33.0556 19.2242 35.3719 19.2242 36.3687Z" fill="white"/>
<path fill-rule="evenodd" clip-rule="evenodd" d="M5.75472 30.9966C5.88176 30.8389 6.2685 30.359 6.87622 30.359C7.48395 30.359 7.8706 30.8388 7.99776 30.9966C8.61708 31.7665 9.83054 33.842 9.83054 35.153C9.83054 37.0572 8.3444 38.0535 6.87622 38.0535C5.40813 38.0535 3.92199 37.0572 3.92199 35.153C3.92199 33.842 5.13571 31.7661 5.75472 30.9966ZM5.49031 35.153C5.49031 36.1406 6.23698 36.491 6.87622 36.491C7.51555 36.491 8.26222 36.1406 8.26222 35.153C8.26222 34.4855 7.51312 32.9568 6.8763 32.1057C6.23941 32.9568 5.49031 34.4855 5.49031 35.153Z" fill="white"/>
<path d="M19.3937 7.88767V7.88322C19.3937 7.45173 19.7448 7.10205 20.1778 7.10205C20.6108 7.10205 20.962 7.45181 20.962 7.8833C20.962 8.31478 20.6108 8.66674 20.1778 8.66674C19.7448 8.66674 19.3937 8.31916 19.3937 7.88767Z" fill="white"/>
</svg>
