<svg width="40" height="40" viewBox="0 0 40 40" fill="none" xmlns="http://www.w3.org/2000/svg">
<path d="M39.2188 2.69012C38.9798 2.69012 38.7509 2.64557 38.54 2.565L39.3457 1.75934C39.6506 1.45416 39.6506 0.959473 39.3457 0.654297C39.0405 0.349426 38.5458 0.349426 38.2407 0.654297L37.435 1.45996C37.3544 1.24908 37.3099 1.0202 37.3099 0.78125C37.3099 0.349731 36.9602 0 36.5286 0C36.0974 0 35.7474 0.349731 35.7474 0.78125C35.7474 1.47858 35.9549 2.12799 36.3101 2.67242C35.6424 3.77563 34.5517 4.56146 33.2861 4.8407L33.2492 4.84894C32.8278 4.94232 32.562 5.35919 32.655 5.78064C32.7356 6.14502 33.0588 6.39313 33.4171 6.39313C33.4729 6.39313 33.5297 6.38733 33.5867 6.37451L33.6234 6.36658C35.1935 6.0199 36.5616 5.08698 37.4597 3.77197C37.9758 4.07684 38.577 4.25262 39.2188 4.25262C39.65 4.25262 40 3.90259 40 3.47137C40 3.03986 39.6503 2.69012 39.2188 2.69012Z" fill="white"/>
<path d="M13.107 5.13031H13.06C12.6285 5.13031 12.2787 4.78058 12.2787 4.34906C12.2787 3.91754 12.6285 3.56781 13.06 3.56781H13.111C13.5422 3.56995 13.8904 3.92151 13.8882 4.35303C13.8861 4.78302 13.5367 5.13031 13.107 5.13031Z" fill="white"/>
<path fill-rule="evenodd" clip-rule="evenodd" d="M23.9676 12.9828C23.8312 12.5735 24.0521 12.131 24.4614 11.9943C24.8709 11.8573 25.3131 12.0786 25.4498 12.4878C25.8942 13.8187 26.1197 15.2115 26.1197 16.6275C26.1197 23.8287 20.2612 29.6875 13.0597 29.6875C12.0242 29.6875 11.0001 29.5667 10.0037 29.3277C10.0012 29.4427 10 29.5578 10 29.6732V36.0938C10 36.5253 9.64996 36.875 9.21875 36.875C8.78723 36.875 8.4375 36.5253 8.4375 36.0938V29.6732C8.4375 29.216 8.45612 28.7604 8.49121 28.3072C8.49152 28.273 8.49457 28.2385 8.49915 28.2043C8.72467 25.4993 9.56909 22.8876 10.9561 20.5771C10.9772 20.5334 11.0019 20.4919 11.0306 20.4532C11.4966 19.6912 12.0218 18.9624 12.6041 18.2748C12.8607 17.9718 12.8387 17.5113 12.5537 17.2263C12.3981 17.0706 12.1918 16.9894 11.9711 16.9992C11.7474 17.0087 11.5445 17.1085 11.3992 17.2806C10.1282 18.7869 9.09851 20.4803 8.33862 22.3138C7.36755 24.6591 6.875 27.135 6.875 29.6732V39.2188C6.875 39.6503 6.52527 40 6.09375 40C5.66223 40 5.3125 39.6503 5.3125 39.2188V29.6732C5.3125 28.8571 5.36072 28.0475 5.45441 27.2455C2.03156 24.791 0 20.8517 0 16.6275C0 10.6937 4.00391 5.49866 9.73663 3.99475C10.1541 3.88489 10.5811 4.13483 10.6906 4.552C10.7999 4.96918 10.5505 5.39642 10.1331 5.50598C5.08697 6.82983 1.5625 11.4035 1.5625 16.6275C1.5625 20.08 3.10455 23.3154 5.73669 25.4907C6.00067 24.205 6.38672 22.9437 6.89514 21.716C7.44232 20.3952 8.12012 19.1418 8.91754 17.9703C8.83759 17.7267 8.64929 17.4777 8.3075 17.377C7.97516 17.2791 7.74689 16.9742 7.74689 16.6275C7.74689 16.2811 7.97516 15.976 8.3075 15.8783C8.60199 15.7916 8.82507 15.5743 8.91998 15.2823C9.01489 14.9905 8.96179 14.6835 8.77472 14.4403C8.56323 14.166 8.55804 13.7848 8.7616 13.5046C8.96545 13.2245 9.32892 13.1119 9.65576 13.2278C9.94476 13.331 10.253 13.2864 10.5011 13.1061C10.7495 12.9254 10.8871 12.6462 10.8786 12.3392C10.8688 11.9931 11.0886 11.6818 11.4182 11.5747C11.7474 11.4676 12.1082 11.5903 12.3041 11.8762C12.4774 12.1295 12.753 12.2745 13.0597 12.2745C13.3667 12.2745 13.6423 12.1295 13.8159 11.8762C14.0115 11.5906 14.3723 11.4676 14.7018 11.5747C15.0311 11.6818 15.2509 11.9931 15.2414 12.3395C15.2328 12.6462 15.3702 12.9257 15.6186 13.1061C15.867 13.2864 16.1752 13.331 16.4642 13.2278C16.7905 13.1119 17.1545 13.2245 17.3581 13.5046C17.5616 13.7851 17.5565 14.166 17.3453 14.4406C17.1579 14.6838 17.1051 14.9908 17.2 15.2826C17.2946 15.5743 17.518 15.7916 17.8122 15.8783C18.1448 15.9763 18.3728 16.2814 18.3728 16.6278C18.3728 16.9742 18.1448 17.2794 17.8122 17.377C17.518 17.4637 17.2946 17.681 17.2 17.9727C17.1051 18.2648 17.1579 18.5718 17.3453 18.8147C17.5565 19.0894 17.5616 19.4702 17.3581 19.7507C17.1545 20.0308 16.7908 20.1434 16.4642 20.0275C16.1752 19.9243 15.8667 19.9689 15.6186 20.1492C15.3702 20.3299 15.2328 20.6091 15.2414 20.9158C15.2509 21.2622 15.0311 21.5735 14.7018 21.6806C14.6222 21.7065 14.5407 21.7191 14.4604 21.7191C14.2078 21.7191 13.9642 21.5961 13.8159 21.3791C13.6423 21.1258 13.3667 20.9808 13.0597 20.9808C12.753 20.9808 12.4774 21.1258 12.3041 21.3791C12.2931 21.3953 12.2812 21.4105 12.2693 21.4258C11.1215 23.3514 10.3864 25.5051 10.1169 27.7429C11.0727 27.9953 12.0596 28.125 13.06 28.125C19.3994 28.125 24.5572 22.9672 24.5572 16.6275C24.5572 15.3802 24.3588 14.1541 23.9676 12.9828ZM10.2054 16.2729C10.6296 15.77 11.2491 15.4657 11.9052 15.4382C12.558 15.4099 13.1967 15.6595 13.6584 16.1215C14.5139 16.9769 14.5746 18.3664 13.7964 19.285C13.7402 19.3512 13.6853 19.4183 13.6304 19.4855C13.7677 19.5178 13.902 19.5615 14.0311 19.6164C14.2001 19.3341 14.426 19.0845 14.7 18.8852C14.9744 18.6862 15.2814 18.5486 15.6021 18.4747C15.5731 18.147 15.6091 17.8122 15.7138 17.4899C15.8185 17.168 15.986 16.8759 16.2024 16.6278C15.986 16.3797 15.8185 16.0876 15.7138 15.7654C15.6091 15.4431 15.5731 15.1083 15.6021 14.7806C15.2814 14.707 14.9744 14.5691 14.7 14.3701C14.4263 14.1711 14.2001 13.9212 14.0311 13.6392C13.7283 13.768 13.3987 13.837 13.06 13.837C12.7213 13.837 12.3917 13.768 12.0889 13.6392C11.9196 13.9212 11.6937 14.1708 11.4197 14.3701C11.1456 14.5691 10.8383 14.707 10.5179 14.7806C10.5466 15.1083 10.5106 15.4431 10.4059 15.7654C10.3241 16.0172 10.2032 16.2503 10.0513 16.4587L10.0946 16.4063C10.1313 16.3618 10.1682 16.3171 10.2054 16.2729Z" fill="white"/>
<path d="M15.9866 5.50598C17.7289 5.96313 19.364 6.84235 20.715 8.04901C20.864 8.18237 21.0498 8.24768 21.235 8.24768C21.4499 8.24768 21.6638 8.15979 21.8182 7.98676C22.1054 7.6651 22.0776 7.17102 21.7557 6.88385C20.2213 5.51331 18.3633 4.51416 16.3831 3.99475C15.9662 3.88489 15.5386 4.13452 15.4291 4.552C15.3198 4.96918 15.5692 5.39642 15.9866 5.50598Z" fill="white"/>
<path d="M8.66638 38.6288C8.81165 38.4836 9.01337 38.4 9.21875 38.4C9.42505 38.4 9.62585 38.4836 9.77112 38.6288C9.91638 38.7741 10 38.9758 10 39.1812C10 39.3866 9.91638 39.5883 9.77112 39.7336C9.62585 39.8788 9.42413 39.9625 9.21875 39.9625C9.01337 39.9625 8.81165 39.8788 8.66638 39.7336C8.52112 39.5883 8.4375 39.3866 8.4375 39.1812C8.4375 38.9758 8.52112 38.7741 8.66638 38.6288Z" fill="white"/>
<path d="M30.5386 7.27112C30.5386 7.70264 30.1886 8.05237 29.7574 8.05237C29.1223 8.05237 28.5275 7.87933 28.0161 7.57874C27.1253 8.88031 25.7694 9.80377 24.2136 10.1474L24.1769 10.1553C24.1202 10.1678 24.0634 10.174 24.0076 10.174C23.6493 10.174 23.3261 9.92554 23.2455 9.56116C23.1525 9.13971 23.4186 8.72284 23.8397 8.62976L23.8766 8.62152C25.1273 8.34534 26.2058 7.56958 26.8665 6.4798C26.5152 5.93964 26.3101 5.29602 26.3101 4.6051C26.3101 4.17389 26.6599 3.82385 27.0914 3.82385C27.5226 3.82385 27.8726 4.17389 27.8726 4.6051C27.8726 4.83765 27.915 5.05981 27.9923 5.2655L28.783 4.47449C29.0881 4.16931 29.5828 4.16931 29.888 4.47449C30.1932 4.77966 30.1932 5.27435 29.888 5.57953L29.097 6.37024C29.3027 6.44745 29.5252 6.48987 29.7574 6.48987C30.1886 6.48987 30.5386 6.8396 30.5386 7.27112Z" fill="white"/>
<path d="M35.9717 11.4838C35.7394 11.4838 35.517 11.4413 35.3116 11.3641L36.1023 10.5734C36.4075 10.2682 36.4075 9.77356 36.1023 9.46838C35.7974 9.16351 35.3027 9.16351 34.9976 9.46838L34.2066 10.2594C34.1293 10.0537 34.0869 9.83154 34.0869 9.5993C34.0869 9.16779 33.7372 8.81805 33.3057 8.81805C32.8745 8.81805 32.5244 9.16779 32.5244 9.5993C32.5244 10.2902 32.7295 10.9335 33.0811 11.4737C32.4201 12.5635 31.3419 13.3392 30.091 13.6154L30.0543 13.6237C29.6329 13.7167 29.3668 14.1336 29.4602 14.5551C29.5404 14.9194 29.8636 15.1678 30.2222 15.1678C30.278 15.1678 30.3345 15.1617 30.3915 15.1492L30.4282 15.1413C31.9837 14.7977 33.3395 13.8742 34.2307 12.5726C34.7421 12.8732 35.3369 13.0463 35.9717 13.0463C36.4032 13.0463 36.7529 12.6965 36.7529 12.265C36.7529 11.8335 36.4032 11.4838 35.9717 11.4838Z" fill="white"/>
<path d="M13.8412 9.47083C13.8412 9.90204 13.4912 10.2521 13.06 10.2521C12.6285 10.2521 12.2787 9.90204 12.2787 9.47052V7.66022C12.2787 7.2287 12.6285 6.87897 13.06 6.87897C13.4912 6.87897 13.8412 7.2287 13.8412 7.66022V9.47083Z" fill="white"/>
<path d="M13.0597 23.0032C12.6285 23.0032 12.2784 23.353 12.2784 23.7845V25.5951C12.2784 26.0266 12.6285 26.3763 13.0597 26.3763C13.4912 26.3763 13.8409 26.0266 13.8409 25.5951V23.7845C13.8409 23.353 13.4912 23.0032 13.0597 23.0032Z" fill="white"/>
<path d="M3.31116 16.6275C3.31116 16.196 3.66119 15.8463 4.09241 15.8463H5.90302C6.33423 15.8463 6.68427 16.196 6.68427 16.6275C6.68427 17.059 6.33423 17.4088 5.90302 17.4088H4.09241C3.66119 17.4088 3.31116 17.059 3.31116 16.6275Z" fill="white"/>
<path d="M19.4354 16.6275C19.4354 17.059 19.7855 17.4088 20.2167 17.4088H22.0273C22.4588 17.4088 22.8085 17.059 22.8085 16.6275C22.8085 16.196 22.4588 15.8463 22.0273 15.8463H20.2167C19.7855 15.8463 19.4354 16.1963 19.4354 16.6275Z" fill="white"/>
<path d="M8.55164 12.1194C8.39905 12.2717 8.19916 12.348 7.99927 12.348C7.79907 12.348 7.59918 12.2717 7.44659 12.1194L6.16638 10.8389C5.86151 10.5341 5.86151 10.0394 6.16638 9.73419C6.47186 9.42902 6.96625 9.42902 7.27142 9.73419L8.55164 11.0144C8.85681 11.3196 8.85681 11.8143 8.55164 12.1194Z" fill="white"/>
<path d="M17.5681 21.1359C17.2632 21.441 17.2632 21.9357 17.5681 22.2409L18.8483 23.5211C19.0009 23.6737 19.2007 23.75 19.4006 23.75C19.6008 23.75 19.8007 23.6737 19.9533 23.5211C20.2582 23.2159 20.2582 22.7213 19.9533 22.4161L18.6731 21.1359C18.3679 20.831 17.8732 20.831 17.5681 21.1359Z" fill="white"/>
<path d="M18.8483 9.73419C19.1534 9.42932 19.6481 9.42932 19.9533 9.73419C20.2585 10.0394 20.2585 10.5341 19.9533 10.8392L18.6731 12.1194C18.5205 12.2717 18.3206 12.3483 18.1204 12.3483C17.9205 12.3483 17.7206 12.2717 17.5681 12.1194C17.2632 11.8143 17.2632 11.3196 17.5681 11.0144L18.8483 9.73419Z" fill="white"/>
</svg>
