<svg width="128" height="128" viewBox="0 0 128 128" fill="none" xmlns="http://www.w3.org/2000/svg">
<path d="M127.993 64.9896C127.997 64.6603 128 64.3305 128 64C128 63.6695 127.997 63.3397 127.993 63.0104L119.993 63.1316C119.998 63.4205 120 63.71 120 64C120 64.29 119.998 64.5795 119.993 64.8683L127.993 64.9896Z" fill="white"/>
<path d="M127.813 59.0719C127.763 58.4156 127.703 57.762 127.634 57.1114L119.679 57.9627C119.74 58.5322 119.792 59.1045 119.836 59.6794L127.813 59.0719Z" fill="white"/>
<path d="M127.093 53.2048C126.983 52.5561 126.863 51.9107 126.734 51.2687L118.892 52.8516C119.005 53.4128 119.11 53.9772 119.206 54.5446L127.093 53.2048Z" fill="white"/>
<path d="M125.834 47.4296C125.664 46.7935 125.484 46.1613 125.295 45.5332L117.635 47.838C117.8 48.387 117.957 48.9395 118.105 49.4955L125.834 47.4296Z" fill="white"/>
<path d="M124.043 41.796C123.815 41.1785 123.577 40.5654 123.33 39.957L115.917 42.9641C116.133 43.496 116.341 44.0319 116.54 44.5717L124.043 41.796Z" fill="white"/>
<path d="M120.856 34.5877C121.158 35.1708 121.452 35.7592 121.737 36.3526L114.524 39.8128C114.275 39.2939 114.018 38.7794 113.754 38.2694L120.856 34.5877Z" fill="white"/>
<path d="M118.935 31.146C118.597 30.5818 118.25 30.0233 117.895 29.4706L111.163 33.7925C111.474 34.2762 111.777 34.765 112.073 35.2586L118.935 31.146Z" fill="white"/>
<path d="M115.665 26.2205C115.276 25.6901 114.88 25.1659 114.476 24.6481L108.17 29.5712C108.524 30.0246 108.871 30.4835 109.211 30.9478L115.665 26.2205Z" fill="white"/>
<path d="M111.956 21.6167C111.52 21.1244 111.077 20.6389 110.627 20.1603L104.8 25.6413C105.194 26.0605 105.582 26.4857 105.963 26.9168L111.956 21.6167Z" fill="white"/>
<path d="M107.84 17.3727C107.361 16.9226 106.876 16.4797 106.383 16.0443L101.083 22.0367C101.514 22.418 101.94 22.8058 102.359 23.2001L107.84 17.3727Z" fill="white"/>
<path d="M103.352 13.5243C102.834 13.12 102.31 12.7236 101.78 12.3351L97.0522 18.7889C97.5165 19.129 97.9754 19.4761 98.4288 19.8301L103.352 13.5243Z" fill="white"/>
<path d="M98.5294 10.1045C97.9767 9.74966 97.4182 9.40308 96.854 9.06495L92.7414 15.9269C93.235 16.2227 93.7237 16.526 94.2074 16.8365L98.5294 10.1045Z" fill="white"/>
<path d="M93.4123 7.14387C92.8292 6.8416 92.2408 6.54804 91.6474 6.26336L88.1872 13.4763C88.7061 13.7253 89.2206 13.982 89.7306 14.2464L93.4123 7.14387Z" fill="white"/>
<path d="M88.043 4.66955C87.4346 4.42276 86.8215 4.18505 86.2039 3.95659L83.4283 11.4597C83.9681 11.6593 84.504 11.8671 85.0359 12.0829L88.043 4.66955Z" fill="white"/>
<path d="M82.4668 2.7045C81.8387 2.51553 81.2065 2.33595 80.5704 2.16592L78.5045 9.89457C79.0605 10.0432 79.613 10.2001 80.162 10.3653L82.4668 2.7045Z" fill="white"/>
<path d="M76.7312 1.26631C76.0893 1.13674 75.4439 1.01678 74.7952 0.906583L73.4554 8.7936C74.0228 8.88998 74.5872 8.99488 75.1484 9.10817L76.7312 1.26631Z" fill="white"/>
<path d="M70.8886 0.366397C70.2379 0.296769 69.5844 0.236891 68.9281 0.186913L68.3206 8.16382C68.8955 8.20759 69.4678 8.26003 70.0373 8.32098L70.8886 0.366397Z" fill="white"/>
<path d="M64.9896 0.00749545C64.6603 0.00250446 64.3305 0 64 0C63.6695 0 63.3397 0.00250462 63.0104 0.00749591L63.1316 8.00658C63.4205 8.0022 63.71 8 64 8C64.29 8 64.5795 8.0022 64.8683 8.00658L64.9896 0.00749545Z" fill="white"/>
<path d="M59.0719 0.186915C58.4156 0.236893 57.762 0.296771 57.1114 0.3664L57.9627 8.32098C58.5322 8.26003 59.1045 8.2076 59.6794 8.16382L59.0719 0.186915Z" fill="white"/>
<path d="M53.2048 0.906587C52.5561 1.01679 51.9107 1.13675 51.2687 1.26632L52.8516 9.10817C53.4128 8.99489 53.9772 8.88998 54.5446 8.7936L53.2048 0.906587Z" fill="white"/>
<path d="M47.4296 2.16593C46.7935 2.33595 46.1613 2.51553 45.5332 2.70451L47.838 10.3653C48.387 10.2001 48.9395 10.0432 49.4955 9.89458L47.4296 2.16593Z" fill="white"/>
<path d="M41.796 3.9566C41.1785 4.18505 40.5654 4.42276 39.957 4.66956L42.9641 12.0829C43.496 11.8671 44.0319 11.6593 44.5717 11.4597L41.796 3.9566Z" fill="white"/>
<path d="M36.3526 6.26337C35.7592 6.54805 35.1708 6.84161 34.5877 7.14388L38.2694 14.2464C38.7794 13.982 39.2939 13.7253 39.8128 13.4763L36.3526 6.26337Z" fill="white"/>
<path d="M31.146 9.06495C30.5818 9.40308 30.0233 9.74966 29.4706 10.1045L33.7925 16.8366C34.2762 16.526 34.765 16.2227 35.2586 15.9269L31.146 9.06495Z" fill="white"/>
<path d="M26.2205 12.3351C25.6901 12.7236 25.1659 13.12 24.6481 13.5243L29.5712 19.8301C30.0246 19.4761 30.4835 19.129 30.9478 18.7889L26.2205 12.3351Z" fill="white"/>
<path d="M21.6167 16.0443C21.1244 16.4797 20.6389 16.9226 20.1603 17.3727L25.6413 23.2001C26.0605 22.8059 26.4857 22.418 26.9168 22.0367L21.6167 16.0443Z" fill="white"/>
<path d="M17.3727 20.1603C16.9226 20.6389 16.4797 21.1244 16.0443 21.6167L22.0367 26.9168C22.418 26.4857 22.8058 26.0605 23.2001 25.6413L17.3727 20.1603Z" fill="white"/>
<path d="M13.5243 24.6481C13.12 25.1659 12.7236 25.6901 12.3351 26.2205L18.7889 30.9478C19.129 30.4835 19.4761 30.0246 19.8301 29.5712L13.5243 24.6481Z" fill="white"/>
<path d="M10.1045 29.4706C9.74966 30.0233 9.40308 30.5818 9.06494 31.146L15.9269 35.2586C16.2227 34.765 16.526 34.2763 16.8365 33.7926L10.1045 29.4706Z" fill="white"/>
<path d="M7.14387 34.5877C6.8416 35.1708 6.54804 35.7592 6.26336 36.3526L13.4763 39.8128C13.7253 39.2939 13.982 38.7794 14.2464 38.2694L7.14387 34.5877Z" fill="white"/>
<path d="M4.66955 39.957C4.42276 40.5654 4.18505 41.1785 3.95659 41.7961L11.4597 44.5717C11.6593 44.0319 11.8671 43.496 12.0829 42.9641L4.66955 39.957Z" fill="white"/>
<path d="M2.7045 45.5332C2.51553 46.1613 2.33595 46.7935 2.16592 47.4296L9.89457 49.4955C10.0432 48.9395 10.2001 48.387 10.3653 47.838L2.7045 45.5332Z" fill="white"/>
<path d="M1.26631 51.2688C1.13674 51.9107 1.01678 52.5561 0.906583 53.2048L8.7936 54.5446C8.88998 53.9772 8.99488 53.4128 9.10817 52.8516L1.26631 51.2688Z" fill="white"/>
<path d="M0.366396 57.1114C0.296769 57.7621 0.236891 58.4156 0.186913 59.0719L8.16382 59.6794C8.20759 59.1045 8.26003 58.5322 8.32098 57.9627L0.366396 57.1114Z" fill="white"/>
<path d="M0 64C0 63.6695 0.00250447 63.3397 0.00749548 63.0104L8.00658 63.1317C8.0022 63.4205 8 63.71 8 64C8 64.29 8.0022 64.5795 8.00658 64.8684L0.00749585 64.9896C0.0025046 64.6603 0 64.3305 0 64Z" fill="white"/>
<path d="M0.186915 68.9281C0.236893 69.5844 0.296771 70.238 0.3664 70.8886L8.32098 70.0373C8.26003 69.4678 8.2076 68.8955 8.16382 68.3206L0.186915 68.9281Z" fill="white"/>
<path d="M0.906588 74.7952C1.01679 75.4439 1.13675 76.0893 1.26632 76.7313L9.10817 75.1484C8.99489 74.5872 8.88998 74.0228 8.7936 73.4554L0.906588 74.7952Z" fill="white"/>
<path d="M2.16593 80.5704C2.33596 81.2065 2.51554 81.8387 2.70451 82.4668L10.3653 80.162C10.2001 79.613 10.0432 79.0605 9.89458 78.5045L2.16593 80.5704Z" fill="white"/>
<path d="M3.9566 86.2039C4.18505 86.8215 4.42276 87.4346 4.66956 88.043L12.0829 85.0359C11.8671 84.504 11.6593 83.9681 11.4597 83.4283L3.9566 86.2039Z" fill="white"/>
<path d="M6.26337 91.6474C6.54805 92.2408 6.84161 92.8292 7.14388 93.4123L14.2464 89.7306C13.982 89.2206 13.7253 88.7061 13.4763 88.1872L6.26337 91.6474Z" fill="white"/>
<path d="M9.06495 96.854C9.40308 97.4182 9.74966 97.9767 10.1045 98.5294L16.8366 94.2075C16.526 93.7237 16.2227 93.235 15.9269 92.7414L9.06495 96.854Z" fill="white"/>
<path d="M12.3351 101.78C12.7236 102.31 13.12 102.834 13.5243 103.352L19.8301 98.4288C19.4761 97.9754 19.129 97.5165 18.7889 97.0522L12.3351 101.78Z" fill="white"/>
<path d="M16.0443 106.383C16.4797 106.876 16.9226 107.361 17.3727 107.84L23.2001 102.359C22.8059 101.94 22.418 101.514 22.0367 101.083L16.0443 106.383Z" fill="white"/>
<path d="M20.1603 110.627C20.6389 111.077 21.1244 111.52 21.6167 111.956L26.9168 105.963C26.4857 105.582 26.0605 105.194 25.6413 104.8L20.1603 110.627Z" fill="white"/>
<path d="M24.6481 114.476C25.1659 114.88 25.6901 115.276 26.2205 115.665L30.9478 109.211C30.4835 108.871 30.0246 108.524 29.5712 108.17L24.6481 114.476Z" fill="white"/>
<path d="M29.4706 117.895C30.0233 118.25 30.5818 118.597 31.146 118.935L35.2586 112.073C34.765 111.777 34.2763 111.474 33.7926 111.163L29.4706 117.895Z" fill="white"/>
<path d="M34.5877 120.856C35.1708 121.158 35.7592 121.452 36.3526 121.737L39.8128 114.524C39.2939 114.275 38.7794 114.018 38.2694 113.754L34.5877 120.856Z" fill="white"/>
<path d="M39.957 123.33C40.5654 123.577 41.1785 123.815 41.7961 124.043L44.5717 116.54C44.0319 116.341 43.496 116.133 42.9641 115.917L39.957 123.33Z" fill="white"/>
<path d="M45.5332 125.296C46.1613 125.484 46.7935 125.664 47.4296 125.834L49.4955 118.105C48.9395 117.957 48.387 117.8 47.838 117.635L45.5332 125.296Z" fill="white"/>
<path d="M51.2688 126.734C51.9107 126.863 52.5561 126.983 53.2048 127.093L54.5446 119.206C53.9772 119.11 53.4128 119.005 52.8516 118.892L51.2688 126.734Z" fill="white"/>
<path d="M57.1114 127.634C57.7621 127.703 58.4156 127.763 59.0719 127.813L59.6794 119.836C59.1045 119.792 58.5322 119.74 57.9627 119.679L57.1114 127.634Z" fill="white"/>
<path d="M63.0104 127.993C63.3397 127.997 63.6695 128 64 128C64.3305 128 64.6603 127.997 64.9896 127.993L64.8684 119.993C64.5795 119.998 64.29 120 64 120C63.71 120 63.4205 119.998 63.1317 119.993L63.0104 127.993Z" fill="white"/>
<path d="M68.9281 127.813C69.5844 127.763 70.238 127.703 70.8886 127.634L70.0373 119.679C69.4678 119.74 68.8955 119.792 68.3206 119.836L68.9281 127.813Z" fill="white"/>
<path d="M74.7952 127.093C75.4439 126.983 76.0893 126.863 76.7312 126.734L75.1484 118.892C74.5872 119.005 74.0228 119.11 73.4554 119.206L74.7952 127.093Z" fill="white"/>
<path d="M80.5704 125.834C81.2065 125.664 81.8387 125.484 82.4668 125.295L80.162 117.635C79.613 117.8 79.0605 117.957 78.5045 118.105L80.5704 125.834Z" fill="white"/>
<path d="M86.204 124.043C86.8215 123.815 87.4346 123.577 88.043 123.33L85.0359 115.917C84.504 116.133 83.9681 116.341 83.4283 116.54L86.204 124.043Z" fill="white"/>
<path d="M91.6474 121.737C92.2408 121.452 92.8292 121.158 93.4123 120.856L89.7306 113.754C89.2206 114.018 88.7061 114.275 88.1872 114.524L91.6474 121.737Z" fill="white"/>
<path d="M96.854 118.935C97.4182 118.597 97.9767 118.25 98.5294 117.895L94.2075 111.163C93.7237 111.474 93.235 111.777 92.7414 112.073L96.854 118.935Z" fill="white"/>
<path d="M101.78 115.665C102.31 115.276 102.834 114.88 103.352 114.476L98.4288 108.17C97.9754 108.524 97.5165 108.871 97.0522 109.211L101.78 115.665Z" fill="white"/>
<path d="M106.383 111.956C106.876 111.52 107.361 111.077 107.84 110.627L102.359 104.8C101.94 105.194 101.514 105.582 101.083 105.963L106.383 111.956Z" fill="white"/>
<path d="M110.627 107.84C111.077 107.361 111.52 106.876 111.956 106.383L105.963 101.083C105.582 101.514 105.194 101.94 104.8 102.359L110.627 107.84Z" fill="white"/>
<path d="M114.476 103.352C114.88 102.834 115.276 102.31 115.665 101.78L109.211 97.0522C108.871 97.5165 108.524 97.9754 108.17 98.4288L114.476 103.352Z" fill="white"/>
<path d="M118.935 96.854C118.597 97.4182 118.25 97.9767 117.895 98.5294L111.163 94.2074C111.474 93.7237 111.777 93.235 112.073 92.7414L118.935 96.854Z" fill="white"/>
<path d="M120.856 93.4123C121.158 92.8292 121.452 92.2408 121.737 91.6474L114.524 88.1872C114.275 88.7061 114.018 89.2206 113.754 89.7306L120.856 93.4123Z" fill="white"/>
<path d="M123.33 88.043C123.577 87.4346 123.815 86.8215 124.043 86.2039L116.54 83.4283C116.341 83.9681 116.133 84.504 115.917 85.0359L123.33 88.043Z" fill="white"/>
<path d="M125.296 82.4668C125.484 81.8387 125.664 81.2065 125.834 80.5704L118.105 78.5045C117.957 79.0605 117.8 79.613 117.635 80.162L125.296 82.4668Z" fill="white"/>
<path d="M126.734 76.7312C126.863 76.0893 126.983 75.4439 127.093 74.7952L119.206 73.4554C119.11 74.0228 119.005 74.5872 118.892 75.1484L126.734 76.7312Z" fill="white"/>
<path d="M127.634 70.8886C127.703 70.2379 127.763 69.5844 127.813 68.9281L119.836 68.3206C119.792 68.8955 119.74 69.4678 119.679 70.0373L127.634 70.8886Z" fill="white"/>
<path d="M80.3366 55.7912L80.3223 55.7783C80.0244 55.5118 79.7255 55.2444 79.4288 54.975C77.9804 53.66 77.0065 52.0172 76.364 49.8052C76.1712 49.1408 75.4597 48.754 74.7747 48.941C74.0899 49.1283 73.6912 49.8187 73.8841 50.4832C74.649 53.1164 75.8867 55.1829 77.6688 56.8007C77.954 57.0595 78.2407 57.3162 78.5266 57.5722L78.5899 57.6288C82.1384 60.8038 85.2029 63.5459 84.2355 68.3718C83.3259 72.89 78.7984 75.8503 74.1429 74.9706C73.5277 74.8546 72.9364 74.6756 72.3721 74.4396C73.6417 72.5266 74.3932 70.1652 74.3932 67.6123C74.3932 67.6073 74.3926 67.6024 74.3925 67.5976L74.3927 67.5914C74.3928 67.5888 74.3929 67.5863 74.3929 67.5837C74.385 67.2518 74.5083 66.9434 74.7402 66.7157C74.9718 66.4881 75.2926 66.3656 75.6292 66.3679C76.3747 66.3753 76.9951 66.9702 77.0121 67.6941C77.0281 68.3746 77.6017 68.9155 78.2994 68.9155L78.3294 68.9152C79.0406 68.8995 79.6043 68.3271 79.5879 67.6369C79.5395 65.5797 77.7753 63.8889 75.6555 63.8681C74.6048 63.8577 73.6333 64.2453 72.9066 64.9592C72.1888 65.6647 71.8032 66.6027 71.817 67.6039C71.817 67.6068 71.8166 67.6095 71.8166 67.6123C71.8166 72.5948 68.3097 76.6485 63.9993 76.6485C59.6889 76.6485 56.1822 72.5948 56.1822 67.6123C56.1822 67.6096 56.1818 67.6068 56.1818 67.6039C56.1956 66.6027 55.81 65.6646 55.0922 64.9592C54.3751 64.2544 53.4147 63.8678 52.3843 63.8678L52.3434 63.8679C50.2235 63.8888 48.4593 65.5796 48.4109 67.6368C48.3945 68.327 48.958 68.8993 49.6694 68.9151L49.6994 68.9153C50.3971 68.9153 50.9707 68.3743 50.9866 67.6939C51.0038 66.9701 51.6241 66.3752 52.3697 66.3678C52.7146 66.3652 53.0271 66.4879 53.2586 66.7156C53.4905 66.9433 53.6138 67.2517 53.6059 67.5836C53.6058 67.5861 53.606 67.5887 53.6061 67.5913L53.6063 67.5974L53.6062 67.6007L53.6059 67.6048C53.6057 67.6073 53.6055 67.6097 53.6055 67.6122C53.6055 70.1651 54.3571 72.5266 55.6267 74.4396C55.062 74.676 54.4706 74.855 53.8553 74.9706C49.2002 75.8501 44.6729 72.8898 43.7635 68.3727C42.7967 63.5498 45.8576 60.8092 49.4018 57.6358L49.4361 57.6051C49.7342 57.3381 50.0333 57.0702 50.3307 56.8C54.1417 53.3384 54.6908 48.5719 55.175 44.3664C55.4924 41.611 55.7923 39.0082 56.9665 37.2361C57.7456 36.0618 59.3215 34.5 63.9997 34.5C69.7676 34.5 71.2503 36.859 71.9932 39.4081C72.1869 40.0724 72.898 40.4586 73.5836 40.2708C74.2682 40.0829 74.6662 39.3921 74.4726 38.7278C73.8406 36.5593 72.798 34.9746 71.2856 33.883C69.5296 32.616 67.1464 32 63.9997 32C59.5414 32 56.5321 33.2706 54.8 35.8844C53.2994 38.1489 52.9669 41.0343 52.6151 44.089C52.159 48.049 51.6872 52.1443 48.5705 54.9752C48.2663 55.2514 47.9604 55.5254 47.6553 55.7985C43.8889 59.1709 39.9939 62.6583 41.2353 68.8511C42.2769 74.0248 46.9688 77.6257 52.2082 77.6257C52.9135 77.6257 53.6298 77.5603 54.3472 77.4247C55.3887 77.229 56.3816 76.8966 57.3108 76.4342C59.1198 78.1266 61.4542 79.1482 63.9998 79.1482C66.5456 79.1482 68.8799 78.1266 70.689 76.4341C71.6172 76.8958 72.6097 77.2281 73.6513 77.4245C74.3698 77.5602 75.085 77.6256 75.7911 77.6256C81.0305 77.6252 85.7231 74.024 86.7648 68.8501C88.0065 62.6539 84.1074 59.1651 80.3366 55.7912Z" fill="white"/>
<path fill-rule="evenodd" clip-rule="evenodd" d="M73.9554 81.5199C74.3859 80.9998 75.0754 80.3086 76.0878 80.3086C77.1004 80.3086 77.7897 81 78.2202 81.5197C79.5541 83.1371 82.166 87.4775 82.166 90.1899C82.166 94.0042 79.1074 96 76.086 96C73.0645 96 70.006 94.0042 70.006 90.1899C70.006 87.4724 72.6215 83.1332 73.9554 81.5199C73.9551 81.52 73.9555 81.5196 73.9554 81.5199ZM72.5826 90.19C72.5826 92.4766 74.3422 93.5001 76.0862 93.5001C77.8299 93.5001 79.5896 92.4766 79.5896 90.19C79.5896 88.5697 77.7315 84.9282 76.2102 83.0837C76.1644 83.0284 76.1236 82.9824 76.088 82.9441C76.052 82.9827 76.0107 83.0294 75.9642 83.0856C74.4735 84.889 72.5826 88.5951 72.5826 90.19Z" fill="white"/>
<path fill-rule="evenodd" clip-rule="evenodd" d="M50.4542 81.5946C50.6629 81.3422 51.2983 80.5743 52.2967 80.5743C53.2951 80.5743 53.9303 81.342 54.1392 81.5945C55.1566 82.8264 57.1502 86.1472 57.1502 88.2447C57.1502 91.2915 54.7087 92.8856 52.2967 92.8856C49.8848 92.8856 47.4433 91.2915 47.4433 88.2447C47.4433 86.1472 49.4372 82.8257 50.4542 81.5946ZM50.0198 88.2447C50.0198 89.825 51.2465 90.3856 52.2967 90.3856C53.347 90.3856 54.5737 89.825 54.5737 88.2447C54.5737 87.1769 53.343 84.7309 52.2968 83.3691C51.2505 84.7309 50.0198 87.1769 50.0198 88.2447Z" fill="white"/>
<path d="M72.861 44.6203V44.6132C72.861 43.9228 73.4379 43.3633 74.1493 43.3633C74.8606 43.3633 75.4375 43.9229 75.4375 44.6133C75.4375 45.3036 74.8606 45.8668 74.1493 45.8668C73.4379 45.8668 72.861 45.3106 72.861 44.6203Z" fill="white"/>
</svg>
